<svg xmlns="http://www.w3.org/2000/svg" height="32" width="32"><path d="M20.874 17.969a4.875 4.875 0 0 1-4.875 4.875 4.875 4.875 0 0 1-4.875-4.875A4.875 4.875 0 0 1 16 13.093a4.875 4.875 0 0 1 4.875 4.876zM8.873 4.032a2.37 2.37 0 0 0-2.375 2.373v1.563H4c-2.216 0-4 1.784-4 4v12c0 2.216 1.784 4 4 4h24c2.216 0 4-1.784 4-4v-12c0-2.216-1.784-4-4-4h-2.502V6.405a2.367 2.367 0 0 0-2.373-2.373zM27.93 9.467a2.665 2.665 0 0 1 2.666 2.666 2.665 2.665 0 0 1-2.666 2.664 2.665 2.665 0 0 1-2.665-2.664 2.665 2.665 0 0 1 2.665-2.666zM16 11.218a6.75 6.75 0 0 1 6.748 6.75A6.75 6.75 0 0 1 16 24.719a6.75 6.75 0 0 1-6.75-6.751 6.75 6.75 0 0 1 6.75-6.75z" fill="#fff" paint-order="fill markers stroke"/></svg>