<svg xmlns="http://www.w3.org/2000/svg" width="64" height="64"><circle style="isolation:auto;mix-blend-mode:normal" cx="32" cy="32" r="31.5" color="#000" overflow="visible" fill="#fff" fill-opacity=".392" stroke="#fff"/><path d="M36.874 33.969a4.875 4.875 0 0 1-4.875 4.875 4.875 4.875 0 0 1-4.875-4.875 4.875 4.875 0 0 1 4.875-4.876 4.875 4.875 0 0 1 4.875 4.876zM24.873 20.032a2.37 2.37 0 0 0-2.375 2.373v1.563H20c-2.216 0-4 1.784-4 4v12c0 2.216 1.784 4 4 4h24c2.216 0 4-1.784 4-4v-12c0-2.216-1.784-4-4-4h-2.502v-1.563a2.367 2.367 0 0 0-2.373-2.373H24.873zm19.057 5.435a2.665 2.665 0 0 1 2.666 2.666 2.665 2.665 0 0 1-2.666 2.664 2.665 2.665 0 0 1-2.665-2.664 2.665 2.665 0 0 1 2.665-2.666zM32 27.218a6.75 6.75 0 0 1 6.748 6.75A6.75 6.75 0 0 1 32 40.719a6.75 6.75 0 0 1-6.75-6.751 6.75 6.75 0 0 1 6.75-6.75z" fill="#fff" paint-order="fill markers stroke"/></svg>