<svg xmlns="http://www.w3.org/2000/svg" height="64" width="64"><g transform="translate(-4076.552 -16677.578)" fill="#fff"><circle r="31.5" cy="16709.578" cx="4108.552" style="isolation:auto;mix-blend-mode:normal" color="#000" overflow="visible" fill-opacity=".392" stroke="#fff"/><path d="M4106.776 16725.495c-3.251-.39-5.708-1.408-8.185-3.395-.61-.488-1.75-1.593-2.277-2.206-1.735-2.015-2.948-4.466-3.427-6.923a17.395 17.395 0 0 1 .043-7.006c.43-2.015 1.41-4.141 2.691-5.838.777-1.029 2.123-2.416 3.094-3.188 2.789-2.217 6.086-3.354 9.721-3.354 3.82 0 7.002 1.063 9.884 3.304.666.518 2.268 2.102 2.783 2.753 1.056 1.335 1.75 2.512 2.333 3.956 1.47 3.644 1.49 8.144.052 11.831a15.333 15.333 0 0 1-2.538 4.253c-1.794 2.153-3.997 3.801-6.364 4.761-1.247.507-2.359.788-3.975 1.007-.792.108-1.108.126-2.096.121-.64 0-1.422-.04-1.74-.08zm2.579-3.868c1.816-.376 3.066-1.55 3.509-3.298.095-.374.12-.606.12-1.088 0-1.749-.543-2.946-1.708-3.762a4.282 4.282 0 0 1-.432-.331c-.042-.06-.205-1.224-.343-2.46l-.033-.294.294.04c2.953.34 5.932 1.513 9.015 3.549.28.184.545.336.587.336.103 0 .182-.164.399-.826.453-1.381.604-2.359.605-3.93 0-1.636-.154-2.646-.63-4.081-1.106-3.342-3.723-6.232-6.928-7.651-1-.443-2.142-.768-3.404-.97-.8-.127-2.919-.126-3.755 0-2.773.427-5.156 1.612-7.063 3.511-2.007 1.999-3.264 4.34-3.697 6.885-.205 1.21-.23 3.065-.055 4.205.157 1.02.618 2.661.802 2.849.058.06.187 0 .86-.43 2.634-1.662 4.918-2.663 7.226-3.167.71-.155 1.84-.332 1.878-.294.02.02-.224 2.071-.304 2.556-.027.163-.079.22-.417.457-1.077.755-1.634 1.793-1.752 3.264-.086 1.077.102 2.032.549 2.788.666 1.126 1.922 1.992 3.2 2.207.33.06 1.062.02 1.477-.06zm-1.289-1.456a3.03 3.03 0 0 1-2.144-1.629c-.335-.681-.359-1.371-.076-2.184.222-.639.557-1.087 1.066-1.425.169-.112.3-.243.339-.339.037-.09.186-1.594.35-3.511.622-7.29.659-7.674.747-7.809.107-.163.302-.168.406 0 .084.127.125.563.702 7.407.2 2.378.348 3.891.387 3.964.035.07.226.235.425.375 1.163.816 1.487 2.276.81 3.648-.35.713-.982 1.24-1.71 1.43-.366.1-1.003.136-1.302.08z"/></g></svg>