<svg xmlns="http://www.w3.org/2000/svg" width="32" height="32"><path d="M27.619 19.759v1.417c-.095.262-.013.627-.129.902-.533 4.639-4.501 8.853-9.106 9.664-.468.185-1.022.18-1.503.258H15.12c-.481-.077-1.035-.073-1.504-.258-4.965-.854-9.009-5.64-9.235-10.609v-1.46c.158-.971.358-1.98.741-2.908.389-.748.789-1.49 1.246-2.19l1.46-1.977C11.095 8.715 13.956 4.545 16.108 0l.592 1.257c1.778 4.332 4.583 8.167 7.646 11.77a17.558 17.558 0 0 0 1.074 1.418c.575.885 1.138 1.779 1.589 2.75.31.82.502 1.704.61 2.564z" fill="#fff"/></svg>