<svg xmlns="http://www.w3.org/2000/svg" height="64" width="64"><g transform="translate(102.714 -881.076)" fill="#fff"><circle r="31.5" cy="913.076" cx="-70.714" style="isolation:auto;mix-blend-mode:normal" color="#000" overflow="visible" fill-opacity=".392" stroke="#fff"/><path d="M-65.82 923.702a.97.97 0 0 1-.967.97h-7.76a.97.97 0 0 1 0-1.938h7.76c.532 0 .968.431.968.968zm-.972 1.455h-7.756a.97.97 0 0 0-.918 1.284c.129.403.536.652.96.652h.017c.561 0 1.073.317 1.322.82l.017.02a1.994 1.994 0 0 0 1.783 1.1h1.413c.757 0 1.447-.428 1.783-1.1l.017-.02c.25-.504.765-.82 1.322-.82h.017c.424 0 .831-.249.96-.652a.969.969 0 0 0-.918-1.284zm.973-3.882a.969.969 0 0 1-.968.968h-7.76a.966.966 0 1 1-.054-1.933c-.607-5.457-6.252-6.67-6.252-13.096 0-5.625 4.56-10.184 10.184-10.184 5.623 0 10.183 4.56 10.183 10.184 0 6.426-5.645 7.64-6.247 13.096a.97.97 0 0 1 .914.965z"/></g></svg>