<svg xmlns="http://www.w3.org/2000/svg" height="32" width="32"><path d="M20.85 26.67a.97.97 0 0 1-.968.97h-7.76a.97.97 0 0 1 0-1.938h7.76c.532 0 .968.431.968.968zm-.972 1.455h-7.756a.97.97 0 0 0-.919 1.284c.13.403.537.652.96.652h.018c.56 0 1.072.317 1.322.82l.016.02a1.994 1.994 0 0 0 1.783 1.1h1.414c.756 0 1.446-.428 1.783-1.1l.017-.02c.25-.504.765-.82 1.321-.82h.017c.424 0 .832-.249.96-.652a.969.969 0 0 0-.918-1.284zm.973-3.882a.969.969 0 0 1-.969.968h-7.76a.966.966 0 1 1-.054-1.933c-.607-5.457-6.251-6.67-6.251-13.096C5.817 4.557 10.377-.002 16-.002c5.624 0 10.183 4.56 10.183 10.184 0 6.426-5.644 7.64-6.247 13.096a.97.97 0 0 1 .914.965z" fill="#fff"/></svg>