<svg xmlns="http://www.w3.org/2000/svg" viewBox="0 0 8.467 8.467" height="32" width="32"><g fill="#fff"><path d="M1.08 3.562h6.306v4.905H1.081z"/><path style="line-height:normal;font-variant-ligatures:normal;font-variant-position:normal;font-variant-caps:normal;font-variant-numeric:normal;font-variant-alternates:normal;font-feature-settings:normal;text-indent:0;text-align:start;text-decoration-line:none;text-decoration-style:solid;text-decoration-color:#000;text-transform:none;text-orientation:mixed;white-space:normal;shape-padding:0;isolation:auto;mix-blend-mode:normal;solid-color:#000;solid-opacity:1" d="M4.234 0c-.808 0-1.55.432-2.039 1.125-.489.693-.758 1.636-.758 2.76a.566.566 0 101.133 0c0-.942.23-1.657.549-2.108.318-.45.691-.646 1.115-.646.424 0 .795.196 1.113.646.319.451.551 1.166.551 2.108a.566.566 0 101.131 0c0-1.124-.267-2.067-.756-2.76C5.784.432 5.042 0 4.234 0z" color="#000" font-weight="400" font-family="sans-serif" overflow="visible"/></g></svg>