<svg xmlns="http://www.w3.org/2000/svg" height="64" width="64"><circle style="isolation:auto;mix-blend-mode:normal" cx="32" cy="32" r="31.5" color="#000" overflow="visible" fill="#fff" fill-opacity=".392" stroke="#fff"/><path d="M41.786 37.228a11.07 11.07 0 0 0 1.308-5.257c0-1.886-.455-3.714-1.308-5.257m-19.572 0a11.071 11.071 0 0 0-1.308 5.257c0 1.886.455 3.714 1.308 5.257M45.2 39.285a15.188 15.188 0 0 0 1.877-7.314 15.02 15.02 0 0 0-1.878-7.314m-26.399 0a15.02 15.02 0 0 0-1.877 7.314c0 2.686.683 5.143 1.878 7.314" fill="none" stroke="#fff" stroke-width="1.846" stroke-miterlimit="10"/><path d="M32.682 23.914c1.082.114 2.049-.743 2.106-1.829.055-1.085-.74-2.057-1.82-2.114-1.082-.056-2.05.743-2.106 1.829-.055 1.085.74 2.057 1.82 2.114m-1.649.856c.398-.285.853-.456 1.365-.4.683.056 1.252.458 1.593.973l1.992 4 2.73 1.885c.228.172.399.457.342.8-.056.515-.455.857-.968.8a.8.8 0 0 1-.398-.114l-2.958-2.057c-.114-.055-.171-.172-.228-.286l-.74-1.486-.91 3.943L36.382 37c.055.114.114.285.17.457l.968 5.028v.286c-.056.743-.683 1.314-1.422 1.257a1.333 1.333 0 0 1-1.195-1.085l-.91-4.686-2.846-3.143-.682 3.029c0 .17-.228.457-.285.57l-2.73 4.63c-.285.4-.74.685-1.252.628-.74-.056-1.309-.686-1.252-1.428 0-.23.114-.458.17-.572l2.561-4.286 2.105-9.428-1.366 1.143-.739 3.37c-.114.458-.512.8-.967.744-.512-.056-.854-.457-.796-.971v-.115l.853-3.943c.055-.171.17-.342.284-.457l3.983-3.257" fill="#fff"/></svg>