<svg xmlns="http://www.w3.org/2000/svg" width="32" height="32"><path d="M25.786 21.228a11.07 11.07 0 0 0 1.308-5.257c0-1.886-.455-3.714-1.308-5.258m-19.572 0a11.071 11.071 0 0 0-1.308 5.258c0 1.886.455 3.714 1.308 5.257M29.2 23.285a15.188 15.188 0 0 0 1.877-7.314 15.02 15.02 0 0 0-1.878-7.314m-26.399 0A15.02 15.02 0 0 0 .924 15.97c0 2.686.682 5.142 1.878 7.314" fill="none" stroke="#fff" stroke-width="1.846" stroke-miterlimit="10"/><path d="M16.682 7.913c1.082.115 2.049-.742 2.106-1.828.055-1.085-.74-2.057-1.82-2.114-1.082-.056-2.05.742-2.106 1.829-.055 1.085.74 2.057 1.82 2.113m-1.649.857c.398-.285.853-.457 1.365-.4.683.056 1.252.458 1.593.972l1.992 4 2.73 1.886c.228.172.399.457.342.8-.056.514-.455.857-.968.8a.8.8 0 0 1-.398-.115l-2.958-2.056c-.114-.056-.171-.172-.228-.286l-.74-1.486-.91 3.943L20.381 21c.055.113.114.285.17.457l.968 5.028v.286c-.056.742-.683 1.314-1.422 1.257a1.333 1.333 0 0 1-1.196-1.086l-.91-4.685-2.845-3.144-.682 3.03c0 .17-.228.457-.285.57l-2.73 4.63c-.285.4-.74.685-1.252.628-.74-.056-1.309-.686-1.252-1.429 0-.229.114-.457.17-.571l2.561-4.286 2.105-9.428-1.366 1.143-.739 3.37c-.114.458-.512.8-.967.743-.512-.055-.854-.456-.796-.97v-.115l.852-3.943c.056-.172.172-.343.285-.457l3.983-3.257" fill="#fff"/></svg>