<svg xmlns="http://www.w3.org/2000/svg" width="32" height="32"><path d="M21.277 10.611c0-2.682-1.451-4.969-3.958-5.54v-.616c0-.748-.571-1.319-1.319-1.319s-1.32.571-1.32 1.32v.615c-2.506.615-3.957 2.858-3.957 5.54v4.398l-1.76 1.759v.88h14.073v-.88l-1.759-1.759zM16 20.286c.132 0 .22 0 .352-.047a1.824 1.824 0 0 0 1.275-1.055c.088-.22.132-.44.132-.703h-3.518c0 1.011.792 1.802 1.76 1.802zM2.525.626h26.95C30.873.627 32 1.74 32 3.122V21.36c0 1.382-1.126 2.495-2.526 2.495H16.871l-9.918 7.52v-7.52H2.526C1.126 23.855 0 22.742 0 21.36V3.121C.432 1.688 1.351.662 2.525.627z" fill="#fff"/></svg>