<svg xmlns="http://www.w3.org/2000/svg" height="64" width="64"><g transform="translate(-64.814 16.542)" fill="#fff"><circle r="31.5" cy="15.458" cx="96.814" style="isolation:auto;mix-blend-mode:normal" color="#000" overflow="visible" fill-opacity=".392" stroke="#fff"/><path d="M83.716 15.037a2.903 4.923 0 0 0-2.902 4.923 2.903 4.923 0 0 0 2.902 4.923h26.195a2.903 4.923 0 0 0 2.903-4.923 2.903 4.923 0 0 0-2.903-4.923 2.903 4.923 0 0 0-.015 0H83.729a2.903 4.923 0 0 0-.013 0z"/><path d="M88.345 7.263a1.876 6.781 0 0 0-1.876 6.781 1.876 6.781 0 0 0 1.876 6.782h16.934a1.876 6.781 0 0 0 1.876-6.782 1.876 6.781 0 0 0-1.876-6.78 1.876 6.781 0 0 0-.01 0H88.353a1.876 6.781 0 0 0-.008 0z" fill-opacity=".404" stroke="#fff" stroke-width="2.462"/></g></svg>