<svg xmlns="http://www.w3.org/2000/svg" width="64" height="64"><circle r="31.5" cy="32" cx="32" style="isolation:auto;mix-blend-mode:normal" color="#000" overflow="visible" fill="#fff" fill-opacity=".392" stroke="#fff"/><g color="#000"><path d="M32 16.958a2.945 2.945 0 0 0-2.95 2.95V35.95a5.94 5.94 0 0 0-2.992 5.15A5.94 5.94 0 0 0 32 47.042a5.94 5.94 0 0 0 5.941-5.942 5.94 5.94 0 0 0-2.993-5.154V19.913A2.941 2.941 0 0 0 32 16.967z" style="isolation:auto;mix-blend-mode:normal" overflow="visible" fill="none" stroke="#fff" stroke-width="1.917" stroke-linecap="round" stroke-linejoin="round"/><path style="isolation:auto;mix-blend-mode:normal" d="M29.243 29.794v6.81a5.269 5.269 0 0 0-2.515 4.492 5.269 5.269 0 0 0 5.27 5.27 5.269 5.269 0 0 0 5.27-5.27 5.269 5.269 0 0 0-2.517-4.49v-6.812z" overflow="visible" fill="#fff"/></g></svg>