<svg xmlns="http://www.w3.org/2000/svg" height="32" width="32"><g color="#000"><path style="isolation:auto;mix-blend-mode:normal;solid-color:#000;solid-opacity:1" d="M8.575.959a2.945 2.945 0 00-2.95 2.95V19.95a5.94 5.94 0 00-2.992 5.15 5.94 5.94 0 005.942 5.941 5.94 5.94 0 005.941-5.941 5.94 5.94 0 00-2.994-5.154V3.914A2.941 2.941 0 008.575.966z" overflow="visible" fill="none" stroke="#fff" stroke-width="1.917" stroke-linecap="round" stroke-linejoin="round"/><path d="M5.818 13.794v6.81a5.269 5.269 0 00-2.516 4.493 5.269 5.269 0 005.27 5.27 5.269 5.269 0 005.271-5.27 5.269 5.269 0 00-2.517-4.49v-6.813z" style="isolation:auto;mix-blend-mode:normal;solid-color:#000;solid-opacity:1" overflow="visible" fill="#fff"/></g><path d="M24.658 3.873l2.696 4.67 2.696 4.669H19.265l2.696-4.67zm0 27.124L21.96 26.33l-2.696-4.669H30.05l-2.696 4.67z" style="isolation:auto;mix-blend-mode:normal;solid-color:#000;solid-opacity:1" color="#000" overflow="visible" fill="#fff" fill-opacity=".872"/></svg>