<svg width="64" height="64" xmlns="http://www.w3.org/2000/svg" xmlns:xlink="http://www.w3.org/1999/xlink"><defs><path d="M3.266 8h-.853V1.422H.09V.665h5.5v.757H3.265V8zm8.996 0h-.853V4.548H7.546V8h-.853V.665h.853v3.12h3.863V.666h.853V8zm2.012 0V.665h.853V8h-.853zm8.595 0h-.974l-4.009-6.156h-.04c.054.722.08 1.385.08 1.987V8h-.787V.665h.963l3.999 6.13h.04c-.007-.09-.022-.38-.045-.87s-.032-.84-.025-1.05V.664h.798V8zm5.243-3.843h2.493v3.567a8.016 8.016 0 0 1-1.184.281 9.014 9.014 0 0 1-1.395.095c-1.11 0-1.975-.33-2.594-.99-.618-.661-.928-1.587-.928-2.778 0-.762.153-1.43.46-2.004a3.105 3.105 0 0 1 1.321-1.315c.576-.302 1.25-.454 2.022-.454.783 0 1.512.144 2.188.432l-.331.752c-.663-.28-1.3-.421-1.912-.421-.893 0-1.59.266-2.092.798s-.753 1.27-.753 2.212c0 .99.242 1.741.725 2.253.484.512 1.194.768 2.13.768.509 0 1.005-.059 1.49-.176V4.92h-1.64v-.762z" id="a"/></defs><g fill="#FFF" fill-rule="evenodd"><circle stroke="#FFF" fill-opacity=".392" fill-rule="nonzero" cx="32" cy="32" r="31.5"/><g transform="translate(16 28)"><use xlink:href="#a"/><use xlink:href="#a"/></g></g></svg>