<?xml version="1.0" encoding="UTF-8" standalone="no"?>
<svg
   xmlns:dc="http://purl.org/dc/elements/1.1/"
   xmlns:cc="http://creativecommons.org/ns#"
   xmlns:rdf="http://www.w3.org/1999/02/22-rdf-syntax-ns#"
   xmlns:svg="http://www.w3.org/2000/svg"
   xmlns="http://www.w3.org/2000/svg"
   width="64"
   height="64"
   viewBox="0 0 63.999999 64.000001"
   id="svg17774"
   version="1.1">
  <defs
     id="defs17776">
    <clipPath
       id="clipPath27913-1"
       clipPathUnits="userSpaceOnUse">
      <rect
         y="-16995.246"
         x="14447.59"
         height="28.019884"
         width="10.050467"
         id="rect27915-7"
         style="opacity:1;fill:#ff0000;fill-opacity:1;stroke:#ff0000;stroke-width:1;stroke-miterlimit:3.73333335;stroke-dasharray:none;stroke-opacity:1" />
    </clipPath>
  </defs>
  <metadata
     id="metadata17779">
    <rdf:RDF>
      <cc:Work
         rdf:about="">
        <dc:format>image/svg+xml</dc:format>
        <dc:type
           rdf:resource="http://purl.org/dc/dcmitype/StillImage" />
        <dc:title></dc:title>
      </cc:Work>
    </rdf:RDF>
  </metadata>
  <circle
     style="color:#000000;clip-rule:nonzero;display:inline;overflow:visible;visibility:visible;opacity:1;isolation:auto;mix-blend-mode:normal;color-interpolation:sRGB;color-interpolation-filters:linearRGB;solid-color:#000000;solid-opacity:1;fill:#ffffff;fill-opacity:0.39215686;fill-rule:nonzero;stroke:#ffffff;stroke-width:0.99999994;stroke-linecap:butt;stroke-linejoin:miter;stroke-miterlimit:4;stroke-dasharray:none;stroke-dashoffset:0;stroke-opacity:1;color-rendering:auto;image-rendering:auto;shape-rendering:auto;text-rendering:auto;enable-background:accumulate"
     id="circle16553"
     cx="32.000004"
     cy="31.999996"
     r="31.5" />
  <path
     d="m 36.874004,33.968996 a 4.875,4.875 0 0 1 -4.875,4.875 4.875,4.875 0 0 1 -4.875,-4.875 4.875,4.875 0 0 1 4.875,-4.876 4.875,4.875 0 0 1 4.875,4.876 z m -12.001,-13.937 c -1.315,0 -2.375,1.058 -2.375,2.373 l 0,1.563 -2.498,0 c -2.216,0 -4,1.784 -4,4 l 0,12 c 0,2.216 1.784,4 4,4 l 24,0 c 2.216,0 4,-1.784 4,-4 l 0,-12 c 0,-2.216 -1.784,-4 -4,-4 l -2.502,0 0,-1.563 c 0,-1.315 -1.057,-2.373 -2.373,-2.373 l -14.252,0 z m 19.057,5.435 a 2.6652915,2.6652915 0 0 1 2.666,2.666 2.6652915,2.6652915 0 0 1 -2.666,2.664 2.6652915,2.6652915 0 0 1 -2.665,-2.664 2.6652915,2.6652915 0 0 1 2.665,-2.666 z m -11.93,1.751 a 6.7500001,6.7500001 0 0 1 6.748,6.75 6.7500001,6.7500001 0 0 1 -6.748,6.751 6.7500001,6.7500001 0 0 1 -6.75,-6.751 6.7500001,6.7500001 0 0 1 6.75,-6.75 z"
     style="opacity:1;fill:#ffffff;fill-opacity:1;stroke:none;stroke-width:3.72794151;stroke-linecap:butt;stroke-linejoin:miter;stroke-miterlimit:8.80000019;stroke-dasharray:29.82352957, 14.91176477;stroke-dashoffset:0;stroke-opacity:1;paint-order:fill markers stroke"
     id="circle28864" />
</svg>
