<?xml version="1.0" encoding="UTF-8" standalone="no"?>
<svg
   xmlns:dc="http://purl.org/dc/elements/1.1/"
   xmlns:cc="http://creativecommons.org/ns#"
   xmlns:rdf="http://www.w3.org/1999/02/22-rdf-syntax-ns#"
   xmlns:svg="http://www.w3.org/2000/svg"
   xmlns="http://www.w3.org/2000/svg"
   version="1.1"
   id="svg16389"
   viewBox="0 0 32 32.000001"
   height="32"
   width="32">
  <defs
     id="defs16391" />
  <metadata
     id="metadata16394">
    <rdf:RDF>
      <cc:Work
         rdf:about="">
        <dc:format>image/svg+xml</dc:format>
        <dc:type
           rdf:resource="http://purl.org/dc/dcmitype/StillImage" />
        <dc:title></dc:title>
      </cc:Work>
    </rdf:RDF>
  </metadata>
  <g
     transform="translate(0,-1020.3622)"
     id="layer1">
    <path
       style="fill:#ffffff"
       d="m 14.224211,1052.2788 c -3.2518,-0.39 -5.7081998,-1.408 -8.1857998,-3.395 -0.6089,-0.488 -1.7495,-1.593 -2.2771,-2.206 -1.7348999,-2.015 -2.94799988,-4.466 -3.42609988,-6.923 -0.4607,-2.366 -0.4462,-4.707 0.043,-7.006 0.4292,-2.015 1.40879998,-4.141 2.69049998,-5.838 0.7767999,-1.029 2.1234999,-2.416 3.0942999,-3.188 2.7885,-2.217 6.0858998,-3.354 9.7208998,-3.354 3.8203,0 7.0013,1.063 9.8833,3.304 0.6665,0.518 2.2683,2.102 2.7836,2.753 1.0561,1.335 1.7505,2.512 2.3328,3.956 1.4695,3.644 1.4893,8.144 0.052,11.831 -0.5873,1.508 -1.4416,2.94 -2.5374,4.253 -1.795,2.153 -3.9975,3.801 -6.3643,4.761 -1.2467,0.507 -2.3588,0.788 -3.9747,1.007 -0.7929,0.108 -1.109,0.126 -2.0968,0.121 -0.6397,0 -1.4221,-0.04 -1.7388,-0.08 z m 2.5784,-3.868 c 1.8162,-0.376 3.0659,-1.55 3.5091,-3.298 0.095,-0.374 0.1207,-0.606 0.1207,-1.088 0,-1.749 -0.5438,-2.946 -1.7083,-3.762 -0.2099,-0.148 -0.4044,-0.296 -0.4321,-0.331 -0.042,-0.06 -0.2055,-1.224 -0.3433,-2.46 l -0.033,-0.294 0.2945,0.04 c 2.9525,0.34 5.9318,1.513 9.0149,3.549 0.2803,0.184 0.5444,0.336 0.587,0.336 0.1021,0 0.1812,-0.164 0.3986,-0.826 0.4533,-1.381 0.6038,-2.359 0.6051,-3.93 0,-1.636 -0.1545,-2.646 -0.6294,-4.081 -1.1068,-3.342 -3.7233,-6.232 -6.9289,-7.651 -1.0007,-0.443 -2.142,-0.768 -3.4037,-0.97 -0.7998,-0.127 -2.919,-0.126 -3.755,0 -2.7727,0.427 -5.1563998,1.612 -7.0630998,3.511 -2.0074,1.999 -3.264,4.34 -3.6967,6.885 -0.2056999,1.21 -0.2299999,3.065 -0.055,4.205 0.1563,1.02 0.6179,2.661 0.8013,2.849 0.058,0.06 0.1878,0 0.8601,-0.43 2.6345,-1.662 4.9183,-2.663 7.2258998,-3.167 0.7113,-0.155 1.84,-0.332 1.8781,-0.294 0.02,0.02 -0.2239,2.071 -0.3037,2.556 -0.027,0.163 -0.079,0.22 -0.4166,0.457 -1.0775,0.755 -1.6348,1.793 -1.7525,3.264 -0.086,1.077 0.1016,2.032 0.5491,2.788 0.6658,1.126 1.9222,1.992 3.1998,2.207 0.331,0.06 1.062,0.02 1.477,-0.06 z m -1.2886,-1.456 c -0.9112,-0.164 -1.7308,-0.786 -2.1445,-1.629 -0.3346,-0.681 -0.3587,-1.371 -0.076,-2.184 0.2223,-0.639 0.5575,-1.087 1.0658,-1.425 0.1692,-0.112 0.3002,-0.243 0.3394,-0.339 0.037,-0.09 0.1864,-1.594 0.3499,-3.511 0.6219,-7.29 0.6587,-7.674 0.747,-7.809 0.107,-0.163 0.3019,-0.168 0.4057,0 0.084,0.127 0.1249,0.563 0.702,7.407 0.2004,2.378 0.3482,3.891 0.3871,3.964 0.035,0.07 0.2261,0.235 0.4256,0.375 1.1625,0.816 1.4867,2.276 0.8103,3.648 -0.3515,0.713 -0.9822,1.24 -1.7113,1.43 -0.3657,0.1 -1.0024,0.136 -1.301,0.08 z"
       id="path16380" />
  </g>
</svg>
