<?xml version="1.0" encoding="UTF-8" standalone="no"?>
<svg
   xmlns:dc="http://purl.org/dc/elements/1.1/"
   xmlns:cc="http://creativecommons.org/ns#"
   xmlns:rdf="http://www.w3.org/1999/02/22-rdf-syntax-ns#"
   xmlns:svg="http://www.w3.org/2000/svg"
   xmlns="http://www.w3.org/2000/svg"
   id="svg23301"
   version="1.1"
   viewBox="0 0 8.4666665 8.4666669"
   height="32"
   width="32">
  <defs
     id="defs23295" />
  <metadata
     id="metadata23298">
    <rdf:RDF>
      <cc:Work
         rdf:about="">
        <dc:format>image/svg+xml</dc:format>
        <dc:type
           rdf:resource="http://purl.org/dc/dcmitype/StillImage" />
        <dc:title></dc:title>
      </cc:Work>
    </rdf:RDF>
  </metadata>
  <g
     transform="translate(0,-288.53332)"
     id="layer1">
    <g
       transform="translate(0.35910689,0.13694331)"
       id="g23876">
      <path
         style="fill:#ffffff;fill-opacity:1;stroke:none;stroke-width:0.38572526"
         d="M 0.72157824,291.95883 H 7.0268742 v 4.90412 H 0.72157824 Z"
         id="rect18394-6-5" />
      <path
         style="color:#000000;font-style:normal;font-variant:normal;font-weight:normal;font-stretch:normal;font-size:medium;line-height:normal;font-family:sans-serif;font-variant-ligatures:normal;font-variant-position:normal;font-variant-caps:normal;font-variant-numeric:normal;font-variant-alternates:normal;font-feature-settings:normal;text-indent:0;text-align:start;text-decoration:none;text-decoration-line:none;text-decoration-style:solid;text-decoration-color:#000000;letter-spacing:normal;word-spacing:normal;text-transform:none;writing-mode:lr-tb;direction:ltr;text-orientation:mixed;dominant-baseline:auto;baseline-shift:baseline;text-anchor:start;white-space:normal;shape-padding:0;clip-rule:nonzero;display:inline;overflow:visible;visibility:visible;opacity:1;isolation:auto;mix-blend-mode:normal;color-interpolation:sRGB;color-interpolation-filters:linearRGB;solid-color:#000000;solid-opacity:1;vector-effect:none;fill:#ffffff;fill-opacity:1;fill-rule:nonzero;stroke:none;stroke-width:1.1315335;stroke-linecap:round;stroke-linejoin:miter;stroke-miterlimit:4;stroke-dasharray:none;stroke-dashoffset:0;stroke-opacity:1;color-rendering:auto;image-rendering:auto;shape-rendering:auto;text-rendering:auto;enable-background:accumulate"
         d="m 3.875,288.39648 c -0.8077714,0 -1.5501666,0.43232 -2.0390625,1.125 -0.4888959,0.69269 -0.7578125,1.63568 -0.7578125,2.75977 a 0.56640625,0.56640625 0 1 0 1.1328125,0 c 0,-0.94182 0.2306706,-1.65665 0.5488281,-2.10742 0.3181575,-0.45078 0.6915262,-0.64649 1.1152344,-0.64649 0.4237082,0 0.7951237,0.19571 1.1132812,0.64649 0.3181576,0.45077 0.5507813,1.1656 0.5507813,2.10742 a 0.56582333,0.56582333 0 1 0 1.1308594,0 c 0,-1.12409 -0.2669635,-2.06708 -0.7558594,-2.75977 -0.4888959,-0.69268 -1.2312911,-1.125 -2.0390625,-1.125 z"
         id="path18396-4-3" />
    </g>
  </g>
</svg>
