<?xml version="1.0" encoding="UTF-8" standalone="no"?>
<svg
   xmlns:dc="http://purl.org/dc/elements/1.1/"
   xmlns:cc="http://creativecommons.org/ns#"
   xmlns:rdf="http://www.w3.org/1999/02/22-rdf-syntax-ns#"
   xmlns:svg="http://www.w3.org/2000/svg"
   xmlns="http://www.w3.org/2000/svg"
   version="1.1"
   id="svg17774"
   viewBox="0 0 63.999999 64.000001"
   height="64"
   width="64">
  <defs
     id="defs17776" />
  <metadata
     id="metadata17779">
    <rdf:RDF>
      <cc:Work
         rdf:about="">
        <dc:format>image/svg+xml</dc:format>
        <dc:type
           rdf:resource="http://purl.org/dc/dcmitype/StillImage" />
        <dc:title></dc:title>
      </cc:Work>
    </rdf:RDF>
  </metadata>
  <circle
     style="color:#000000;clip-rule:nonzero;display:inline;overflow:visible;visibility:visible;opacity:1;isolation:auto;mix-blend-mode:normal;color-interpolation:sRGB;color-interpolation-filters:linearRGB;solid-color:#000000;solid-opacity:1;fill:#ffffff;fill-opacity:0.39215686;fill-rule:nonzero;stroke:#ffffff;stroke-width:0.99999994;stroke-linecap:butt;stroke-linejoin:miter;stroke-miterlimit:4;stroke-dasharray:none;stroke-dashoffset:0;stroke-opacity:1;color-rendering:auto;image-rendering:auto;shape-rendering:auto;text-rendering:auto;enable-background:accumulate"
     id="circle11505"
     cx="31.999954"
     cy="31.999828"
     r="31.5" />
  <path
     style="fill:none;stroke:#ffffff;stroke-width:1.84615386;stroke-miterlimit:10;stroke-opacity:1"
     id="path35704-6"
     d="m 41.785816,37.228076 c 0.853538,-1.6 1.308308,-3.371077 1.308308,-5.257231 0,-1.885538 -0.45477,-3.713846 -1.308308,-5.257231" />
  <path
     style="fill:none;stroke:#ffffff;stroke-width:1.84615386;stroke-miterlimit:10;stroke-opacity:1"
     id="path35706-7"
     d="m 22.214124,26.713614 c -0.853539,1.6 -1.308308,3.371693 -1.308308,5.257231 0,1.886154 0.454769,3.714462 1.308308,5.257231" />
  <path
     style="fill:none;stroke:#ffffff;stroke-width:1.84615386;stroke-miterlimit:10;stroke-opacity:1"
     id="path35708-5"
     d="m 45.199355,39.285307 c 1.195076,-2.171693 1.877538,-4.685539 1.877538,-7.314462 0,-2.685538 -0.682462,-5.142769 -1.877538,-7.313846" />
  <path
     style="fill:none;stroke:#ffffff;stroke-width:1.84615386;stroke-miterlimit:10;stroke-opacity:1"
     id="path35710-3"
     d="m 18.800585,24.656999 c -1.195077,2.171077 -1.877538,4.628308 -1.877538,7.313846 0,2.686154 0.682461,5.142769 1.877538,7.314462" />
  <path
     style="fill:#ffffff;stroke-width:0.61538458"
     id="path35712-5"
     d="m 32.682431,23.913614 c 1.081231,0.114462 2.048616,-0.742769 2.105231,-1.828307 0.05539,-1.085539 -0.739692,-2.057231 -1.820308,-2.114462 -1.08123,-0.05539 -2.048615,0.742769 -2.10523,1.828923 -0.05539,1.085539 0.739692,2.057231 1.820307,2.113846" />
  <path
     style="fill:#ffffff;stroke-width:0.61538458"
     id="path35714-6"
     d="m 31.032585,24.770845 c 0.398154,-0.285538 0.853539,-0.457231 1.365539,-0.4 0.683077,0.05539 1.251692,0.457231 1.59323,0.971692 l 1.991385,4 2.730462,1.885539 c 0.227692,0.171692 0.398769,0.457231 0.341538,0.8 -0.05539,0.514461 -0.454769,0.857231 -0.967385,0.8 -0.170461,0 -0.284307,-0.05539 -0.398153,-0.114462 l -2.958154,-2.056615 c -0.113846,-0.05538 -0.171077,-0.171692 -0.227693,-0.286154 l -0.739692,-1.485538 -0.910154,3.942769 3.527385,4.171692 c 0.05539,0.113846 0.113846,0.285539 0.170461,0.457231 l 0.967385,5.028308 c 0,0.114461 0,0.171692 0,0.285538 -0.05538,0.742769 -0.683077,1.314462 -1.422154,1.257231 -0.625846,-0.05539 -1.081231,-0.514462 -1.195077,-1.085539 l -0.910154,-4.685538 -2.844923,-3.143385 -0.682461,3.028923 c 0,0.171077 -0.227693,0.457231 -0.284923,0.571077 l -2.730462,4.628923 c -0.284923,0.4 -0.739692,0.685539 -1.251692,0.628308 -0.739692,-0.05538 -1.308923,-0.685538 -1.251692,-1.428308 0,-0.228923 0.113846,-0.45723 0.170461,-0.571692 l 2.560615,-4.285538 2.104616,-9.428308 -1.365539,1.142769 -0.739077,3.371077 c -0.113846,0.457231 -0.512615,0.8 -0.967384,0.742769 -0.512,-0.05538 -0.853539,-0.456615 -0.796308,-0.971077 0,-0.05538 0,-0.05538 0,-0.114461 l 0.852923,-3.942769 c 0.05539,-0.171693 0.171077,-0.34277 0.284923,-0.457231 l 3.982154,-3.257231" />
</svg>
