<?xml version="1.0" encoding="UTF-8" standalone="no"?>
<svg
   xmlns:dc="http://purl.org/dc/elements/1.1/"
   xmlns:cc="http://creativecommons.org/ns#"
   xmlns:rdf="http://www.w3.org/1999/02/22-rdf-syntax-ns#"
   xmlns:svg="http://www.w3.org/2000/svg"
   xmlns="http://www.w3.org/2000/svg"
   width="32"
   height="32"
   viewBox="0 0 32 32.000001"
   id="svg44089"
   version="1.1">
  <defs
     id="defs44091" />
  <metadata
     id="metadata44094">
    <rdf:RDF>
      <cc:Work
         rdf:about="">
        <dc:format>image/svg+xml</dc:format>
        <dc:type
           rdf:resource="http://purl.org/dc/dcmitype/StillImage" />
        <dc:title></dc:title>
      </cc:Work>
    </rdf:RDF>
  </metadata>
  <g
     transform="translate(4.305035,30.310421)"
     id="g13792">
    <path
       style="fill:none;stroke:#ffffff;stroke-width:1.84615386;stroke-miterlimit:10;stroke-opacity:1"
       id="path35803"
       d="m 21.480761,-9.082543 c 0.853539,-1.6 1.308308,-3.371077 1.308308,-5.257231 0,-1.885538 -0.454769,-3.713846 -1.308308,-5.25723" />
    <path
       style="fill:none;stroke:#ffffff;stroke-width:1.84615386;stroke-miterlimit:10;stroke-opacity:1"
       id="path35805"
       d="m 1.909069,-19.597004 c -0.8535384,1.6 -1.30830766,3.371692 -1.30830766,5.25723 0,1.886154 0.45476926,3.714462 1.30830766,5.257231" />
    <path
       style="fill:none;stroke:#ffffff;stroke-width:1.84615386;stroke-miterlimit:10;stroke-opacity:1"
       id="path35807"
       d="m 24.8943,-7.0253122 c 1.195077,-2.1716923 1.877538,-4.6855388 1.877538,-7.3144618 0,-2.685538 -0.682461,-5.142769 -1.877538,-7.313846" />
    <path
       style="fill:none;stroke:#ffffff;stroke-width:1.84615386;stroke-miterlimit:10;stroke-opacity:1"
       id="path35809"
       d="m -1.5044694,-21.65362 c -1.1950769,2.171077 -1.8775385,4.628308 -1.8775385,7.313846 0,2.686154 0.6824616,5.1427695 1.8775385,7.3144618" />
    <path
       style="fill:#ffffff;fill-opacity:1;stroke-width:0.61538458"
       id="path35811"
       d="m 12.377377,-22.397004 c 1.081231,0.114461 2.048615,-0.74277 2.105231,-1.828308 0.05538,-1.085539 -0.739693,-2.057231 -1.820308,-2.114462 -1.081231,-0.05538 -2.048615,0.74277 -2.105231,1.828923 -0.05538,1.085539 0.739692,2.057231 1.820308,2.113847" />
    <path
       style="fill:#ffffff;fill-opacity:1;stroke-width:0.61538458"
       id="path35813"
       d="m 10.727531,-21.539774 c 0.398154,-0.285538 0.853538,-0.45723 1.365538,-0.4 0.683077,0.05539 1.251692,0.457231 1.593231,0.971693 l 1.991385,4 2.730461,1.885538 c 0.227692,0.171692 0.398769,0.457231 0.341538,0.8 -0.05538,0.514462 -0.454769,0.857231 -0.967384,0.8 -0.170462,0 -0.284308,-0.05539 -0.398154,-0.114461 L 14.425992,-15.65362 C 14.312146,-15.709 14.254915,-15.825312 14.1983,-15.939774 l -0.739692,-1.485538 -0.910154,3.942769 3.527384,4.1716923 c 0.05538,0.1138462 0.113847,0.2855385 0.170462,0.4572308 l 0.967385,5.0283076 c 0,0.1144615 0,0.1716923 0,0.2855385 -0.05539,0.7427692 -0.683077,1.3144615 -1.422154,1.2572307 -0.625846,-0.055385 -1.081231,-0.5144615 -1.195077,-1.0855384 L 13.6863,-8.0536199 10.841377,-11.197005 10.158915,-8.1680815 c 0,0.171077 -0.227692,0.4572308 -0.2849227,0.5710769 l -2.7304616,4.6289231 c -0.284923,0.4 -0.7396923,0.6855384 -1.2516925,0.6283077 -0.7396923,-0.055385 -1.3089231,-0.6855385 -1.2516923,-1.4283077 0,-0.2289231 0.1138462,-0.4572308 0.1704615,-0.5716923 L 7.3712231,-8.6253122 9.4758384,-18.05362 8.1103,-16.910851 7.3712231,-13.539774 c -0.1138462,0.457231 -0.5126154,0.8 -0.9673847,0.742769 -0.5120002,-0.05538 -0.8535387,-0.456615 -0.7963079,-0.971076 0,-0.05538 0,-0.05538 0,-0.114462 l 0.8529233,-3.942769 c 0.055385,-0.171692 0.1710769,-0.342769 0.2849231,-0.457231 l 3.9821541,-3.257231" />
  </g>
</svg>
