<?xml version="1.0" encoding="UTF-8" standalone="no"?>
<svg
   xmlns:dc="http://purl.org/dc/elements/1.1/"
   xmlns:cc="http://creativecommons.org/ns#"
   xmlns:rdf="http://www.w3.org/1999/02/22-rdf-syntax-ns#"
   xmlns:svg="http://www.w3.org/2000/svg"
   xmlns="http://www.w3.org/2000/svg"
   width="32"
   height="32"
   viewBox="0 0 32 32.000001"
   id="svg16389"
   version="1.1">
  <defs
     id="defs16391" />
  <metadata
     id="metadata16394">
    <rdf:RDF>
      <cc:Work
         rdf:about="">
        <dc:format>image/svg+xml</dc:format>
        <dc:type
           rdf:resource="http://purl.org/dc/dcmitype/StillImage" />
        <dc:title></dc:title>
      </cc:Work>
    </rdf:RDF>
  </metadata>
  <path
     d="m 21.277133,10.611335 c 0,-2.6819999 -1.451266,-4.9693332 -3.9578,-5.5406666 V 4.4553351 c 0,-0.748 -0.571666,-1.3193333 -1.3192,-1.3193333 -0.747733,0 -1.3194,0.5713333 -1.3194,1.3193333 v 0.6153333 c -2.506533,0.6153334 -3.9578,2.8586667 -3.9578,5.5406666 v 4.398 l -1.7590001,1.758667 v 0.879333 H 23.036133 v -0.879333 l -1.759066,-1.758667 z m -5.277,9.674667 c 0.131867,0 0.2198,0 0.351734,-0.04667 0.571666,-0.132 1.0554,-0.527333 1.275266,-1.055333 0.08787,-0.22 0.131934,-0.439333 0.131934,-0.703333 h -3.518134 c 0,1.011333 0.7916,1.802666 1.7592,1.802666 z M 2.5246669,0.62666845 H 29.474133 C 30.873533,0.62666845 32,1.7393351 32,3.1213351 V 21.359335 c 0,1.382 -1.126467,2.494667 -2.525867,2.494667 h -12.6034 l -9.9177331,7.519333 v -7.519333 h -4.427 c -1.3994,0 -2.5260000167265,-1.112667 -2.5260000167265,-2.494667 V 3.1213352 C 0.43159988,1.6880018 1.3511999,0.66200185 2.5246669,0.62666845 Z"
     style="fill:#ffffff;fill-opacity:1;stroke-width:0.357301"
     id="path14222-7" />
</svg>
