<?xml version="1.0" encoding="UTF-8" standalone="no"?>
<svg
   xmlns:dc="http://purl.org/dc/elements/1.1/"
   xmlns:cc="http://creativecommons.org/ns#"
   xmlns:rdf="http://www.w3.org/1999/02/22-rdf-syntax-ns#"
   xmlns:svg="http://www.w3.org/2000/svg"
   xmlns="http://www.w3.org/2000/svg"
   version="1.1"
   id="svg17774"
   viewBox="0 0 63.999999 64.000001"
   height="64"
   width="64">
  <defs
     id="defs17776" />
  <metadata
     id="metadata17779">
    <rdf:RDF>
      <cc:Work
         rdf:about="">
        <dc:format>image/svg+xml</dc:format>
        <dc:type
           rdf:resource="http://purl.org/dc/dcmitype/StillImage" />
        <dc:title></dc:title>
      </cc:Work>
    </rdf:RDF>
  </metadata>
  <g
     transform="translate(-64.813583,16.542296)"
     id="g15647">
    <circle
       r="31.5"
       cy="15.457704"
       cx="96.813583"
       id="circle12671"
       style="color:#000000;clip-rule:nonzero;display:inline;overflow:visible;visibility:visible;opacity:1;isolation:auto;mix-blend-mode:normal;color-interpolation:sRGB;color-interpolation-filters:linearRGB;solid-color:#000000;solid-opacity:1;fill:#ffffff;fill-opacity:0.39215686;fill-rule:nonzero;stroke:#ffffff;stroke-width:0.99999994;stroke-linecap:butt;stroke-linejoin:miter;stroke-miterlimit:4;stroke-dasharray:none;stroke-dashoffset:0;stroke-opacity:1;color-rendering:auto;image-rendering:auto;shape-rendering:auto;text-rendering:auto;enable-background:accumulate" />
    <g
       id="g15641">
      <path
         id="rect12538-5"
         d="m 83.716258,15.03678 a 2.9026516,4.9233408 0 0 0 -2.902646,4.923077 2.9026516,4.9233408 0 0 0 2.902646,4.923077 v 0 h 26.194712 v 0 a 2.9026516,4.9233408 0 0 0 2.90264,-4.923077 2.9026516,4.9233408 0 0 0 -2.90264,-4.923077 2.9026516,4.9233408 0 0 0 -0.0154,0 H 83.728504 a 2.9026516,4.9233408 0 0 0 -0.01231,0 z"
         style="opacity:1;fill:#ffffff;fill-opacity:1;stroke:none;stroke-width:2.46153855;stroke-miterlimit:4;stroke-dasharray:none;stroke-opacity:1" />
      <path
         style="opacity:1;fill:#ffffff;fill-opacity:0.40392157;stroke:#ffffff;stroke-width:2.46153855;stroke-miterlimit:4;stroke-dasharray:none;stroke-opacity:1"
         d="m 88.345058,7.2632411 a 1.8764093,6.7811754 0 0 0 -1.876369,6.7809229 1.8764093,6.7811754 0 0 0 1.876369,6.781539 v 0 h 16.933482 v 0 a 1.8764093,6.7811754 0 0 0 1.87643,-6.781539 1.8764093,6.7811754 0 0 0 -1.87643,-6.7809229 1.8764093,6.7811754 0 0 0 -0.01,0 H 88.35312 a 1.8764093,6.7811754 0 0 0 -0.008,0 z"
         id="path12553-6" />
    </g>
  </g>
</svg>
