<?xml version="1.0" encoding="UTF-8" standalone="no"?>
<svg
   xmlns:dc="http://purl.org/dc/elements/1.1/"
   xmlns:cc="http://creativecommons.org/ns#"
   xmlns:rdf="http://www.w3.org/1999/02/22-rdf-syntax-ns#"
   xmlns:svg="http://www.w3.org/2000/svg"
   xmlns="http://www.w3.org/2000/svg"
   version="1.1"
   id="svg16389"
   viewBox="0 0 32 32.000001"
   height="32"
   width="32">
  <defs
     id="defs16391" />
  <metadata
     id="metadata16394">
    <rdf:RDF>
      <cc:Work
         rdf:about="">
        <dc:format>image/svg+xml</dc:format>
        <dc:type
           rdf:resource="http://purl.org/dc/dcmitype/StillImage" />
        <dc:title></dc:title>
      </cc:Work>
    </rdf:RDF>
  </metadata>
  <g
     transform="translate(1.25e-7,0.0847406)"
     id="g29091">
    <path
       style="opacity:1;vector-effect:none;fill:#ffffff;fill-opacity:1;stroke:none;stroke-width:0.33936134;stroke-linecap:butt;stroke-linejoin:miter;stroke-miterlimit:4;stroke-dasharray:none;stroke-dashoffset:0;stroke-opacity:1;paint-order:fill markers stroke"
       d="m 2.1343278,16.820127 2.1328125,7.917969 H 27.733937 l 2.132813,-7.917969 z m 4,1.978516 H 11.51714 v 3.958984 H 6.1343278 Z m 7.1757812,0 h 5.382812 v 3.958984 h -5.382812 z m 7.171875,0 h 5.382812 v 3.958984 h -5.382812 z"
       id="rect25027-7-8" />
    <path
       style="opacity:1;vector-effect:none;fill:#ffffff;fill-opacity:1;stroke:none;stroke-width:0.33936134;stroke-linecap:butt;stroke-linejoin:miter;stroke-miterlimit:4;stroke-dasharray:none;stroke-dashoffset:0;stroke-opacity:1;paint-order:fill markers stroke"
       d="M 2.9090905,5.1121868 H 29.090909 C 30.702545,5.1121868 32,6.8778275 32,9.0710224 v 3.9588366 c 0,2.193195 -1.297455,3.958836 -2.909091,3.958836 H 2.9090905 C 1.2974542,16.988695 -2.5e-7,15.223054 -2.5e-7,13.029859 V 9.0710224 c 0,-2.1931949 1.29745445,-3.9588356 2.90909075,-3.9588356 z"
       id="rect25023-9-0" />
    <path
       style="opacity:1;vector-effect:none;fill:#ffffff;fill-opacity:1;stroke:none;stroke-width:0.33936134;stroke-linecap:butt;stroke-linejoin:miter;stroke-miterlimit:4;stroke-dasharray:none;stroke-dashoffset:0;stroke-opacity:1;paint-order:fill markers stroke"
       d="M 7.1747157,22.759111 H 24.823197 c 1.611637,0 2.909091,0.882906 2.909091,1.979611 0,1.096704 -1.297454,1.97961 -2.909091,1.97961 H 7.1747157 c -1.6116363,0 -2.9090908,-0.882906 -2.9090908,-1.97961 0,-1.096705 1.2974545,-1.979611 2.9090908,-1.979611 z"
       id="rect25047-6-4" />
  </g>
</svg>
