<?xml version="1.0" encoding="UTF-8" standalone="no"?>
<svg
   xmlns:dc="http://purl.org/dc/elements/1.1/"
   xmlns:cc="http://creativecommons.org/ns#"
   xmlns:rdf="http://www.w3.org/1999/02/22-rdf-syntax-ns#"
   xmlns:svg="http://www.w3.org/2000/svg"
   xmlns="http://www.w3.org/2000/svg"
   version="1.1"
   id="svg16389"
   viewBox="0 0 32 32.000001"
   height="32"
   width="32">
  <defs
     id="defs16391" />
  <metadata
     id="metadata16394">
    <rdf:RDF>
      <cc:Work
         rdf:about="">
        <dc:format>image/svg+xml</dc:format>
        <dc:type
           rdf:resource="http://purl.org/dc/dcmitype/StillImage" />
        <dc:title></dc:title>
      </cc:Work>
    </rdf:RDF>
  </metadata>
  <g
     transform="translate(-72.995167,17.143887)"
     id="g38978">
    <path
       id="path38544-6"
       d="m 88.99477,-16.185213 c -1.632966,0 -2.949689,1.316723 -2.949689,2.949689 V 2.7491425 2.8066413 A 5.9409494,5.9409494 0 0 0 83.053227,7.9566173 5.9409494,5.9409494 0 0 0 88.99477,13.89816 5.9409494,5.9409494 0 0 0 94.936313,7.9566173 5.9409494,5.9409494 0 0 0 91.942542,2.8028081 V 2.6494779 -13.229774 c 0,-1.632966 -1.314806,-2.947772 -2.947772,-2.947772 z"
       style="color:#000000;clip-rule:nonzero;display:inline;overflow:visible;visibility:visible;opacity:1;isolation:auto;mix-blend-mode:normal;color-interpolation:sRGB;color-interpolation-filters:linearRGB;solid-color:#000000;solid-opacity:1;fill:none;fill-opacity:1;fill-rule:nonzero;stroke:#ffffff;stroke-width:1.91662669;stroke-linecap:round;stroke-linejoin:round;stroke-miterlimit:4;stroke-dasharray:none;stroke-dashoffset:0;stroke-opacity:1;color-rendering:auto;image-rendering:auto;shape-rendering:auto;text-rendering:auto;enable-background:accumulate" />
    <path
       style="color:#000000;clip-rule:nonzero;display:inline;overflow:visible;visibility:visible;opacity:1;isolation:auto;mix-blend-mode:normal;color-interpolation:sRGB;color-interpolation-filters:linearRGB;solid-color:#000000;solid-opacity:1;fill:#ffffff;fill-opacity:1;fill-rule:nonzero;stroke:none;stroke-width:0.58973014;stroke-linecap:round;stroke-linejoin:round;stroke-miterlimit:4;stroke-dasharray:none;stroke-dashoffset:0;stroke-opacity:1;color-rendering:auto;image-rendering:auto;shape-rendering:auto;text-rendering:auto;enable-background:accumulate"
       d="m 86.238281,-3.3496094 v 6.8105469 a 5.2690291,5.2690291 0 0 0 -2.515625,4.4921875 5.2690291,5.2690291 0 0 0 5.269532,5.269531 5.2690291,5.2690291 0 0 0 5.271484,-5.269531 5.2690291,5.2690291 0 0 0 -2.517578,-4.4902344 v -6.8125 z"
       id="path38546-3" />
  </g>
</svg>
