<?xml version="1.0" encoding="UTF-8"?>
<svg width="64px" height="64px" viewBox="0 0 64 64" version="1.1" xmlns="http://www.w3.org/2000/svg" xmlns:xlink="http://www.w3.org/1999/xlink">
    <!-- Generator: Sketch 50.2 (55047) - http://www.bohemiancoding.com/sketch -->
    <title>thing</title>
    <desc>Created with Sketch.</desc>
    <defs>
        <path d="M3.26622753,8 L2.41329561,8 L2.41329561,1.42238972 L0.0903104386,1.42238972 L0.0903104386,0.66478549 L5.5892127,0.66478549 L5.5892127,1.42238972 L3.26622753,1.42238972 L3.26622753,8 Z M12.2621507,8 L11.4092187,8 L11.4092187,4.54813435 L7.54593887,4.54813435 L7.54593887,8 L6.69300695,8 L6.69300695,0.66478549 L7.54593887,0.66478549 L7.54593887,3.78551287 L11.4092187,3.78551287 L11.4092187,0.66478549 L12.2621507,0.66478549 L12.2621507,8 Z M14.2740665,8 L14.2740665,0.66478549 L15.1269985,0.66478549 L15.1269985,8 L14.2740665,8 Z M22.8686099,8 L21.8952641,8 L17.8864841,1.84383844 L17.8463461,1.84383844 C17.8998637,2.56632556 17.9266221,3.22859549 17.9266221,3.83066809 L17.9266221,8 L17.1389143,8 L17.1389143,0.66478549 L18.1022257,0.66478549 L22.1009712,6.79586082 L22.1411092,6.79586082 C22.1344195,6.70554993 22.1193679,6.41538874 22.095954,5.92536854 C22.07254,5.43534834 22.064178,5.08498079 22.0708677,4.87425538 L22.0708677,0.66478549 L22.8686099,0.66478549 L22.8686099,8 Z M28.1116326,4.15678911 L30.6052042,4.15678911 L30.6052042,7.72405144 C30.2172018,7.84781081 29.8225157,7.94146514 29.421134,8.00501725 C29.0197523,8.06856935 28.5548254,8.10034493 28.0263394,8.10034493 C26.91585,8.10034493 26.0512198,7.77004617 25.4324229,7.10943873 C24.8136261,6.44883129 24.5042323,5.52315856 24.5042323,4.33239274 C24.5042323,3.56976745 24.6572568,2.90164413 24.9633104,2.32800273 C25.269364,1.75436134 25.7100411,1.31619285 26.2853549,1.01348413 C26.8606687,0.710775403 27.5346454,0.559423312 28.3073052,0.559423312 C29.0899996,0.559423312 29.8191655,0.703249609 30.4948248,0.990906518 L30.1636865,1.74349351 C29.5014066,1.46252629 28.8642227,1.32204479 28.2521155,1.32204479 C27.3590412,1.32204479 26.6616509,1.5879562 26.1599237,2.119787 C25.6581965,2.6516178 25.4073367,3.38914567 25.4073367,4.33239274 C25.4073367,5.32246769 25.6489983,6.07337475 26.1323288,6.58513646 C26.6156594,7.09689817 27.3255926,7.35277519 28.26215,7.35277519 C28.7705669,7.35277519 29.2672693,7.29424123 29.7522723,7.17717156 L29.7522723,4.9194106 L28.1116326,4.9194106 L28.1116326,4.15678911 Z" id="path-1"></path>
    </defs>
    <g id="Page-1" stroke="none" stroke-width="1" fill="none" fill-rule="evenodd">
        <g id="thing" fill="#FFFFFF">
            <circle id="circle16624" stroke="#FFFFFF" stroke-width="0.99999994" fill-opacity="0.39215686" fill-rule="nonzero" cx="32" cy="31.99984" r="31.5"></circle>
            <g id="text97661-0-1-1" transform="translate(16.000000, 28.000000)">
                <g id="tspan97663-5-6-8">
                    <use xlink:href="#path-1"></use>
                    <use xlink:href="#path-1"></use>
                </g>
            </g>
        </g>
    </g>
</svg>