<?xml version="1.0" encoding="UTF-8" standalone="no"?>
<svg
   xmlns:dc="http://purl.org/dc/elements/1.1/"
   xmlns:cc="http://creativecommons.org/ns#"
   xmlns:rdf="http://www.w3.org/1999/02/22-rdf-syntax-ns#"
   xmlns:svg="http://www.w3.org/2000/svg"
   xmlns="http://www.w3.org/2000/svg"
   version="1.1"
   id="svg16389"
   viewBox="0 0 32 32.000001"
   height="32"
   width="32">
  <defs
     id="defs16391" />
  <metadata
     id="metadata16394">
    <rdf:RDF>
      <cc:Work
         rdf:about="">
        <dc:format>image/svg+xml</dc:format>
        <dc:type
           rdf:resource="http://purl.org/dc/dcmitype/StillImage" />
        <dc:title></dc:title>
      </cc:Work>
    </rdf:RDF>
  </metadata>
  <g
     transform="translate(0,-1020.3622)"
     id="layer1">
    <path
       id="path16349"
       d="m 20.8505,1047.0327 c 0,0.536 -0.4362,0.969 -0.9683,0.969 l -7.7602,0 c -0.5362,0 -0.9684,-0.436 -0.9684,-0.969 0,-0.537 0.4364,-0.968 0.9684,-0.968 l 7.7602,0 c 0.5321,0 0.9683,0.431 0.9683,0.968 z m -0.9725,1.455 -7.756,0 c -0.6401,0 -1.1305,0.616 -0.9186,1.284 0.1287,0.403 0.5362,0.652 0.9604,0.652 l 0.017,0 c 0.5611,0 1.0723,0.317 1.3217,0.819 l 0.017,0.02 c 0.3366,0.673 1.0266,1.101 1.783,1.101 l 1.4134,0 c 0.7564,0 1.4464,-0.428 1.783,-1.101 l 0.017,-0.02 c 0.2492,-0.503 0.7646,-0.819 1.3215,-0.819 l 0.017,0 c 0.4241,0 0.8316,-0.249 0.9602,-0.652 0.2162,-0.668 -0.2782,-1.284 -0.9185,-1.284 z m 0.9725,-3.882 c 0,0.536 -0.4362,0.968 -0.9683,0.968 l -7.7602,0 c -0.5362,0 -0.9684,-0.437 -0.9684,-0.968 0,-0.517 0.4031,-0.936 0.9144,-0.965 -0.6069,-5.457 -6.2514,-6.67 -6.2514,-13.096 0,-5.625 4.5597,-10.184 10.1835,-10.184 5.6236,0 10.1833,4.559 10.1833,10.184 0,6.426 -5.6446,7.639 -6.2473,13.096 0.5071,0.03 0.9144,0.448 0.9144,0.965 z"
       style="fill:#ffffff" />
  </g>
</svg>
