<?xml version="1.0" encoding="UTF-8" standalone="no"?>
<svg
   xmlns:dc="http://purl.org/dc/elements/1.1/"
   xmlns:cc="http://creativecommons.org/ns#"
   xmlns:rdf="http://www.w3.org/1999/02/22-rdf-syntax-ns#"
   xmlns:svg="http://www.w3.org/2000/svg"
   xmlns="http://www.w3.org/2000/svg"
   id="svg12403"
   version="1.1"
   viewBox="0 0 8.4666665 8.4666669"
   height="32"
   width="32">
  <defs
     id="defs12397" />
  <metadata
     id="metadata12400">
    <rdf:RDF>
      <cc:Work
         rdf:about="">
        <dc:format>image/svg+xml</dc:format>
        <dc:type
           rdf:resource="http://purl.org/dc/dcmitype/StillImage" />
        <dc:title></dc:title>
      </cc:Work>
    </rdf:RDF>
  </metadata>
  <g
     transform="translate(0,-288.53332)"
     id="layer1">
    <path
       style="fill:#ffffff;stroke-width:0.17638887"
       class="st1"
       d="m 6.8384559,292.22392 c 0,-1.32427 -0.7164035,-2.45316 -1.9538421,-2.73538 v -0.30394 c 0,-0.36906 -0.2822222,-0.65128 -0.6512807,-0.65128 -0.3690584,0 -0.6512807,0.28222 -0.6512807,0.65128 v 0.30394 c -1.2374386,0.30394 -1.9538597,1.41111 -1.9538597,2.73538 v 2.17095 l -0.8683625,0.86836 v 0.4342 H 7.706836 v -0.4342 l -0.8683801,-0.86836 z m -2.6051228,4.77607 c 0.065123,0 0.1085498,0 0.1736725,-0.0217 0.2822223,-0.0651 0.5210175,-0.26051 0.6295673,-0.52102 0.043427,-0.10855 0.065123,-0.2171 0.065123,-0.34734 H 3.364953 c 0,0.4993 0.3907719,0.89007 0.8683801,0.89007 z"
       id="path21750" />
  </g>
</svg>
