<?xml version="1.0" encoding="UTF-8"?>
<svg width="31px" height="31px" viewBox="0 0 31 31" version="1.1" xmlns="http://www.w3.org/2000/svg" xmlns:xlink="http://www.w3.org/1999/xlink">
    <!-- Generator: Sketch 50.2 (55047) - http://www.bohemiancoding.com/sketch -->
    <title>thing</title>
    <desc>Created with Sketch.</desc>
    <defs>
        <path d="M3.36565906,19.1582607 L2.51548227,19.1582607 L2.51548227,12.6018973 L0.200000763,12.6018973 L0.200000763,11.8467403 L5.68114057,11.8467403 L5.68114057,12.6018973 L3.36565906,12.6018973 L3.36565906,19.1582607 Z M12.3325237,19.1582607 L11.4823469,19.1582607 L11.4823469,15.7175452 L7.63154615,15.7175452 L7.63154615,19.1582607 L6.78136936,19.1582607 L6.78136936,11.8467403 L7.63154615,11.8467403 L7.63154615,14.9573872 L11.4823469,14.9573872 L11.4823469,11.8467403 L12.3325237,11.8467403 L12.3325237,19.1582607 Z M14.3379407,19.1582607 L14.3379407,11.8467403 L15.1881175,11.8467403 L15.1881175,19.1582607 L14.3379407,19.1582607 Z M22.9047222,19.1582607 L21.9345205,19.1582607 L17.9386895,13.0219847 L17.8986812,13.0219847 C17.9520259,13.7421381 17.9786978,14.4022687 17.9786978,15.0023965 L17.9786978,19.1582607 L17.1935346,19.1582607 L17.1935346,11.8467403 L18.1537342,11.8467403 L22.1395631,17.9580111 L22.1795714,17.9580111 C22.1729033,17.867992 22.1579004,17.5787681 22.1345621,17.0903307 C22.1112238,16.6018934 22.1028888,16.2526576 22.1095569,16.0426128 L22.1095569,11.8467403 L22.9047222,11.8467403 L22.9047222,19.1582607 Z M28.130809,15.3274641 L30.6163258,15.3274641 L30.6163258,18.8832035 C30.2295768,19.0065631 29.8361656,19.099915 29.4360804,19.1632618 C29.0359952,19.2266086 28.5725701,19.2582815 28.0457913,19.2582815 C26.9388889,19.2582815 26.0770516,18.9290497 25.4602536,18.2705761 C24.8434556,17.6121026 24.5350612,16.6894199 24.5350612,15.5025005 C24.5350612,14.7423386 24.6875914,14.0763735 24.9926564,13.5045851 C25.2977214,12.9327966 25.736975,12.4960435 26.3104304,12.1943126 C26.8838859,11.8925817 27.5556855,11.7417185 28.3258495,11.7417185 C29.1060157,11.7417185 29.8328262,11.8850802 30.506303,12.1718079 L30.1762343,12.9219639 C29.5160937,12.6419043 28.880968,12.5018765 28.2708381,12.5018765 C27.3806485,12.5018765 26.6855109,12.766929 26.1854044,13.2970419 C25.6852979,13.8271548 25.4352484,14.5623003 25.4352484,15.5025005 C25.4352484,16.4893773 25.6761294,17.2378588 26.1578987,17.7479675 C26.639668,18.2580761 27.347308,18.5131266 28.2808402,18.5131266 C28.7876148,18.5131266 29.2827128,18.4547817 29.766149,18.3380902 L29.766149,16.0876222 L28.130809,16.0876222 L28.130809,15.3274641 Z" id="path-1"></path>
    </defs>
    <g id="Page-1" stroke="none" stroke-width="1" fill="none" fill-rule="evenodd">
        <g id="thing">
            <g id="tspan16387" fill="#FFFFFF">
                <use xlink:href="#path-1"></use>
                <use xlink:href="#path-1"></use>
            </g>
        </g>
    </g>
</svg>
