<svg xmlns="http://www.w3.org/2000/svg" height="32" width="32"><path d="M14.224 31.917c-3.252-.39-5.708-1.408-8.186-3.395-.608-.488-1.75-1.593-2.277-2.206C2.026 24.3.813 21.85.335 19.393a17.395 17.395 0 0 1 .043-7.006c.43-2.015 1.409-4.141 2.69-5.838.778-1.03 2.124-2.416 3.095-3.188C8.952 1.144 12.249.007 15.883.007c3.821 0 7.002 1.063 9.884 3.304.667.518 2.269 2.102 2.784 2.753 1.056 1.335 1.75 2.512 2.333 3.956 1.47 3.644 1.489 8.144.052 11.83a15.333 15.333 0 0 1-2.538 4.254c-1.795 2.153-3.997 3.8-6.364 4.76-1.247.508-2.359.789-3.975 1.008-.793.108-1.109.126-2.097.12-.64 0-1.422-.04-1.738-.08zm2.579-3.868c1.816-.376 3.066-1.55 3.509-3.298.095-.374.12-.606.12-1.088 0-1.75-.543-2.946-1.708-3.762a4.282 4.282 0 0 1-.432-.331c-.042-.06-.205-1.224-.343-2.46l-.033-.294.294.04c2.953.34 5.932 1.513 9.015 3.549.28.184.545.336.587.336.102 0 .181-.164.399-.826.453-1.381.604-2.36.605-3.93 0-1.636-.155-2.646-.63-4.081-1.106-3.342-3.723-6.232-6.928-7.651-1.001-.443-2.142-.768-3.404-.97-.8-.127-2.92-.126-3.755 0-2.773.427-5.157 1.612-7.063 3.51-2.008 2-3.264 4.34-3.697 6.886-.206 1.21-.23 3.065-.055 4.205.156 1.02.618 2.66.801 2.849.058.06.188 0 .86-.43 2.635-1.662 4.919-2.663 7.226-3.167.712-.155 1.84-.332 1.878-.294.02.02-.223 2.07-.303 2.556-.027.163-.08.22-.417.457-1.077.755-1.635 1.793-1.752 3.264-.086 1.077.101 2.032.549 2.788.666 1.126 1.922 1.992 3.2 2.207.33.06 1.062.02 1.477-.06zm-1.289-1.456a3.03 3.03 0 0 1-2.144-1.63c-.335-.68-.36-1.37-.076-2.183.222-.64.557-1.087 1.065-1.425.17-.112.3-.243.34-.34.037-.09.186-1.593.35-3.51.622-7.29.658-7.674.747-7.81.107-.162.302-.167.405 0 .084.128.125.564.702 7.408.2 2.378.349 3.89.387 3.964.035.07.227.235.426.375 1.163.816 1.487 2.276.81 3.648-.351.713-.982 1.24-1.711 1.43-.366.1-1.002.136-1.301.08z" fill="#fff"/></svg>