<svg width="31" height="31" xmlns="http://www.w3.org/2000/svg" xmlns:xlink="http://www.w3.org/1999/xlink"><defs><path d="M3.366 19.158h-.85v-6.556H.2v-.755h5.481v.755H3.366v6.556zm8.967 0h-.85v-3.44H7.631v3.44h-.85v-7.311h.85v3.11h3.85v-3.11h.85v7.311zm2.005 0v-7.311h.85v7.311h-.85zm8.567 0h-.97l-3.996-6.136h-.04c.053.72.08 1.38.08 1.98v4.156h-.785v-7.311h.96l3.986 6.111h.04c-.007-.09-.022-.38-.045-.868a15.055 15.055 0 0 1-.025-1.047v-4.196h.795v7.311zm5.226-3.83h2.485v3.555a7.99 7.99 0 0 1-1.18.28c-.4.064-.863.095-1.39.095-1.107 0-1.969-.329-2.586-.987-.617-.659-.925-1.582-.925-2.768 0-.76.153-1.427.458-1.998a3.095 3.095 0 0 1 1.317-1.31c.574-.302 1.246-.453 2.016-.453a5.5 5.5 0 0 1 2.18.43l-.33.75c-.66-.28-1.295-.42-1.905-.42-.89 0-1.585.265-2.086.795-.5.53-.75 1.265-.75 2.206 0 .986.241 1.735.723 2.245s1.19.765 2.123.765c.507 0 1.002-.058 1.485-.175v-2.25h-1.635v-.76z" id="a"/></defs><g fill="#FFF" fill-rule="evenodd"><use xlink:href="#a"/><use xlink:href="#a"/></g></svg>