<svg xmlns="http://www.w3.org/2000/svg" height="64" width="64"><path d="M35.865.495C30.983 1.513 28.58 3.39 28.58 6.137c0 1.32.588 1.98 2.58 2.947 2.455 1.17 2.737 2.49.717 3.505-.766.41-1.789.459-9.737.459-7.718 0-8.92.058-9.25.405-.359.332-.41 1.576-.41 9.578 0 10.266 0 10.343-1.61 10.343-1.15 0-1.329-.177-2.197-2.109-.64-1.423-.946-1.777-1.714-2.11-.818-.331-1.048-.331-2.274.02-1.558.434-2.428 1.296-3.374 3.353-1.354 2.924-1.686 6.607-.87 9.683.818 3.15 2.326 5.107 4.37 5.638 1.892.51 2.684-.02 3.962-2.615.743-1.526.792-1.576 1.866-1.653 1.048-.078 1.099-.058 1.585 1.016.46 1.019.51 1.703.51 9.885 0 7.265.06 8.866.358 9.096.256.23 2.9-.372 9.724-.42 8.279-.078 8.729-.213 9.47-.628 1.629-1.117 1.273-2.38-.585-3.13-1.443-.84-2.77-1.545-2.927-3.465.345-3.116 1.898-3.58 3.535-4.487 3.294-.914 4.198-1.141 6.532-1.13 2.23-.04 4.06.485 5.846 1.626 1.088.609 3.943 3.85 2.76 5.537-1.184 1.686-1.86 1.162-3.506 2.398-.918.69-1.062 2.02.522 2.858 1.1.56 1.116.497 9.933.497 5.342 0 8.404.522 8.814.367l.664-.255-.08-9.325c-.08-8.459-.348-8.224-.784-9.214-.618-1.31-.364-1.392-1.87-1.516-1.178.28-1.652 1.585-2.726 3.718-.906.997-3.216.613-3.216.613-4.008-1.336-4.338-6.824-4.474-9.568 1.344-8.908 4.114-8.714 5.358-9.114.932-.3 2.226.372 2.792 1.218.552.827 1.052 3.602 2.528 3.177 1.372 0 2.046-.46 2.046-4.005l.398-6.639c.4-6.693-.08-9.121-.308-9.348-.23-.23-2.684-.305-9.456-.305-7.565 0-9.303-.078-9.89-.381-1.839-.94-1.175-2.922 1.227-3.632 1.278-.405 2.326-1.601 2.326-2.669-.02-1.929-1.432-3.657-3.86-4.724C41.713.69 37.727.107 35.861.487z" fill="#fff"/></svg>