<svg xmlns="http://www.w3.org/2000/svg" height="32" width="32"><path d="M9.887.005L8.84 2.576l-.375.924-1.414 3.495h.092l.046.04 6.115 9.63h.046l.75 1.299h1.534l.748-1.299v-.08l6.033-9.498.099-.09h.11L21.21 3.503l-.374-.925L19.79.007l-1.123 2.757-.301.738-1.044 2.583h-.83l-.733-.29h-1.986l-.714.283h-.733l-1.044-2.583-.301-.738L9.859 0zM10.5 13.57l1.351 11.609-2.858.87-.035-.03L7.655 32l4.697-2.183v.03l.074-.153 5.07-.454v-.04l6.158-1.554-5.398-.91 5.476.916 1.145-1.959h.071l-.58-2.668-3.779 2.096 3.756-2.098.085-.04h-.035l-1.192-.992-1.24-1.063h-.035l-3.188-2.654.547-4.7-4.427 6.286-4.428-6.286z" style="isolation:auto;mix-blend-mode:normal" color="#000" overflow="visible" fill="#fff"/></svg>