<svg xmlns="http://www.w3.org/2000/svg" height="64" width="64"><path d="M32 0c-4.083 5.427-10.978 8.145-17.796 8.145-3.525 0-7.03-.726-10.114-2.181.346 9.162 1.027 18.448 2.56 27.496.782 4.96 1.55 10.808 4.266 15.147 2.387 4.178 6.089 7.597 10.062 10.244a44.436 44.436 0 0 0 9.72 4.871c.545.194.96.278 1.343.278.663 0 1.227-.253 2.198-.624 7.859-3.018 16.295-8.567 19.765-16.546 3.122-7.1 3.81-15.535 4.611-23.162.62-5.881 1.07-11.793 1.295-17.704-3.084 1.455-6.59 2.183-10.114 2.183C42.978 8.147 36.084 5.427 32 0zm11.535 19.213a2.754 2.754 0 0 1 2.198 4.52l-16.33 20.041a2.754 2.754 0 0 1-4.125.164l-6.842-7.156a2.754 2.754 0 1 1 3.98-3.807l4.685 4.9 14.36-17.62a2.754 2.754 0 0 1 2.074-1.043z" fill="#fff"/></svg>