<svg xmlns="http://www.w3.org/2000/svg" height="32" width="32"><g style="line-height:125%"><path style="-inkscape-font-specification:'Open Sans Bold';text-align:center" d="M6.735 15.9q0-1.025.55-1.55.548-.525 1.598-.525 1.013 0 1.563.537.561.537.561 1.538 0 .964-.561 1.526-.562.55-1.563.55-1.025 0-1.587-.538-.561-.55-.561-1.538zm7.129 0q0-1.025.55-1.55.548-.525 1.598-.525 1.013 0 1.563.537.561.537.561 1.538 0 .964-.561 1.526-.562.55-1.563.55-1.025 0-1.587-.538-.561-.55-.561-1.538zm7.129 0q0-1.025.549-1.55.55-.525 1.6-.525 1.012 0 1.562.537.561.537.561 1.538 0 .964-.561 1.526-.562.55-1.563.55-1.025 0-1.587-.538-.561-.55-.561-1.538z" font-weight="700" font-size="25" font-family="Open Sans" letter-spacing="0" word-spacing="0" fill="#fff" text-anchor="middle"/></g></svg>