<svg xmlns="http://www.w3.org/2000/svg" height="64" width="64"><path d="M41.7 53.336a1.939 1.939 0 0 1-1.937 1.937H24.245a1.939 1.939 0 0 1-1.936-1.937c0-1.072.872-1.936 1.936-1.936h15.518a1.932 1.932 0 0 1 1.937 1.936zm-1.945 2.91h-15.51c-1.28 0-2.26 1.23-1.837 2.568.258.806 1.073 1.305 1.92 1.305h.033c1.122 0 2.145.631 2.643 1.637l.017.041A3.988 3.988 0 0 0 30.587 64h2.826a3.988 3.988 0 0 0 3.566-2.203l.017-.04a2.955 2.955 0 0 1 2.643-1.638h.033c.848 0 1.662-.499 1.92-1.305a1.937 1.937 0 0 0-1.837-2.569zm1.945-7.764a1.939 1.939 0 0 1-1.937 1.937H24.245a1.933 1.933 0 1 1-.108-3.865c-1.213-10.913-12.5-13.34-12.5-26.19C11.636 9.118 20.753 0 32 0c11.246 0 20.364 9.118 20.364 20.364 0 12.85-11.288 15.277-12.493 26.19a1.939 1.939 0 0 1 1.829 1.928z" fill="#fff"/></svg>