<svg xmlns="http://www.w3.org/2000/svg" height="112" width="112"><g transform="matrix(2 0 0 2 8440.54 -532.696)" fill="#fff"><circle r="28" cy="294.348" cx="-4192.27" style="isolation:auto;mix-blend-mode:normal" color="#000" overflow="visible" fill-opacity=".196"/><g style="line-height:125%"><path d="M-4201.334 296.409q.92 0 1.392 1.465.943 2.747 1.344 2.747.307 0 .637-.458 6.627-10.302 12.264-16.667 1.462-1.648 4.646-1.648.755 0 1.014.137.26.138.26.344 0 .32-.778 1.26-9.104 10.622-16.887 22.435-.543.824-2.217.824-1.698 0-2.005-.137-.802-.344-1.887-3.503-1.226-3.503-1.226-4.396 0-.961 1.65-1.854 1.015-.55 1.793-.55z" style="-inkscape-font-specification:'Open Sans'" font-family="Open Sans" font-weight="400" font-size="47.589" letter-spacing="0" word-spacing="0"/></g></g></svg>