<svg xmlns="http://www.w3.org/2000/svg" viewBox="0 0 16.933 16.933" height="64" width="64"><path style="isolation:auto;mix-blend-mode:normal;solid-color:#000;solid-opacity:1" d="M0 1.75v13.433h16.933V1.75zm2.23 2.31h.67v.346c0 .095.021.171.048.171h.53c.026 0 .048-.076.048-.171V4.06h.687v.346c0 .095.022.171.049.171h.529c.026 0 .048-.076.048-.171V4.06h.688v.346c0 .095.021.171.048.171h.529c.027 0 .049-.076.049-.171V4.06h.688v.346c0 .095.02.171.048.171h.528c.027 0 .049-.076.049-.171V4.06h.688v.346c0 .095.021.171.048.171h.529c.026 0 .048-.076.048-.171V4.06h.688v.346c0 .095.021.171.048.171h.53c.026 0 .048-.076.048-.171V4.06h.688v.346c0 .095.02.171.048.171h.529c.026 0 .048-.076.048-.171V4.06h.688v.346c0 .095.021.171.048.171h.529c.027 0 .049-.076.049-.171V4.06h.687v.346c0 .095.022.171.049.171h.528c.027 0 .049-.076.049-.171V4.06h.67c.633 0 1.143.51 1.143 1.142V9.73a1.14 1.14 0 0 1-1.143 1.142h-3.98v.86a1.14 1.14 0 0 1-1.142 1.143h-2.23a1.14 1.14 0 0 1-1.141-1.142v-.86H2.23A1.14 1.14 0 0 1 1.087 9.73V5.202c0-.633.51-1.142 1.143-1.142z" color="#000" overflow="visible" fill="#fff"/></svg>