<svg xmlns="http://www.w3.org/2000/svg" height="100" width="100"><g color="#000" fill="none"><path style="isolation:auto;mix-blend-mode:normal" overflow="visible" d="M0 0h100v100H0z"/><path style="isolation:auto;mix-blend-mode:normal" overflow="visible" stroke="#fff" stroke-width=".326" stroke-linecap="round" stroke-linejoin="round" stroke-miterlimit="8.8" stroke-dasharray="1.30524509,2.61049018" d="M20.163 20.163h59.674v59.674H20.163z"/></g><g fill="#fff"><g style="line-height:125%"><path d="M25.924 46.115q-.468 0-.74.312-.27.311-.27.853 0 .557.26.862.263.303.746.303.298 0 .678-.107v.29q-.295.11-.728.11-.627 0-.97-.38-.339-.38-.339-1.082 0-.439.163-.769.165-.33.474-.509.31-.178.73-.178.447 0 .78.163l-.139.283q-.322-.151-.645-.151zm1.568 2.585h-.323v-3.022h.323V48.7zm1.009 0h-.322v-2.13h.322v2.13zm-.35-2.706q0-.11.055-.16.055-.053.136-.053.078 0 .134.052.056.053.056.161 0 .11-.056.164-.056.052-.134.052-.081 0-.136-.052-.054-.055-.054-.164zm1.889 2.744q-.463 0-.717-.283-.253-.286-.253-.806 0-.534.257-.825.258-.292.734-.292.153 0 .307.033.153.033.24.078l-.099.274q-.106-.043-.233-.07-.126-.03-.223-.03-.649 0-.649.828 0 .392.158.602.159.21.47.21.266 0 .545-.115v.286q-.213.11-.538.11zm1.363-1.128q.083-.118.254-.31l.688-.729h.382l-.862.907.922 1.222h-.39l-.752-1.006-.242.21v.796h-.319v-3.022h.319v1.602q0 .107-.016.33h.016zm9.69.862q.086 0 .165-.011.08-.014.126-.027v.246q-.052.025-.155.041-.1.017-.182.017-.618 0-.618-.65v-1.266h-.305v-.156l.305-.134.136-.454h.186v.493h.618v.25h-.618v1.253q0 .193.092.295.09.103.25.103zm2.556-.839q0 .52-.262.814-.263.291-.725.291-.285 0-.507-.134-.221-.134-.341-.384-.12-.25-.12-.587 0-.52.26-.81.26-.29.722-.29.446 0 .709.296.264.298.264.804zm-1.622 0q0 .408.163.622.163.213.48.213.317 0 .48-.211.165-.214.165-.624 0-.405-.165-.615-.163-.212-.484-.212-.316 0-.478.208-.16.208-.16.62zm3.521-1.062v1.38q0 .261.118.39.119.127.371.127.334 0 .488-.182.155-.183.155-.596v-1.12h.323v2.13h-.266l-.047-.286h-.018q-.099.157-.275.24-.175.084-.4.084-.389 0-.583-.184-.192-.185-.192-.59V46.57h.326zm3.127 2.167q-.208 0-.381-.075-.17-.078-.287-.237h-.024q.024.186.024.353v.876h-.323v-3.084h.262l.045.291h.016q.124-.174.289-.252.165-.078.379-.078.423 0 .652.29.231.29.231.811 0 .525-.235.816-.233.29-.648.29zm-.047-1.932q-.326 0-.472.18-.146.181-.15.576v.071q0 .449.15.643.15.192.48.192.276 0 .43-.223.158-.223.158-.615 0-.399-.157-.61-.155-.214-.439-.214zm1.818 1.894h-.323v-3.022h.323V48.7zm2.524-1.067q0 .52-.262.814-.262.291-.724.291-.286 0-.507-.134-.222-.134-.342-.384-.12-.25-.12-.587 0-.52.26-.81.26-.29.722-.29.447 0 .71.296.263.298.263.804zm-1.621 0q0 .408.163.622.163.213.48.213.316 0 .48-.211.164-.214.164-.624 0-.405-.165-.615-.163-.212-.483-.212-.317 0-.478.208-.161.208-.161.62zm3.493 1.067l-.064-.303h-.015q-.16.2-.319.272-.157.07-.394.07-.317 0-.497-.164-.179-.163-.179-.464 0-.645 1.031-.676l.362-.011v-.132q0-.25-.11-.37-.106-.12-.343-.12-.266 0-.602.163l-.099-.246q.157-.086.344-.134.188-.049.377-.049.38 0 .563.17.184.168.184.541V48.7h-.239zm-.728-.228q.301 0 .472-.165.173-.165.173-.462v-.192l-.323.013q-.384.014-.555.12-.169.106-.169.33 0 .174.105.265.107.091.297.091zm3.082-.058h-.017q-.224.324-.669.324-.417 0-.65-.285-.231-.286-.231-.812t.233-.817q.233-.292.648-.292.434 0 .665.315h.025l-.014-.153-.008-.15v-.866h.323V48.7h-.262l-.043-.286zm-.645.055q.33 0 .478-.18.15-.18.15-.58v-.068q0-.452-.152-.645-.15-.194-.48-.194-.283 0-.435.222-.15.22-.15.621 0 .408.15.616.15.208.44.208zm3.628-1.647h-.542V48.7h-.322v-1.878h-.38v-.146l.38-.116v-.119q0-.784.685-.784.17 0 .396.067l-.083.259q-.187-.06-.319-.06-.182 0-.27.122-.087.12-.087.388v.138h.542v.25zm.71 1.878h-.322v-3.022h.323V48.7zm2.521-1.067q0 .52-.262.814-.262.291-.724.291-.286 0-.507-.134-.221-.134-.342-.384-.12-.25-.12-.587 0-.52.26-.81.26-.29.722-.29.447 0 .71.296.263.298.263.804zm-1.621 0q0 .408.163.622.163.213.48.213.316 0 .48-.211.164-.214.164-.624 0-.405-.165-.615-.163-.212-.483-.212-.317 0-.478.208-.161.208-.161.62zm4.021 0q0 .52-.262.814-.262.291-.724.291-.285 0-.507-.134-.221-.134-.342-.384-.12-.25-.12-.587 0-.52.26-.81.26-.29.723-.29.446 0 .708.296.265.298.265.804zm-1.621 0q0 .408.163.622.163.213.48.213.316 0 .48-.211.165-.214.165-.624 0-.405-.166-.615-.163-.212-.483-.212-.317 0-.478.208-.161.208-.161.62zm3.156-1.101q.142 0 .254.024l-.045.299q-.132-.03-.233-.03-.258 0-.442.21-.183.21-.183.523V48.7h-.322v-2.13h.266l.037.394h.015q.119-.207.286-.32.167-.113.367-.113zm1.643 2.206q-.208 0-.381-.075-.17-.078-.287-.237h-.024q.024.186.024.353v.876h-.323v-3.084h.262l.045.291h.016q.124-.174.289-.252.165-.078.379-.078.423 0 .652.29.231.29.231.811 0 .525-.235.816-.233.29-.648.29zm-.047-1.932q-.326 0-.472.18-.145.181-.15.576v.071q0 .449.15.643.15.192.48.192.276 0 .43-.223.158-.223.158-.615 0-.399-.157-.61-.155-.214-.439-.214zm1.818 1.894h-.323v-3.022h.323V48.7zm1.996 0l-.064-.303h-.016q-.159.2-.318.272-.157.07-.394.07-.317 0-.497-.164-.179-.163-.179-.464 0-.645 1.031-.676l.361-.011v-.132q0-.25-.108-.37-.107-.12-.344-.12-.266 0-.602.163l-.1-.246q.158-.086.345-.134.188-.049.376-.049.38 0 .563.17.185.168.185.541V48.7h-.239zm-.728-.228q.3 0 .472-.165.173-.165.173-.462v-.192l-.323.013q-.384.014-.555.12-.17.106-.17.33 0 .174.106.265.107.091.297.091zm3.09.228v-1.377q0-.26-.119-.389-.118-.128-.37-.128-.335 0-.49.18-.156.181-.156.597V48.7h-.322v-2.13h.262l.053.291h.015q.1-.157.278-.242.179-.088.398-.088.385 0 .579.187.194.184.194.592v1.39h-.322zm-42.883 4.971l-.064-.303h-.016q-.159.2-.318.272-.158.07-.394.07-.317 0-.498-.163-.178-.163-.178-.464 0-.645 1.03-.676l.362-.012v-.132q0-.25-.109-.369-.106-.12-.343-.12-.266 0-.602.163l-.1-.247q.158-.085.344-.134.189-.048.377-.048.38 0 .563.169.185.169.185.541v1.453h-.24zm-.728-.227q.3 0 .472-.165t.172-.462v-.193l-.322.014q-.385.014-.555.12-.17.105-.17.329 0 .174.105.266.107.09.298.09zm3.089.227v-1.377q0-.26-.118-.388-.119-.128-.371-.128-.334 0-.49.18-.155.18-.155.596v1.117h-.322v-2.128h.262l.052.29h.016q.099-.156.278-.242.178-.087.398-.087.384 0 .578.186.195.185.195.593v1.388h-.323zm2.432-.285h-.018q-.223.324-.668.324-.417 0-.65-.286-.232-.285-.232-.811 0-.527.233-.818.234-.291.65-.291.432 0 .663.314h.026l-.014-.153-.008-.15v-.866h.322v3.022h-.262l-.042-.285zm-.645.054q.33 0 .478-.179.15-.18.15-.58v-.068q0-.453-.152-.645-.15-.194-.48-.194-.284 0-.435.221-.15.22-.15.622 0 .407.15.615.15.208.439.208zm3.658.27q-.207 0-.38-.076-.17-.078-.287-.237h-.024q.024.187.024.354v.875h-.323v-3.083h.262l.045.29h.016q.124-.174.289-.252.165-.077.379-.077.423 0 .652.29.231.289.231.81 0 .525-.235.817-.233.289-.648.289zm-.046-1.932q-.326 0-.472.18-.146.18-.15.575v.072q0 .448.15.643.15.192.48.192.275 0 .43-.223.158-.224.158-.616 0-.398-.157-.61-.156-.213-.439-.213zm3.332.827q0 .52-.262.814-.262.29-.724.29-.286 0-.507-.133-.221-.134-.342-.385-.12-.25-.12-.586 0-.52.26-.81.26-.291.722-.291.447 0 .71.297.263.297.263.804zm-1.621 0q0 .408.163.621.163.214.48.214.316 0 .48-.212.164-.213.164-.623 0-.406-.165-.616-.163-.211-.483-.211-.317 0-.478.207-.161.208-.161.62zm3.558.485q0 .298-.222.459-.221.16-.621.16-.424 0-.66-.133v-.3q.153.079.328.123.176.045.34.045.252 0 .388-.08.136-.081.136-.246 0-.125-.109-.212-.107-.09-.42-.21-.297-.11-.423-.192-.124-.084-.186-.188-.06-.105-.06-.251 0-.26.211-.41.212-.151.581-.151.344 0 .672.14l-.115.262q-.32-.132-.58-.132-.23 0-.346.072-.117.071-.117.198 0 .085.043.145.045.06.142.115.097.054.373.157.378.138.51.278.135.14.135.351zm.844.581h-.322v-2.128h.322v2.128zm-.35-2.705q0-.11.055-.161.055-.053.136-.053.078 0 .134.053.056.052.056.16 0 .11-.056.164-.056.052-.134.052-.081 0-.136-.052-.054-.054-.054-.163zm1.725 2.478q.086 0 .165-.012.08-.013.127-.027v.247q-.053.025-.156.04-.1.018-.182.018-.618 0-.618-.65v-1.267h-.305v-.155l.305-.134.136-.455h.186v.494h.618v.25h-.618v1.253q0 .192.092.295.091.103.25.103zm1.041.227h-.322v-2.128h.322v2.128zm-.35-2.705q0-.11.055-.161.054-.053.136-.053.078 0 .134.053.056.052.056.16 0 .11-.056.164-.056.052-.134.052-.082 0-.136-.052-.054-.054-.054-.163zm2.875 1.639q0 .52-.262.814-.263.29-.725.29-.285 0-.507-.133-.221-.134-.341-.385-.12-.25-.12-.586 0-.52.26-.81.26-.291.722-.291.446 0 .709.297.264.297.264.804zm-1.622 0q0 .408.163.621.163.214.48.214.316 0 .48-.212.165-.213.165-.623 0-.406-.165-.616-.164-.211-.484-.211-.316 0-.478.207-.16.208-.16.62zm3.641 1.066v-1.377q0-.26-.118-.388-.119-.128-.371-.128-.334 0-.49.18-.155.18-.155.596v1.117h-.322v-2.128h.262l.052.29h.016q.099-.156.278-.242.178-.087.398-.087.384 0 .579.186.194.185.194.593v1.388h-.323zm3.465-.285h-.018q-.223.324-.668.324-.417 0-.65-.286-.231-.285-.231-.811 0-.527.233-.818.233-.291.648-.291.433 0 .664.314h.026l-.014-.153-.008-.15v-.866h.323v3.022h-.262l-.043-.285zm-.645.054q.33 0 .478-.179.15-.18.15-.58v-.068q0-.453-.152-.645-.15-.194-.48-.194-.283 0-.435.221-.15.22-.15.622 0 .407.15.615.15.208.44.208zm2.534.27q-.472 0-.745-.288-.272-.287-.272-.798 0-.514.252-.817.255-.303.682-.303.4 0 .633.264.233.262.233.693v.204h-1.466q.01.375.188.57.18.193.507.193.344 0 .68-.143v.287q-.171.074-.325.105-.151.033-.367.033zm-.087-1.936q-.256 0-.41.167-.151.167-.178.462h1.112q0-.305-.136-.466-.136-.163-.388-.163zm1.884 1.897l-.808-2.128h.346l.458 1.262q.155.443.182.575h.016q.021-.103.134-.426.114-.324.51-1.411h.346l-.808 2.128h-.376zm1.852 0h-.322v-2.128h.322v2.128zm-.35-2.705q0-.11.055-.161.055-.053.136-.053.078 0 .134.053.056.052.056.16 0 .11-.056.164-.056.052-.134.052-.081 0-.136-.052-.054-.054-.054-.163zm1.888 2.744q-.462 0-.716-.284-.253-.285-.253-.806 0-.534.257-.825.258-.291.734-.291.153 0 .307.033.153.033.24.077l-.099.274q-.106-.042-.233-.07-.126-.029-.223-.029-.649 0-.649.828 0 .392.158.602.159.21.47.21.266 0 .545-.115v.285q-.213.11-.538.11zm1.944 0q-.472 0-.745-.288-.272-.287-.272-.798 0-.514.252-.817.255-.303.682-.303.4 0 .633.264.233.262.233.693v.204h-1.466q.01.375.188.57.18.193.507.193.344 0 .68-.143v.287q-.171.074-.325.105-.151.033-.367.033zm-.087-1.936q-.256 0-.41.167-.151.167-.179.462h1.113q0-.305-.136-.466-.136-.163-.388-.163zm2.791 1.316q0 .298-.222.459-.221.16-.621.16-.424 0-.66-.133v-.3q.153.079.328.123.176.045.34.045.252 0 .388-.08.136-.081.136-.246 0-.125-.109-.212-.107-.09-.42-.21-.297-.11-.423-.192-.124-.084-.186-.188-.06-.105-.06-.251 0-.26.211-.41.212-.151.58-.151.345 0 .673.14l-.115.262q-.32-.132-.58-.132-.23 0-.346.072-.117.071-.117.198 0 .085.043.145.045.06.142.115.097.054.373.157.378.138.51.278.135.14.135.351zm.475.375q0-.13.059-.196.06-.068.17-.068.113 0 .175.068.064.066.064.196 0 .126-.064.194t-.175.068q-.099 0-.165-.06-.064-.062-.064-.202z" style="-inkscape-font-specification:'Open Sans';text-align:center" font-weight="400" font-size="3.977" font-family="Open Sans" letter-spacing="0" word-spacing="0" text-anchor="middle"/></g><g transform="translate(-82.11 80.424) scale(.0909)"><circle r="28" cy="-366.888" cx="1301.999" style="isolation:auto;mix-blend-mode:normal" color="#000" overflow="visible" fill-opacity=".196"/><path d="M1305.045-375.216l5.086 5.11-12.873 12.937-5.083-5.11 12.87-12.937zm8.945-1.232l-2.268-2.28c-.877-.88-2.3-.88-3.18 0l-2.172 2.184 5.085 5.11 2.535-2.546c.68-.683.68-1.785 0-2.468zm-24.476 21.351a.58.58 0 0 0 .7.692l5.667-1.38-5.083-5.111-1.284 5.8z"/></g></g></svg>