<svg xmlns="http://www.w3.org/2000/svg" viewBox="0 0 8.467 8.467" height="32" width="32"><g color="#000" font-weight="400" font-family="sans-serif" white-space="normal" fill="#fff"><path d="M1.588 0A1.59 1.59 0 0 0 0 1.588v5.29a1.59 1.59 0 0 0 1.588 1.589h5.29a1.59 1.59 0 0 0 1.589-1.588V1.588A1.59 1.59 0 0 0 6.879 0zm0 .53h5.29c.592 0 1.06.467 1.06 1.058v5.29a1.05 1.05 0 0 1-1.06 1.06h-5.29a1.05 1.05 0 0 1-1.059-1.06v-5.29A1.052 1.052 0 0 1 1.588.529z" style="line-height:normal;font-variant-ligatures:normal;font-variant-position:normal;font-variant-caps:normal;font-variant-numeric:normal;font-variant-alternates:normal;font-feature-settings:normal;text-indent:0;text-align:start;text-decoration-line:none;text-decoration-style:solid;text-decoration-color:#000;text-transform:none;text-orientation:mixed;shape-padding:0;isolation:auto;mix-blend-mode:normal" overflow="visible"/><path d="M5.633 1.008L3.672 5.467 2.91 3.869 1.248 7.224l.475.235 1.18-2.381.788 1.66 1.811-4.117 1.205 4.658.512-.133z" style="line-height:normal;font-variant-ligatures:normal;font-variant-position:normal;font-variant-caps:normal;font-variant-numeric:normal;font-variant-alternates:normal;font-feature-settings:normal;text-indent:0;text-align:start;text-decoration-line:none;text-decoration-style:solid;text-decoration-color:#000;text-transform:none;text-orientation:mixed;shape-padding:0;isolation:auto;mix-blend-mode:normal" overflow="visible"/></g></svg>