<svg xmlns="http://www.w3.org/2000/svg" height="32" width="32"><g fill="#ed561f"><path d="M20.78 16.443a4.279 4.279 0 0 1-4.268 4.267h-1.024a4.279 4.279 0 0 1-4.267-4.267V4.267A4.279 4.279 0 0 1 15.488 0h1.024a4.279 4.279 0 0 1 4.267 4.267v12.176z"/><path d="M25.347 13.674h-.796a.8.8 0 0 0-.797.799v.711c0 4.467-3.298 8.09-7.765 8.09-4.468 0-7.743-3.623-7.743-8.09v-.711a.8.8 0 0 0-.797-.799h-.796a.8.8 0 0 0-.797.799v.711c0 5.232 3.576 9.566 8.54 10.344v3.285h-3.06a.798.798 0 0 0-.796.797v1.594a.8.8 0 0 0 .797.796h9.305a.8.8 0 0 0 .797-.796V29.61a.799.799 0 0 0-.797-.797h-3.06v-3.285c4.968-.778 8.562-5.112 8.562-10.344v-.711a.8.8 0 0 0-.797-.799z"/></g></svg>