<svg xmlns="http://www.w3.org/2000/svg" height="56" width="56"><g transform="translate(623 -13463.783) scale(.4375)"><circle style="isolation:auto;mix-blend-mode:normal" cx="-1360" cy="30838.361" r="64" color="#000" overflow="visible" fill="#fff" fill-opacity=".196"/><g fill="red"><path d="M-1349.236 30839.365c0 5.286-4.324 9.61-9.61 9.61h-2.308c-5.285 0-9.61-4.324-9.61-9.61v-27.425c0-5.287 4.325-9.61 9.61-9.61h2.308c5.286 0 9.61 4.323 9.61 9.61v27.425z"/><path d="M-1338.947 30833.128h-1.794c-.988 0-1.794.81-1.794 1.798v1.603c0 10.059-7.43 18.218-17.49 18.218-10.062 0-17.44-8.16-17.44-18.218v-1.603c0-.987-.806-1.798-1.794-1.798h-1.793c-.986 0-1.795.81-1.795 1.798v1.603c0 11.783 8.054 21.545 19.234 23.296v7.4h-6.89c-.987 0-1.794.806-1.794 1.793v3.591c0 .982.807 1.793 1.795 1.793h20.958c.986 0 1.794-.81 1.794-1.793v-3.59c0-.988-.808-1.794-1.794-1.794h-6.893v-7.4c11.19-1.75 19.284-11.513 19.284-23.296v-1.603c0-.987-.809-1.798-1.794-1.798z"/></g></g></svg>