<svg xmlns="http://www.w3.org/2000/svg" viewBox="0 0 16.933 16.933" height="64" width="64"><g fill="#fff" stroke="#fff" stroke-linecap="round"><path d="M.442 8.38h16.05" fill-rule="evenodd" stroke-width=".872"/><path d="M6.748.668h3.538a1.44 1.44 0 0 1 1.442 1.443v3.537c0 .8-.643 1.442-1.442 1.442H6.748a1.439 1.439 0 0 1-1.442-1.442V2.111A1.44 1.44 0 0 1 6.748.668z" style="isolation:auto;mix-blend-mode:normal;solid-color:#000;solid-opacity:1" color="#000" overflow="visible" stroke-width=".326" stroke-linejoin="round"/><path d="M8.467 6.871v1.423" fill-rule="evenodd" stroke-width=".917"/><path d="M1.794 9.843H5.33a1.44 1.44 0 0 1 1.443 1.442v3.538a1.44 1.44 0 0 1-1.443 1.442H1.794A1.439 1.439 0 0 1 .35 14.823v-3.538a1.44 1.44 0 0 1 1.443-1.442z" style="isolation:auto;mix-blend-mode:normal;solid-color:#000;solid-opacity:1" color="#000" overflow="visible" stroke-width=".326" stroke-linejoin="round"/><path d="M3.562 8.424v1.424" fill-rule="evenodd" stroke-width=".917"/><path d="M11.702 9.843h3.538a1.44 1.44 0 0 1 1.442 1.442v3.538c0 .799-.643 1.442-1.442 1.442h-3.538a1.439 1.439 0 0 1-1.442-1.442v-3.538a1.44 1.44 0 0 1 1.442-1.442z" style="isolation:auto;mix-blend-mode:normal;solid-color:#000;solid-opacity:1" color="#000" overflow="visible" stroke-width=".326" stroke-linejoin="round"/><path d="M13.47 8.424v1.424" fill-rule="evenodd" stroke-width=".917"/></g></svg>