<svg xmlns="http://www.w3.org/2000/svg" width="16" height="16"><path d="M8.573-9.01a5.105 5.105 0 0 1-2.53 4.41 5.105 5.105 0 0 1-5.083.038" transform="matrix(.86951 -.49391 -.49396 -.86948 0 0)" fill="none" stroke="#fff" stroke-width="2.032" stroke-linecap="round" stroke-linejoin="round" stroke-opacity=".966"/><path d="M1027-29l-1.616-1.067-1.616-1.067L1025.5-32l1.732-.866-.116 1.933z" transform="matrix(1.26746 -.05765 .05833 1.2526 -1285.706 103.475)" fill="#fff" fill-opacity=".966" stroke="#f9fcff" stroke-width="1.611" stroke-linecap="round" stroke-linejoin="round"/><path d="M2.566 12.805a5.105 5.105 0 0 1-2.53 4.408 5.105 5.105 0 0 1-5.084.038" transform="matrix(-.86951 .49391 .49396 .86948 0 0)" fill="none" stroke="#fff" stroke-width="2.032" stroke-linecap="round" stroke-linejoin="round" stroke-opacity=".966"/><path d="M1027-29l-1.616-1.067-1.616-1.067L1025.5-32l1.732-.866-.116 1.933z" transform="matrix(-1.26746 .05765 -.05833 -1.2526 1301.706 -87.475)" fill="#fff" stroke="#fff" stroke-width="1.611" stroke-linecap="round" stroke-linejoin="round"/></svg>