<svg xmlns="http://www.w3.org/2000/svg" height="32" width="32"><path d="M17.518 1.77a3.353 3.353 0 0 0-3.354 3.353 3.353 3.353 0 0 0 1.508 2.797l-1.137 4.17a5.54 5.54 0 0 0-.558-.027 5.54 5.54 0 0 0-3.248 1.06l-4.38-3.97a3.353 3.353 0 0 0 .358-1.499 3.353 3.353 0 0 0-3.353-3.353A3.353 3.353 0 0 0 0 7.654a3.353 3.353 0 0 0 3.354 3.354 3.353 3.353 0 0 0 1.607-.414l4.385 3.976a5.54 5.54 0 0 0-.909 3.032 5.54 5.54 0 0 0 .64 2.58L6.101 22.6a3.353 3.353 0 0 0-1.905-.594 3.353 3.353 0 0 0-3.353 3.353 3.353 3.353 0 0 0 3.353 3.354 3.353 3.353 0 0 0 3.352-3.354 3.353 3.353 0 0 0-.217-1.183l2.982-2.424a5.54 5.54 0 0 0 3.663 1.389 5.54 5.54 0 0 0 3.097-.953l3.055 3.103a3.353 3.353 0 0 0-.4 1.586 3.353 3.353 0 0 0 3.353 3.353 3.353 3.353 0 0 0 3.354-3.353 3.353 3.353 0 0 0-3.354-3.354 3.353 3.353 0 0 0-1.525.368l-3.053-3.102a5.54 5.54 0 0 0 1.012-3.187 5.54 5.54 0 0 0-.004-.135l6.199-1.287a3.353 3.353 0 0 0 2.935 1.74A3.353 3.353 0 0 0 32 14.566a3.353 3.353 0 0 0-3.354-3.353 3.353 3.353 0 0 0-3.334 3.006l-6.21 1.293a5.54 5.54 0 0 0-2.647-2.858l1.137-4.18a3.353 3.353 0 0 0 3.28-3.351 3.353 3.353 0 0 0-3.354-3.353z" style="isolation:auto;mix-blend-mode:normal" color="#000" overflow="visible" fill="#fff"/></svg>