<svg xmlns="http://www.w3.org/2000/svg" height="32" width="32"><g style="line-height:125%"><path style="-inkscape-font-specification:'Open Sans Bold';text-align:center" d="M3.547 19.67H1.992v-6.04H0v-1.295h5.539v1.294H3.547v6.041zm9.142 0h-1.55v-3.166H8.232v3.166H6.678v-7.335h1.555v2.875h2.905v-2.875h1.55v7.335zm1.856 0v-7.335H16.1v7.335h-1.555zm9.919 0h-1.977l-3.19-5.549h-.046q.096 1.47.096 2.097v3.452h-1.39v-7.335h1.961l3.186 5.494h.036q-.076-1.43-.076-2.022v-3.472h1.4v7.335zm4.626-4.119H32v3.803q-.707.23-1.335.321-.622.095-1.274.095-1.66 0-2.539-.973-.873-.979-.873-2.805 0-1.776 1.014-2.77 1.018-.993 2.82-.993 1.128 0 2.177.452l-.517 1.244q-.803-.401-1.67-.401-1.009 0-1.616.677-.607.677-.607 1.821 0 1.194.486 1.827.492.627 1.425.627.487 0 .989-.1v-1.53h-1.39V15.55z" font-weight="700" font-size="10.275" font-family="Open Sans" letter-spacing="0" word-spacing="0" fill="#fff" text-anchor="middle"/></g></svg>