<svg xmlns="http://www.w3.org/2000/svg" height="32" width="32"><path d="M29.897 13.434a19.638 19.638 0 0 0-6.32-4.258c-2.4-1.015-4.93-1.521-7.598-1.521-2.655 0-5.178.503-7.568 1.511a19.637 19.637 0 0 0-6.312 4.235L0 11.301a22.709 22.709 0 0 1 7.268-4.874c2.752-1.166 5.655-1.747 8.71-1.747 3.07 0 5.985.585 8.744 1.757A22.797 22.797 0 0 1 32 11.334l-2.103 2.1zm-4.25 4.25a13.623 13.623 0 0 0-4.34-2.942 13.553 13.553 0 0 0-2.573-.799 13.575 13.575 0 0 0-2.755-.28c-1.845 0-3.595.349-5.254 1.05a13.505 13.505 0 0 0-4.371 2.942L4.13 15.432a16.872 16.872 0 0 1 5.39-3.611 16.44 16.44 0 0 1 6.462-1.293c2.279 0 4.444.434 6.49 1.306a16.775 16.775 0 0 1 5.401 3.644l-2.227 2.207zM21.6 21.728a7.935 7.935 0 0 0-5.622-2.34 7.74 7.74 0 0 0-3.04.606 7.983 7.983 0 0 0-2.54 1.701L8.38 19.676c1-.992 2.152-1.763 3.458-2.318a10.484 10.484 0 0 1 4.143-.832c1.47 0 2.86.28 4.173.842a10.991 10.991 0 0 1 3.467 2.338l-2.02 2.02zm-5.583 5.593l-3.585-3.598c.229-.222.477-.421.744-.604.268-.18.549-.333.846-.464.297-.127.614-.225.947-.29.333-.066.67-.099 1.009-.099.692 0 1.348.131 1.965.395.617.265 1.156.63 1.623 1.1l-3.549 3.56z" fill="#fff"/></svg>