<svg xmlns="http://www.w3.org/2000/svg" height="32" width="32"><path d="M29.897 13.434a19.637 19.637 0 0 0-6.32-4.258c-2.4-1.015-4.93-1.521-7.598-1.521-2.655 0-5.178.502-7.568 1.511a19.638 19.638 0 0 0-6.312 4.235L0 11.301a22.71 22.71 0 0 1 7.268-4.874c2.752-1.166 5.655-1.747 8.71-1.747 3.07 0 5.985.585 8.744 1.757A22.797 22.797 0 0 1 32 11.334zm-4.25 4.25a13.624 13.624 0 0 0-4.34-2.942 13.554 13.554 0 0 0-2.573-.799 13.582 13.582 0 0 0-2.755-.28c-1.845 0-5.254 1.05-5.254 1.05l-2.442-2.185s2.338-2.089 7.699-2c2.279.037 4.444.434 6.49 1.306a16.776 16.776 0 0 1 5.401 3.644zM21.6 21.728a7.937 7.937 0 0 0-5.622-2.341c-1.068 0-3.04.607-3.04.607l-1.1-2.635s2.687-.832 4.143-.832c1.47 0 2.86.28 4.173.842a10.99 10.99 0 0 1 3.467 2.338zm-5.583 5.593l-3.585-3.598c.229-.222.477-.422.744-.604.268-.18.549-.333.846-.464.297-.127.614-.225.947-.29.333-.066.67-.099 1.009-.099.692 0 1.348.131 1.965.395.617.265 1.156.63 1.623 1.1zM6.83 13.629c-.992.039-1.892.572-2.476 1.418-.566.818-.855 1.918-.825 3.201h-.01v5.44h6.993v-5.44H10.5a.68.68 0 0 0-.037-.377c-.088-1.23-.441-2.278-1.05-3.025-.65-.797-1.59-1.256-2.583-1.217zm.055 1.357c.559-.022 1.052.204 1.472.72.42.515.742 1.34.786 2.444l.003.098h-4.26c-.03-1.07.217-1.893.587-2.428.378-.547.853-.812 1.412-.834z" fill="#fff"/></svg>