<svg xmlns="http://www.w3.org/2000/svg" viewBox="0 0 42.01 11.113" height="42" width="158.779"><g aria-label="Things Gateway" style="line-height:125%" font-weight="400" font-size="5.988" font-family="Sans" letter-spacing="0" word-spacing="0" fill="#fff" stroke-width=".265"><path d="M3.64 1.427l-.682.06-.12-.695h-.617V3.32h.635v.683H.82V3.32h.6V.792H.801l-.12.695L0 1.427.12.11h3.4l.12 1.317zm3.53 2.575H5.679v-.58h.359V2.48q0-.647-.473-.647-.258 0-.407.162-.15.156-.162.425v1h.36V4H3.863v-.58h.36V.47h-.36v-.587h1.132v1.833q.27-.467.868-.467.408 0 .677.239.27.24.27.695v1.24h.359v.58zm1.755 0H7.434v-.58h.359V1.887h-.39V1.3h1.162v2.12h.36V4zM7.763.822V.02h.772v.802h-.772zm4.736 3.18h-1.491v-.58h.359V2.48q0-.341-.114-.491-.114-.156-.347-.156-.27 0-.425.168-.15.168-.156.45v.97h.36v.58H9.192v-.58h.36V1.887h-.39V1.3h1.162v.414q.27-.467.868-.467.407 0 .677.239.27.24.27.695v1.24h.359v.58zm3.387-2.114h-.359v1.976q0 .67-.377 1.066-.377.401-1.114.401-1.066 0-1.36-.808l.594-.335q.287.532.772.532.317 0 .515-.227.198-.228.198-.629v-.353q-.258.49-.887.49-.496 0-.838-.34-.341-.348-.341-.958 0-.623.33-1.036.329-.42.885-.42.6 0 .85.474V1.3h1.132v.587zm-1.131.749V2.57q0-.33-.168-.521-.168-.192-.437-.192-.27 0-.437.204-.162.197-.162.593 0 .37.15.556.15.18.401.18.3 0 .473-.215.18-.222.18-.54zm3.828.539q0 .437-.348.664-.347.222-.934.222-.646 0-1.155-.264l.107-.754.6.066v.335q.16.054.406.054.234 0 .39-.072.155-.078.155-.215 0-.126-.167-.186-.168-.066-.408-.102-.239-.042-.479-.108-.239-.065-.407-.245-.167-.186-.167-.485 0-.311.185-.51.192-.197.437-.263.252-.065.563-.065.54 0 1.012.245l.066.689-.599.066-.048-.378q-.197-.066-.425-.066-.359 0-.359.258 0 .126.162.192.161.065.395.107.233.036.46.102.234.066.396.246t.162.467z" font-weight="700"/><path d="M24.059 2.385h-.306v1.617h-.335l-.054-.539q-.185.27-.509.437-.323.162-.736.162-.79 0-1.294-.57-.503-.574-.503-1.418 0-.85.533-1.437.54-.587 1.366-.587.88 0 1.389.455l.108.73-.372.042-.12-.55q-.425-.282-.981-.282-.653 0-1.054.45-.402.448-.402 1.16 0 .725.384 1.168.389.444 1.024.444.509 0 .814-.276.305-.281.305-.659v-.347h-.928v-.389h1.67v.39zm.649-.845q.383-.257.94-.257.952 0 .952.893v1.269q0 .287.228.287.101 0 .18-.035l.005.275q-.161.09-.347.09-.228 0-.353-.144-.126-.144-.132-.395V3.51q-.138.24-.377.395-.234.156-.533.156-.318 0-.563-.18-.246-.18-.246-.569 0-.82 1.246-.82.186 0 .473.024v-.24q0-.31-.138-.479-.132-.167-.467-.167-.293 0-.515.108l-.102.46-.347-.041.096-.617zm1.473 1.462v-.204q-.377-.03-.497-.03-.784 0-.784.497 0 .234.143.342.15.108.354.108.293 0 .526-.198.234-.198.258-.515zm3.122.281q-.108.779-.844.779-.395 0-.611-.222-.216-.227-.216-.623V1.673h-.43v-.336h.43V.481h.42v.856h1.041v.336h-1.041v1.49q0 .534.449.534.185 0 .305-.108.126-.108.18-.407l.317.101zm2.635-.048q-.054.36-.353.593-.293.234-.766.234-.575 0-.917-.36-.34-.359-.34-.993 0-.63.328-1.024.336-.402.893-.402.527 0 .826.336.3.335.305.832 0 .156-.036.317h-1.874q.018.45.234.695.215.24.61.24.6 0 .737-.545l.353.077zm-.467-.778q.036-.323-.15-.575-.185-.251-.55-.251-.348 0-.533.227-.186.228-.228.599h1.461zm5.138-.778h-.306l-.784 2.323h-.324l-.814-2.036h-.03l-.796 2.036h-.312l-.814-2.323h-.293v-.342h1.257v.342h-.509l.557 1.682h.03l.79-2.024h.282l.832 2.024h.03l.491-1.682h-.485v-.342h1.198v.342zm.542-.139q.383-.257.94-.257.952 0 .952.893v1.269q0 .287.228.287.102 0 .18-.035l.006.275q-.162.09-.348.09-.227 0-.353-.144-.126-.144-.132-.395V3.51q-.137.24-.377.395-.234.156-.533.156-.317 0-.563-.18-.245-.18-.245-.569 0-.82 1.245-.82.186 0 .473.024v-.24q0-.31-.137-.479-.132-.167-.468-.167-.293 0-.514.108l-.102.46-.348-.041.096-.617zm1.473 1.462v-.204q-.377-.03-.497-.03-.784 0-.784.497 0 .234.144.342.15.108.353.108.293 0 .527-.198.233-.198.257-.515zm3.808-1.323h-.317l-.94 2.323-.36.934h.455v.341h-1.353v-.341h.497l.347-.94-.97-2.317h-.317v-.342h1.234v.342h-.467l.748 1.79h.036l.665-1.79h-.432v-.342h1.174v.342z"/></g><g style="line-height:125%"><path style="-inkscape-font-specification:'Open Sans'" d="M23.347 7.792q.349 0 .54.239.195.237.195.673 0 .436-.196.678-.194.241-.54.241-.172 0-.316-.063-.142-.065-.239-.197h-.02l-.056.228h-.192V7.078h.268v.61q0 .205-.013.369h.013q.188-.265.556-.265zm-.039.224q-.275 0-.396.158-.12.157-.12.53t.124.535q.124.16.398.16.248 0 .369-.18.12-.18.12-.518 0-.346-.12-.515-.121-.17-.375-.17zm.962-.196h.288l.387 1.01q.128.346.159.5h.013q.02-.083.087-.282.068-.2.44-1.227h.287l-.761 2.015q-.113.299-.265.423-.15.126-.37.126-.122 0-.242-.027v-.215q.089.02.199.02.276 0 .394-.31l.098-.253-.714-1.78z" aria-label="by" font-weight="400" font-size="3.307" font-family="Open Sans" letter-spacing="0" word-spacing="0" fill="#fff"/></g><g fill="#4a4a4a"><path style="isolation:auto;mix-blend-mode:normal" color="#000" overflow="visible" fill="#000" d="M26.774 6.35h15.682v4.763H26.774z"/><path d="M32.805 9.985c.39-.082.677-.344.771-.706.037-.141.045-.35.019-.498-.077-.442-.386-.74-.835-.805a1.67 1.67 0 0 0-.53.026c-.432.117-.695.464-.716.946-.012.261.03.446.144.63.14.226.4.384.7.424.114.016.331.007.447-.017zm-.408-.466a.432.432 0 0 1-.117-.078c-.11-.107-.158-.249-.158-.464-.001-.264.09-.44.261-.518a.49.49 0 0 1 .351.004c.136.062.21.158.248.318a.924.924 0 0 1-.051.534.523.523 0 0 1-.19.188.493.493 0 0 1-.344.016zm7.887.478a.64.64 0 0 0 .36-.207c.087-.087.107-.102.114-.084.046.135.103.204.209.257a.612.612 0 0 0 .477 0c.105-.039.108-.044.108-.191 0-.165-.005-.175-.095-.173-.121.002-.114.037-.122-.575-.007-.506-.008-.535-.035-.607a.57.57 0 0 0-.167-.253.76.76 0 0 0-.32-.171c-.067-.019-.13-.023-.331-.022-.234 0-.257.004-.395.04a2.253 2.253 0 0 0-.368.13c-.024.015-.097.444-.079.466.017.02.443.067.459.05a.564.564 0 0 0 .037-.107.318.318 0 0 1 .048-.11c.054-.04.28-.057.378-.028.116.035.175.145.175.33v.096h-.258c-.29 0-.417.018-.583.082a.565.565 0 0 0-.339.322.788.788 0 0 0 .005.417c.074.184.236.306.458.343a.653.653 0 0 0 .264-.005zm-.019-.429c-.092-.027-.134-.103-.124-.222a.196.196 0 0 1 .134-.18c.049-.019.096-.023.248-.023.135 0 .192.005.203.016.026.026-.018.173-.076.258a.283.283 0 0 1-.13.111.368.368 0 0 1-.255.04zm-11.357.175c.002-.164-.002-.218-.013-.226a.977.977 0 0 0-.187-.01h-.17l.006-.393c.006-.43.013-.473.086-.572a.31.31 0 0 1 .233-.115c.155-.013.252.042.305.172.029.072.03.079.032.69.002.34.006.632.01.647l.007.03h.412c.365 0 .414-.003.42-.021.005-.012.008-.108.008-.216 0-.232.006-.223-.152-.223H29.8l.004-.41c.004-.398.005-.414.033-.475a.309.309 0 0 1 .276-.195c.163-.013.269.054.313.197.024.078.025.119.025.673 0 .324.004.608.008.63l.009.04.415-.003.416-.003.004-.21c.004-.252.009-.243-.147-.243h-.106v-.475c0-.534-.006-.589-.083-.735-.11-.209-.33-.331-.598-.331a.662.662 0 0 0-.578.294l-.05.078-.02-.038c-.1-.193-.31-.317-.559-.331-.223-.013-.386.041-.525.174a.687.687 0 0 1-.088.077.363.363 0 0 1-.012-.105l-.003-.105h-.854l-.004.208c-.002.143.002.214.011.227.011.012.05.017.14.017h.127v1.045h-.112c-.07 0-.118.006-.128.015a1.94 1.94 0 0 0-.006.436c.004.004.275.007.602.005l.593-.003.004-.216zm6.75.21c.006-.01.121-.646.121-.673 0-.021-.027-.027-.243-.05-.155-.015-.208-.016-.22-.006a.746.746 0 0 0-.053.145l-.04.13-.276.004c-.152.002-.276 0-.276-.004 0-.003.226-.264.502-.579.276-.315.508-.583.515-.596a.926.926 0 0 0-.04-.307c-.009-.012-.196-.016-.856-.016-.66 0-.847.004-.857.016a2.2 2.2 0 0 0-.04.296c-.015.155-.03.3-.034.325-.003.025-.002.052.004.06.01.015.287.055.38.055.047 0 .045.002.094-.166l.035-.12.272-.004.272-.002-.026.028a100.5 100.5 0 0 0-.99 1.146c-.018.028-.018.042.004.156l.032.15c.008.023.034.024.86.024.469 0 .855-.005.86-.01zm1.096-.351v-.357h-.599l-.003.344a4.96 4.96 0 0 0 .003.36c.005.013.07.016.303.013l.296-.004zm.908.347c.014-.018.832-2.9.832-2.931 0-.01-.01-.023-.02-.027a3.225 3.225 0 0 0-.273-.007c-.195 0-.257.003-.27.017-.023.023-.844 2.92-.834 2.945.006.017.048.02.28.02.203 0 .276-.004.285-.016zm1.123-.007c.015-.027.83-2.903.83-2.927 0-.03-.031-.033-.293-.033-.213 0-.256.004-.273.02a.081.081 0 0 0-.02.026c0 .002-.183.653-.408 1.445a83.898 83.898 0 0 0-.407 1.465c0 .026.005.026.28.026.253 0 .28-.002.291-.022zm-2.03-1.577v-.357h-.6l-.003.344a4.95 4.95 0 0 0 .003.36c.005.013.07.016.303.013l.296-.003z" fill="#fff"/></g></svg>