<svg xmlns="http://www.w3.org/2000/svg" width="226.176" height="42" viewBox="0 0 59.842 11.113"><g style="line-height:125%" aria-label="Things Gateway" font-weight="400" font-size="5.988" font-family="Sans" letter-spacing="0" word-spacing="0" fill="#fff" stroke-width=".265"><g style="line-height:0%" aria-label="WebThings Gateway" font-size="5.428" font-family="sans-serif" fill="#f9f9f9" stroke-width=".452"><path style="line-height:1.25;-inkscape-font-specification:'Zilla Slab Semi-Bold';text-align:start" d="M6.398.89h-.354L4.86 4.6h-.548L3.25 1.538h-.033L2.186 4.6h-.555L.374.89H0V.253h1.651v.635H1.17l.749 2.487h.033L2.815.89h-.382V.254h1.645v.635h-.354l.862 2.52h.034L5.302.89h-.535V.254h1.631zm2.708 2.794q-.04.394-.387.688-.348.294-.956.294-.656 0-1.077-.38-.421-.388-.421-1.137 0-.689.381-1.15.388-.461 1.076-.461.622 0 .983.374.368.368.375.936 0 .187-.04.401H7.013q.06.842.802.842.348 0 .495-.166.153-.168.2-.355zm-.762-.876q.027-.267-.127-.501-.147-.241-.501-.241-.321 0-.488.214-.167.214-.208.528zm4.396.221q0 .635-.334 1.136-.335.501-1.03.501-.709 0-.996-.534-.013.08-.033.234-.02.154-.034.234h-.709q.04-.221.074-.448.033-.234.033-.455V.548h-.448V0h1.157v2.193q.134-.268.374-.461.248-.194.662-.194.569 0 .923.394.36.388.36 1.097zm-.742.06q0-.475-.214-.722-.214-.254-.548-.254-.381 0-.595.28-.214.281-.22.609v.214q0 .367.213.628.22.254.575.254.374 0 .582-.274.207-.274.207-.735zm4.76-1.418l-.642.054-.134-.836h-.849v3.075h.729V4.6h-2.173v-.636h.702V.89h-.856l-.133.836-.635-.054L12.9.254h3.724zM20.653 4.6h-1.61v-.548h.447V2.875q0-.428-.16-.602-.16-.18-.435-.18-.328 0-.521.214-.194.213-.208.521v1.224h.442V4.6h-1.605v-.548h.448V.548h-.448V0h1.163v2.093q.308-.555.996-.555.435 0 .736.26.307.261.307.816v1.438h.448zM21.35.976V.187h.729v.79zM22.547 4.6h-1.604v-.548h.447v-1.9h-.474v-.554h1.183v2.454h.448zm3.978 0H24.92v-.548h.441V2.875q0-.428-.153-.602-.154-.18-.428-.18-.341 0-.542.22-.194.22-.2.542v1.197h.448V4.6h-1.612v-.548h.448v-1.9h-.468v-.554h1.184v.488q.314-.548.996-.548.428 0 .735.26.308.261.308.816v1.438h.448zm3.723-2.447h-.435v2.333q0 .715-.4 1.157-.395.44-1.184.44-.468 0-.876-.2t-.575-.688l.555-.301q.28.615.91.615.374 0 .614-.267.241-.268.241-.763v-.448q-.127.241-.368.415-.234.167-.648.167-.528 0-.916-.368-.381-.374-.381-1.083 0-.642.34-1.13.349-.494 1.004-.494.682 0 .97.528v-.468h1.149zm-1.15 1.016v-.24q0-.375-.214-.596-.214-.22-.535-.22-.374 0-.575.274-.2.267-.2.728 0 .475.2.702.201.221.508.221.382 0 .595-.267.221-.268.221-.602zm4.062.535q0 .468-.388.715-.381.247-.976.247-.32 0-.648-.073-.321-.073-.582-.22l.107-.776.561.053-.006.388q.127.053.267.074.147.02.26.02.275 0 .476-.093.207-.1.207-.294 0-.187-.187-.267-.18-.08-.455-.12-.274-.048-.548-.121-.274-.08-.462-.254-.18-.18-.18-.535 0-.522.394-.715.402-.194.843-.194.581 0 1.096.274l.074.742-.562.067-.06-.448q-.26-.1-.528-.1-.207 0-.354.087-.14.08-.14.26 0 .187.18.261.18.074.448.12.267.04.534.12.268.074.448.255.18.174.18.528z" font-weight="600" font-size="25.268" font-family="Zilla Slab"/><path d="M39.315 2.794h-.34V4.6H38.6l-.06-.602q-.194.287-.555.481-.354.187-.836.187-.896 0-1.45-.641-.555-.642-.555-1.578 0-.629.267-1.137.274-.514.749-.815.481-.308 1.103-.308.521 0 .91.147.394.14.64.361l.121.816-.414.047-.134-.615q-.18-.12-.441-.214-.254-.1-.655-.1-.73 0-1.177.5-.448.502-.448 1.298 0 .809.428 1.304.428.494 1.143.494.595 0 .923-.32.327-.328.327-.723v-.388H37.45V2.36h1.865zm.725-.942q.234-.154.495-.22.26-.068.555-.068 1.063 0 1.063.997v1.417q0 .32.254.32.113 0 .2-.04l.007.308q-.18.1-.388.1-.528 0-.541-.601v-.013q-.14.24-.401.427-.254.187-.616.187-.294 0-.601-.18-.301-.18-.301-.655 0-.562.441-.736.448-.18.95-.18.133 0 .267.008.14.008.26.021v-.268q0-.32-.14-.52-.133-.202-.535-.202-.327 0-.574.12l-.114.516-.388-.047zm1.645 1.631v-.227q-.127-.005-.268-.021-.14-.013-.287-.013-.334 0-.609.107-.267.1-.267.448 0 .287.18.394.181.107.375.107.307 0 .575-.214.274-.214.3-.582zm3.485.315q-.12.868-.942.868-.448 0-.689-.254-.234-.254-.234-.688V1.999h-.481v-.374h.481V.669h.468v.956h1.164v.374h-1.164v1.665q0 .267.114.434.12.16.388.16.174 0 .32-.106.154-.107.221-.468zm2.943-.054q-.06.381-.381.655-.321.267-.87.267-.628 0-1.016-.394-.387-.394-.387-1.116 0-.696.367-1.144.368-.448.997-.448.615 0 .935.388.321.388.328.916 0 .174-.04.354h-2.093q.04 1.043.943 1.043.354 0 .555-.167.2-.167.267-.441zm-.522-.87q.034-.333-.16-.628-.187-.294-.622-.294-.414 0-.608.274t-.24.649zm5.749-.868H53L52.123 4.6h-.361l-.91-2.273h-.033L49.93 4.6h-.347l-.909-2.594h-.328v-.381h1.404v.38h-.568l.622 1.88h.033l.883-2.26h.314l.93 2.26h.033l.548-1.88h-.542v-.38h1.337zm.606-.154q.234-.154.495-.22.26-.068.555-.068 1.063 0 1.063.997v1.417q0 .32.254.32.114 0 .2-.04l.007.308q-.18.1-.388.1-.528 0-.541-.601v-.013q-.14.24-.401.427-.254.187-.615.187-.294 0-.602-.18-.3-.18-.3-.655 0-.562.44-.736.448-.18.95-.18.133 0 .267.008.14.008.26.021v-.268q0-.32-.14-.52-.133-.202-.534-.202-.328 0-.575.12l-.114.516-.388-.047zm1.645 1.631v-.227q-.127-.005-.268-.021-.14-.013-.287-.013-.334 0-.608.107-.268.1-.268.448 0 .287.18.394.181.107.375.107.308 0 .575-.214.274-.214.3-.582zm4.251-1.477h-.354L58.438 4.6l-.4 1.043h.507v.38h-1.51v-.38h.554l.388-1.05-1.083-2.587h-.354v-.381h1.377v.38h-.521l.835 2h.04l.742-2h-.48v-.38h1.31z"/></g><path d="M.013 6.767h15.203v4.346H.013z" fill="#000"/><path d="M14.538 9.885a.302.302 0 0 1-.08.013c-.088 0-.13-.038-.13-.147v-.825c0-.436-.348-.646-.754-.646-.31 0-.482.038-.813.172l-.076.436.436.046.063-.214a.587.587 0 0 1 .29-.054c.305 0 .31.23.31.427v.063a2.363 2.363 0 0 0-.31-.016c-.437 0-.885.11-.885.578 0 .398.31.545.587.545.306 0 .503-.184.611-.381.026.23.164.381.42.381a.76.76 0 0 0 .343-.088zm-1.17-.014c-.163 0-.222-.096-.222-.218 0-.205.168-.26.365-.26.088 0 .184.014.272.027-.016.314-.222.453-.415.453zM12.64 7.32l-.821 2.9h-.536l.82-2.9zm-1.106 0l-.821 2.9h-.537l.822-2.9zm-2.284.998h.57V9h-.57zm0 1.22h.57v.682h-.57zm-.83-.027l.432.042-.117.666H7.07l-.054-.285L8.063 8.73h-.595l-.084.294-.393-.042.067-.666H8.73l.041.284-1.056 1.203h.616zM5.696 8.278c-.683 0-1.023.46-1.023 1.018 0 .608.407.964.993.964.608 0 1.048-.386 1.048-.993-.004-.528-.335-.99-1.018-.99zM5.683 9.84c-.293 0-.448-.252-.448-.583 0-.36.172-.565.452-.565.256 0 .465.171.465.557-.004.365-.188.59-.469.59zm-1.5-.038h.251v.415h-.796V9.145c0-.331-.109-.457-.323-.457-.26 0-.368.185-.368.453v.662h.251v.415h-.796V9.145c0-.331-.109-.457-.327-.457-.26 0-.369.185-.369.453v.662h.365v.415H.914v-.415h.252V8.726H.914v-.415h.797v.285a.628.628 0 0 1 .578-.323c.272 0 .528.13.62.411a.639.639 0 0 1 .62-.41c.344 0 .654.205.654.657z" class="st0"/></g></svg>