<?xml version="1.0" encoding="UTF-8" standalone="no"?>
<svg
   xmlns:dc="http://purl.org/dc/elements/1.1/"
   xmlns:cc="http://creativecommons.org/ns#"
   xmlns:rdf="http://www.w3.org/1999/02/22-rdf-syntax-ns#"
   xmlns:svg="http://www.w3.org/2000/svg"
   xmlns="http://www.w3.org/2000/svg"
   version="1.1"
   id="svg16879"
   viewBox="0 0 32 32.000001"
   height="32"
   width="32">
  <defs
     id="defs16881" />
  <metadata
     id="metadata16884">
    <rdf:RDF>
      <cc:Work
         rdf:about="">
        <dc:format>image/svg+xml</dc:format>
        <dc:type
           rdf:resource="http://purl.org/dc/dcmitype/StillImage" />
        <dc:title></dc:title>
      </cc:Work>
    </rdf:RDF>
  </metadata>
  <g
     transform="translate(0,-1020.3622)"
     id="layer1">
    <path
       id="path20762-9"
       d="m 9.8868244,1020.3672 -1.0457579,2.5711 0,0 -0.374664,0.9244 -1.4148186,3.4946 0.09204,0 0.04602,0.04 6.1148761,9.6302 0.04602,0 0.749828,1.2986 0,0 1.534871,0 0,0 0.748028,-1.2986 0,0 0,-0.03 0,0 0,0 0,-0.05 6.032239,-9.4982 0.09904,-0.09 0.109848,0 -1.412918,-3.4936 -0.374764,-0.9254 0,0 -1.045657,-2.5711 -1.122692,2.7572 0,0 -0.301331,0.7383 -1.043557,2.5822 -0.830263,0 -0.733021,-0.2902 0,0 -1.986569,0 0,0 0,0 0,0 0,0 -0.713912,0.2832 -0.732721,0 -1.043957,-2.5822 -0.301332,-0.7383 0,0 -1.1222906,-2.7572 z m 0.6128686,13.5649 1.351291,11.6091 -2.8578506,0.8694 -0.03501,-0.03 -1.3027701,5.9816 4.6966547,-2.183 0,0.03 0.07403,-0.1531 5.069518,-0.4542 0,-0.04 6.158094,-1.5537 -5.397361,-0.9104 5.476096,0.9164 0,0 0,0 0,0 0,0 1.145001,-1.9589 0.07103,0 -0.581054,-2.6681 -3.778053,2.0959 3.755743,-2.0979 0.08504,-0.04 0,0 0,0 -0.03502,0 -1.192122,-0.9915 -1.240342,-1.0634 -0.03502,0 -3.187894,-2.6542 0.547339,-4.7001 -4.426837,6.2858 -4.428237,-6.2858 z"
       style="color:#000000;clip-rule:nonzero;display:inline;overflow:visible;visibility:visible;opacity:1;isolation:auto;mix-blend-mode:normal;color-interpolation:sRGB;color-interpolation-filters:linearRGB;solid-color:#000000;solid-opacity:1;fill:#ffffff;fill-opacity:1;fill-rule:nonzero;stroke:none;stroke-width:0.34999999;stroke-linecap:round;stroke-linejoin:round;stroke-miterlimit:8.80000019;stroke-dasharray:1.4, 2.8;stroke-dashoffset:0;stroke-opacity:1;color-rendering:auto;image-rendering:auto;shape-rendering:auto;text-rendering:auto;enable-background:accumulate" />
  </g>
</svg>
