<?xml version="1.0" encoding="UTF-8" standalone="no"?>
<svg
   xmlns:dc="http://purl.org/dc/elements/1.1/"
   xmlns:cc="http://creativecommons.org/ns#"
   xmlns:rdf="http://www.w3.org/1999/02/22-rdf-syntax-ns#"
   xmlns:svg="http://www.w3.org/2000/svg"
   xmlns="http://www.w3.org/2000/svg"
   version="1.1"
   id="svg9642"
   viewBox="0 0 64.000001 64.000001"
   height="64"
   width="64">
  <defs
     id="defs9644" />
  <metadata
     id="metadata9647">
    <rdf:RDF>
      <cc:Work
         rdf:about="">
        <dc:format>image/svg+xml</dc:format>
        <dc:type
           rdf:resource="http://purl.org/dc/dcmitype/StillImage" />
        <dc:title></dc:title>
      </cc:Work>
    </rdf:RDF>
  </metadata>
  <g
     transform="translate(0,-988.36216)"
     id="layer1">
    <path
       id="path13050"
       d="m 32,988.36216 c -4.0832,5.4266 -10.9782,8.1452 -17.7962,8.1452 -3.525,0 -7.0295999,-0.7264 -10.1137999,-2.1816 0.3456,9.16224 1.0272,18.44864 2.56,27.49624 0.7822,4.9594 1.5502,10.8084 4.2663999,15.1476 2.3864,4.1778 6.0886,7.5962 10.0612,10.2438 3.0176,2.0076 6.3018,3.6582 9.72,4.871 0.5458,0.194 0.961,0.2778 1.3438,0.2778 0.663,0 1.2266,-0.2528 2.1974,-0.624 7.8592,-3.0176 16.295,-8.567 19.765,-16.546 3.122,-7.0994 3.81,-15.5352 4.6112,-23.1622 0.6196,-5.881 1.0704,-11.7926 1.295,-17.70424 -3.0842,1.4552 -6.5898,2.183 -10.1136,2.183 -6.8186,0 -13.7124,-2.7194 -17.7964,-8.1466 z m 11.535,19.21284 a 2.754083,2.754083 0 0 1 2.1976,4.521 l -16.33,20.0402 a 2.754083,2.754083 0 0 1 -4.125,0.164 l -6.8412,-7.1558 a 2.754083,2.754083 0 1 1 3.98,-3.8068 l 4.685,4.9004 14.36,-17.6204 a 2.754083,2.754083 0 0 1 2.0736,-1.0432 z"
       style="fill:#ffffff" />
  </g>
</svg>
