<?xml version="1.0" encoding="UTF-8" standalone="no"?>
<svg
   xmlns:dc="http://purl.org/dc/elements/1.1/"
   xmlns:cc="http://creativecommons.org/ns#"
   xmlns:rdf="http://www.w3.org/1999/02/22-rdf-syntax-ns#"
   xmlns:svg="http://www.w3.org/2000/svg"
   xmlns="http://www.w3.org/2000/svg"
   version="1.1"
   id="svg13141"
   viewBox="0 0 32 32.000001"
   height="32"
   width="32">
  <defs
     id="defs13143" />
  <metadata
     id="metadata13146">
    <rdf:RDF>
      <cc:Work
         rdf:about="">
        <dc:format>image/svg+xml</dc:format>
        <dc:type
           rdf:resource="http://purl.org/dc/dcmitype/StillImage" />
        <dc:title></dc:title>
      </cc:Work>
    </rdf:RDF>
  </metadata>
  <g
     transform="translate(0,-1020.3622)"
     id="layer1">
    <g
       id="text11347-6"
       style="font-style:normal;font-weight:normal;font-size:24.91957855px;line-height:125%;font-family:'Open Sans';letter-spacing:0px;word-spacing:0px;fill:#ffffff;fill-opacity:1;stroke:none;stroke-width:1px;stroke-linecap:butt;stroke-linejoin:miter;stroke-opacity:1">
      <path
         id="path13700"
         style="font-style:normal;font-variant:normal;font-weight:bold;font-stretch:normal;font-size:25px;font-family:'Open Sans';-inkscape-font-specification:'Open Sans Bold';text-align:center;text-anchor:middle;fill:#ffffff;fill-opacity:1"
         d="m 6.7348633,1036.2622 q 0,-1.0254 0.5493164,-1.5503 0.5493164,-0.5249 1.5991211,-0.5249 1.0131836,0 1.5625002,0.5371 0.561523,0.5371 0.561523,1.5381 0,0.9644 -0.561523,1.5259 -0.5615237,0.5493 -1.5625002,0.5493 -1.0253906,0 -1.5869141,-0.5371 -0.5615234,-0.5493 -0.5615234,-1.5381 z" />
      <path
         id="path13702"
         style="font-style:normal;font-variant:normal;font-weight:bold;font-stretch:normal;font-size:25px;font-family:'Open Sans';-inkscape-font-specification:'Open Sans Bold';text-align:center;text-anchor:middle;fill:#ffffff;fill-opacity:1"
         d="m 13.86377,1036.2622 q 0,-1.0254 0.549316,-1.5503 0.549316,-0.5249 1.599121,-0.5249 1.013184,0 1.5625,0.5371 0.561523,0.5371 0.561523,1.5381 0,0.9644 -0.561523,1.5259 -0.561523,0.5493 -1.5625,0.5493 -1.025391,0 -1.586914,-0.5371 -0.561523,-0.5493 -0.561523,-1.5381 z" />
      <path
         id="path13704"
         style="font-style:normal;font-variant:normal;font-weight:bold;font-stretch:normal;font-size:25px;font-family:'Open Sans';-inkscape-font-specification:'Open Sans Bold';text-align:center;text-anchor:middle;fill:#ffffff;fill-opacity:1"
         d="m 20.992676,1036.2622 q 0,-1.0254 0.549316,-1.5503 0.549317,-0.5249 1.599121,-0.5249 1.013184,0 1.5625,0.5371 0.561524,0.5371 0.561524,1.5381 0,0.9644 -0.561524,1.5259 -0.561523,0.5493 -1.5625,0.5493 -1.02539,0 -1.586914,-0.5371 -0.561523,-0.5493 -0.561523,-1.5381 z" />
    </g>
  </g>
</svg>
