<?xml version="1.0" encoding="UTF-8" standalone="no"?>
<svg
   xmlns:dc="http://purl.org/dc/elements/1.1/"
   xmlns:cc="http://creativecommons.org/ns#"
   xmlns:rdf="http://www.w3.org/1999/02/22-rdf-syntax-ns#"
   xmlns:svg="http://www.w3.org/2000/svg"
   xmlns="http://www.w3.org/2000/svg"
   id="svg14103"
   version="1.1"
   viewBox="0 0 16.933333 16.933334"
   height="64"
   width="64">
  <defs
     id="defs14097" />
  <metadata
     id="metadata14100">
    <rdf:RDF>
      <cc:Work
         rdf:about="">
        <dc:format>image/svg+xml</dc:format>
        <dc:type
           rdf:resource="http://purl.org/dc/dcmitype/StillImage" />
        <dc:title></dc:title>
      </cc:Work>
    </rdf:RDF>
  </metadata>
  <g
     transform="translate(0,-280.06665)"
     id="layer1">
    <path
       style="color:#000000;clip-rule:nonzero;display:inline;overflow:visible;visibility:visible;opacity:1;isolation:auto;mix-blend-mode:normal;color-interpolation:sRGB;color-interpolation-filters:linearRGB;solid-color:#000000;solid-opacity:1;fill:#ffffff;fill-opacity:1;fill-rule:nonzero;stroke:none;stroke-width:0.93927079;stroke-linecap:round;stroke-linejoin:round;stroke-miterlimit:4;stroke-dasharray:none;stroke-dashoffset:0;stroke-opacity:1;color-rendering:auto;image-rendering:auto;shape-rendering:auto;text-rendering:auto;enable-background:accumulate"
       d="m -1.6171468e-7,281.81661 v 13.43342 H 16.933333 V 281.81661 Z M 2.2296435,284.12669 h 0.6704542 v 0.34581 c 0,0.095 0.021167,0.17145 0.048154,0.17145 h 0.5289021 c 0.026723,0 0.048419,-0.0765 0.048419,-0.17145 v -0.34581 h 0.6879167 v 0.34581 c 0,0.095 0.021167,0.17145 0.048419,0.17145 H 4.790546 c 0.026723,0 0.048683,-0.0765 0.048683,-0.17145 v -0.34581 h 0.6879166 v 0.34581 c 0,0.095 0.021167,0.17145 0.048154,0.17145 h 0.5286375 c 0.026723,0 0.048683,-0.0765 0.048683,-0.17145 v -0.34581 h 0.6879167 v 0.34581 c 0,0.095 0.021167,0.17145 0.048154,0.17145 h 0.5286375 c 0.026723,0 0.048683,-0.0765 0.048683,-0.17145 v -0.34581 H 8.153928 v 0.34581 c 0,0.095 0.021167,0.17145 0.048154,0.17145 h 0.5286375 c 0.026723,0 0.048683,-0.0765 0.048683,-0.17145 v -0.34581 h 0.6879166 v 0.34581 c 0,0.095 0.021167,0.17145 0.048154,0.17145 H 10.04411 c 0.02672,0 0.04868,-0.0765 0.04868,-0.17145 v -0.34581 h 0.687916 v 0.34581 c 0,0.095 0.02117,0.17145 0.04816,0.17145 h 0.528637 c 0.02672,0 0.04868,-0.0765 0.04868,-0.17145 v -0.34581 H 12.0941 v 0.34581 c 0,0.095 0.02117,0.17145 0.04815,0.17145 h 0.528638 c 0.02672,0 0.04868,-0.0765 0.04868,-0.17145 v -0.34581 h 0.687917 v 0.34581 c 0,0.095 0.02117,0.17145 0.04815,0.17145 h 0.528637 c 0.02672,0 0.04868,-0.0765 0.04868,-0.17145 v -0.34581 h 0.670454 c 0.632883,0 1.142206,0.50932 1.142206,1.1422 v 4.52702 c 0,0.63262 -0.509323,1.14195 -1.142206,1.14195 h -3.980392 v 0.86042 c 0,0.63288 -0.509323,1.14221 -1.1419412,1.14221 H 7.3517123 c -0.6326188,0 -1.1422063,-0.50933 -1.1422063,-1.14221 v -0.86042 H 2.2296435 c -0.6326187,0 -1.1422062,-0.50933 -1.1422062,-1.14195 v -4.52702 c 0,-0.63288 0.5095875,-1.1422 1.1422062,-1.1422 z"
       id="path13968" />
  </g>
</svg>
