<?xml version="1.0" encoding="UTF-8"?>
<svg width="61px" height="61px" viewBox="0 0 61 61" version="1.1" xmlns="http://www.w3.org/2000/svg" xmlns:xlink="http://www.w3.org/1999/xlink">
    <!-- Generator: Sketch 48.2 (47327) - http://www.bohemiancoding.com/sketch -->
    <title>floorplan</title>
    <desc>Created with Sketch.</desc>
    <defs></defs>
    <g id="Page-1" stroke="none" stroke-width="1" fill="none" fill-rule="evenodd">
        <g id="floorplan" transform="translate(-20.000000, -21.000000)">
            <g id="layer1" transform="translate(0.000000, 0.637840)">
                <rect id="rect35574" x="0" y="0.36218" width="100" height="100"></rect>
                <rect id="rect35576" stroke="#FFFFFF" stroke-width="0.32631126" stroke-linecap="round" stroke-linejoin="round" stroke-dasharray="1.30524509,2.61049018" x="20.163155" y="20.52533" width="59.673691" height="59.673687"></rect>
            </g>
            <path d="M26.6438813,47.1148243 C26.3318691,47.1148243 26.0855644,47.2187189 25.9049598,47.4265113 C25.7243553,47.6343037 25.6340543,47.9188001 25.6340543,48.2800093 C25.6340543,48.6515757 25.7211187,48.9386615 25.89525,49.1412752 C26.0693812,49.3438889 26.3176279,49.4451943 26.6399974,49.4451943 C26.8380798,49.4451943 27.063994,49.4095918 27.3177466,49.3383857 L27.3177466,49.6277399 C27.1209588,49.7015353 26.8782144,49.7384325 26.589506,49.7384325 C26.171332,49.7384325 25.8486437,49.6115581 25.6214315,49.3578054 C25.3942193,49.1040527 25.2806149,48.7434963 25.2806149,48.2761253 C25.2806149,47.983533 25.3353133,47.7271949 25.4447118,47.5071033 C25.5541102,47.2870117 25.7120559,47.1174142 25.9185537,46.9983058 C26.1250514,46.8791974 26.3681195,46.8196441 26.6477653,46.8196441 C26.9455362,46.8196441 27.2057583,46.8740189 27.4284392,46.98277 L27.288617,47.2662984 C27.073704,47.1653152 26.8587943,47.1148243 26.6438813,47.1148243 Z M28.2110551,49.699593 L27.8886873,49.699593 L27.8886873,46.6778799 L28.2110551,46.6778799 L28.2110551,49.699593 Z M29.2169981,49.699593 L28.8946303,49.699593 L28.8946303,47.5711884 L29.2169981,47.5711884 L29.2169981,49.699593 Z M28.8674427,46.9944219 C28.8674427,46.9206264 28.8855676,46.8665753 28.921818,46.8322669 C28.9580683,46.7979586 29.0033806,46.7808046 29.0577562,46.7808046 C29.1095425,46.7808046 29.1542074,46.7982822 29.1917525,46.8332379 C29.2292975,46.8681937 29.2480697,46.9219211 29.2480697,46.9944219 C29.2480697,47.0669226 29.2292975,47.1209737 29.1917525,47.1565768 C29.1542074,47.1921798 29.1095425,47.2099811 29.0577562,47.2099811 C29.0033806,47.2099811 28.9580683,47.1921798 28.921818,47.1565768 C28.8855676,47.1209737 28.8674427,47.0669226 28.8674427,46.9944219 Z M30.7511584,49.7384325 C30.4430301,49.7384325 30.2044933,49.6436003 30.0355406,49.4539332 C29.8665879,49.264266 29.7821129,48.9959525 29.7821129,48.6489845 C29.7821129,48.292954 29.8678826,48.0178436 30.0394245,47.8236452 C30.2109665,47.6294467 30.4553293,47.5323489 30.7725201,47.5323489 C30.874798,47.5323489 30.9770743,47.5433533 31.0793521,47.5653625 C31.18163,47.5873717 31.2618975,47.6132644 31.320157,47.6430415 L31.2211163,47.91686 C31.1499102,47.8883775 31.072232,47.8647504 30.9880793,47.8459779 C30.9039267,47.8272054 30.829485,47.8178192 30.7647522,47.8178192 C30.3323369,47.8178192 30.1161326,48.0935769 30.1161326,48.6451006 C30.1161326,48.9066212 30.168889,49.1072899 30.2744035,49.2471128 C30.379918,49.3869357 30.5362454,49.4568461 30.7433905,49.4568461 C30.9207584,49.4568461 31.1026549,49.4186543 31.2890854,49.3422696 L31.2890854,49.6277399 C31.1466732,49.7015353 30.967366,49.7384325 30.7511584,49.7384325 Z M32.1124828,48.610145 C32.1681531,48.531171 32.2529518,48.4276 32.3668816,48.299429 L33.0543407,47.5711884 L33.4369098,47.5711884 L32.5746729,48.4780907 L33.497111,49.699593 L33.106774,49.699593 L32.3552297,48.69365 L32.1124828,48.9033833 L32.1124828,49.699593 L31.7939989,49.699593 L31.7939989,46.6778799 L32.1124828,46.6778799 L32.1124828,48.2800093 C32.1124828,48.3512154 32.1073043,48.4612595 32.096947,48.610145 L32.1124828,48.610145 Z M41.800996,49.4723819 C41.8579609,49.4723819 41.9129829,49.4681744 41.9660639,49.4597591 C42.0191448,49.4513438 42.0612205,49.442605 42.0922922,49.4335424 L42.0922922,49.6801733 C42.0573365,49.6970038 42.0058747,49.7109211 41.9379052,49.7219257 C41.8699358,49.7329303 41.8087642,49.7384325 41.7543886,49.7384325 C41.3426878,49.7384325 41.1368405,49.5215808 41.1368405,49.0878709 L41.1368405,47.8217032 L40.8319505,47.8217032 L40.8319505,47.6663452 L41.1368405,47.5323489 L41.2727788,47.0779268 L41.4592084,47.0779268 L41.4592084,47.5711884 L42.0767564,47.5711884 L42.0767564,47.8217032 L41.4592084,47.8217032 L41.4592084,49.0742771 C41.4592084,49.202448 41.4896324,49.3008405 41.5504812,49.3694573 C41.6113301,49.438074 41.6948342,49.4723819 41.800996,49.4723819 Z M44.3546931,48.6334487 C44.3546931,48.9804167 44.2673051,49.2513195 44.0925265,49.4461653 C43.9177478,49.6410111 43.676298,49.7384325 43.3681698,49.7384325 C43.1778553,49.7384325 43.0089052,49.6937675 42.8613143,49.6044362 C42.7137235,49.5151049 42.5997954,49.3869359 42.5195267,49.2199252 C42.439258,49.0529145 42.3991243,48.8574243 42.3991243,48.6334487 C42.3991243,48.2864808 42.485865,48.0162253 42.6593489,47.8226742 C42.8328329,47.629123 43.0736354,47.5323489 43.3817636,47.5323489 C43.6795346,47.5323489 43.9161295,47.6313887 44.0915555,47.8294711 C44.2669814,48.0275535 44.3546931,48.2955434 44.3546931,48.6334487 Z M42.733144,48.6334487 C42.733144,48.9053266 42.7875187,49.1124685 42.8962699,49.2548807 C43.005021,49.3972929 43.1649087,49.468498 43.3759377,49.468498 C43.5869667,49.468498 43.747178,49.3976166 43.8565765,49.2558517 C43.965975,49.1140868 44.0206734,48.9066213 44.0206734,48.6334487 C44.0206734,48.3628655 43.965975,48.1573419 43.8565765,48.0168717 C43.747178,47.8764015 43.5856721,47.8061674 43.3720537,47.8061674 C43.1610247,47.8061674 43.0017844,47.8754305 42.8943279,48.0139587 C42.7868714,48.152487 42.733144,48.3589816 42.733144,48.6334487 Z M46.2558866,47.5711884 L46.2558866,48.9519326 C46.2558866,49.1254166 46.295373,49.2548803 46.3743471,49.3403276 C46.4533211,49.425775 46.5769589,49.468498 46.7452643,49.468498 C46.9679452,49.468498 47.1307458,49.40765 47.233671,49.2859523 C47.3365962,49.1642546 47.388058,48.9655278 47.388058,48.689766 L47.388058,47.5711884 L47.7104258,47.5711884 L47.7104258,49.699593 L47.4443753,49.699593 L47.3977679,49.4141227 L47.3802901,49.4141227 C47.3142626,49.5189899 47.222667,49.5992573 47.1055006,49.6549276 C46.9883342,49.7105978 46.854663,49.7384325 46.7044828,49.7384325 C46.4455515,49.7384325 46.2516796,49.6769372 46.1228613,49.5539449 C45.994043,49.4309525 45.9296348,49.2341677 45.9296348,48.9635845 L45.9296348,47.5711884 L46.2558866,47.5711884 Z M49.3844083,49.7384325 C49.24588,49.7384325 49.1193293,49.7128634 49.0047522,49.6617245 C48.8901751,49.6105856 48.7940483,49.5319364 48.7163689,49.4257745 L48.6930652,49.4257745 C48.7086011,49.5500615 48.7163689,49.6678735 48.7163689,49.779214 L48.7163689,50.6550447 L48.394001,50.6550447 L48.394001,47.5711884 L48.6561677,47.5711884 L48.7008331,47.8624847 L48.7163689,47.8624847 C48.7992269,47.7459656 48.8956773,47.6618142 49.0057231,47.6100279 C49.1157689,47.5582417 49.2419961,47.5323489 49.3844083,47.5323489 C49.6666434,47.5323489 49.8844661,47.6287994 50.0378828,47.8217032 C50.1912996,48.014607 50.2680069,48.2851862 50.2680069,48.6334487 C50.2680069,48.983006 50.190005,49.2545561 50.0339989,49.4481072 C49.8779928,49.6416584 49.6614648,49.7384325 49.3844083,49.7384325 Z M49.3378009,47.8061674 C49.1202986,47.8061674 48.9630002,47.866368 48.865901,47.9867711 C48.7688017,48.1071741 48.7189582,48.2987804 48.7163689,48.5615957 L48.7163689,48.6334487 C48.7163689,48.9325144 48.7662124,49.1464532 48.865901,49.2752715 C48.9655895,49.4040898 49.1254772,49.468498 49.3455688,49.468498 C49.52941,49.468498 49.6734384,49.3940563 49.7776582,49.2451709 C49.881878,49.0962854 49.9339872,48.8910854 49.9339872,48.6295648 C49.9339872,48.3641602 49.881878,48.1605785 49.7776582,48.0188137 C49.6734384,47.8770488 49.5268207,47.8061674 49.3378009,47.8061674 Z M51.1535475,49.699593 L50.8311796,49.699593 L50.8311796,46.6778799 L51.1535475,46.6778799 L51.1535475,49.699593 Z M53.674231,48.6334487 C53.674231,48.9804167 53.586843,49.2513195 53.4120644,49.4461653 C53.2372857,49.6410111 52.9958359,49.7384325 52.6877077,49.7384325 C52.4973932,49.7384325 52.3284431,49.6937675 52.1808522,49.6044362 C52.0332614,49.5151049 51.9193333,49.3869359 51.8390646,49.2199252 C51.7587959,49.0529145 51.7186622,48.8574243 51.7186622,48.6334487 C51.7186622,48.2864808 51.8054029,48.0162253 51.9788868,47.8226742 C52.1523708,47.629123 52.3931733,47.5323489 52.7013015,47.5323489 C52.9990725,47.5323489 53.2356674,47.6313887 53.4110934,47.8294711 C53.5865193,48.0275535 53.674231,48.2955434 53.674231,48.6334487 Z M52.0526819,48.6334487 C52.0526819,48.9053266 52.1070566,49.1124685 52.2158078,49.2548807 C52.3245589,49.3972929 52.4844466,49.468498 52.6954756,49.468498 C52.9065046,49.468498 53.0667159,49.3976166 53.1761144,49.2558517 C53.2855129,49.1140868 53.3402113,48.9066213 53.3402113,48.6334487 C53.3402113,48.3628655 53.2855129,48.1573419 53.1761144,48.0168717 C53.0667159,47.8764015 52.90521,47.8061674 52.6915917,47.8061674 C52.4805626,47.8061674 52.3213223,47.8754305 52.2138658,48.0139587 C52.1064093,48.152487 52.0526819,48.3589816 52.0526819,48.6334487 Z M55.5482368,49.699593 L55.4841517,49.3966449 L55.4686159,49.3966449 C55.362454,49.5299945 55.2566175,49.6202955 55.151103,49.6675504 C55.0455885,49.7148054 54.9138591,49.7384325 54.7559111,49.7384325 C54.544882,49.7384325 54.3794922,49.6840577 54.2597364,49.5753066 C54.1399807,49.4665555 54.0801038,49.3118463 54.0801038,49.1111746 C54.0801038,48.6813486 54.4238299,48.4560818 55.1112925,48.4353673 L55.4724998,48.4237154 L55.4724998,48.2916611 C55.4724998,48.1246505 55.4365736,48.0013363 55.3647202,47.9217149 C55.2928668,47.8420935 55.1779677,47.8022834 55.0200196,47.8022834 C54.8426517,47.8022834 54.641983,47.8566582 54.4180074,47.9654093 L54.3189667,47.7187785 C54.4238339,47.6618136 54.5387329,47.6171487 54.6636672,47.5847823 C54.7886016,47.5524158 54.9138577,47.5362329 55.0394394,47.5362329 C55.2931921,47.5362329 55.4812381,47.5925496 55.6035831,47.7051847 C55.7259282,47.8178198 55.7870998,47.9984217 55.7870998,48.2469957 L55.7870998,49.699593 L55.5482368,49.699593 Z M54.8199962,49.4723819 C55.020668,49.4723819 55.17829,49.4173599 55.2928671,49.3073141 C55.4074442,49.1972683 55.4647319,49.0432064 55.4647319,48.845124 L55.4647319,48.6528685 L55.1423641,48.6664623 C54.8860221,48.6755249 54.7012127,48.715335 54.5879302,48.7858938 C54.4746478,48.8564526 54.4180074,48.966173 54.4180074,49.1150585 C54.4180074,49.2315776 54.4532863,49.3202603 54.523845,49.3811091 C54.5944038,49.441958 54.6931199,49.4723819 54.8199962,49.4723819 Z M57.8999685,49.4141227 L57.8824908,49.4141227 C57.7336053,49.6303303 57.5109277,49.7384325 57.2144514,49.7384325 C56.9361002,49.7384325 56.7195722,49.6432767 56.5648607,49.4529622 C56.4101493,49.2626477 56.3327947,48.9920685 56.3327947,48.6412166 C56.3327947,48.2903647 56.410473,48.0178436 56.5658317,47.8236452 C56.7211905,47.6294467 56.9373949,47.5323489 57.2144514,47.5323489 C57.5031598,47.5323489 57.7245427,47.6372145 57.8786068,47.8469489 L57.9038525,47.8469489 L57.8902587,47.6935329 L57.8824908,47.5440008 L57.8824908,46.6778799 L58.2048586,46.6778799 L58.2048586,49.699593 L57.942692,49.699593 L57.8999685,49.4141227 Z M57.2552328,49.468498 C57.4753244,49.468498 57.6348885,49.408621 57.7339297,49.2888653 C57.8329709,49.1691096 57.8824908,48.975885 57.8824908,48.7091858 L57.8824908,48.6412166 C57.8824908,48.3395617 57.8323236,48.1243283 57.7319877,47.99551 C57.6316518,47.8666916 57.4714405,47.8022834 57.2513489,47.8022834 C57.0623291,47.8022834 56.9176534,47.8757541 56.8173175,48.0226976 C56.7169816,48.1696411 56.6668144,48.3771067 56.6668144,48.6451006 C56.6668144,48.9169784 56.716658,49.1221784 56.8163465,49.2607067 C56.916035,49.3992349 57.062329,49.468498 57.2552328,49.468498 Z M60.8809001,47.8217032 L60.3390891,47.8217032 L60.3390891,49.699593 L60.0167213,49.699593 L60.0167213,47.8217032 L59.6360942,47.8217032 L59.6360942,47.6760551 L60.0167213,47.5595366 L60.0167213,47.4410761 C60.0167213,46.9180349 60.2452247,46.6565182 60.7022384,46.6565182 C60.8148735,46.6565182 60.9469265,46.6791744 61.0984013,46.7244873 L61.0148964,46.98277 C60.8906094,46.9426357 60.7844491,46.9225688 60.6964125,46.9225688 C60.5747148,46.9225688 60.4847375,46.9630262 60.426478,47.0439422 C60.3682184,47.1248582 60.3390891,47.2546456 60.3390891,47.4333082 L60.3390891,47.5711884 L60.8809001,47.5711884 L60.8809001,47.8217032 Z M61.591663,49.699593 L61.2692951,49.699593 L61.2692951,46.6778799 L61.591663,46.6778799 L61.591663,49.699593 Z M64.1123465,48.6334487 C64.1123465,48.9804167 64.0249585,49.2513195 63.8501799,49.4461653 C63.6754012,49.6410111 63.4339514,49.7384325 63.1258232,49.7384325 C62.9355087,49.7384325 62.7665586,49.6937675 62.6189677,49.6044362 C62.4713769,49.5151049 62.3574488,49.3869359 62.2771801,49.2199252 C62.1969114,49.0529145 62.1567777,48.8574243 62.1567777,48.6334487 C62.1567777,48.2864808 62.2435184,48.0162253 62.4170023,47.8226742 C62.5904863,47.629123 62.8312888,47.5323489 63.139417,47.5323489 C63.437188,47.5323489 63.6737829,47.6313887 63.8492089,47.8294711 C64.0246348,48.0275535 64.1123465,48.2955434 64.1123465,48.6334487 Z M62.4907974,48.6334487 C62.4907974,48.9053266 62.5451721,49.1124685 62.6539233,49.2548807 C62.7626744,49.3972929 62.9225621,49.468498 63.1335911,49.468498 C63.3446201,49.468498 63.5048314,49.3976166 63.6142299,49.2558517 C63.7236284,49.1140868 63.7783268,48.9066213 63.7783268,48.6334487 C63.7783268,48.3628655 63.7236284,48.1573419 63.6142299,48.0168717 C63.5048314,47.8764015 63.3433255,47.8061674 63.1297071,47.8061674 C62.9186781,47.8061674 62.7594378,47.8754305 62.6519813,48.0139587 C62.5445248,48.152487 62.4907974,48.3589816 62.4907974,48.6334487 Z M66.5145695,48.6334487 C66.5145695,48.9804167 66.4271815,49.2513195 66.2524029,49.4461653 C66.0776243,49.6410111 65.8361745,49.7384325 65.5280462,49.7384325 C65.3377317,49.7384325 65.1687816,49.6937675 65.0211908,49.6044362 C64.8735999,49.5151049 64.7596719,49.3869359 64.6794032,49.2199252 C64.5991345,49.0529145 64.5590007,48.8574243 64.5590007,48.6334487 C64.5590007,48.2864808 64.6457414,48.0162253 64.8192254,47.8226742 C64.9927093,47.629123 65.2335118,47.5323489 65.5416401,47.5323489 C65.8394111,47.5323489 66.076006,47.6313887 66.2514319,47.8294711 C66.4268579,48.0275535 66.5145695,48.2955434 66.5145695,48.6334487 Z M64.8930204,48.6334487 C64.8930204,48.9053266 64.9473952,49.1124685 65.0561463,49.2548807 C65.1648975,49.3972929 65.3247851,49.468498 65.5358141,49.468498 C65.7468431,49.468498 65.9070545,49.3976166 66.0164529,49.2558517 C66.1258514,49.1140868 66.1805498,48.9066213 66.1805498,48.6334487 C66.1805498,48.3628655 66.1258514,48.1573419 66.0164529,48.0168717 C65.9070545,47.8764015 65.7455485,47.8061674 65.5319302,47.8061674 C65.3209012,47.8061674 65.1616608,47.8754305 65.0542043,48.0139587 C64.9467479,48.152487 64.8930204,48.3589816 64.8930204,48.6334487 Z M68.0506717,47.5323489 C68.1451817,47.5323489 68.2299804,47.5401167 68.3050705,47.5556526 L68.260405,47.8547168 C68.1723684,47.8352969 68.0946902,47.8255871 68.027368,47.8255871 C67.8551787,47.8255871 67.7079138,47.8954975 67.5855687,48.0353204 C67.4632237,48.1751433 67.4020521,48.349272 67.4020521,48.5577117 L67.4020521,49.699593 L67.0796842,49.699593 L67.0796842,47.5711884 L67.3457348,47.5711884 L67.3826323,47.9654093 L67.3981681,47.9654093 C67.4771422,47.8268811 67.572298,47.7200736 67.6836385,47.6449835 C67.7949789,47.5698934 67.9173221,47.5323489 68.0506717,47.5323489 Z M69.6935826,49.7384325 C69.5550543,49.7384325 69.4285036,49.7128634 69.3139265,49.6617245 C69.1993494,49.6105856 69.1032226,49.5319364 69.0255432,49.4257745 L69.0022395,49.4257745 C69.0177753,49.5500615 69.0255432,49.6678735 69.0255432,49.779214 L69.0255432,50.6550447 L68.7031753,50.6550447 L68.7031753,47.5711884 L68.9653419,47.5711884 L69.0100074,47.8624847 L69.0255432,47.8624847 C69.1084012,47.7459656 69.2048516,47.6618142 69.3148974,47.6100279 C69.4249432,47.5582417 69.5511704,47.5323489 69.6935826,47.5323489 C69.9758177,47.5323489 70.1936404,47.6287994 70.3470571,47.8217032 C70.5004739,48.014607 70.5771812,48.2851862 70.5771812,48.6334487 C70.5771812,48.983006 70.4991793,49.2545561 70.3431732,49.4481072 C70.1871671,49.6416584 69.970639,49.7384325 69.6935826,49.7384325 Z M69.6469752,47.8061674 C69.4294729,47.8061674 69.2721745,47.866368 69.1750752,47.9867711 C69.077976,48.1071741 69.0281325,48.2987804 69.0255432,48.5615957 L69.0255432,48.6334487 C69.0255432,48.9325144 69.0753867,49.1464532 69.1750752,49.2752715 C69.2747638,49.4040898 69.4346515,49.468498 69.6547431,49.468498 C69.8385843,49.468498 69.9826127,49.3940563 70.0868325,49.2451709 C70.1910523,49.0962854 70.2431615,48.8910854 70.2431615,48.6295648 C70.2431615,48.3641602 70.1910523,48.1605785 70.0868325,48.0188137 C69.9826127,47.8770488 69.835995,47.8061674 69.6469752,47.8061674 Z M71.4627218,49.699593 L71.1403539,49.699593 L71.1403539,46.6778799 L71.4627218,46.6778799 L71.4627218,49.699593 Z M73.4551881,49.699593 L73.3911029,49.3966449 L73.3755671,49.3966449 C73.2694053,49.5299945 73.1635687,49.6202955 73.0580542,49.6675504 C72.9525397,49.7148054 72.8208104,49.7384325 72.6628623,49.7384325 C72.4518333,49.7384325 72.2864434,49.6840577 72.1666877,49.5753066 C72.046932,49.4665555 71.987055,49.3118463 71.987055,49.1111746 C71.987055,48.6813486 72.3307811,48.4560818 73.0182437,48.4353673 L73.3794511,48.4237154 L73.3794511,48.2916611 C73.3794511,48.1246505 73.3435249,48.0013363 73.2716715,47.9217149 C73.199818,47.8420935 73.084919,47.8022834 72.9269709,47.8022834 C72.749603,47.8022834 72.5489342,47.8566582 72.3249587,47.9654093 L72.2259179,47.7187785 C72.3307851,47.6618136 72.4456841,47.6171487 72.5706185,47.5847823 C72.6955528,47.5524158 72.820809,47.5362329 72.9463906,47.5362329 C73.2001433,47.5362329 73.3881893,47.5925496 73.5105344,47.7051847 C73.6328794,47.8178198 73.694051,47.9984217 73.694051,48.2469957 L73.694051,49.699593 L73.4551881,49.699593 Z M72.7269475,49.4723819 C72.9276192,49.4723819 73.0852413,49.4173599 73.1998184,49.3073141 C73.3143955,49.1972683 73.3716832,49.0432064 73.3716832,48.845124 L73.3716832,48.6528685 L73.0493153,48.6664623 C72.7929733,48.6755249 72.6081639,48.715335 72.4948815,48.7858938 C72.381599,48.8564526 72.3249587,48.966173 72.3249587,49.1150585 C72.3249587,49.2315776 72.3602375,49.3202603 72.4307963,49.3811091 C72.5013551,49.441958 72.6000711,49.4723819 72.7269475,49.4723819 Z M75.8146877,49.699593 L75.8146877,48.3227327 C75.8146877,48.1492488 75.7752013,48.0197851 75.6962272,47.9343377 C75.6172532,47.8488904 75.4936153,47.8061674 75.32531,47.8061674 C75.1026291,47.8061674 74.9395048,47.866368 74.8359323,47.9867711 C74.7323598,48.1071741 74.6805743,48.3059009 74.6805743,48.5829574 L74.6805743,49.699593 L74.3582065,49.699593 L74.3582065,47.5711884 L74.6203731,47.5711884 L74.6728064,47.8624847 L74.6883422,47.8624847 C74.7543697,47.7576175 74.8469362,47.676379 74.9660446,47.6187668 C75.085153,47.5611546 75.2178533,47.5323489 75.3641495,47.5323489 C75.6204915,47.5323489 75.8133924,47.5941678 75.942858,47.7178075 C76.0723237,47.8414472 76.1370555,48.039203 76.1370555,48.3110809 L76.1370555,49.699593 L75.8146877,49.699593 Z" id="tspan30504" fill="#FFFFFF"></path>
            <path d="M32.6885467,54.671047 L32.6244616,54.3680989 L32.6089258,54.3680989 C32.5027639,54.5014485 32.3969273,54.5917495 32.2914128,54.6390044 C32.1858983,54.6862594 32.054169,54.7098865 31.8962209,54.7098865 C31.6851919,54.7098865 31.5198021,54.6555117 31.4000463,54.5467606 C31.2802906,54.4380095 31.2204136,54.2833003 31.2204136,54.0826286 C31.2204136,53.6528026 31.5641398,53.4275358 32.2516024,53.4068213 L32.6128097,53.3951694 L32.6128097,53.2631151 C32.6128097,53.0961045 32.5768835,52.9727903 32.5050301,52.8931689 C32.4331767,52.8135475 32.3182776,52.7737374 32.1603295,52.7737374 C31.9829616,52.7737374 31.7822929,52.8281122 31.5583173,52.9368633 L31.4592766,52.6902325 C31.5641437,52.6332676 31.6790428,52.5886027 31.8039771,52.5562363 C31.9289115,52.5238698 32.0541676,52.5076869 32.1797493,52.5076869 C32.433502,52.5076869 32.621548,52.5640036 32.743893,52.6766387 C32.8662381,52.7892738 32.9274097,52.9698757 32.9274097,53.2184497 L32.9274097,54.671047 L32.6885467,54.671047 Z M31.9603061,54.4438359 C32.1609779,54.4438359 32.3185999,54.3888139 32.433177,54.2787681 C32.5477541,54.1687223 32.6050418,54.0146604 32.6050418,53.816578 L32.6050418,53.6243225 L32.282674,53.6379163 C32.026332,53.6469789 31.8415225,53.686789 31.7282401,53.7573478 C31.6149577,53.8279066 31.5583173,53.937627 31.5583173,54.0865125 C31.5583173,54.2030316 31.5935962,54.2917143 31.6641549,54.3525631 C31.7347137,54.413412 31.8334298,54.4438359 31.9603061,54.4438359 Z M35.0480463,54.671047 L35.0480463,53.2941867 C35.0480463,53.1207028 35.0085599,52.9912391 34.9295859,52.9057917 C34.8506118,52.8203444 34.726974,52.7776214 34.5586686,52.7776214 C34.3359877,52.7776214 34.1728635,52.837822 34.0692909,52.9582251 C33.9657184,53.0786281 33.9139329,53.2773549 33.9139329,53.5544114 L33.9139329,54.671047 L33.5915651,54.671047 L33.5915651,52.5426424 L33.8537317,52.5426424 L33.906165,52.8339387 L33.9217008,52.8339387 C33.9877283,52.7290715 34.0802949,52.647833 34.1994033,52.5902208 C34.3185117,52.5326086 34.451212,52.5038029 34.5975081,52.5038029 C34.8538501,52.5038029 35.046751,52.5656218 35.1762167,52.6892615 C35.3056823,52.8129012 35.3704142,53.010657 35.3704142,53.2825349 L35.3704142,54.671047 L35.0480463,54.671047 Z M37.481341,54.3855767 L37.4638632,54.3855767 C37.3149777,54.6017843 37.0923001,54.7098865 36.7958238,54.7098865 C36.5174727,54.7098865 36.3009446,54.6147307 36.1462332,54.4244162 C35.9915217,54.2341017 35.9141672,53.9635225 35.9141672,53.6126706 C35.9141672,53.2618187 35.9918454,52.9892976 36.1472042,52.7950992 C36.3025629,52.6009007 36.5187673,52.5038029 36.7958238,52.5038029 C37.0845322,52.5038029 37.3059151,52.6086685 37.4599792,52.8184029 L37.4852249,52.8184029 L37.4716311,52.6649869 L37.4638632,52.5154548 L37.4638632,51.6493339 L37.786231,51.6493339 L37.786231,54.671047 L37.5240644,54.671047 L37.481341,54.3855767 Z M36.8366053,54.439952 C37.0566969,54.439952 37.2162609,54.380075 37.3153021,54.2603193 C37.4143433,54.1405636 37.4638632,53.947339 37.4638632,53.6806398 L37.4638632,53.6126706 C37.4638632,53.3110157 37.413696,53.0957823 37.3133601,52.966964 C37.2130243,52.8381456 37.0528129,52.7737374 36.8327213,52.7737374 C36.6437015,52.7737374 36.4990258,52.8472081 36.3986899,52.9941516 C36.298354,53.1410951 36.2481869,53.3485607 36.2481869,53.6165546 C36.2481869,53.8884324 36.2980304,54.0936324 36.3977189,54.2321607 C36.4974075,54.3706889 36.6437015,54.439952 36.8366053,54.439952 Z M40.4933442,54.7098865 C40.3548159,54.7098865 40.2282651,54.6843174 40.113688,54.6331785 C39.999111,54.5820396 39.9029842,54.5033904 39.8253048,54.3972285 L39.8020011,54.3972285 C39.8175369,54.5215155 39.8253048,54.6393275 39.8253048,54.750668 L39.8253048,55.6264987 L39.5029369,55.6264987 L39.5029369,52.5426424 L39.7651035,52.5426424 L39.809769,52.8339387 L39.8253048,52.8339387 C39.9081628,52.7174196 40.0046132,52.6332682 40.114659,52.5814819 C40.2247048,52.5296957 40.3509319,52.5038029 40.4933442,52.5038029 C40.7755793,52.5038029 40.9934019,52.6002534 41.1468187,52.7931572 C41.3002355,52.986061 41.3769428,53.2566402 41.3769428,53.6049027 C41.3769428,53.95446 41.2989409,54.2260101 41.1429348,54.4195612 C40.9869287,54.6131124 40.7704006,54.7098865 40.4933442,54.7098865 Z M40.4467368,52.7776214 C40.2292345,52.7776214 40.0719361,52.837822 39.9748368,52.9582251 C39.8777376,53.0786281 39.8278941,53.2702344 39.8253048,53.5330497 L39.8253048,53.6049027 C39.8253048,53.9039684 39.8751483,54.1179072 39.9748368,54.2467255 C40.0745254,54.3755438 40.2344131,54.439952 40.4545047,54.439952 C40.6383459,54.439952 40.7823742,54.3655103 40.8865941,54.2166249 C40.9908139,54.0677394 41.0429231,53.8625394 41.0429231,53.6010188 C41.0429231,53.3356142 40.9908139,53.1320325 40.8865941,52.9902677 C40.7823742,52.8485028 40.6357566,52.7776214 40.4467368,52.7776214 Z M43.7772238,53.6049027 C43.7772238,53.9518707 43.6898358,54.2227735 43.5150572,54.4176193 C43.3402786,54.6124651 43.0988288,54.7098865 42.7907006,54.7098865 C42.6003861,54.7098865 42.4314359,54.6652215 42.2838451,54.5758902 C42.1362542,54.4865589 42.0223262,54.3583899 41.9420575,54.1913792 C41.8617888,54.0243685 41.821655,53.8288783 41.821655,53.6049027 C41.821655,53.2579348 41.9083957,52.9876793 42.0818797,52.7941282 C42.2553637,52.600577 42.4961661,52.5038029 42.8042944,52.5038029 C43.1020654,52.5038029 43.3386603,52.6028427 43.5140862,52.8009251 C43.6895122,52.9990075 43.7772238,53.2669974 43.7772238,53.6049027 Z M42.1556747,53.6049027 C42.1556747,53.8767806 42.2100495,54.0839225 42.3188006,54.2263347 C42.4275518,54.3687469 42.5874394,54.439952 42.7984685,54.439952 C43.0094975,54.439952 43.1697088,54.3690706 43.2791073,54.2273057 C43.3885057,54.0855408 43.4432041,53.8780753 43.4432041,53.6049027 C43.4432041,53.3343195 43.3885057,53.1287959 43.2791073,52.9883257 C43.1697088,52.8478555 43.0082028,52.7776214 42.7945845,52.7776214 C42.5835555,52.7776214 42.4243151,52.8468845 42.3168587,52.9854127 C42.2094022,53.123941 42.1556747,53.3304356 42.1556747,53.6049027 Z M45.7153149,54.0903965 C45.7153149,54.2884789 45.6415206,54.4412461 45.4939297,54.5487026 C45.3463389,54.6561591 45.139197,54.7098865 44.8724977,54.7098865 C44.5902626,54.7098865 44.3701743,54.6652215 44.2122262,54.5758902 L44.2122262,54.2768261 C44.3145041,54.3286123 44.4242246,54.3693934 44.541391,54.3991705 C44.6585574,54.4289476 44.7715145,54.4438359 44.8802656,54.4438359 C45.048571,54.4438359 45.1780347,54.4169722 45.2686606,54.363244 C45.3592866,54.3095157 45.4045989,54.2276299 45.4045989,54.1175841 C45.4045989,54.0347261 45.3686727,53.9638447 45.2968193,53.9049379 C45.2249658,53.846031 45.0848214,53.7764443 44.8763817,53.6961756 C44.6782992,53.6223801 44.5375075,53.557972 44.4540021,53.5029491 C44.3704968,53.4479262 44.3083542,53.3854599 44.2675725,53.3155485 C44.2267908,53.245637 44.2064003,53.1621329 44.2064003,53.0650337 C44.2064003,52.8915497 44.276958,52.7546419 44.4180756,52.654306 C44.5591931,52.5539701 44.7527414,52.5038029 44.9987261,52.5038029 C45.2278803,52.5038029 45.4518525,52.5504099 45.6706494,52.6436251 L45.5560729,52.9057917 C45.3424546,52.8177551 45.1489064,52.7737374 44.9754224,52.7737374 C44.8226529,52.7737374 44.7074302,52.7976882 44.6297509,52.8455905 C44.5520715,52.8934928 44.5132324,52.9595193 44.5132324,53.043672 C44.5132324,53.1006369 44.527797,53.1491857 44.5569268,53.1893201 C44.5860566,53.2294544 44.6329872,53.2676462 44.69772,53.3038966 C44.7624528,53.340147 44.886738,53.3925798 45.0705792,53.4611966 C45.3230372,53.5531172 45.4936056,53.6456837 45.5822896,53.738899 C45.6709735,53.8321143 45.7153149,53.9492789 45.7153149,54.0903965 Z M46.562016,54.671047 L46.2396481,54.671047 L46.2396481,52.5426424 L46.562016,52.5426424 L46.562016,54.671047 Z M46.2124605,51.9658759 C46.2124605,51.8920804 46.2305854,51.8380293 46.2668358,51.8037209 C46.3030861,51.7694126 46.3483984,51.7522586 46.402774,51.7522586 C46.4545603,51.7522586 46.4992252,51.7697362 46.5367703,51.8046919 C46.5743153,51.8396477 46.5930876,51.8933751 46.5930876,51.9658759 C46.5930876,52.0383766 46.5743153,52.0924277 46.5367703,52.1280308 C46.4992252,52.1636338 46.4545603,52.1814351 46.402774,52.1814351 C46.3483984,52.1814351 46.3030861,52.1636338 46.2668358,52.1280308 C46.2305854,52.0924277 46.2124605,52.0383766 46.2124605,51.9658759 Z M47.9330503,54.4438359 C47.9900152,54.4438359 48.0450372,54.4396284 48.0981182,54.4312131 C48.1511991,54.4227978 48.1932748,54.414059 48.2243465,54.4049964 L48.2243465,54.6516273 C48.1893908,54.6684578 48.137929,54.6823751 48.0699595,54.6933797 C48.0019901,54.7043843 47.9408185,54.7098865 47.8864429,54.7098865 C47.4747421,54.7098865 47.2688948,54.4930348 47.2688948,54.0593249 L47.2688948,52.7931572 L46.9640048,52.7931572 L46.9640048,52.6377992 L47.2688948,52.5038029 L47.4048331,52.0493808 L47.5912627,52.0493808 L47.5912627,52.5426424 L48.2088107,52.5426424 L48.2088107,52.7931572 L47.5912627,52.7931572 L47.5912627,54.0457311 C47.5912627,54.173902 47.6216867,54.2722945 47.6825355,54.3409113 C47.7433844,54.409528 47.8268885,54.4438359 47.9330503,54.4438359 Z M48.9720069,54.671047 L48.6496391,54.671047 L48.6496391,52.5426424 L48.9720069,52.5426424 L48.9720069,54.671047 Z M48.6224514,51.9658759 C48.6224514,51.8920804 48.6405763,51.8380293 48.6768267,51.8037209 C48.7130771,51.7694126 48.7583894,51.7522586 48.812765,51.7522586 C48.8645512,51.7522586 48.9092162,51.7697362 48.9467612,51.8046919 C48.9843063,51.8396477 49.0030785,51.8933751 49.0030785,51.9658759 C49.0030785,52.0383766 48.9843063,52.0924277 48.9467612,52.1280308 C48.9092162,52.1636338 48.8645512,52.1814351 48.812765,52.1814351 C48.7583894,52.1814351 48.7130771,52.1636338 48.6768267,52.1280308 C48.6405763,52.0924277 48.6224514,52.0383766 48.6224514,51.9658759 Z M51.4926904,53.6049027 C51.4926904,53.9518707 51.4053024,54.2227735 51.2305238,54.4176193 C51.0557452,54.6124651 50.8142954,54.7098865 50.5061671,54.7098865 C50.3158526,54.7098865 50.1469025,54.6652215 49.9993117,54.5758902 C49.8517208,54.4865589 49.7377928,54.3583899 49.6575241,54.1913792 C49.5772554,54.0243685 49.5371216,53.8288783 49.5371216,53.6049027 C49.5371216,53.2579348 49.6238623,52.9876793 49.7973463,52.7941282 C49.9708302,52.600577 50.2116327,52.5038029 50.519761,52.5038029 C50.8175319,52.5038029 51.0541269,52.6028427 51.2295528,52.8009251 C51.4049788,52.9990075 51.4926904,53.2669974 51.4926904,53.6049027 Z M49.8711413,53.6049027 C49.8711413,53.8767806 49.9255161,54.0839225 50.0342672,54.2263347 C50.1430184,54.3687469 50.302906,54.439952 50.513935,54.439952 C50.724964,54.439952 50.8851754,54.3690706 50.9945738,54.2273057 C51.1039723,54.0855408 51.1586707,53.8780753 51.1586707,53.6049027 C51.1586707,53.3343195 51.1039723,53.1287959 50.9945738,52.9883257 C50.8851754,52.8478555 50.7236694,52.7776214 50.5100511,52.7776214 C50.2990221,52.7776214 50.1397817,52.8468845 50.0323252,52.9854127 C49.9248688,53.123941 49.8711413,53.3304356 49.8711413,53.6049027 Z M53.5142864,54.671047 L53.5142864,53.2941867 C53.5142864,53.1207028 53.4747999,52.9912391 53.3958259,52.9057917 C53.3168519,52.8203444 53.193214,52.7776214 53.0249087,52.7776214 C52.8022278,52.7776214 52.6391035,52.837822 52.535531,52.9582251 C52.4319585,53.0786281 52.380173,53.2773549 52.380173,53.5544114 L52.380173,54.671047 L52.0578051,54.671047 L52.0578051,52.5426424 L52.3199718,52.5426424 L52.3724051,52.8339387 L52.3879409,52.8339387 C52.4539684,52.7290715 52.5465349,52.647833 52.6656433,52.5902208 C52.7847517,52.5326086 52.917452,52.5038029 53.0637482,52.5038029 C53.3200902,52.5038029 53.5129911,52.5656218 53.6424567,52.6892615 C53.7719224,52.8129012 53.8366542,53.010657 53.8366542,53.2825349 L53.8366542,54.671047 L53.5142864,54.671047 Z M56.9807117,54.3855767 L56.9632339,54.3855767 C56.8143484,54.6017843 56.5916709,54.7098865 56.2951945,54.7098865 C56.0168434,54.7098865 55.8003153,54.6147307 55.6456039,54.4244162 C55.4908925,54.2341017 55.4135379,53.9635225 55.4135379,53.6126706 C55.4135379,53.2618187 55.4912161,52.9892976 55.6465749,52.7950992 C55.8019337,52.6009007 56.0181381,52.5038029 56.2951945,52.5038029 C56.5839029,52.5038029 56.8052859,52.6086685 56.95935,52.8184029 L56.9845956,52.8184029 L56.9710018,52.6649869 L56.9632339,52.5154548 L56.9632339,51.6493339 L57.2856018,51.6493339 L57.2856018,54.671047 L57.0234351,54.671047 L56.9807117,54.3855767 Z M56.335976,54.439952 C56.5560676,54.439952 56.7156316,54.380075 56.8146728,54.2603193 C56.9137141,54.1405636 56.9632339,53.947339 56.9632339,53.6806398 L56.9632339,53.6126706 C56.9632339,53.3110157 56.9130667,53.0957823 56.8127309,52.966964 C56.712395,52.8381456 56.5521837,52.7737374 56.3320921,52.7737374 C56.1430722,52.7737374 55.9983965,52.8472081 55.8980606,52.9941516 C55.7977248,53.1410951 55.7475576,53.3485607 55.7475576,53.6165546 C55.7475576,53.8884324 55.7974011,54.0936324 55.8970897,54.2321607 C55.9967782,54.3706889 56.1430722,54.439952 56.335976,54.439952 Z M58.8683114,54.7098865 C58.5537099,54.7098865 58.3054632,54.6140834 58.123564,54.4224742 C57.9416647,54.230865 57.8507165,53.9648171 57.8507165,53.6243225 C57.8507165,53.2812385 57.9351916,53.0087174 58.1041442,52.806751 C58.2730969,52.6047846 58.499982,52.5038029 58.7848065,52.5038029 C59.0515057,52.5038029 59.2625315,52.5915146 59.4178903,52.7669405 C59.5732491,52.9423665 59.6509273,53.1737829 59.6509273,53.4611966 L59.6509273,53.665104 L58.1847362,53.665104 C58.1912095,53.9149727 58.254323,54.104637 58.3740787,54.2341026 C58.4938345,54.3635683 58.6624609,54.4283001 58.8799632,54.4283001 C59.1091174,54.4283001 59.3356789,54.3803986 59.5596545,54.284594 L59.5596545,54.5720063 C59.4457247,54.6212032 59.3379462,54.6564821 59.2363156,54.6778439 C59.1346851,54.6992057 59.0120182,54.7098865 58.8683114,54.7098865 Z M58.7809225,52.7737374 C58.6100278,52.7737374 58.4737673,52.8294068 58.3721368,52.9407473 C58.2705062,53.0520878 58.2106293,53.2061496 58.1925041,53.4029373 L59.3052557,53.4029373 C59.3052557,53.1996763 59.2599434,53.0439962 59.1693175,52.9358924 C59.0786915,52.8277885 58.9492278,52.7737374 58.7809225,52.7737374 Z M60.5869592,54.671047 L59.7790976,52.5426424 L60.1247692,52.5426424 L60.5830753,53.8049262 C60.6866478,54.1001078 60.7474957,54.2917141 60.7656209,54.3797508 L60.7811567,54.3797508 C60.7953979,54.311134 60.8403866,54.1690475 60.916124,53.9534872 C60.9918614,53.7379269 61.1617825,53.26765 61.4258924,52.5426424 L61.771564,52.5426424 L60.9637024,54.671047 L60.5869592,54.671047 Z M62.4357194,54.671047 L62.1133516,54.671047 L62.1133516,52.5426424 L62.4357194,52.5426424 L62.4357194,54.671047 Z M62.0861639,51.9658759 C62.0861639,51.8920804 62.1042888,51.8380293 62.1405392,51.8037209 C62.1767896,51.7694126 62.2221019,51.7522586 62.2764775,51.7522586 C62.3282637,51.7522586 62.3729287,51.7697362 62.4104737,51.8046919 C62.4480188,51.8396477 62.466791,51.8933751 62.466791,51.9658759 C62.466791,52.0383766 62.4480188,52.0924277 62.4104737,52.1280308 C62.3729287,52.1636338 62.3282637,52.1814351 62.2764775,52.1814351 C62.2221019,52.1814351 62.1767896,52.1636338 62.1405392,52.1280308 C62.1042888,52.0924277 62.0861639,52.0383766 62.0861639,51.9658759 Z M63.9698796,54.7098865 C63.6617514,54.7098865 63.4232145,54.6150543 63.2542619,54.4253872 C63.0853092,54.23572 63.0008341,53.9674065 63.0008341,53.6204385 C63.0008341,53.264408 63.0866038,52.9892976 63.2581458,52.7950992 C63.4296878,52.6009007 63.6740505,52.5038029 63.9912414,52.5038029 C64.0935192,52.5038029 64.1957955,52.5148073 64.2980734,52.5368165 C64.4003513,52.5588257 64.4806188,52.5847184 64.5388783,52.6144955 L64.4398376,52.888314 C64.3686315,52.8598315 64.2909533,52.8362044 64.2068006,52.8174319 C64.1226479,52.7986594 64.0482063,52.7892732 63.9834735,52.7892732 C63.5510582,52.7892732 63.3348538,53.0650309 63.3348538,53.6165546 C63.3348538,53.8780752 63.3876103,54.0787439 63.4931248,54.2185668 C63.5986393,54.3583897 63.7549667,54.4283001 63.9621117,54.4283001 C64.1394797,54.4283001 64.3213762,54.3901083 64.5078067,54.3137236 L64.5078067,54.5991939 C64.3653945,54.6729893 64.1860873,54.7098865 63.9698796,54.7098865 Z M65.9118546,54.7098865 C65.5972531,54.7098865 65.3490064,54.6140834 65.1671072,54.4224742 C64.985208,54.230865 64.8942597,53.9648171 64.8942597,53.6243225 C64.8942597,53.2812385 64.9787348,53.0087174 65.1476875,52.806751 C65.3166401,52.6047846 65.5435253,52.5038029 65.8283497,52.5038029 C66.0950489,52.5038029 66.3060748,52.5915146 66.4614335,52.7669405 C66.6167923,52.9423665 66.6944705,53.1737829 66.6944705,53.4611966 L66.6944705,53.665104 L65.2282794,53.665104 C65.2347527,53.9149727 65.2978663,54.104637 65.417622,54.2341026 C65.5373777,54.3635683 65.7060042,54.4283001 65.9235065,54.4283001 C66.1526607,54.4283001 66.3792221,54.3803986 66.6031977,54.284594 L66.6031977,54.5720063 C66.4892679,54.6212032 66.3814894,54.6564821 66.2798589,54.6778439 C66.1782283,54.6992057 66.0555615,54.7098865 65.9118546,54.7098865 Z M65.8244657,52.7737374 C65.6535711,52.7737374 65.5173105,52.8294068 65.41568,52.9407473 C65.3140495,53.0520878 65.2541725,53.2061496 65.2360473,53.4029373 L66.348799,53.4029373 C66.348799,53.1996763 66.3034867,53.0439962 66.2128607,52.9358924 C66.1222348,52.8277885 65.9927711,52.7737374 65.8244657,52.7737374 Z M68.6170258,54.0903965 C68.6170258,54.2884789 68.5432314,54.4412461 68.3956406,54.5487026 C68.2480498,54.6561591 68.0409078,54.7098865 67.7742086,54.7098865 C67.4919735,54.7098865 67.2718852,54.6652215 67.1139371,54.5758902 L67.1139371,54.2768261 C67.216215,54.3286123 67.3259355,54.3693934 67.4431019,54.3991705 C67.5602683,54.4289476 67.6732254,54.4438359 67.7819765,54.4438359 C67.9502819,54.4438359 68.0797456,54.4169722 68.1703715,54.363244 C68.2609975,54.3095157 68.3063098,54.2276299 68.3063098,54.1175841 C68.3063098,54.0347261 68.2703836,53.9638447 68.1985301,53.9049379 C68.1266767,53.846031 67.9865323,53.7764443 67.7780926,53.6961756 C67.5800101,53.6223801 67.4392183,53.557972 67.355713,53.5029491 C67.2722077,53.4479262 67.2100651,53.3854599 67.1692834,53.3155485 C67.1285017,53.245637 67.1081112,53.1621329 67.1081112,53.0650337 C67.1081112,52.8915497 67.1786689,52.7546419 67.3197865,52.654306 C67.460904,52.5539701 67.6544523,52.5038029 67.900437,52.5038029 C68.1295912,52.5038029 68.3535634,52.5504099 68.5723603,52.6436251 L68.4577838,52.9057917 C68.2441655,52.8177551 68.0506173,52.7737374 67.8771333,52.7737374 C67.7243638,52.7737374 67.6091411,52.7976882 67.5314617,52.8455905 C67.4537824,52.8934928 67.4149432,52.9595193 67.4149432,53.043672 C67.4149432,53.1006369 67.4295079,53.1491857 67.4586377,53.1893201 C67.4877674,53.2294544 67.534698,53.2676462 67.5994309,53.3038966 C67.6641637,53.340147 67.7884488,53.3925798 67.9722901,53.4611966 C68.2247481,53.5531172 68.3953165,53.6456837 68.4840005,53.738899 C68.5726844,53.8321143 68.6170258,53.9492789 68.6170258,54.0903965 Z M69.0947516,54.4651977 C69.0947516,54.3784557 69.1144948,54.3127528 69.1539818,54.2680872 C69.1934689,54.2234215 69.2501092,54.2010891 69.3239046,54.2010891 C69.3989947,54.2010891 69.457577,54.2234215 69.4996534,54.2680872 C69.5417297,54.3127528 69.5627676,54.3784557 69.5627676,54.4651977 C69.5627676,54.5493503 69.5414061,54.6140822 69.4986824,54.6593952 C69.4559587,54.7047081 69.3977001,54.7273643 69.3239046,54.7273643 C69.2578772,54.7273643 69.2031787,54.7069737 69.1598078,54.6661921 C69.1164368,54.6254104 69.0947516,54.5584129 69.0947516,54.4651977 Z" id="tspan31014" fill="#FFFFFF"></path>
            <g id="g30506" transform="translate(34.613191, 45.515863)" fill="#FFFFFF" fill-rule="nonzero">
                <circle id="circle30508" fill-opacity="0.19607843" cx="2.63623744" cy="2.55556963" r="2.54538536"></circle>
                <g id="g30510" transform="translate(1.499905, 1.417990)">
                    <g id="g30512">
                        <path d="M1.41320204,0.380525424 L1.87551358,0.84509677 L0.705275401,2.02106606 L0.243225974,1.55649472 L1.41320204,0.380525424 Z M2.22631862,0.268481467 L2.02014546,0.0612985977 C1.94046665,-0.0187704286 1.81108474,-0.0187704286 1.73113522,0.0612985977 L1.53364195,0.259759069 L1.99595349,0.724334733 L2.22631862,0.492841416 C2.28811771,0.430735349 2.28811771,0.330583216 2.22631862,0.268481467 Z M0.00128909251,2.20948714 C-0.00712438459,2.24753752 0.0270623487,2.2816326 0.0649315896,2.27237909 L0.580100222,2.14685859 L0.118050795,1.68228725 L0.00128909251,2.20948714 Z" id="path30514"></path>
                    </g>
                </g>
            </g>
        </g>
    </g>
</svg>