<?xml version="1.0" encoding="UTF-8" standalone="no"?>
<svg
   xmlns:dc="http://purl.org/dc/elements/1.1/"
   xmlns:cc="http://creativecommons.org/ns#"
   xmlns:rdf="http://www.w3.org/1999/02/22-rdf-syntax-ns#"
   xmlns:svg="http://www.w3.org/2000/svg"
   xmlns="http://www.w3.org/2000/svg"
   version="1.1"
   id="svg35588"
   viewBox="0 0 100 100"
   height="100"
   width="100">
  <defs
     id="defs35590" />
  <metadata
     id="metadata35593">
    <rdf:RDF>
      <cc:Work
         rdf:about="">
        <dc:format>image/svg+xml</dc:format>
        <dc:type
           rdf:resource="http://purl.org/dc/dcmitype/StillImage" />
        <dc:title></dc:title>
      </cc:Work>
    </rdf:RDF>
  </metadata>
  <g
     transform="translate(0,-952.36216)"
     id="layer1">
    <rect
       y="952.36218"
       x="0"
       height="100"
       width="100"
       id="rect35574"
       style="color:#000000;clip-rule:nonzero;display:inline;overflow:visible;visibility:visible;opacity:1;isolation:auto;mix-blend-mode:normal;color-interpolation:sRGB;color-interpolation-filters:linearRGB;solid-color:#000000;solid-opacity:1;fill:none;fill-opacity:1;fill-rule:nonzero;stroke:none;stroke-width:3.51427698;stroke-linecap:round;stroke-linejoin:round;stroke-miterlimit:8.80000019;stroke-dasharray:14.05710813, 28.11421628000000084;stroke-dashoffset:0;stroke-opacity:1;color-rendering:auto;image-rendering:auto;shape-rendering:auto;text-rendering:auto;enable-background:accumulate" />
    <rect
       style="color:#000000;clip-rule:nonzero;display:inline;overflow:visible;visibility:visible;opacity:1;isolation:auto;mix-blend-mode:normal;color-interpolation:sRGB;color-interpolation-filters:linearRGB;solid-color:#000000;solid-opacity:1;fill:none;fill-opacity:1;fill-rule:nonzero;stroke:#ffffff;stroke-width:0.32631126;stroke-linecap:round;stroke-linejoin:round;stroke-miterlimit:8.80000019;stroke-dasharray:1.30524509, 2.61049018;stroke-dashoffset:0;stroke-opacity:1;color-rendering:auto;image-rendering:auto;shape-rendering:auto;text-rendering:auto;enable-background:accumulate"
       id="rect35576"
       width="59.673691"
       height="59.673687"
       x="20.163155"
       y="972.52533" />
  </g>
  <g
     id="g4240">
    <g
       style="font-style:normal;font-weight:normal;font-size:3.81807804px;line-height:125%;font-family:Sans;letter-spacing:0px;word-spacing:0px;fill:#ffffff;fill-opacity:1;stroke:none;stroke-width:1px;stroke-linecap:butt;stroke-linejoin:miter;stroke-opacity:1"
       id="text30502">
      <path
         d="m 25.924365,46.114824 q -0.468016,0 -0.739892,0.312658 -0.269935,0.310716 -0.269935,0.852527 0,0.557347 0.260225,0.862237 0.262167,0.302948 0.745718,0.302948 0.297122,0 0.67775,-0.106809 l 0,0.289355 q -0.295181,0.110692 -0.728241,0.110692 -0.627258,0 -0.969046,-0.380627 -0.339845,-0.380627 -0.339845,-1.08168 0,-0.438886 0.163126,-0.769022 0.165068,-0.330136 0.473842,-0.508798 0.310716,-0.178661 0.730182,-0.178661 0.446654,0 0.780674,0.163126 l -0.139822,0.283528 q -0.322368,-0.151474 -0.644736,-0.151474 z"
         style="font-style:normal;font-variant:normal;font-weight:normal;font-stretch:normal;font-size:3.97716475px;font-family:'Open Sans';-inkscape-font-specification:'Open Sans';text-align:center;text-anchor:middle"
         id="path4160" />
      <path
         d="m 27.491539,48.699593 -0.322368,0 0,-3.021713 0.322368,0 0,3.021713 z"
         style="font-style:normal;font-variant:normal;font-weight:normal;font-stretch:normal;font-size:3.97716475px;font-family:'Open Sans';-inkscape-font-specification:'Open Sans';text-align:center;text-anchor:middle"
         id="path4162" />
      <path
         d="m 28.501366,48.699593 -0.322368,0 0,-2.128405 0.322368,0 0,2.128405 z m -0.349555,-2.705172 q 0,-0.110692 0.05438,-0.161183 0.05438,-0.05243 0.135938,-0.05243 0.07768,0 0.133997,0.05243 0.05632,0.05243 0.05632,0.161183 0,0.108751 -0.05632,0.163126 -0.05632,0.05243 -0.133997,0.05243 -0.08156,0 -0.135938,-0.05243 -0.05438,-0.05438 -0.05438,-0.163126 z"
         style="font-style:normal;font-variant:normal;font-weight:normal;font-stretch:normal;font-size:3.97716475px;font-family:'Open Sans';-inkscape-font-specification:'Open Sans';text-align:center;text-anchor:middle"
         id="path4164" />
      <path
         d="m 30.03941,48.738432 q -0.46219,0 -0.716589,-0.283528 -0.252456,-0.285471 -0.252456,-0.80592 0,-0.534043 0.25634,-0.825339 0.258283,-0.291296 0.734067,-0.291296 0.153416,0 0.306832,0.03301 0.153416,0.03301 0.240805,0.07768 l -0.09904,0.273819 q -0.106809,-0.04272 -0.233037,-0.06991 -0.126228,-0.02913 -0.223327,-0.02913 -0.64862,0 -0.64862,0.827281 0,0.392279 0.1573,0.602012 0.159242,0.209734 0.469958,0.209734 0.266051,0 0.545695,-0.114577 l 0,0.285471 q -0.213617,0.110692 -0.537927,0.110692 z"
         style="font-style:normal;font-variant:normal;font-weight:normal;font-stretch:normal;font-size:3.97716475px;font-family:'Open Sans';-inkscape-font-specification:'Open Sans';text-align:center;text-anchor:middle"
         id="path4166" />
      <path
         d="m 31.402677,47.610145 q 0.0835,-0.118461 0.254398,-0.310716 l 0.687459,-0.728241 0.38257,0 -0.862237,0.906902 0.922438,1.221503 -0.390337,0 -0.751544,-1.005943 -0.242747,0.209733 0,0.79621 -0.318484,0 0,-3.021713 0.318484,0 0,1.602129 q 0,0.106809 -0.01554,0.330136 l 0.01554,0 z"
         style="font-style:normal;font-variant:normal;font-weight:normal;font-stretch:normal;font-size:3.97716475px;font-family:'Open Sans';-inkscape-font-specification:'Open Sans';text-align:center;text-anchor:middle"
         id="path4168" />
      <path
         d="m 41.093132,48.472382 q 0.08545,0 0.165068,-0.01165 0.07962,-0.01359 0.126228,-0.02719 l 0,0.246631 q -0.05243,0.02525 -0.155358,0.04078 -0.100983,0.01748 -0.182546,0.01748 -0.617548,0 -0.617548,-0.650562 l 0,-1.266167 -0.30489,0 0,-0.155358 0.30489,-0.133996 0.135938,-0.454423 0.18643,0 0,0.493262 0.617548,0 0,0.250515 -0.617548,0 0,1.252574 q 0,0.192255 0.09127,0.29518 0.09127,0.102925 0.250515,0.102925 z"
         style="font-style:normal;font-variant:normal;font-weight:normal;font-stretch:normal;font-size:3.97716475px;font-family:'Open Sans';-inkscape-font-specification:'Open Sans';text-align:center;text-anchor:middle"
         id="path4170" />
      <path
         d="m 43.648771,47.633448 q 0,0.52045 -0.262166,0.813688 -0.262167,0.291296 -0.724357,0.291296 -0.28547,0 -0.506855,-0.133996 -0.221385,-0.133996 -0.341788,-0.384511 -0.120402,-0.250515 -0.120402,-0.586477 0,-0.520449 0.260224,-0.809803 0.260225,-0.291296 0.722415,-0.291296 0.446654,0 0.708821,0.297122 0.264108,0.297122 0.264108,0.803977 z m -1.621549,0 q 0,0.407815 0.163126,0.621432 0.163126,0.213618 0.479668,0.213618 0.316542,0 0.479668,-0.211676 0.165068,-0.213617 0.165068,-0.623374 0,-0.405872 -0.165068,-0.615606 -0.163126,-0.211675 -0.483552,-0.211675 -0.316542,0 -0.477726,0.207791 -0.161184,0.207792 -0.161184,0.61949 z"
         style="font-style:normal;font-variant:normal;font-weight:normal;font-stretch:normal;font-size:3.97716475px;font-family:'Open Sans';-inkscape-font-specification:'Open Sans';text-align:center;text-anchor:middle"
         id="path4172" />
      <path
         d="m 45.548022,46.571188 0,1.380744 q 0,0.260225 0.11846,0.388395 0.118461,0.128171 0.370918,0.128171 0.334019,0 0.487435,-0.182546 0.155358,-0.182546 0.155358,-0.596186 l 0,-1.118578 0.322368,0 0,2.128405 -0.26605,0 -0.04661,-0.285471 -0.01748,0 q -0.09904,0.1573 -0.27576,0.240805 -0.174778,0.08351 -0.400047,0.08351 -0.388395,0 -0.582592,-0.184488 -0.192256,-0.184487 -0.192256,-0.59036 l 0,-1.392396 0.326252,0 z"
         style="font-style:normal;font-variant:normal;font-weight:normal;font-stretch:normal;font-size:3.97716475px;font-family:'Open Sans';-inkscape-font-specification:'Open Sans';text-align:center;text-anchor:middle"
         id="path4174" />
      <path
         d="m 48.674602,48.738432 q -0.207791,0 -0.380627,-0.07574 -0.170894,-0.07768 -0.287412,-0.236921 l -0.0233,0 q 0.0233,0.18643 0.0233,0.35344 l 0,0.87583 -0.322368,0 0,-3.083856 0.262167,0 0.04467,0.291296 0.01554,0 q 0.124286,-0.174777 0.289354,-0.252456 0.165068,-0.07768 0.378685,-0.07768 0.423351,0 0.652504,0.289354 0.231095,0.289354 0.231095,0.811745 0,0.524334 -0.234979,0.81563 -0.233037,0.289354 -0.64862,0.289354 z m -0.04661,-1.932265 q -0.326252,0 -0.4719,0.180604 -0.145648,0.180603 -0.149532,0.574824 l 0,0.07185 q 0,0.448597 0.149532,0.642794 0.149532,0.192256 0.479668,0.192256 0.27576,0 0.431118,-0.223328 0.1573,-0.223327 0.1573,-0.615606 0,-0.398104 -0.1573,-0.60978 -0.155358,-0.213617 -0.438886,-0.213617 z"
         style="font-style:normal;font-variant:normal;font-weight:normal;font-stretch:normal;font-size:3.97716475px;font-family:'Open Sans';-inkscape-font-specification:'Open Sans';text-align:center;text-anchor:middle"
         id="path4176" />
      <path
         d="m 50.445682,48.699593 -0.322368,0 0,-3.021713 0.322368,0 0,3.021713 z"
         style="font-style:normal;font-variant:normal;font-weight:normal;font-stretch:normal;font-size:3.97716475px;font-family:'Open Sans';-inkscape-font-specification:'Open Sans';text-align:center;text-anchor:middle"
         id="path4178" />
      <path
         d="m 52.970251,47.633448 q 0,0.52045 -0.262166,0.813688 -0.262167,0.291296 -0.724357,0.291296 -0.28547,0 -0.506855,-0.133996 -0.221386,-0.133996 -0.341788,-0.384511 -0.120403,-0.250515 -0.120403,-0.586477 0,-0.520449 0.260225,-0.809803 0.260225,-0.291296 0.722415,-0.291296 0.446654,0 0.708821,0.297122 0.264108,0.297122 0.264108,0.803977 z m -1.621549,0 q 0,0.407815 0.163126,0.621432 0.163126,0.213618 0.479668,0.213618 0.316542,0 0.479668,-0.211676 0.165068,-0.213617 0.165068,-0.623374 0,-0.405872 -0.165068,-0.615606 -0.163126,-0.211675 -0.483552,-0.211675 -0.316542,0 -0.477726,0.207791 -0.161184,0.207792 -0.161184,0.61949 z"
         style="font-style:normal;font-variant:normal;font-weight:normal;font-stretch:normal;font-size:3.97716475px;font-family:'Open Sans';-inkscape-font-specification:'Open Sans';text-align:center;text-anchor:middle"
         id="path4180" />
      <path
         d="m 54.842314,48.699593 -0.06408,-0.302949 -0.01554,0 q -0.159242,0.200024 -0.318484,0.271877 -0.1573,0.06991 -0.394221,0.06991 -0.316542,0 -0.497145,-0.163126 -0.178662,-0.163126 -0.178662,-0.464132 0,-0.644736 1.031189,-0.675807 l 0.361207,-0.01165 0,-0.132054 q 0,-0.250515 -0.108751,-0.368976 -0.106808,-0.120402 -0.343729,-0.120402 -0.266051,0 -0.602012,0.163126 l -0.09904,-0.246631 q 0.1573,-0.08545 0.343729,-0.133996 0.188372,-0.04855 0.376744,-0.04855 0.380627,0 0.563172,0.168952 0.184488,0.168952 0.184488,0.541811 l 0,1.452598 -0.238863,0 z m -0.728241,-0.227211 q 0.301007,0 0.4719,-0.165068 0.172836,-0.165068 0.172836,-0.46219 l 0,-0.192256 -0.322368,0.01359 q -0.384511,0.01359 -0.555405,0.120402 -0.168951,0.104867 -0.168951,0.328194 0,0.174778 0.104866,0.266051 0.106809,0.09127 0.297122,0.09127 z"
         style="font-style:normal;font-variant:normal;font-weight:normal;font-stretch:normal;font-size:3.97716475px;font-family:'Open Sans';-inkscape-font-specification:'Open Sans';text-align:center;text-anchor:middle"
         id="path4182" />
      <path
         d="m 57.195988,48.414122 -0.01748,0 q -0.223327,0.32431 -0.668039,0.32431 -0.417525,0 -0.650562,-0.28547 -0.231095,-0.285471 -0.231095,-0.811746 0,-0.526275 0.233037,-0.817571 0.233037,-0.291296 0.64862,-0.291296 0.43306,0 0.664155,0.314599 l 0.02525,0 -0.01359,-0.153416 -0.0078,-0.149532 0,-0.86612 0.322368,0 0,3.021713 -0.262166,0 -0.04272,-0.285471 z m -0.644735,0.05438 q 0.330135,0 0.477725,-0.178662 0.149532,-0.180604 0.149532,-0.580651 l 0,-0.06797 q 0,-0.45248 -0.151474,-0.644735 -0.149532,-0.194198 -0.479667,-0.194198 -0.283529,0 -0.435003,0.221385 -0.149532,0.219443 -0.149532,0.621432 0,0.407815 0.149532,0.615606 0.149532,0.207792 0.438887,0.207792 z"
         style="font-style:normal;font-variant:normal;font-weight:normal;font-stretch:normal;font-size:3.97716475px;font-family:'Open Sans';-inkscape-font-specification:'Open Sans';text-align:center;text-anchor:middle"
         id="path4184" />
      <path
         d="m 60.178862,46.821703 -0.541811,0 0,1.87789 -0.322367,0 0,-1.87789 -0.380628,0 0,-0.145648 0.380628,-0.116519 0,-0.11846 q 0,-0.784558 0.685517,-0.784558 0.168952,0 0.396163,0.06797 l -0.0835,0.258283 q -0.18643,-0.0602 -0.318484,-0.0602 -0.182546,0 -0.269935,0.122345 -0.08739,0.120402 -0.08739,0.388395 l 0,0.13788 0.541811,0 0,0.250515 z m 0.710763,1.87789 -0.322368,0 0,-3.021713 0.322368,0 0,3.021713 z"
         style="font-style:normal;font-variant:normal;font-weight:normal;font-stretch:normal;font-size:3.97716475px;font-family:'Open Sans';-inkscape-font-specification:'Open Sans';text-align:center;text-anchor:middle"
         id="path4186" />
      <path
         d="m 63.410307,47.633448 q 0,0.52045 -0.262167,0.813688 -0.262166,0.291296 -0.724356,0.291296 -0.28547,0 -0.506856,-0.133996 -0.221385,-0.133996 -0.341787,-0.384511 -0.120403,-0.250515 -0.120403,-0.586477 0,-0.520449 0.260225,-0.809803 0.260225,-0.291296 0.722415,-0.291296 0.446654,0 0.708821,0.297122 0.264108,0.297122 0.264108,0.803977 z m -1.621549,0 q 0,0.407815 0.163126,0.621432 0.163126,0.213618 0.479668,0.213618 0.316542,0 0.479668,-0.211676 0.165067,-0.213617 0.165067,-0.623374 0,-0.405872 -0.165067,-0.615606 -0.163126,-0.211675 -0.483552,-0.211675 -0.316542,0 -0.477726,0.207791 -0.161184,0.207792 -0.161184,0.61949 z"
         style="font-style:normal;font-variant:normal;font-weight:normal;font-stretch:normal;font-size:3.97716475px;font-family:'Open Sans';-inkscape-font-specification:'Open Sans';text-align:center;text-anchor:middle"
         id="path4188" />
      <path
         d="m 65.810587,47.633448 q 0,0.52045 -0.262167,0.813688 -0.262166,0.291296 -0.724356,0.291296 -0.285471,0 -0.506856,-0.133996 -0.221385,-0.133996 -0.341787,-0.384511 -0.120403,-0.250515 -0.120403,-0.586477 0,-0.520449 0.260225,-0.809803 0.260225,-0.291296 0.722415,-0.291296 0.446654,0 0.708821,0.297122 0.264108,0.297122 0.264108,0.803977 z m -1.621549,0 q 0,0.407815 0.163126,0.621432 0.163126,0.213618 0.479668,0.213618 0.316542,0 0.479668,-0.211676 0.165067,-0.213617 0.165067,-0.623374 0,-0.405872 -0.165067,-0.615606 -0.163126,-0.211675 -0.483552,-0.211675 -0.316542,0 -0.477726,0.207791 -0.161184,0.207792 -0.161184,0.61949 z"
         style="font-style:normal;font-variant:normal;font-weight:normal;font-stretch:normal;font-size:3.97716475px;font-family:'Open Sans';-inkscape-font-specification:'Open Sans';text-align:center;text-anchor:middle"
         id="path4190" />
      <path
         d="m 67.34475,46.532349 q 0.141764,0 0.254399,0.0233 l -0.04467,0.299064 q -0.132054,-0.02913 -0.233037,-0.02913 -0.258282,0 -0.44277,0.209733 -0.182546,0.209733 -0.182546,0.522391 l 0,1.141882 -0.322367,0 0,-2.128405 0.26605,0 0.0369,0.394221 0.01553,0 q 0.118461,-0.207791 0.285471,-0.320426 0.16701,-0.112634 0.367033,-0.112634 z"
         style="font-style:normal;font-variant:normal;font-weight:normal;font-stretch:normal;font-size:3.97716475px;font-family:'Open Sans';-inkscape-font-specification:'Open Sans';text-align:center;text-anchor:middle"
         id="path4192" />
      <path
         d="m 68.987659,48.738432 q -0.207791,0 -0.380627,-0.07574 -0.170894,-0.07768 -0.287412,-0.236921 l -0.0233,0 q 0.0233,0.18643 0.0233,0.35344 l 0,0.87583 -0.322368,0 0,-3.083856 0.262167,0 0.04467,0.291296 0.01554,0 q 0.124286,-0.174777 0.289354,-0.252456 0.165068,-0.07768 0.378685,-0.07768 0.423351,0 0.652504,0.289354 0.231095,0.289354 0.231095,0.811745 0,0.524334 -0.234979,0.81563 -0.233037,0.289354 -0.64862,0.289354 z m -0.04661,-1.932265 q -0.326252,0 -0.4719,0.180604 -0.145648,0.180603 -0.149532,0.574824 l 0,0.07185 q 0,0.448597 0.149532,0.642794 0.149532,0.192256 0.479668,0.192256 0.27576,0 0.431118,-0.223328 0.1573,-0.223327 0.1573,-0.615606 0,-0.398104 -0.1573,-0.60978 -0.155358,-0.213617 -0.438886,-0.213617 z"
         style="font-style:normal;font-variant:normal;font-weight:normal;font-stretch:normal;font-size:3.97716475px;font-family:'Open Sans';-inkscape-font-specification:'Open Sans';text-align:center;text-anchor:middle"
         id="path4194" />
      <path
         d="m 70.758741,48.699593 -0.322368,0 0,-3.021713 0.322368,0 0,3.021713 z"
         style="font-style:normal;font-variant:normal;font-weight:normal;font-stretch:normal;font-size:3.97716475px;font-family:'Open Sans';-inkscape-font-specification:'Open Sans';text-align:center;text-anchor:middle"
         id="path4196" />
      <path
         d="m 72.755091,48.699593 -0.06408,-0.302949 -0.01554,0 q -0.159242,0.200024 -0.318484,0.271877 -0.1573,0.06991 -0.394221,0.06991 -0.316542,0 -0.497145,-0.163126 -0.178662,-0.163126 -0.178662,-0.464132 0,-0.644736 1.031189,-0.675807 l 0.361207,-0.01165 0,-0.132054 q 0,-0.250515 -0.108751,-0.368976 -0.106808,-0.120402 -0.343729,-0.120402 -0.266051,0 -0.602012,0.163126 l -0.09904,-0.246631 q 0.1573,-0.08545 0.343729,-0.133996 0.188372,-0.04855 0.376744,-0.04855 0.380627,0 0.563172,0.168952 0.184488,0.168952 0.184488,0.541811 l 0,1.452598 -0.238863,0 z M 72.02685,48.472382 q 0.301007,0 0.4719,-0.165068 0.172836,-0.165068 0.172836,-0.46219 l 0,-0.192256 -0.322368,0.01359 q -0.384511,0.01359 -0.555405,0.120402 -0.168951,0.104867 -0.168951,0.328194 0,0.174778 0.104866,0.266051 0.106809,0.09127 0.297122,0.09127 z"
         style="font-style:normal;font-variant:normal;font-weight:normal;font-stretch:normal;font-size:3.97716475px;font-family:'Open Sans';-inkscape-font-specification:'Open Sans';text-align:center;text-anchor:middle"
         id="path4198" />
      <path
         d="m 75.116533,48.699593 0,-1.376861 q 0,-0.260224 -0.11846,-0.388395 -0.118461,-0.12817 -0.370918,-0.12817 -0.334019,0 -0.489377,0.180604 -0.155358,0.180603 -0.155358,0.596186 l 0,1.116636 -0.322368,0 0,-2.128405 0.262166,0 0.05243,0.291296 0.01554,0 q 0.09904,-0.1573 0.277702,-0.242747 0.178662,-0.08739 0.398105,-0.08739 0.384511,0 0.578708,0.186429 0.194198,0.184488 0.194198,0.592302 l 0,1.388513 -0.322368,0 z"
         style="font-style:normal;font-variant:normal;font-weight:normal;font-stretch:normal;font-size:3.97716475px;font-family:'Open Sans';-inkscape-font-specification:'Open Sans';text-align:center;text-anchor:middle"
         id="path4200" />
      <path
         d="m 32.233842,53.671047 -0.06409,-0.302948 -0.01554,0 q -0.159242,0.200024 -0.318484,0.271877 -0.1573,0.06991 -0.394221,0.06991 -0.316542,0 -0.497145,-0.163126 -0.178662,-0.163126 -0.178662,-0.464132 0,-0.644736 1.031189,-0.675807 l 0.361207,-0.01165 0,-0.132055 q 0,-0.250514 -0.108751,-0.368975 -0.106808,-0.120402 -0.343729,-0.120402 -0.266051,0 -0.602012,0.163126 l -0.09904,-0.246631 q 0.1573,-0.08545 0.343729,-0.133997 0.188372,-0.04855 0.376744,-0.04855 0.380627,0 0.563172,0.168952 0.184488,0.168952 0.184488,0.541811 l 0,1.452597 -0.238863,0 z m -0.728241,-0.227211 q 0.301006,0 0.4719,-0.165068 0.172836,-0.165068 0.172836,-0.46219 l 0,-0.192255 -0.322368,0.01359 q -0.384511,0.01359 -0.555405,0.120402 -0.168951,0.104867 -0.168951,0.328194 0,0.174777 0.104866,0.26605 0.106809,0.09127 0.297122,0.09127 z"
         style="font-style:normal;font-variant:normal;font-weight:normal;font-stretch:normal;font-size:3.97716475px;font-family:'Open Sans';-inkscape-font-specification:'Open Sans';text-align:center;text-anchor:middle"
         id="path4202" />
      <path
         d="m 34.595283,53.671047 0,-1.37686 q 0,-0.260225 -0.11846,-0.388395 -0.11846,-0.12817 -0.370917,-0.12817 -0.33402,0 -0.489378,0.180603 -0.155358,0.180604 -0.155358,0.596187 l 0,1.116635 -0.322368,0 0,-2.128404 0.262167,0 0.05243,0.291296 0.01554,0 q 0.09904,-0.1573 0.277702,-0.242747 0.178662,-0.08739 0.398105,-0.08739 0.384511,0 0.578709,0.18643 0.194197,0.184487 0.194197,0.592302 l 0,1.388512 -0.322368,0 z"
         style="font-style:normal;font-variant:normal;font-weight:normal;font-stretch:normal;font-size:3.97716475px;font-family:'Open Sans';-inkscape-font-specification:'Open Sans';text-align:center;text-anchor:middle"
         id="path4204" />
      <path
         d="m 37.026636,53.385577 -0.01748,0 q -0.223328,0.32431 -0.66804,0.32431 -0.417524,0 -0.650561,-0.285471 -0.231095,-0.28547 -0.231095,-0.811745 0,-0.526275 0.233037,-0.817572 0.233037,-0.291296 0.648619,-0.291296 0.433061,0 0.664156,0.3146 l 0.02525,0 -0.01359,-0.153416 -0.0078,-0.149532 0,-0.866121 0.322367,0 0,3.021713 -0.262166,0 -0.04272,-0.28547 z m -0.644735,0.05438 q 0.330135,0 0.477726,-0.178662 0.149532,-0.180603 0.149532,-0.58065 l 0,-0.06797 q 0,-0.45248 -0.151474,-0.644736 -0.149533,-0.194197 -0.479668,-0.194197 -0.283529,0 -0.435003,0.221385 -0.149532,0.219443 -0.149532,0.621432 0,0.407815 0.149532,0.615606 0.149532,0.207791 0.438887,0.207791 z"
         style="font-style:normal;font-variant:normal;font-weight:normal;font-stretch:normal;font-size:3.97716475px;font-family:'Open Sans';-inkscape-font-specification:'Open Sans';text-align:center;text-anchor:middle"
         id="path4206" />
      <path
         d="m 40.040581,53.709887 q -0.207791,0 -0.380627,-0.07574 -0.170894,-0.07768 -0.287412,-0.236921 l -0.0233,0 q 0.0233,0.186429 0.0233,0.353439 l 0,0.875831 -0.322368,0 0,-3.083856 0.262167,0 0.04466,0.291296 0.01554,0 q 0.124286,-0.174778 0.289354,-0.252457 0.165068,-0.07768 0.378685,-0.07768 0.423351,0 0.652504,0.289354 0.231095,0.289355 0.231095,0.811746 0,0.524333 -0.234979,0.815629 -0.233037,0.289355 -0.64862,0.289355 z m -0.04661,-1.932265 q -0.326252,0 -0.4719,0.180603 -0.145648,0.180604 -0.149532,0.574825 l 0,0.07185 q 0,0.448596 0.149532,0.642794 0.149532,0.192255 0.479668,0.192255 0.27576,0 0.431118,-0.223327 0.1573,-0.223327 0.1573,-0.615606 0,-0.398105 -0.1573,-0.60978 -0.155358,-0.213617 -0.438886,-0.213617 z"
         style="font-style:normal;font-variant:normal;font-weight:normal;font-stretch:normal;font-size:3.97716475px;font-family:'Open Sans';-inkscape-font-specification:'Open Sans';text-align:center;text-anchor:middle"
         id="path4208" />
      <path
         d="m 43.326403,52.604903 q 0,0.520449 -0.262167,0.813687 -0.262167,0.291297 -0.724357,0.291297 -0.28547,0 -0.506855,-0.133997 -0.221385,-0.133996 -0.341788,-0.384511 -0.120402,-0.250514 -0.120402,-0.586476 0,-0.520449 0.260224,-0.809804 0.260225,-0.291296 0.722415,-0.291296 0.446654,0 0.708821,0.297122 0.264109,0.297122 0.264109,0.803978 z m -1.62155,0 q 0,0.407815 0.163126,0.621432 0.163126,0.213617 0.479668,0.213617 0.316542,0 0.479668,-0.211675 0.165068,-0.213617 0.165068,-0.623374 0,-0.405873 -0.165068,-0.615606 -0.163126,-0.211675 -0.483552,-0.211675 -0.316542,0 -0.477726,0.207791 -0.161184,0.207791 -0.161184,0.61949 z"
         style="font-style:normal;font-variant:normal;font-weight:normal;font-stretch:normal;font-size:3.97716475px;font-family:'Open Sans';-inkscape-font-specification:'Open Sans';text-align:center;text-anchor:middle"
         id="path4210" />
      <path
         d="m 45.262552,53.090397 q 0,0.297122 -0.221386,0.458306 -0.221385,0.161184 -0.621432,0.161184 -0.42335,0 -0.660271,-0.133997 l 0,-0.299064 q 0.153416,0.07768 0.328194,0.122345 0.176719,0.04466 0.339845,0.04466 0.252457,0 0.388395,-0.07962 0.135939,-0.08156 0.135939,-0.246631 0,-0.124286 -0.108751,-0.211675 -0.106809,-0.08933 -0.419467,-0.209733 -0.297122,-0.110693 -0.42335,-0.192256 -0.124287,-0.08351 -0.18643,-0.188371 -0.0602,-0.104867 -0.0602,-0.250515 0,-0.260225 0.211675,-0.409757 0.211676,-0.151474 0.580651,-0.151474 0.343729,0 0.671923,0.139822 l -0.114576,0.262167 q -0.320426,-0.132054 -0.580651,-0.132054 -0.229153,0 -0.345671,0.07185 -0.116519,0.07185 -0.116519,0.198081 0,0.08545 0.04272,0.145648 0.04467,0.0602 0.141765,0.114577 0.0971,0.05438 0.372859,0.1573 0.378685,0.13788 0.510739,0.277702 0.133997,0.139822 0.133997,0.351498 z"
         style="font-style:normal;font-variant:normal;font-weight:normal;font-stretch:normal;font-size:3.97716475px;font-family:'Open Sans';-inkscape-font-specification:'Open Sans';text-align:center;text-anchor:middle"
         id="path4212" />
      <path
         d="m 46.107311,53.671047 -0.322368,0 0,-2.128404 0.322368,0 0,2.128404 z m -0.349556,-2.705171 q 0,-0.110693 0.05438,-0.161184 0.05438,-0.05243 0.135939,-0.05243 0.07768,0 0.133996,0.05243 0.05632,0.05243 0.05632,0.161184 0,0.108751 -0.05632,0.163126 -0.05632,0.05243 -0.133996,0.05243 -0.08156,0 -0.135939,-0.05243 -0.05438,-0.05438 -0.05438,-0.163126 z"
         style="font-style:normal;font-variant:normal;font-weight:normal;font-stretch:normal;font-size:3.97716475px;font-family:'Open Sans';-inkscape-font-specification:'Open Sans';text-align:center;text-anchor:middle"
         id="path4214" />
      <path
         d="m 47.48223,53.443836 q 0.08545,0 0.165067,-0.01165 0.07962,-0.01359 0.126229,-0.02719 l 0,0.24663 q -0.05243,0.02525 -0.155358,0.04078 -0.100983,0.01748 -0.182546,0.01748 -0.617548,0 -0.617548,-0.650562 l 0,-1.266168 -0.30489,0 0,-0.155358 0.30489,-0.133996 0.135938,-0.454422 0.18643,0 0,0.493262 0.617548,0 0,0.250514 -0.617548,0 0,1.252574 q 0,0.192256 0.09127,0.29518 0.09127,0.102925 0.250515,0.102925 z"
         style="font-style:normal;font-variant:normal;font-weight:normal;font-stretch:normal;font-size:3.97716475px;font-family:'Open Sans';-inkscape-font-specification:'Open Sans';text-align:center;text-anchor:middle"
         id="path4216" />
      <path
         d="m 48.523127,53.671047 -0.322368,0 0,-2.128404 0.322368,0 0,2.128404 z m -0.349556,-2.705171 q 0,-0.110693 0.05438,-0.161184 0.05438,-0.05243 0.135938,-0.05243 0.07768,0 0.133996,0.05243 0.05632,0.05243 0.05632,0.161184 0,0.108751 -0.05632,0.163126 -0.05632,0.05243 -0.133996,0.05243 -0.08156,0 -0.135938,-0.05243 -0.05438,-0.05438 -0.05438,-0.163126 z"
         style="font-style:normal;font-variant:normal;font-weight:normal;font-stretch:normal;font-size:3.97716475px;font-family:'Open Sans';-inkscape-font-specification:'Open Sans';text-align:center;text-anchor:middle"
         id="path4218" />
      <path
         d="m 51.047696,52.604903 q 0,0.520449 -0.262167,0.813687 -0.262166,0.291297 -0.724356,0.291297 -0.285471,0 -0.506856,-0.133997 -0.221385,-0.133996 -0.341787,-0.384511 -0.120403,-0.250514 -0.120403,-0.586476 0,-0.520449 0.260225,-0.809804 0.260225,-0.291296 0.722415,-0.291296 0.446654,0 0.70882,0.297122 0.264109,0.297122 0.264109,0.803978 z m -1.621549,0 q 0,0.407815 0.163126,0.621432 0.163126,0.213617 0.479668,0.213617 0.316542,0 0.479667,-0.211675 0.165068,-0.213617 0.165068,-0.623374 0,-0.405873 -0.165068,-0.615606 -0.163125,-0.211675 -0.483551,-0.211675 -0.316542,0 -0.477726,0.207791 -0.161184,0.207791 -0.161184,0.61949 z"
         style="font-style:normal;font-variant:normal;font-weight:normal;font-stretch:normal;font-size:3.97716475px;font-family:'Open Sans';-inkscape-font-specification:'Open Sans';text-align:center;text-anchor:middle"
         id="path4220" />
      <path
         d="m 53.067349,53.671047 0,-1.37686 q 0,-0.260225 -0.118461,-0.388395 -0.11846,-0.12817 -0.370917,-0.12817 -0.334019,0 -0.489377,0.180603 -0.155358,0.180604 -0.155358,0.596187 l 0,1.116635 -0.322368,0 0,-2.128404 0.262166,0 0.05243,0.291296 0.01553,0 q 0.09904,-0.1573 0.277703,-0.242747 0.178662,-0.08739 0.398105,-0.08739 0.384511,0 0.578708,0.18643 0.194198,0.184487 0.194198,0.592302 l 0,1.388512 -0.322368,0 z"
         style="font-style:normal;font-variant:normal;font-weight:normal;font-stretch:normal;font-size:3.97716475px;font-family:'Open Sans';-inkscape-font-specification:'Open Sans';text-align:center;text-anchor:middle"
         id="path4222" />
      <path
         d="m 56.531833,53.385577 -0.01748,0 q -0.223327,0.32431 -0.668039,0.32431 -0.417525,0 -0.650562,-0.285471 -0.231095,-0.28547 -0.231095,-0.811745 0,-0.526275 0.233037,-0.817572 0.233037,-0.291296 0.64862,-0.291296 0.43306,0 0.664155,0.3146 l 0.02525,0 -0.01359,-0.153416 -0.0078,-0.149532 0,-0.866121 0.322368,0 0,3.021713 -0.262167,0 -0.04272,-0.28547 z m -0.644736,0.05438 q 0.330136,0 0.477726,-0.178662 0.149532,-0.180603 0.149532,-0.58065 l 0,-0.06797 q 0,-0.45248 -0.151474,-0.644736 -0.149532,-0.194197 -0.479668,-0.194197 -0.283528,0 -0.435002,0.221385 -0.149532,0.219443 -0.149532,0.621432 0,0.407815 0.149532,0.615606 0.149532,0.207791 0.438886,0.207791 z"
         style="font-style:normal;font-variant:normal;font-weight:normal;font-stretch:normal;font-size:3.97716475px;font-family:'Open Sans';-inkscape-font-specification:'Open Sans';text-align:center;text-anchor:middle"
         id="path4224" />
      <path
         d="m 58.421373,53.709887 q -0.4719,0 -0.745718,-0.287413 -0.271877,-0.287412 -0.271877,-0.798151 0,-0.514624 0.252457,-0.817572 0.254399,-0.302948 0.681633,-0.302948 0.400047,0 0.633084,0.264109 0.233037,0.262166 0.233037,0.693285 l 0,0.203907 -1.466191,0 q 0.0097,0.374801 0.188372,0.568999 0.180603,0.194197 0.506855,0.194197 0.34373,0 0.679691,-0.143706 l 0,0.287412 q -0.170893,0.0738 -0.324309,0.104867 -0.151474,0.03301 -0.367034,0.03301 z m -0.08739,-1.936149 q -0.25634,0 -0.409756,0.16701 -0.151474,0.167009 -0.178662,0.46219 l 1.112752,0 q 0,-0.304891 -0.135939,-0.466074 -0.135938,-0.163126 -0.388395,-0.163126 z"
         style="font-style:normal;font-variant:normal;font-weight:normal;font-stretch:normal;font-size:3.97716475px;font-family:'Open Sans';-inkscape-font-specification:'Open Sans';text-align:center;text-anchor:middle"
         id="path4226" />
      <path
         d="m 60.2177,53.671047 -0.807861,-2.128404 0.345671,0 0.458306,1.262283 q 0.155358,0.442771 0.182546,0.574825 l 0.01554,0 q 0.02136,-0.102925 0.133996,-0.425293 0.114577,-0.324309 0.510739,-1.411815 l 0.345672,0 -0.807862,2.128404 -0.376743,0 z"
         style="font-style:normal;font-variant:normal;font-weight:normal;font-stretch:normal;font-size:3.97716475px;font-family:'Open Sans';-inkscape-font-specification:'Open Sans';text-align:center;text-anchor:middle"
         id="path4228" />
      <path
         d="m 62.070345,53.671047 -0.322368,0 0,-2.128404 0.322368,0 0,2.128404 z M 61.72079,50.965876 q 0,-0.110693 0.05438,-0.161184 0.05438,-0.05243 0.135938,-0.05243 0.07768,0 0.133997,0.05243 0.05632,0.05243 0.05632,0.161184 0,0.108751 -0.05632,0.163126 -0.05632,0.05243 -0.133997,0.05243 -0.08156,0 -0.135938,-0.05243 -0.05438,-0.05438 -0.05438,-0.163126 z"
         style="font-style:normal;font-variant:normal;font-weight:normal;font-stretch:normal;font-size:3.97716475px;font-family:'Open Sans';-inkscape-font-specification:'Open Sans';text-align:center;text-anchor:middle"
         id="path4230" />
      <path
         d="m 63.608389,53.709887 q -0.46219,0 -0.716589,-0.283529 -0.252456,-0.28547 -0.252456,-0.805919 0,-0.534043 0.25634,-0.82534 0.258283,-0.291296 0.734067,-0.291296 0.153416,0 0.306832,0.03301 0.153416,0.03301 0.240805,0.07768 l -0.09904,0.273818 q -0.106809,-0.04272 -0.233037,-0.06991 -0.126228,-0.02913 -0.223327,-0.02913 -0.64862,0 -0.64862,0.827282 0,0.392279 0.1573,0.602012 0.159242,0.209733 0.469958,0.209733 0.266051,0 0.545695,-0.114576 l 0,0.28547 q -0.213617,0.110693 -0.537927,0.110693 z"
         style="font-style:normal;font-variant:normal;font-weight:normal;font-stretch:normal;font-size:3.97716475px;font-family:'Open Sans';-inkscape-font-specification:'Open Sans';text-align:center;text-anchor:middle"
         id="path4232" />
      <path
         d="m 65.552307,53.709887 q -0.4719,0 -0.745718,-0.287413 -0.271877,-0.287412 -0.271877,-0.798151 0,-0.514624 0.252457,-0.817572 0.254399,-0.302948 0.681633,-0.302948 0.400047,0 0.633084,0.264109 0.233037,0.262166 0.233037,0.693285 l 0,0.203907 -1.466191,0 q 0.0097,0.374801 0.188372,0.568999 0.180603,0.194197 0.506855,0.194197 0.34373,0 0.679691,-0.143706 l 0,0.287412 q -0.170894,0.0738 -0.32431,0.104867 -0.151474,0.03301 -0.367033,0.03301 z m -0.08739,-1.936149 q -0.25634,0 -0.409756,0.16701 -0.151475,0.167009 -0.178662,0.46219 l 1.112751,0 q 0,-0.304891 -0.135938,-0.466074 -0.135938,-0.163126 -0.388395,-0.163126 z"
         style="font-style:normal;font-variant:normal;font-weight:normal;font-stretch:normal;font-size:3.97716475px;font-family:'Open Sans';-inkscape-font-specification:'Open Sans';text-align:center;text-anchor:middle"
         id="path4234" />
      <path
         d="m 68.255534,53.090397 q 0,0.297122 -0.221385,0.458306 -0.221385,0.161184 -0.621432,0.161184 -0.42335,0 -0.660271,-0.133997 l 0,-0.299064 q 0.153416,0.07768 0.328194,0.122345 0.176719,0.04466 0.339845,0.04466 0.252457,0 0.388395,-0.07962 0.135938,-0.08156 0.135938,-0.246631 0,-0.124286 -0.10875,-0.211675 -0.106809,-0.08933 -0.419467,-0.209733 -0.297122,-0.110693 -0.42335,-0.192256 -0.124287,-0.08351 -0.18643,-0.188371 -0.0602,-0.104867 -0.0602,-0.250515 0,-0.260225 0.211675,-0.409757 0.211675,-0.151474 0.580651,-0.151474 0.343729,0 0.671923,0.139822 l -0.114577,0.262167 q -0.320425,-0.132054 -0.58065,-0.132054 -0.229153,0 -0.345672,0.07185 -0.116518,0.07185 -0.116518,0.198081 0,0.08545 0.04272,0.145648 0.04467,0.0602 0.141765,0.114577 0.0971,0.05438 0.372859,0.1573 0.378685,0.13788 0.510739,0.277702 0.133996,0.139822 0.133996,0.351498 z"
         style="font-style:normal;font-variant:normal;font-weight:normal;font-stretch:normal;font-size:3.97716475px;font-family:'Open Sans';-inkscape-font-specification:'Open Sans';text-align:center;text-anchor:middle"
         id="path4236" />
      <path
         d="m 68.731321,53.465198 q 0,-0.130112 0.05826,-0.19614 0.0602,-0.06797 0.170894,-0.06797 0.112635,0 0.174778,0.06797 0.06409,0.06603 0.06409,0.19614 0,0.126228 -0.06409,0.194197 -0.06408,0.06797 -0.174778,0.06797 -0.09904,0 -0.165068,-0.0602 -0.06409,-0.06214 -0.06409,-0.201965 z"
         style="font-style:normal;font-variant:normal;font-weight:normal;font-stretch:normal;font-size:3.97716475px;font-family:'Open Sans';-inkscape-font-specification:'Open Sans';text-align:center;text-anchor:middle"
         id="path4238" />
    </g>
    <g
       transform="matrix(0.09090662,0,0,0.09090662,-82.110936,80.423978)"
       id="g30506">
      <circle
         r="28"
         cy="-366.88797"
         cx="1301.9994"
         id="circle30508"
         style="color:#000000;clip-rule:nonzero;display:inline;overflow:visible;visibility:visible;opacity:1;isolation:auto;mix-blend-mode:normal;color-interpolation:sRGB;color-interpolation-filters:linearRGB;solid-color:#000000;solid-opacity:1;fill:#ffffff;fill-opacity:0.19607843;fill-rule:nonzero;stroke:none;stroke-width:7.35426044;stroke-linecap:butt;stroke-linejoin:round;stroke-miterlimit:4;stroke-dasharray:none;stroke-dashoffset:0;stroke-opacity:1;color-rendering:auto;image-rendering:auto;shape-rendering:auto;text-rendering:auto;enable-background:accumulate" />
      <g
         style="fill:#ffffff"
         transform="matrix(0.04726801,0,0,0.0474995,1289.4994,-379.44919)"
         id="g30510">
        <g
           style="fill:#ffffff"
           id="g30512">
          <path
             style="fill:#ffffff"
             d="M 328.883,89.125 436.473,196.714 164.133,469.054 56.604,361.465 328.883,89.125 Z M 518.113,63.177 470.132,15.196 c -18.543,-18.543 -48.653,-18.543 -67.259,0 l -45.961,45.961 107.59,107.59 53.611,-53.611 c 14.382,-14.383 14.382,-37.577 0,-51.959 z M 0.3,512.69 c -1.958,8.812 5.998,16.708 14.811,14.565 L 135.002,498.186 27.473,390.597 0.3,512.69 Z"
             id="path30514" />
        </g>
        <g
           style="fill:#ffffff"
           id="g30516" />
        <g
           style="fill:#ffffff"
           id="g30518" />
        <g
           style="fill:#ffffff"
           id="g30520" />
        <g
           style="fill:#ffffff"
           id="g30522" />
        <g
           style="fill:#ffffff"
           id="g30524" />
        <g
           style="fill:#ffffff"
           id="g30526" />
        <g
           style="fill:#ffffff"
           id="g30528" />
        <g
           style="fill:#ffffff"
           id="g30530" />
        <g
           style="fill:#ffffff"
           id="g30532" />
        <g
           style="fill:#ffffff"
           id="g30534" />
        <g
           style="fill:#ffffff"
           id="g30536" />
        <g
           style="fill:#ffffff"
           id="g30538" />
        <g
           style="fill:#ffffff"
           id="g30540" />
        <g
           style="fill:#ffffff"
           id="g30542" />
        <g
           style="fill:#ffffff"
           id="g30544" />
      </g>
    </g>
  </g>
</svg>
