<?xml version="1.0" encoding="UTF-8"?>
<svg width="64" height="64" version="1.1" viewBox="0 0 16.933 16.933" xmlns="http://www.w3.org/2000/svg" xmlns:cc="http://creativecommons.org/ns#" xmlns:dc="http://purl.org/dc/elements/1.1/" xmlns:rdf="http://www.w3.org/1999/02/22-rdf-syntax-ns#">
 <metadata>
  <rdf:RDF>
   <cc:Work rdf:about="">
    <dc:format>image/svg+xml</dc:format>
    <dc:type rdf:resource="http://purl.org/dc/dcmitype/StillImage"/>
    <dc:title/>
   </cc:Work>
  </rdf:RDF>
 </metadata>
 <g transform="matrix(.84375 0 0 .84375 1.3229 -234.98)">
  <rect x="-1.5679" y="278.5" width="20.069" height="20.069" stroke-width=".10347"/>
  <g fill="#fff" shape-rendering="auto">
   <g>
    <path d="m9.8621 289.17a2.1985 2.1985 0 0 1-2.1985 2.1985 2.1985 2.1985 0 0 1-2.1985-2.1985 2.1985 2.1985 0 0 1 2.1985-2.1985 2.1985 2.1985 0 0 1 2.1985 2.1985z" color="#000000" color-rendering="auto" image-rendering="auto" solid-color="#000000" style="isolation:auto;mix-blend-mode:normal"/>
    <path d="m10.4 284.22a1.3308 1.3308 0 0 1-1.3308 1.3308 1.3308 1.3308 0 0 1-1.3308-1.3308 1.3308 1.3308 0 0 1 1.3308-1.3308 1.3308 1.3308 0 0 1 1.3308 1.3308z" color="#000000" color-rendering="auto" image-rendering="auto" solid-color="#000000" style="isolation:auto;mix-blend-mode:normal"/>
    <path d="m14.817 287.96a1.3308 1.3308 0 0 1-1.3308 1.3308 1.3308 1.3308 0 0 1-1.3308-1.3308 1.3308 1.3308 0 0 1 1.3308-1.3308 1.3308 1.3308 0 0 1 1.3308 1.3308z" color="#000000" color-rendering="auto" image-rendering="auto" solid-color="#000000" style="isolation:auto;mix-blend-mode:normal"/>
    <path d="m12.608 292.85a1.3308 1.3308 0 0 1-1.3308 1.3308 1.3308 1.3308 0 0 1-1.3308-1.3308 1.3308 1.3308 0 0 1 1.3308-1.3309 1.3308 1.3308 0 0 1 1.3308 1.3309z" color="#000000" color-rendering="auto" image-rendering="auto" solid-color="#000000" style="isolation:auto;mix-blend-mode:normal"/>
    <path d="m5.113 292.25a1.3308 1.3308 0 0 1-1.3308 1.3308 1.3308 1.3308 0 0 1-1.3308-1.3308 1.3308 1.3308 0 0 1 1.3308-1.3308 1.3308 1.3308 0 0 1 1.3308 1.3308z" color="#000000" color-rendering="auto" image-rendering="auto" solid-color="#000000" style="isolation:auto;mix-blend-mode:normal"/>
    <path d="m4.7784 285.22a1.3308 1.3308 0 0 1-1.3308 1.3308 1.3308 1.3308 0 0 1-1.3308-1.3308 1.3308 1.3308 0 0 1 1.3308-1.3308 1.3308 1.3308 0 0 1 1.3308 1.3308z" color="#000000" color-rendering="auto" image-rendering="auto" solid-color="#000000" style="isolation:auto;mix-blend-mode:normal"/>
   </g>
   <g fill-rule="evenodd">
    <path d="m4.6895 285.84-0.54102 0.57812 1.6387 1.5371 0.54297-0.58008z" color="#000000" color-rendering="auto" dominant-baseline="auto" image-rendering="auto" solid-color="#000000" style="font-feature-settings:normal;font-variant-alternates:normal;font-variant-caps:normal;font-variant-ligatures:normal;font-variant-numeric:normal;font-variant-position:normal;isolation:auto;mix-blend-mode:normal;shape-padding:0;text-decoration-color:#000000;text-decoration-line:none;text-decoration-style:solid;text-indent:0;text-orientation:mixed;text-transform:none;white-space:normal"/>
    <path d="m12.102 287.85-2.3652 0.49024 0.16016 0.77734 2.3672-0.49023z" color="#000000" color-rendering="auto" dominant-baseline="auto" image-rendering="auto" solid-color="#000000" style="font-feature-settings:normal;font-variant-alternates:normal;font-variant-caps:normal;font-variant-ligatures:normal;font-variant-numeric:normal;font-variant-position:normal;isolation:auto;mix-blend-mode:normal;shape-padding:0;text-decoration-color:#000000;text-decoration-line:none;text-decoration-style:solid;text-indent:0;text-orientation:mixed;text-transform:none;white-space:normal"/>
    <path d="m9.4863 290.46-0.56641 0.55664 1.1426 1.1621 0.56641-0.55468z" color="#000000" color-rendering="auto" dominant-baseline="auto" image-rendering="auto" solid-color="#000000" style="font-feature-settings:normal;font-variant-alternates:normal;font-variant-caps:normal;font-variant-ligatures:normal;font-variant-numeric:normal;font-variant-position:normal;isolation:auto;mix-blend-mode:normal;shape-padding:0;text-decoration-color:#000000;text-decoration-line:none;text-decoration-style:solid;text-indent:0;text-orientation:mixed;text-transform:none;white-space:normal"/>
    <path d="m5.6953 290.22-1.1172 0.88477 0.49414 0.62304 1.1152-0.88672z" color="#000000" color-rendering="auto" dominant-baseline="auto" image-rendering="auto" solid-color="#000000" style="font-feature-settings:normal;font-variant-alternates:normal;font-variant-caps:normal;font-variant-ligatures:normal;font-variant-numeric:normal;font-variant-position:normal;isolation:auto;mix-blend-mode:normal;shape-padding:0;text-decoration-color:#000000;text-decoration-line:none;text-decoration-style:solid;text-indent:0;text-orientation:mixed;text-transform:none;white-space:normal"/>
    <path d="m8.3242 285.39-0.44141 1.5566 0.76367 0.2168 0.44141-1.5566z" color="#000000" color-rendering="auto" dominant-baseline="auto" image-rendering="auto" solid-color="#000000" style="font-feature-settings:normal;font-variant-alternates:normal;font-variant-caps:normal;font-variant-ligatures:normal;font-variant-numeric:normal;font-variant-position:normal;isolation:auto;mix-blend-mode:normal;shape-padding:0;text-decoration-color:#000000;text-decoration-line:none;text-decoration-style:solid;text-indent:0;text-orientation:mixed;text-transform:none;white-space:normal"/>
   </g>
  </g>
 </g>
</svg>
