<?xml version="1.0" encoding="UTF-8" standalone="no"?>
<svg
   xmlns:dc="http://purl.org/dc/elements/1.1/"
   xmlns:cc="http://creativecommons.org/ns#"
   xmlns:rdf="http://www.w3.org/1999/02/22-rdf-syntax-ns#"
   xmlns:svg="http://www.w3.org/2000/svg"
   xmlns="http://www.w3.org/2000/svg"
   version="1.1"
   id="svg37714"
   viewBox="0 0 56.000001 56.000001"
   height="56"
   width="56">
  <defs
     id="defs37716" />
  <metadata
     id="metadata37719">
    <rdf:RDF>
      <cc:Work
         rdf:about="">
        <dc:format>image/svg+xml</dc:format>
        <dc:type
           rdf:resource="http://purl.org/dc/dcmitype/StillImage" />
        <dc:title></dc:title>
      </cc:Work>
    </rdf:RDF>
  </metadata>
  <g
     transform="translate(0,-996.36216)"
     id="layer1">
    <g
       id="g37023"
       transform="matrix(0.4375,0,0,0.4375,623,-12467.421)">
      <circle
         style="color:#000000;clip-rule:nonzero;display:inline;overflow:visible;visibility:visible;opacity:1;isolation:auto;mix-blend-mode:normal;color-interpolation:sRGB;color-interpolation-filters:linearRGB;solid-color:#000000;solid-opacity:1;fill:#ffffff;fill-opacity:0.19607843;fill-rule:nonzero;stroke:none;stroke-width:7.35426044;stroke-linecap:butt;stroke-linejoin:round;stroke-miterlimit:4;stroke-dasharray:none;stroke-dashoffset:0;stroke-opacity:1;color-rendering:auto;image-rendering:auto;shape-rendering:auto;text-rendering:auto;enable-background:accumulate"
         id="circle37025"
         cx="-1360"
         cy="30838.361"
         r="64" />
      <g
         transform="matrix(4.6333769,0,0,4.6333769,-4143.1237,-152156.25)"
         id="g37027">
        <path
           style="fill:#ffffff"
           id="path37029"
           d="m 602.99172,39495.085 c 0,1.141 -0.93337,2.074 -2.07407,2.074 l -0.49817,0 c -1.1407,0 -2.07408,-0.933 -2.07408,-2.074 l 0,-5.919 c 0,-1.141 0.93338,-2.074 2.07408,-2.074 l 0.49817,0 c 1.1407,0 2.07407,0.933 2.07407,2.074 l 0,5.919 z" />
        <path
           style="fill:#ffffff"
           id="path37031"
           d="m 605.2122,39493.739 -0.38718,0 c -0.21311,0 -0.38718,0.175 -0.38718,0.388 l 0,0.346 c 0,2.171 -1.60343,3.932 -3.77475,3.932 -2.17167,0 -3.76383,-1.761 -3.76383,-3.932 l 0,-0.346 c 0,-0.213 -0.1741,-0.388 -0.38721,-0.388 l -0.38718,0 c -0.21276,0 -0.38721,0.175 -0.38721,0.388 l 0,0.346 c 0,2.543 1.73824,4.65 4.15104,5.028 l 0,1.597 -1.48687,0 c -0.2131,0 -0.38721,0.174 -0.38721,0.387 l 0,0.775 c 0,0.212 0.17411,0.387 0.38721,0.387 l 4.52339,0 c 0.21285,0 0.38721,-0.175 0.38721,-0.387 l 0,-0.775 c 0,-0.213 -0.17436,-0.387 -0.38721,-0.387 l -1.48765,0 0,-1.597 c 2.41487,-0.378 4.16184,-2.485 4.16184,-5.028 l 0,-0.346 c 0,-0.213 -0.17451,-0.388 -0.38721,-0.388 z" />
      </g>
    </g>
  </g>
</svg>
