<?xml version="1.0" encoding="UTF-8" standalone="no"?>
<svg
   xmlns:dc="http://purl.org/dc/elements/1.1/"
   xmlns:cc="http://creativecommons.org/ns#"
   xmlns:rdf="http://www.w3.org/1999/02/22-rdf-syntax-ns#"
   xmlns:svg="http://www.w3.org/2000/svg"
   xmlns="http://www.w3.org/2000/svg"
   version="1.1"
   id="svg37084"
   viewBox="0 0 112 112"
   height="112"
   width="112">
  <defs
     id="defs37086" />
  <metadata
     id="metadata37089">
    <rdf:RDF>
      <cc:Work
         rdf:about="">
        <dc:format>image/svg+xml</dc:format>
        <dc:type
           rdf:resource="http://purl.org/dc/dcmitype/StillImage" />
        <dc:title></dc:title>
      </cc:Work>
    </rdf:RDF>
  </metadata>
  <g
     transform="translate(0,-940.36216)"
     id="layer1">
    <g
       id="g37059"
       transform="matrix(2,0,0,2,8440.54,407.66593)">
      <circle
         r="28"
         cy="294.34811"
         cx="-4192.27"
         id="circle32439"
         style="color:#000000;clip-rule:nonzero;display:inline;overflow:visible;visibility:visible;opacity:1;isolation:auto;mix-blend-mode:normal;color-interpolation:sRGB;color-interpolation-filters:linearRGB;solid-color:#000000;solid-opacity:1;fill:#ffffff;fill-opacity:0.19607843;fill-rule:nonzero;stroke:none;stroke-width:7.35426044;stroke-linecap:butt;stroke-linejoin:round;stroke-miterlimit:4;stroke-dasharray:none;stroke-dashoffset:0;stroke-opacity:1;color-rendering:auto;image-rendering:auto;shape-rendering:auto;text-rendering:auto;enable-background:accumulate" />
      <g
         transform="scale(1.0149821,0.98523905)"
         style="font-style:normal;font-weight:normal;font-size:47.58890533px;line-height:125%;font-family:Sans;letter-spacing:0px;word-spacing:0px;fill:#ffffff;fill-opacity:1;stroke:none;stroke-width:1px;stroke-linecap:butt;stroke-linejoin:miter;stroke-opacity:1"
         id="text32441">
        <path
           d="m -4139.318,300.84939 q 0.9063,0 1.371,1.48715 0.9295,2.78841 1.3245,2.78841 0.3021,0 0.6274,-0.46473 6.5295,-10.45655 12.0831,-16.91637 1.4407,-1.67305 4.5776,-1.67305 0.7436,0 0.9992,0.13942 0.2556,0.13942 0.2556,0.34855 0,0.32532 -0.7668,1.27803 -8.9694,10.78186 -16.6375,22.77203 -0.5345,0.83652 -2.1843,0.83652 -1.673,0 -1.9751,-0.13942 -0.79,-0.34855 -1.8589,-3.55522 -1.2083,-3.55523 -1.2083,-4.46146 0,-0.97595 1.6265,-1.88218 0.9992,-0.55768 1.766,-0.55768 z"
           style="font-style:normal;font-variant:normal;font-weight:normal;font-stretch:normal;font-family:'Open Sans';-inkscape-font-specification:'Open Sans'"
           id="path37057" />
      </g>
    </g>
  </g>
</svg>
