<?xml version="1.0" encoding="UTF-8" standalone="no"?>
<svg
   xmlns:dc="http://purl.org/dc/elements/1.1/"
   xmlns:cc="http://creativecommons.org/ns#"
   xmlns:rdf="http://www.w3.org/1999/02/22-rdf-syntax-ns#"
   xmlns:svg="http://www.w3.org/2000/svg"
   xmlns="http://www.w3.org/2000/svg"
   id="svg33402"
   version="1.1"
   viewBox="0 0 8.4666665 8.4666669"
   height="32"
   width="32">
  <defs
     id="defs33396" />
  <metadata
     id="metadata33399">
    <rdf:RDF>
      <cc:Work
         rdf:about="">
        <dc:format>image/svg+xml</dc:format>
        <dc:type
           rdf:resource="http://purl.org/dc/dcmitype/StillImage" />
        <dc:title></dc:title>
      </cc:Work>
    </rdf:RDF>
  </metadata>
  <g
     transform="translate(0,-288.53332)"
     id="layer1">
    <g
       id="text33392"
       style="font-style:normal;font-weight:normal;font-size:4.84326267px;line-height:0%;font-family:'Open Sans';letter-spacing:0px;word-spacing:0px;fill:#5288af;fill-opacity:1;stroke:none;stroke-width:0.40360522px;stroke-linecap:butt;stroke-linejoin:miter;stroke-opacity:1"
       aria-label="!">
      <g
         id="flowRoot15345-4"
         style="font-style:normal;font-variant:normal;font-weight:normal;font-stretch:normal;font-size:40px;line-height:1.25;font-family:GoodDog;-inkscape-font-specification:GoodDog;text-align:center;letter-spacing:0px;word-spacing:0px;text-anchor:middle;fill:#ffffff;fill-opacity:1;stroke:none"
         transform="matrix(0.27311771,0,0,0.27311771,-707.61411,-4678.304)"
         aria-label="✔">
        <path
           id="path34059"
           d="m 2598.4854,18200.049 q 0.7617,0 1.1523,1.25 0.7812,2.344 1.1133,2.344 0.2539,0 0.5273,-0.39 5.4883,-8.067 10.1563,-11.485 1.9726,-1.445 3.8476,-1.445 2.4805,0 2.9883,0.156 0.2149,0.06 0.2149,0.488 0,0.352 -0.4493,0.879 -12.5586,14.414 -14.9609,18.75 -0.8203,1.485 -3.7891,1.485 -0.9765,0 -2.0507,-0.508 -0.4493,-0.234 -1.5625,-2.988 -1.4063,-3.477 -1.4063,-6.094 0,-0.957 1.3672,-1.582 1.875,-0.86 2.8125,-0.86 z" />
      </g>
    </g>
  </g>
</svg>
