<?xml version="1.0" encoding="UTF-8"?>
<svg width="18px" height="34px" viewBox="0 0 18 34" version="1.1" xmlns="http://www.w3.org/2000/svg" xmlns:xlink="http://www.w3.org/1999/xlink">
    <!-- Generator: Sketch 48.2 (47327) - http://www.bohemiancoding.com/sketch -->
    <title>unknown-thing</title>
    <desc>Created with Sketch.</desc>
    <defs></defs>
    <g id="Page-1" stroke="none" stroke-width="1" fill="none" fill-rule="evenodd">
        <g id="unknown-thing" fill="#FFFFFF">
            <g id="text26538" transform="translate(-0.000351, 0.461417)">
                <path d="M5.8327641,23.992078 L5.8327641,22.8086978 C5.8327641,21.0993625 6.09573484,19.6931995 6.62168419,18.5901668 C7.14763354,17.4871342 8.12646904,16.3220277 9.55822005,15.0948126 C11.5451398,13.4146966 12.7979032,12.1509762 13.3165477,11.3036133 C13.8351922,10.4562505 14.0945105,9.43358652 14.0945105,8.23559077 C14.0945105,6.74540094 13.6160499,5.59490399 12.6591143,4.78406541 C11.7021786,3.97322683 10.3252347,3.56781362 8.52824105,3.56781362 C7.37407442,3.56781362 6.24914407,3.70295135 5.15341626,3.97323088 C4.05768844,4.24351041 2.80127273,4.73658053 1.38413142,5.45245604 L0.0911790617,2.49400573 C2.85241316,1.04764501 5.73778645,0.324475502 8.74738552,0.324475502 C11.537839,0.324475502 13.7073476,1.0111213 15.2559762,2.38443349 C16.8046048,3.75774569 17.5789076,5.69350246 17.5789076,8.19176188 C17.5789076,9.25827028 17.4364651,10.1969297 17.1515758,11.0077683 C16.8666866,11.8186069 16.4466639,12.5856048 15.8914952,13.3087852 C15.3363264,14.0319655 14.1383486,15.197072 12.2975259,16.8041394 C10.8219458,18.060574 9.84676264,19.1051522 9.37194725,19.9379053 C8.89713186,20.7706585 8.65972773,21.8809793 8.65972773,23.2689012 L8.65972773,23.992078 L5.8327641,23.992078 Z M4.75895621,30.5006686 C4.75895621,28.5137489 5.63552532,27.5203039 7.38868982,27.5203039 C8.23605267,27.5203039 8.88982712,27.7759699 9.3500328,28.2873095 C9.81023849,28.7986492 10.0403379,29.5364282 10.0403379,30.5006686 C10.0403379,31.4356897 9.80658612,32.1625116 9.33907558,32.6811561 C8.87156505,33.1998006 8.22144296,33.459119 7.38868982,33.459119 C6.6289852,33.459119 6.00077735,33.2290196 5.5040474,32.7688139 C5.00731746,32.3086082 4.75895621,31.5525673 4.75895621,30.5006686 Z" id="tspan26540"></path>
            </g>
        </g>
    </g>
</svg>