<?xml version="1.0" encoding="UTF-8" standalone="no"?>
<svg
   xmlns:dc="http://purl.org/dc/elements/1.1/"
   xmlns:cc="http://creativecommons.org/ns#"
   xmlns:rdf="http://www.w3.org/1999/02/22-rdf-syntax-ns#"
   xmlns:svg="http://www.w3.org/2000/svg"
   xmlns="http://www.w3.org/2000/svg"
   version="1.1"
   id="svg58724"
   viewBox="0 0 31.999999 31.999999"
   height="32"
   width="32">
  <defs
     id="defs58726" />
  <metadata
     id="metadata58729">
    <rdf:RDF>
      <cc:Work
         rdf:about="">
        <dc:format>image/svg+xml</dc:format>
        <dc:type
           rdf:resource="http://purl.org/dc/dcmitype/StillImage" />
        <dc:title></dc:title>
      </cc:Work>
    </rdf:RDF>
  </metadata>
  <g
     transform="translate(0,-1020.3622)"
     id="layer1">
    <g
       id="text97661-0-6"
       style="font-style:normal;font-weight:normal;font-size:19.33447075px;line-height:125%;font-family:'Open Sans';letter-spacing:0px;word-spacing:0px;fill:#ffffff;fill-opacity:1;stroke:none;stroke-width:1px;stroke-linecap:butt;stroke-linejoin:miter;stroke-opacity:1">
      <path
         id="path59302"
         style="font-style:normal;font-variant:normal;font-weight:bold;font-stretch:normal;font-size:10.27532101px;font-family:'Open Sans';-inkscape-font-specification:'Open Sans Bold';text-align:center;text-anchor:middle;fill:#ffffff;fill-opacity:1"
         d="m 3.5471923,1040.0323 -1.5553465,0 0,-6.0407 -1.9918468677613,0 0,-1.2945 5.5390402677613,0 0,1.2945 -1.9918469,0 0,6.0407 z" />
      <path
         id="path59304"
         style="font-style:normal;font-variant:normal;font-weight:bold;font-stretch:normal;font-size:10.27532101px;font-family:'Open Sans';-inkscape-font-specification:'Open Sans Bold';text-align:center;text-anchor:middle;fill:#ffffff;fill-opacity:1"
         d="m 12.688615,1040.0323 -1.550329,0 0,-3.1658 -2.9049856,0 0,3.1658 -1.5553464,0 0,-7.3352 1.5553464,0 0,2.8749 2.9049856,0 0,-2.8749 1.550329,0 0,7.3352 z" />
      <path
         id="path59306"
         style="font-style:normal;font-variant:normal;font-weight:bold;font-stretch:normal;font-size:10.27532101px;font-family:'Open Sans';-inkscape-font-specification:'Open Sans Bold';text-align:center;text-anchor:middle;fill:#ffffff;fill-opacity:1"
         d="m 14.544997,1040.0323 0,-7.3352 1.555346,0 0,7.3352 -1.555346,0 z" />
      <path
         id="path59308"
         style="font-style:normal;font-variant:normal;font-weight:bold;font-stretch:normal;font-size:10.27532101px;font-family:'Open Sans';-inkscape-font-specification:'Open Sans Bold';text-align:center;text-anchor:middle;fill:#ffffff;fill-opacity:1"
         d="m 24.464094,1040.0323 -1.976795,0 -3.190969,-5.549 -0.04516,0 q 0.09533,1.47 0.09533,2.0972 l 0,3.4518 -1.389777,0 0,-7.3352 1.961743,0 3.185952,5.4939 0.03512,0 q -0.07526,-1.4299 -0.07526,-2.0219 l 0,-3.472 1.399812,0 0,7.3352 z" />
      <path
         id="path59310"
         style="font-style:normal;font-variant:normal;font-weight:bold;font-stretch:normal;font-size:10.27532101px;font-family:'Open Sans';-inkscape-font-specification:'Open Sans Bold';text-align:center;text-anchor:middle;fill:#ffffff;fill-opacity:1"
         d="m 29.089994,1035.9132 2.910003,0 0,3.8031 q -0.707431,0.2308 -1.334587,0.3211 -0.622139,0.095 -1.274381,0.095 -1.660708,0 -2.538727,-0.9734 -0.873,-0.9783 -0.873,-2.8046 0,-1.7761 1.013483,-2.7695 1.018501,-0.9934 2.819693,-0.9934 1.12888,0 2.177485,0.4515 l -0.516776,1.2443 q -0.80276,-0.4014 -1.670744,-0.4014 -1.008466,0 -1.615553,0.6773 -0.607087,0.6774 -0.607087,1.8213 0,1.1941 0.486673,1.8263 0.49169,0.6271 1.424898,0.6271 0.486673,0 0.988398,-0.1003 l 0,-1.5303 -1.389778,0 0,-1.2944 z" />
    </g>
  </g>
</svg>
