<?xml version="1.0" encoding="UTF-8" standalone="no"?>
<svg
   xmlns:dc="http://purl.org/dc/elements/1.1/"
   xmlns:cc="http://creativecommons.org/ns#"
   xmlns:rdf="http://www.w3.org/1999/02/22-rdf-syntax-ns#"
   xmlns:svg="http://www.w3.org/2000/svg"
   xmlns="http://www.w3.org/2000/svg"
   id="svg33402"
   version="1.1"
   viewBox="0 0 8.4666665 8.4666669"
   height="32"
   width="32">
  <defs
     id="defs33396" />
  <metadata
     id="metadata33399">
    <rdf:RDF>
      <cc:Work
         rdf:about="">
        <dc:format>image/svg+xml</dc:format>
        <dc:type
           rdf:resource="http://purl.org/dc/dcmitype/StillImage" />
        <dc:title></dc:title>
      </cc:Work>
    </rdf:RDF>
  </metadata>
  <g
     transform="translate(0,-288.53332)"
     id="layer1">
    <g
       id="text33392"
       style="font-style:normal;font-weight:normal;font-size:4.84326267px;line-height:0%;font-family:'Open Sans';letter-spacing:0px;word-spacing:0px;fill:#5288af;fill-opacity:1;stroke:none;stroke-width:0.40360522px;stroke-linecap:butt;stroke-linejoin:miter;stroke-opacity:1"
       aria-label="!">
      <g
         transform="translate(0.83154496,0.58604753)"
         id="g34001">
        <path
           transform="matrix(0.26458333,0,0,0.26458333,-0.83154496,287.94727)"
           id="path33388"
           d="M 15.917969 1.9746094 C 15.401862 2.0010661 14.934399 2.2877482 14.675781 2.734375 L 0.20507812 27.742188 C -0.38226673 28.757747 0.35214176 30.026663 1.5273438 30.027344 L 30.470703 30.027344 C 31.646478 30.027684 32.382553 28.758238 31.794922 27.742188 L 17.322266 2.734375 C 17.034817 2.2381608 16.491619 1.9442598 15.917969 1.9746094 z M 14.347656 9.5566406 L 18.111328 9.5566406 L 17.556641 20.1875 L 14.902344 20.1875 L 14.347656 9.5566406 z M 16.21875 22.058594 C 16.820831 22.058594 17.284899 22.217941 17.611328 22.537109 C 17.945012 22.856278 18.111328 23.313356 18.111328 23.908203 C 18.111328 24.481255 17.945012 24.933896 17.611328 25.267578 C 17.277645 25.594003 16.813577 25.757812 16.21875 25.757812 C 15.609415 25.757812 15.136418 25.598465 14.802734 25.279297 C 14.469051 24.952872 14.302734 24.495768 14.302734 23.908203 C 14.302734 23.298868 14.466539 22.837328 14.792969 22.525391 C 15.119398 22.213479 15.594907 22.058594 16.21875 22.058594 z "
           style="color:#000000;font-style:normal;font-variant:normal;font-weight:normal;font-stretch:normal;font-size:medium;line-height:0%;font-family:'Open Sans';font-variant-ligatures:normal;font-variant-position:normal;font-variant-caps:normal;font-variant-numeric:normal;font-variant-alternates:normal;font-feature-settings:normal;text-indent:0;text-align:start;text-decoration:none;text-decoration-line:none;text-decoration-style:solid;text-decoration-color:#000000;letter-spacing:0px;word-spacing:0px;text-transform:none;writing-mode:lr-tb;direction:ltr;text-orientation:mixed;dominant-baseline:auto;baseline-shift:baseline;text-anchor:start;white-space:normal;shape-padding:0;clip-rule:nonzero;display:inline;overflow:visible;visibility:visible;opacity:1;isolation:auto;mix-blend-mode:normal;color-interpolation:sRGB;color-interpolation-filters:linearRGB;solid-color:#000000;solid-opacity:1;vector-effect:none;fill:#ffffff;fill-opacity:1;fill-rule:nonzero;stroke:none;stroke-width:3.05087399;stroke-linecap:round;stroke-linejoin:round;stroke-miterlimit:4;stroke-dasharray:none;stroke-dashoffset:0;stroke-opacity:1;paint-order:fill markers stroke;color-rendering:auto;image-rendering:auto;shape-rendering:auto;text-rendering:auto;enable-background:accumulate" />
      </g>
    </g>
  </g>
</svg>
