<?xml version="1.0" encoding="UTF-8" standalone="no"?>
<svg
   xmlns:dc="http://purl.org/dc/elements/1.1/"
   xmlns:cc="http://creativecommons.org/ns#"
   xmlns:rdf="http://www.w3.org/1999/02/22-rdf-syntax-ns#"
   xmlns:svg="http://www.w3.org/2000/svg"
   xmlns="http://www.w3.org/2000/svg"
   id="svg71941"
   version="1.1"
   viewBox="0 0 83.045728 8.4666669"
   height="32"
   width="313.87363">
  <defs
     id="defs71935" />
  <metadata
     id="metadata71938">
    <rdf:RDF>
      <cc:Work
         rdf:about="">
        <dc:format>image/svg+xml</dc:format>
        <dc:type
           rdf:resource="http://purl.org/dc/dcmitype/StillImage" />
        <dc:title></dc:title>
      </cc:Work>
    </rdf:RDF>
  </metadata>
  <g
     transform="translate(-91.524757,-91.683323)"
     id="layer1">
    <g
       id="text19181"
       style="font-style:normal;font-weight:normal;font-size:1.99854243px;line-height:0%;font-family:sans-serif;letter-spacing:0px;word-spacing:0px;fill:#ffffff;fill-opacity:1;stroke:none;stroke-width:0.17878541px;stroke-linecap:butt;stroke-linejoin:miter;stroke-opacity:1"
       aria-label="WebThings Gateway">
      <path
         id="path72496"
         style="font-style:normal;font-variant:normal;font-weight:600;font-stretch:normal;font-size:9.30402946px;line-height:1.25;font-family:'Zilla Slab';-inkscape-font-specification:'Zilla Slab Semi-Bold';text-align:start;text-anchor:start;fill:#ffffff;fill-opacity:1;stroke-width:0.17878541px"
         d="M 100.42871,92.920759 H 99.9356 l -1.646813,5.163737 h -0.762931 l -1.47934,-4.261246 h -0.04652 l -1.432821,4.261246 h -0.772234 l -1.749158,-5.163737 h -0.521026 v -0.883883 h 2.298096 v 0.883883 h -0.66989 l 1.042051,3.461099 h 0.04652 l 1.20022,-3.461099 h -0.53033 v -0.883883 h 2.288791 v 0.883883 h -0.493113 l 1.20022,3.507619 h 0.04652 l 0.949011,-3.507619 H 98.15853 v -0.883883 h 2.27018 z" />
      <path
         id="path72498"
         style="font-style:normal;font-variant:normal;font-weight:600;font-stretch:normal;font-size:9.30402946px;line-height:1.25;font-family:'Zilla Slab';-inkscape-font-specification:'Zilla Slab Semi-Bold';text-align:start;text-anchor:start;fill:#ffffff;fill-opacity:1;stroke-width:0.17878541px"
         d="m 104.19786,96.809844 q -0.0558,0.548937 -0.53963,0.958315 -0.48381,0.409377 -1.33048,0.409377 -0.91179,0 -1.49795,-0.53033 -0.58615,-0.539634 -0.58615,-1.581685 0,-0.958315 0.53033,-1.600293 0.53963,-0.641978 1.49795,-0.641978 0.86527,0 1.36769,0.521026 0.51172,0.511721 0.52103,1.302564 0,0.260513 -0.0558,0.558242 h -2.81912 q 0.0837,1.172307 1.11649,1.172307 0.48381,0 0.68849,-0.2326 0.214,-0.232601 0.27912,-0.493114 z m -1.06066,-1.218828 q 0.0372,-0.372162 -0.17677,-0.697803 -0.20469,-0.334945 -0.6978,-0.334945 -0.4466,0 -0.6792,0.297729 -0.2326,0.297729 -0.28842,0.735019 z" />
      <path
         id="path72500"
         style="font-style:normal;font-variant:normal;font-weight:600;font-stretch:normal;font-size:9.30402946px;line-height:1.25;font-family:'Zilla Slab';-inkscape-font-specification:'Zilla Slab Semi-Bold';text-align:start;text-anchor:start;fill:#ffffff;fill-opacity:1;stroke-width:0.17878541px"
         d="m 109.25475,95.898049 q 0,0.883882 -0.4652,1.581685 -0.4652,0.697802 -1.43282,0.697802 -0.98623,0 -1.3863,-0.744323 -0.0186,0.111649 -0.0465,0.325642 -0.0279,0.213992 -0.0465,0.325641 h -0.98623 q 0.0558,-0.307033 0.10234,-0.62337 0.0465,-0.325641 0.0465,-0.632674 v -4.382198 h -0.62337 v -0.762931 h 1.6096 v 3.051722 q 0.18608,-0.372161 0.52103,-0.641978 0.34425,-0.269817 0.9211,-0.269817 0.79084,0 1.28395,0.548938 0.50242,0.539633 0.50242,1.525861 z m -1.03275,0.08374 q 0,-0.660586 -0.29773,-1.004835 -0.29773,-0.353553 -0.76293,-0.353553 -0.53033,0 -0.82806,0.390769 -0.29773,0.390769 -0.30703,0.846667 v 0.297728 q 0,0.511722 0.29773,0.874579 0.30703,0.353553 0.80015,0.353553 0.52102,0 0.80945,-0.381465 0.28842,-0.381465 0.28842,-1.023443 z" />
      <path
         id="path72502"
         style="font-style:normal;font-variant:normal;font-weight:600;font-stretch:normal;font-size:9.30402946px;line-height:1.25;font-family:'Zilla Slab';-inkscape-font-specification:'Zilla Slab Semi-Bold';text-align:start;text-anchor:start;fill:#ffffff;fill-opacity:1;stroke-width:0.17878541px"
         d="m 114.84647,94.009331 -0.89319,0.07443 -0.18608,-1.163004 h -1.18161 v 4.279854 h 1.01414 v 0.883883 h -3.02381 v -0.883883 h 0.97692 v -4.279854 h -1.19091 l -0.18608,1.163004 -0.88388,-0.07443 0.18608,-1.972455 h 5.18234 z" />
      <path
         id="path72504"
         style="font-style:normal;font-variant:normal;font-weight:600;font-stretch:normal;font-size:9.30402946px;line-height:1.25;font-family:'Zilla Slab';-inkscape-font-specification:'Zilla Slab Semi-Bold';text-align:start;text-anchor:start;fill:#ffffff;fill-opacity:1;stroke-width:0.17878541px"
         d="m 120.26767,98.084496 h -2.24227 v -0.762931 h 0.62337 v -1.637509 q 0,-0.595458 -0.2233,-0.837363 -0.2233,-0.251209 -0.60476,-0.251209 -0.4559,0 -0.72572,0.297729 -0.26981,0.297729 -0.28842,0.725715 v 1.702637 h 0.61406 v 0.762931 h -2.23296 v -0.762931 h 0.62337 v -4.875311 h -0.62337 v -0.762931 h 1.6189 v 2.912161 q 0.42798,-0.772234 1.3863,-0.772234 0.60476,0 1.02344,0.362857 0.42799,0.362857 0.42799,1.135092 v 2.000366 h 0.62337 z" />
      <path
         id="path72506"
         style="font-style:normal;font-variant:normal;font-weight:600;font-stretch:normal;font-size:9.30402946px;line-height:1.25;font-family:'Zilla Slab';-inkscape-font-specification:'Zilla Slab Semi-Bold';text-align:start;text-anchor:start;fill:#ffffff;fill-opacity:1;stroke-width:0.17878541px"
         d="m 121.23776,93.041712 v -1.097876 h 1.01414 v 1.097876 z m 1.66542,5.042784 h -2.23297 v -0.762931 h 0.62337 V 94.679221 H 120.633 v -0.772235 h 1.64681 v 3.414579 h 0.62337 z" />
      <path
         id="path72508"
         style="font-style:normal;font-variant:normal;font-weight:600;font-stretch:normal;font-size:9.30402946px;line-height:1.25;font-family:'Zilla Slab';-inkscape-font-specification:'Zilla Slab Semi-Bold';text-align:start;text-anchor:start;fill:#ffffff;fill-opacity:1;stroke-width:0.17878541px"
         d="m 128.43879,98.084496 h -2.23297 v -0.762931 h 0.61406 v -1.637509 q 0,-0.595458 -0.21399,-0.837363 -0.21399,-0.251209 -0.59546,-0.251209 -0.4745,0 -0.75362,0.307033 -0.26982,0.307033 -0.27912,0.753627 v 1.665421 h 0.62337 v 0.762931 h -2.24227 v -0.762931 h 0.62337 v -2.642344 h -0.65129 v -0.772235 h 1.64682 v 0.679194 q 0.43729,-0.76293 1.3863,-0.76293 0.59545,0 1.02344,0.362857 0.42799,0.362857 0.42799,1.135092 v 2.000366 h 0.62337 z" />
      <path
         id="path72510"
         style="font-style:normal;font-variant:normal;font-weight:600;font-stretch:normal;font-size:9.30402946px;line-height:1.25;font-family:'Zilla Slab';-inkscape-font-specification:'Zilla Slab Semi-Bold';text-align:start;text-anchor:start;fill:#ffffff;fill-opacity:1;stroke-width:0.17878541px"
         d="m 133.62055,94.679221 h -0.60477 v 3.247106 q 0,0.995531 -0.55824,1.609597 -0.54893,0.614066 -1.64681,0.614066 -0.65128,0 -1.21883,-0.279121 -0.56754,-0.279121 -0.80014,-0.958315 l 0.77223,-0.418681 q 0.39077,0.855971 1.26535,0.855971 0.52102,0 0.85597,-0.372162 0.33494,-0.372161 0.33494,-1.060659 v -0.62337 q -0.17677,0.334945 -0.51172,0.57685 -0.32564,0.232601 -0.90249,0.232601 -0.73502,0 -1.27465,-0.511722 -0.53033,-0.521026 -0.53033,-1.507253 0,-0.893187 0.4745,-1.572381 0.48381,-0.688498 1.39561,-0.688498 0.94901,0 1.34908,0.735018 v -0.651282 h 1.6003 z m -1.6003,1.414212 v -0.334945 q 0,-0.521025 -0.29773,-0.828058 -0.29772,-0.307033 -0.74432,-0.307033 -0.52102,0 -0.80014,0.381465 -0.27913,0.372161 -0.27913,1.014139 0,0.660586 0.27913,0.976923 0.27912,0.307033 0.7071,0.307033 0.53033,0 0.82806,-0.372161 0.30703,-0.372161 0.30703,-0.837363 z" />
      <path
         id="path72512"
         style="font-style:normal;font-variant:normal;font-weight:600;font-stretch:normal;font-size:9.30402946px;line-height:1.25;font-family:'Zilla Slab';-inkscape-font-specification:'Zilla Slab Semi-Bold';text-align:start;text-anchor:start;fill:#ffffff;fill-opacity:1;stroke-width:0.17878541px"
         d="m 137.67289,96.837756 q 0,0.651282 -0.53963,0.995531 -0.53033,0.344249 -1.35839,0.344249 -0.4466,0 -0.90249,-0.102344 -0.4466,-0.102345 -0.80945,-0.307033 l 0.14886,-1.079268 0.78154,0.07443 -0.009,0.539634 q 0.17677,0.07443 0.37216,0.102344 0.20469,0.02791 0.36285,0.02791 0.38147,0 0.66059,-0.130256 0.28842,-0.13956 0.28842,-0.409377 0,-0.260513 -0.26051,-0.372161 -0.25121,-0.111649 -0.63267,-0.167473 -0.38147,-0.06513 -0.76293,-0.167472 -0.38147,-0.111649 -0.64198,-0.353554 -0.25121,-0.251208 -0.25121,-0.744322 0,-0.725714 0.54894,-0.995531 0.55824,-0.269817 1.17231,-0.269817 0.80945,0 1.52586,0.381465 l 0.10234,1.032748 -0.78154,0.09304 -0.0837,-0.62337 q -0.36286,-0.139561 -0.73502,-0.139561 -0.28843,0 -0.49312,0.120953 -0.19538,0.111648 -0.19538,0.362857 0,0.260513 0.25121,0.362857 0.25121,0.102344 0.62337,0.167473 0.37216,0.05582 0.74432,0.167472 0.37216,0.102344 0.62337,0.353553 0.25121,0.241905 0.25121,0.735019 z" />
      <path
         id="path72514"
         style="font-weight:normal;stroke-width:0.17878541px"
         d="m 146.00319,95.572408 h -0.4745 v 2.512088 h -0.52103 l -0.0837,-0.837363 q -0.26982,0.400073 -0.77224,0.66989 -0.49311,0.260513 -1.163,0.260513 -1.24674,0 -2.01898,-0.893187 -0.77223,-0.893187 -0.77223,-2.195751 0,-0.874579 0.37216,-1.581685 0.38146,-0.71641 1.04205,-1.135092 0.66989,-0.427985 1.53517,-0.427985 0.72571,0 1.26534,0.204689 0.54894,0.195384 0.89319,0.502417 l 0.16747,1.135092 -0.57685,0.06513 -0.18608,-0.855971 q -0.25121,-0.167472 -0.61406,-0.297729 -0.35356,-0.13956 -0.9118,-0.13956 -1.01414,0 -1.63751,0.697802 -0.62337,0.697802 -0.62337,1.804982 0,1.125788 0.59546,1.814286 0.59546,0.688498 1.59099,0.688498 0.82806,0 1.28396,-0.446594 0.45589,-0.455897 0.45589,-1.004835 v -0.539633 h -1.44212 v -0.604762 h 2.59582 z" />
      <path
         id="path72516"
         style="font-weight:normal;stroke-width:0.17878541px"
         d="m 147.01181,94.260539 q 0.32564,-0.213992 0.6885,-0.307033 0.36285,-0.09304 0.77223,-0.09304 1.47934,0 1.47934,1.386301 v 1.972454 q 0,0.446593 0.35356,0.446593 0.15816,0 0.27912,-0.05582 l 0.009,0.427985 q -0.25121,0.139561 -0.53963,0.139561 -0.73502,0 -0.75363,-0.837363 v -0.01861 q -0.19538,0.334945 -0.55824,0.595458 -0.35355,0.260513 -0.85597,0.260513 -0.40938,0 -0.83736,-0.251209 -0.41869,-0.251209 -0.41869,-0.911795 0,-0.781538 0.61407,-1.023443 0.62337,-0.251209 1.32117,-0.251209 0.18608,0 0.37216,0.0093 0.19539,0.0093 0.36286,0.02791 v -0.372161 q 0,-0.446593 -0.19538,-0.725714 -0.18609,-0.279121 -0.74433,-0.279121 -0.45589,0 -0.80014,0.167472 l -0.15817,0.716411 -0.53964,-0.06513 z m 2.28879,2.270184 v -0.316337 q -0.17678,-0.0093 -0.37216,-0.02791 -0.19539,-0.01861 -0.40007,-0.01861 -0.46521,0 -0.84667,0.148865 -0.37216,0.13956 -0.37216,0.62337 0,0.400073 0.25121,0.548938 0.25121,0.148864 0.52102,0.148864 0.42799,0 0.80015,-0.297729 0.38146,-0.297729 0.41868,-0.80945 z" />
      <path
         id="path72518"
         style="font-weight:normal;stroke-width:0.17878541px"
         d="m 154.15193,96.968012 q -0.16748,1.209524 -1.31187,1.209524 -0.62337,0 -0.95832,-0.353553 -0.32564,-0.353553 -0.32564,-0.958315 v -2.40044 h -0.66989 v -0.521026 h 0.66989 v -1.330476 h 0.65128 v 1.330476 h 1.6189 v 0.521026 h -1.6189 v 2.316703 q 0,0.372162 0.15817,0.604762 0.16747,0.223297 0.53964,0.223297 0.2419,0 0.44659,-0.148864 0.21399,-0.148865 0.30703,-0.651282 z" />
      <path
         id="path72520"
         style="font-weight:normal;stroke-width:0.17878541px"
         d="m 158.24657,96.89358 q -0.0837,0.530329 -0.53033,0.911795 -0.44659,0.372161 -1.20952,0.372161 -0.87458,0 -1.41422,-0.548938 -0.53963,-0.548938 -0.53963,-1.553773 0,-0.967619 0.51172,-1.590989 0.51172,-0.62337 1.3863,-0.62337 0.85597,0 1.30257,0.539634 0.44659,0.539634 0.45589,1.274652 0,0.241905 -0.0558,0.493113 h -2.91216 q 0.0558,1.451429 1.31187,1.451429 0.49311,0 0.77223,-0.232601 0.27912,-0.2326 0.37216,-0.614066 z m -0.72571,-1.209524 q 0.0465,-0.465202 -0.2233,-0.874579 -0.26051,-0.409377 -0.86527,-0.409377 -0.57685,0 -0.84667,0.381465 -0.26982,0.381465 -0.33495,0.902491 z" />
      <path
         id="path72522"
         style="font-weight:normal;stroke-width:0.17878541px"
         d="m 165.52174,94.474532 h -0.47451 l -1.21882,3.609964 h -0.50242 l -1.26535,-3.16337 h -0.0465 l -1.23744,3.16337 h -0.48381 l -1.26534,-3.609964 h -0.4559 v -0.53033 h 1.95384 v 0.53033 h -0.79084 l 0.86528,2.614432 h 0.0465 l 1.22813,-3.144762 h 0.43729 l 1.29326,3.144762 h 0.0465 l 0.76293,-2.614432 h -0.75363 v -0.53033 h 1.86081 z" />
      <path
         id="path72524"
         style="font-weight:normal;stroke-width:0.17878541px"
         d="m 166.36492,94.260539 q 0.32564,-0.213992 0.68849,-0.307033 0.36286,-0.09304 0.77224,-0.09304 1.47934,0 1.47934,1.386301 v 1.972454 q 0,0.446593 0.35355,0.446593 0.15817,0 0.27912,-0.05582 l 0.009,0.427985 q -0.25121,0.139561 -0.53964,0.139561 -0.73501,0 -0.75362,-0.837363 v -0.01861 q -0.19539,0.334945 -0.55824,0.595458 -0.35356,0.260513 -0.85597,0.260513 -0.40938,0 -0.83737,-0.251209 -0.41868,-0.251209 -0.41868,-0.911795 0,-0.781538 0.61407,-1.023443 0.62337,-0.251209 1.32117,-0.251209 0.18608,0 0.37216,0.0093 0.19539,0.0093 0.36286,0.02791 v -0.372161 q 0,-0.446593 -0.19539,-0.725714 -0.18608,-0.279121 -0.74432,-0.279121 -0.4559,0 -0.80015,0.167472 l -0.15816,0.716411 -0.53964,-0.06513 z m 2.28879,2.270184 v -0.316337 q -0.17678,-0.0093 -0.37216,-0.02791 -0.19539,-0.01861 -0.40008,-0.01861 -0.4652,0 -0.84666,0.148865 -0.37216,0.13956 -0.37216,0.62337 0,0.400073 0.2512,0.548938 0.25121,0.148864 0.52103,0.148864 0.42799,0 0.80015,-0.297729 0.38146,-0.297729 0.41868,-0.80945 z" />
      <path
         id="path72526"
         style="font-weight:normal;stroke-width:0.17878541px"
         d="m 174.57049,94.474532 h -0.49312 l -1.46073,3.609964 -0.55824,1.451428 h 0.70711 v 0.530326 h -2.10272 v -0.530326 h 0.77224 l 0.53963,-1.460732 -1.50725,-3.60066 h -0.49311 v -0.53033 h 1.91663 v 0.53033 h -0.72572 l 1.16301,2.781905 h 0.0558 l 1.03275,-2.781905 h -0.66989 v -0.53033 h 1.82359 z" />
    </g>
  </g>
</svg>
