<?xml version="1.0" encoding="UTF-8" standalone="no"?>
<svg
   xmlns:dc="http://purl.org/dc/elements/1.1/"
   xmlns:cc="http://creativecommons.org/ns#"
   xmlns:rdf="http://www.w3.org/1999/02/22-rdf-syntax-ns#"
   xmlns:svg="http://www.w3.org/2000/svg"
   xmlns="http://www.w3.org/2000/svg"
   id="svg31947"
   version="1.1"
   viewBox="0 0 47.130496 8.4666667"
   height="32"
   width="178.13101">
  <defs
     id="defs31941" />
  <metadata
     id="metadata31944">
    <rdf:RDF>
      <cc:Work
         rdf:about="">
        <dc:format>image/svg+xml</dc:format>
        <dc:type
           rdf:resource="http://purl.org/dc/dcmitype/StillImage" />
        <dc:title></dc:title>
      </cc:Work>
    </rdf:RDF>
  </metadata>
  <g
     id="g36707"
     transform="matrix(0.53333333,0,0,0.53333333,-1.9333007e-5,2.1885417e-5)">
    <g
       transform="translate(0,-281.12498)"
       id="g33189">
      <rect
         ry="2.0386827"
         rx="2.0386827"
         id="rect32739"
         height="15.875"
         width="15.875"
         y="281.12494"
         x="3.6249388e-05"
         style="stroke-width:0.13453542" />
      <path
         style="color:#000000;clip-rule:nonzero;display:inline;overflow:visible;visibility:visible;opacity:1;isolation:auto;mix-blend-mode:normal;color-interpolation:sRGB;color-interpolation-filters:linearRGB;solid-color:#000000;solid-opacity:1;fill:#ffffff;fill-opacity:1;fill-rule:nonzero;stroke:none;stroke-width:5.49662161;stroke-linecap:butt;stroke-linejoin:round;stroke-miterlimit:4;stroke-dasharray:none;stroke-dashoffset:0;stroke-opacity:1;color-rendering:auto;image-rendering:auto;shape-rendering:auto;text-rendering:auto;enable-background:accumulate"
         d="m 9.2453859,289.65973 a 2.0610945,2.0610945 0 0 1 -2.0610941,2.06112 2.0610945,2.0610945 0 0 1 -2.061094,-2.06112 2.0610945,2.0610945 0 0 1 2.061094,-2.06108 2.0610945,2.0610945 0 0 1 2.0610941,2.06108 z"
         id="path32741" />
      <path
         style="color:#000000;clip-rule:nonzero;display:inline;overflow:visible;visibility:visible;opacity:1;isolation:auto;mix-blend-mode:normal;color-interpolation:sRGB;color-interpolation-filters:linearRGB;solid-color:#000000;solid-opacity:1;fill:#ffffff;fill-opacity:1;fill-rule:nonzero;stroke:none;stroke-width:5.49662161;stroke-linecap:butt;stroke-linejoin:round;stroke-miterlimit:4;stroke-dasharray:none;stroke-dashoffset:0;stroke-opacity:1;color-rendering:auto;image-rendering:auto;shape-rendering:auto;text-rendering:auto;enable-background:accumulate"
         d="m 9.7494852,285.01685 a 1.2476644,1.2476644 0 0 1 -1.2476668,1.24766 1.2476644,1.2476644 0 0 1 -1.247663,-1.24766 1.2476644,1.2476644 0 0 1 1.247663,-1.24766 1.2476644,1.2476644 0 0 1 1.2476668,1.24766 z"
         id="path32743" />
      <path
         style="color:#000000;clip-rule:nonzero;display:inline;overflow:visible;visibility:visible;opacity:1;isolation:auto;mix-blend-mode:normal;color-interpolation:sRGB;color-interpolation-filters:linearRGB;solid-color:#000000;solid-opacity:1;fill:#ffffff;fill-opacity:1;fill-rule:nonzero;stroke:none;stroke-width:5.49662161;stroke-linecap:butt;stroke-linejoin:round;stroke-miterlimit:4;stroke-dasharray:none;stroke-dashoffset:0;stroke-opacity:1;color-rendering:auto;image-rendering:auto;shape-rendering:auto;text-rendering:auto;enable-background:accumulate"
         d="m 13.890288,288.53046 a 1.2476644,1.2476644 0 0 1 -1.247667,1.24766 1.2476644,1.2476644 0 0 1 -1.247663,-1.24766 1.2476644,1.2476644 0 0 1 1.247663,-1.24766 1.2476644,1.2476644 0 0 1 1.247667,1.24766 z"
         id="path32745" />
      <path
         style="color:#000000;clip-rule:nonzero;display:inline;overflow:visible;visibility:visible;opacity:1;isolation:auto;mix-blend-mode:normal;color-interpolation:sRGB;color-interpolation-filters:linearRGB;solid-color:#000000;solid-opacity:1;fill:#ffffff;fill-opacity:1;fill-rule:nonzero;stroke:none;stroke-width:5.49662161;stroke-linecap:butt;stroke-linejoin:round;stroke-miterlimit:4;stroke-dasharray:none;stroke-dashoffset:0;stroke-opacity:1;color-rendering:auto;image-rendering:auto;shape-rendering:auto;text-rendering:auto;enable-background:accumulate"
         d="m 11.819896,293.11049 a 1.2476644,1.2476644 0 0 1 -1.247663,1.24767 1.2476644,1.2476644 0 0 1 -1.2476632,-1.24767 1.2476644,1.2476644 0 0 1 1.2476632,-1.2477 1.2476644,1.2476644 0 0 1 1.247663,1.2477 z"
         id="path32747" />
      <path
         style="color:#000000;clip-rule:nonzero;display:inline;overflow:visible;visibility:visible;opacity:1;isolation:auto;mix-blend-mode:normal;color-interpolation:sRGB;color-interpolation-filters:linearRGB;solid-color:#000000;solid-opacity:1;fill:#ffffff;fill-opacity:1;fill-rule:nonzero;stroke:none;stroke-width:5.49662161;stroke-linecap:butt;stroke-linejoin:round;stroke-miterlimit:4;stroke-dasharray:none;stroke-dashoffset:0;stroke-opacity:1;color-rendering:auto;image-rendering:auto;shape-rendering:auto;text-rendering:auto;enable-background:accumulate"
         d="m 4.7930525,292.54584 a 1.2476644,1.2476644 0 0 1 -1.247663,1.24766 1.2476644,1.2476644 0 0 1 -1.2476668,-1.24766 1.2476644,1.2476644 0 0 1 1.2476668,-1.24766 1.2476644,1.2476644 0 0 1 1.247663,1.24766 z"
         id="path32749" />
      <path
         style="color:#000000;clip-rule:nonzero;display:inline;overflow:visible;visibility:visible;opacity:1;isolation:auto;mix-blend-mode:normal;color-interpolation:sRGB;color-interpolation-filters:linearRGB;solid-color:#000000;solid-opacity:1;fill:#ffffff;fill-opacity:1;fill-rule:nonzero;stroke:none;stroke-width:5.49662161;stroke-linecap:butt;stroke-linejoin:round;stroke-miterlimit:4;stroke-dasharray:none;stroke-dashoffset:0;stroke-opacity:1;color-rendering:auto;image-rendering:auto;shape-rendering:auto;text-rendering:auto;enable-background:accumulate"
         d="m 4.4793675,285.9583 a 1.2476644,1.2476644 0 0 1 -1.247663,1.24766 1.2476644,1.2476644 0 0 1 -1.2476667,-1.24766 1.2476644,1.2476644 0 0 1 1.2476667,-1.24766 1.2476644,1.2476644 0 0 1 1.247663,1.24766 z"
         id="path32751" />
      <path
         style="color:#000000;font-style:normal;font-variant:normal;font-weight:normal;font-stretch:normal;font-size:medium;line-height:normal;font-family:sans-serif;font-variant-ligatures:normal;font-variant-position:normal;font-variant-caps:normal;font-variant-numeric:normal;font-variant-alternates:normal;font-feature-settings:normal;text-indent:0;text-align:start;text-decoration:none;text-decoration-line:none;text-decoration-style:solid;text-decoration-color:#000000;letter-spacing:normal;word-spacing:normal;text-transform:none;writing-mode:lr-tb;direction:ltr;text-orientation:mixed;dominant-baseline:auto;baseline-shift:baseline;text-anchor:start;white-space:normal;shape-padding:0;clip-rule:nonzero;display:inline;overflow:visible;visibility:visible;opacity:1;isolation:auto;mix-blend-mode:normal;color-interpolation:sRGB;color-interpolation-filters:linearRGB;solid-color:#000000;solid-opacity:1;vector-effect:none;fill:#ffffff;fill-opacity:1;fill-rule:evenodd;stroke:none;stroke-width:1.22320926;stroke-linecap:butt;stroke-linejoin:miter;stroke-miterlimit:4;stroke-dasharray:none;stroke-dashoffset:0;stroke-opacity:1;color-rendering:auto;image-rendering:auto;shape-rendering:auto;text-rendering:auto;enable-background:accumulate"
         d="m 4.5605469,286.36523 -0.8359375,0.89258 1.5371094,1.43946 0.8359374,-0.89258 z"
         id="path32753" />
      <path
         style="color:#000000;font-style:normal;font-variant:normal;font-weight:normal;font-stretch:normal;font-size:medium;line-height:normal;font-family:sans-serif;font-variant-ligatures:normal;font-variant-position:normal;font-variant-caps:normal;font-variant-numeric:normal;font-variant-alternates:normal;font-feature-settings:normal;text-indent:0;text-align:start;text-decoration:none;text-decoration-line:none;text-decoration-style:solid;text-decoration-color:#000000;letter-spacing:normal;word-spacing:normal;text-transform:none;writing-mode:lr-tb;direction:ltr;text-orientation:mixed;dominant-baseline:auto;baseline-shift:baseline;text-anchor:start;white-space:normal;shape-padding:0;clip-rule:nonzero;display:inline;overflow:visible;visibility:visible;opacity:1;isolation:auto;mix-blend-mode:normal;color-interpolation:sRGB;color-interpolation-filters:linearRGB;solid-color:#000000;solid-opacity:1;vector-effect:none;fill:#ffffff;fill-opacity:1;fill-rule:evenodd;stroke:none;stroke-width:1.22320926;stroke-linecap:butt;stroke-linejoin:miter;stroke-miterlimit:4;stroke-dasharray:none;stroke-dashoffset:0;stroke-opacity:1;color-rendering:auto;image-rendering:auto;shape-rendering:auto;text-rendering:auto;enable-background:accumulate"
         d="m 11.296875,288.18359 -2.21875,0.45899 0.2480469,1.19922 2.2187501,-0.45899 z"
         id="path32755" />
      <path
         style="color:#000000;font-style:normal;font-variant:normal;font-weight:normal;font-stretch:normal;font-size:medium;line-height:normal;font-family:sans-serif;font-variant-ligatures:normal;font-variant-position:normal;font-variant-caps:normal;font-variant-numeric:normal;font-variant-alternates:normal;font-feature-settings:normal;text-indent:0;text-align:start;text-decoration:none;text-decoration-line:none;text-decoration-style:solid;text-decoration-color:#000000;letter-spacing:normal;word-spacing:normal;text-transform:none;writing-mode:lr-tb;direction:ltr;text-orientation:mixed;dominant-baseline:auto;baseline-shift:baseline;text-anchor:start;white-space:normal;shape-padding:0;clip-rule:nonzero;display:inline;overflow:visible;visibility:visible;opacity:1;isolation:auto;mix-blend-mode:normal;color-interpolation:sRGB;color-interpolation-filters:linearRGB;solid-color:#000000;solid-opacity:1;vector-effect:none;fill:#ffffff;fill-opacity:1;fill-rule:evenodd;stroke:none;stroke-width:1.22320926;stroke-linecap:butt;stroke-linejoin:miter;stroke-miterlimit:4;stroke-dasharray:none;stroke-dashoffset:0;stroke-opacity:1;color-rendering:auto;image-rendering:auto;shape-rendering:auto;text-rendering:auto;enable-background:accumulate"
         d="m 9.0644531,290.70117 -0.8730469,0.85742 1.0703126,1.08985 0.8730472,-0.85742 z"
         id="path32757" />
      <path
         style="color:#000000;font-style:normal;font-variant:normal;font-weight:normal;font-stretch:normal;font-size:medium;line-height:normal;font-family:sans-serif;font-variant-ligatures:normal;font-variant-position:normal;font-variant-caps:normal;font-variant-numeric:normal;font-variant-alternates:normal;font-feature-settings:normal;text-indent:0;text-align:start;text-decoration:none;text-decoration-line:none;text-decoration-style:solid;text-decoration-color:#000000;letter-spacing:normal;word-spacing:normal;text-transform:none;writing-mode:lr-tb;direction:ltr;text-orientation:mixed;dominant-baseline:auto;baseline-shift:baseline;text-anchor:start;white-space:normal;shape-padding:0;clip-rule:nonzero;display:inline;overflow:visible;visibility:visible;opacity:1;isolation:auto;mix-blend-mode:normal;color-interpolation:sRGB;color-interpolation-filters:linearRGB;solid-color:#000000;solid-opacity:1;vector-effect:none;fill:#ffffff;fill-opacity:1;fill-rule:evenodd;stroke:none;stroke-width:1.22320926;stroke-linecap:butt;stroke-linejoin:miter;stroke-miterlimit:4;stroke-dasharray:none;stroke-dashoffset:0;stroke-opacity:1;color-rendering:auto;image-rendering:auto;shape-rendering:auto;text-rendering:auto;enable-background:accumulate"
         d="m 5.1894531,290.46094 -1.046875,0.83008 0.7597657,0.95898 1.046875,-0.83008 z"
         id="path32759" />
      <path
         style="color:#000000;font-style:normal;font-variant:normal;font-weight:normal;font-stretch:normal;font-size:medium;line-height:normal;font-family:sans-serif;font-variant-ligatures:normal;font-variant-position:normal;font-variant-caps:normal;font-variant-numeric:normal;font-variant-alternates:normal;font-feature-settings:normal;text-indent:0;text-align:start;text-decoration:none;text-decoration-line:none;text-decoration-style:solid;text-decoration-color:#000000;letter-spacing:normal;word-spacing:normal;text-transform:none;writing-mode:lr-tb;direction:ltr;text-orientation:mixed;dominant-baseline:auto;baseline-shift:baseline;text-anchor:start;white-space:normal;shape-padding:0;clip-rule:nonzero;display:inline;overflow:visible;visibility:visible;opacity:1;isolation:auto;mix-blend-mode:normal;color-interpolation:sRGB;color-interpolation-filters:linearRGB;solid-color:#000000;solid-opacity:1;vector-effect:none;fill:#ffffff;fill-opacity:1;fill-rule:evenodd;stroke:none;stroke-width:1.22320926;stroke-linecap:butt;stroke-linejoin:miter;stroke-miterlimit:4;stroke-dasharray:none;stroke-dashoffset:0;stroke-opacity:1;color-rendering:auto;image-rendering:auto;shape-rendering:auto;text-rendering:auto;enable-background:accumulate"
         d="m 7.5722656,286.05078 -0.4140625,1.45899 1.1777344,0.33398 L 8.75,286.38477 Z"
         id="path32761" />
    </g>
    <g
       transform="translate(0,-281.12498)"
       id="text32769"
       style="font-style:normal;font-weight:normal;font-size:3.0231514px;line-height:0%;font-family:sans-serif;letter-spacing:0px;word-spacing:0px;fill:#ffffff;fill-opacity:1;stroke:none;stroke-width:0.41411793px;stroke-linecap:butt;stroke-linejoin:miter;stroke-opacity:1"
       aria-label="WebThings">
      <path
         id="path33191"
         style="font-style:normal;font-variant:normal;font-weight:600;font-stretch:normal;font-size:14.07400131px;line-height:1.25;font-family:'Zilla Slab';-inkscape-font-specification:'Zilla Slab Semi-Bold';text-align:start;text-anchor:start;fill:#ffffff;fill-opacity:1;stroke-width:0.41411793px"
         d="m 32.031263,286.0227 h -0.745922 l -2.491098,7.81107 h -1.154068 l -2.237766,-6.44589 h -0.07037 l -2.167397,6.44589 H 21.9965 l -2.645912,-7.81107 h -0.788144 v -1.33703 h 3.476278 v 1.33703 h -1.013328 l 1.576288,5.23553 h 0.07037 l 1.815547,-5.23553 h -0.802218 v -1.33703 h 3.462204 v 1.33703 h -0.745922 l 1.815546,5.3059 h 0.07037 l 1.435548,-5.3059 h -1.12592 v -1.33703 h 3.434056 z" />
      <path
         id="path33193"
         style="font-style:normal;font-variant:normal;font-weight:600;font-stretch:normal;font-size:14.07400131px;line-height:1.25;font-family:'Zilla Slab';-inkscape-font-specification:'Zilla Slab Semi-Bold';text-align:start;text-anchor:start;fill:#ffffff;fill-opacity:1;stroke-width:0.41411793px"
         d="m 37.732773,291.90563 q -0.08444,0.83037 -0.816292,1.44962 -0.731848,0.61926 -2.012582,0.61926 -1.379252,0 -2.265914,-0.80222 -0.886662,-0.81629 -0.886662,-2.39258 0,-1.44962 0.802218,-2.42073 0.816292,-0.9711 2.265914,-0.9711 1.308882,0 2.068878,0.78814 0.77407,0.77407 0.788144,1.97036 0,0.39407 -0.08444,0.84444 h -4.264422 q 0.126666,1.77333 1.68888,1.77333 0.731848,0 1.041476,-0.35185 0.323702,-0.35185 0.42222,-0.74593 z m -1.604436,-1.84369 q 0.0563,-0.56296 -0.267406,-1.05555 -0.309628,-0.50667 -1.05555,-0.50667 -0.675552,0 -1.027402,0.45037 -0.35185,0.45037 -0.436294,1.11185 z" />
      <path
         id="path33195"
         style="font-style:normal;font-variant:normal;font-weight:600;font-stretch:normal;font-size:14.07400131px;line-height:1.25;font-family:'Zilla Slab';-inkscape-font-specification:'Zilla Slab Semi-Bold';text-align:start;text-anchor:start;fill:#ffffff;fill-opacity:1;stroke-width:0.41411793px"
         d="m 45.382214,290.52638 q 0,1.33703 -0.7037,2.39258 -0.7037,1.05555 -2.167396,1.05555 -1.491845,0 -2.097027,-1.12592 -0.02815,0.16889 -0.07037,0.49259 -0.04222,0.3237 -0.07037,0.49259 h -1.491844 q 0.08444,-0.46444 0.154814,-0.94296 0.07037,-0.49259 0.07037,-0.95703 v -6.62885 h -0.942958 v -1.15407 h 2.434802 v 4.61627 q 0.28148,-0.56296 0.788144,-0.97111 0.520738,-0.40814 1.393327,-0.40814 1.19629,0 1.942212,0.83036 0.759996,0.8163 0.759996,2.30814 z M 43.82,290.65305 q 0,-0.99926 -0.450368,-1.52 -0.450368,-0.53481 -1.154068,-0.53481 -0.802219,0 -1.252587,0.59111 -0.450368,0.59111 -0.464442,1.28073 v 0.45037 q 0,0.77407 0.450368,1.32296 0.464442,0.53481 1.210365,0.53481 0.788144,0 1.224438,-0.57703 Q 43.82,291.62415 43.82,290.65305 Z" />
      <path
         id="path33197"
         style="font-style:normal;font-variant:normal;font-weight:600;font-stretch:normal;font-size:14.07400131px;line-height:1.25;font-family:'Zilla Slab';-inkscape-font-specification:'Zilla Slab Semi-Bold';text-align:start;text-anchor:start;fill:#ffffff;fill-opacity:1;stroke-width:0.41411793px"
         d="m 53.840687,287.66936 -1.351104,0.11259 -0.28148,-1.75925 h -1.787399 v 6.47404 h 1.534067 v 1.33703 H 47.38072 v -1.33703 h 1.47777 v -6.47404 h -1.801472 l -0.28148,1.75925 -1.33703,-0.11259 0.28148,-2.98369 h 7.839219 z" />
      <path
         id="path33199"
         style="font-style:normal;font-variant:normal;font-weight:600;font-stretch:normal;font-size:14.07400131px;line-height:1.25;font-family:'Zilla Slab';-inkscape-font-specification:'Zilla Slab Semi-Bold';text-align:start;text-anchor:start;fill:#ffffff;fill-opacity:1;stroke-width:0.41411793px"
         d="m 62.041213,293.83377 h -3.391834 v -1.15407 h 0.942958 v -2.47702 q 0,-0.90074 -0.337776,-1.26666 -0.337776,-0.38 -0.91481,-0.38 -0.689626,0 -1.097772,0.45037 -0.408147,0.45037 -0.436295,1.09777 v 2.57554 h 0.928885 v 1.15407 h -3.377761 v -1.15407 h 0.942958 v -7.37477 h -0.942958 v -1.15407 h 2.448876 v 4.40516 q 0.647405,-1.16814 2.097027,-1.16814 0.91481,0 1.54814,0.54888 0.647404,0.54889 0.647404,1.71703 v 3.02591 h 0.942958 z" />
      <path
         id="path33201"
         style="font-style:normal;font-variant:normal;font-weight:600;font-stretch:normal;font-size:14.07400131px;line-height:1.25;font-family:'Zilla Slab';-inkscape-font-specification:'Zilla Slab Semi-Bold';text-align:start;text-anchor:start;fill:#ffffff;fill-opacity:1;stroke-width:0.41411793px"
         d="m 63.508646,286.20566 v -1.66073 h 1.534066 v 1.66073 z m 2.519246,7.62811 h -3.37776 v -1.15407 h 0.942958 v -3.99701 h -0.999254 v -1.16815 h 2.491098 v 5.16516 h 0.942958 z" />
      <path
         id="path33203"
         style="font-style:normal;font-variant:normal;font-weight:600;font-stretch:normal;font-size:14.07400131px;line-height:1.25;font-family:'Zilla Slab';-inkscape-font-specification:'Zilla Slab Semi-Bold';text-align:start;text-anchor:start;fill:#ffffff;fill-opacity:1;stroke-width:0.41411793px"
         d="m 74.401482,293.83377 h -3.37776 v -1.15407 h 0.928884 v -2.47702 q 0,-0.90074 -0.323702,-1.26666 -0.323702,-0.38 -0.900736,-0.38 -0.717774,0 -1.139994,0.46444 -0.408146,0.46444 -0.42222,1.14 v 2.51924 h 0.942958 v 1.15407 h -3.391835 v -1.15407 h 0.942958 v -3.99701 h -0.98518 v -1.16815 h 2.491099 v 1.02741 q 0.661478,-1.15407 2.097026,-1.15407 0.900736,0 1.54814,0.54888 0.647404,0.54889 0.647404,1.71703 v 3.02591 h 0.942958 z" />
      <path
         id="path33205"
         style="font-style:normal;font-variant:normal;font-weight:600;font-stretch:normal;font-size:14.07400131px;line-height:1.25;font-family:'Zilla Slab';-inkscape-font-specification:'Zilla Slab Semi-Bold';text-align:start;text-anchor:start;fill:#ffffff;fill-opacity:1;stroke-width:0.41411793px"
         d="m 82.239823,288.68269 h -0.91481 v 4.91182 q 0,1.50592 -0.84444,2.4348 -0.830367,0.92889 -2.491099,0.92889 -0.98518,0 -1.843694,-0.42222 -0.858514,-0.42222 -1.210364,-1.44962 l 1.168142,-0.63333 q 0.591108,1.2948 1.914064,1.2948 0.788144,0 1.294808,-0.56296 0.506665,-0.56296 0.506665,-1.60443 v -0.94296 q -0.267407,0.50666 -0.774071,0.87259 -0.49259,0.35185 -1.365178,0.35185 -1.111846,0 -1.928138,-0.77407 -0.802218,-0.78815 -0.802218,-2.27999 0,-1.3511 0.717774,-2.37851 0.731848,-1.04147 2.1111,-1.04147 1.435548,0 2.040731,1.11184 v -0.98518 h 2.420728 z m -2.420728,2.13924 v -0.50666 q 0,-0.78814 -0.450369,-1.25259 -0.450368,-0.46444 -1.12592,-0.46444 -0.788144,0 -1.210364,0.57704 -0.42222,0.56296 -0.42222,1.53406 0,0.99926 0.42222,1.47777 0.42222,0.46444 1.069624,0.46444 0.802218,0 1.252586,-0.56296 0.464443,-0.56296 0.464443,-1.26666 z" />
      <path
         id="path33207"
         style="font-style:normal;font-variant:normal;font-weight:600;font-stretch:normal;font-size:14.07400131px;line-height:1.25;font-family:'Zilla Slab';-inkscape-font-specification:'Zilla Slab Semi-Bold';text-align:start;text-anchor:start;fill:#ffffff;fill-opacity:1;stroke-width:0.41411793px"
         d="m 88.36971,291.94785 q 0,0.98518 -0.816292,1.50592 -0.802218,0.52074 -2.054804,0.52074 -0.675552,0 -1.365179,-0.15481 -0.675552,-0.15482 -1.224438,-0.46445 l 0.225184,-1.63258 1.182216,0.11259 -0.01407,0.81629 q 0.267406,0.1126 0.562961,0.15482 0.309628,0.0422 0.548886,0.0422 0.577034,0 0.999254,-0.19704 0.436294,-0.21111 0.436294,-0.61925 0,-0.39407 -0.394072,-0.56296 -0.379998,-0.16889 -0.957032,-0.25333 -0.577034,-0.0985 -1.154069,-0.25334 -0.577034,-0.16888 -0.971106,-0.53481 -0.379998,-0.38 -0.379998,-1.12592 0,-1.09777 0.830366,-1.50592 0.84444,-0.40814 1.773325,-0.40814 1.224438,0 2.308136,0.57703 l 0.154814,1.56222 -1.182216,0.14074 -0.126666,-0.94296 q -0.548886,-0.21111 -1.111846,-0.21111 -0.436294,0 -0.745922,0.18296 -0.295555,0.16889 -0.295555,0.54889 0,0.39407 0.379999,0.54888 0.379998,0.15482 0.942958,0.25333 0.56296,0.0845 1.12592,0.25334 0.56296,0.15481 0.942958,0.53481 0.379998,0.36592 0.379998,1.11184 z" />
    </g>
  </g>
</svg>
