<?xml version="1.0" encoding="UTF-8" standalone="no"?>
<svg
   xmlns:dc="http://purl.org/dc/elements/1.1/"
   xmlns:cc="http://creativecommons.org/ns#"
   xmlns:rdf="http://www.w3.org/1999/02/22-rdf-syntax-ns#"
   xmlns:svg="http://www.w3.org/2000/svg"
   xmlns="http://www.w3.org/2000/svg"
   id="svg72610"
   version="1.1"
   viewBox="0 0 68.283936 16.933333"
   height="63.999996"
   width="258.08102">
  <defs
     id="defs72604" />
  <metadata
     id="metadata72607">
    <rdf:RDF>
      <cc:Work
         rdf:about="">
        <dc:format>image/svg+xml</dc:format>
        <dc:type
           rdf:resource="http://purl.org/dc/dcmitype/StillImage" />
        <dc:title></dc:title>
      </cc:Work>
    </rdf:RDF>
  </metadata>
  <g
     transform="translate(31.118149,-41.336882)"
     id="layer1">
    <g
       id="g31862"
       transform="matrix(1.6421161,0,0,1.6421161,-2636.8089,-7658.4855)">
      <rect
         ry="1.3229166"
         rx="1.3229166"
         id="rect31836"
         height="10.301408"
         width="10.301408"
         y="4688.9634"
         x="1586.7883"
         style="stroke-width:0.08730105" />
      <g
         id="g31860"
         transform="matrix(0.24143917,0,0,0.24143917,1386.7678,2619.3112)"
         style="stroke-width:2.30130386">
        <path
           id="path31838"
           d="m 853.29942,8595.0859 a 5.5395312,5.5395312 0 0 1 -5.53953,5.5396 5.5395312,5.5395312 0 0 1 -5.53953,-5.5396 5.5395312,5.5395312 0 0 1 5.53953,-5.5395 5.5395312,5.5395312 0 0 1 5.53953,5.5395 z"
           style="color:#000000;clip-rule:nonzero;display:inline;overflow:visible;visibility:visible;opacity:1;isolation:auto;mix-blend-mode:normal;color-interpolation:sRGB;color-interpolation-filters:linearRGB;solid-color:#000000;solid-opacity:1;fill:#ffffff;fill-opacity:1;fill-rule:nonzero;stroke:none;stroke-width:14.77307701;stroke-linecap:butt;stroke-linejoin:round;stroke-miterlimit:4;stroke-dasharray:none;stroke-dashoffset:0;stroke-opacity:1;color-rendering:auto;image-rendering:auto;shape-rendering:auto;text-rendering:auto;enable-background:accumulate" />
        <path
           id="path31840"
           d="m 854.65427,8582.6074 a 3.3533037,3.3533037 0 0 1 -3.35331,3.3533 3.3533037,3.3533037 0 0 1 -3.3533,-3.3533 3.3533037,3.3533037 0 0 1 3.3533,-3.3533 3.3533037,3.3533037 0 0 1 3.35331,3.3533 z"
           style="color:#000000;clip-rule:nonzero;display:inline;overflow:visible;visibility:visible;opacity:1;isolation:auto;mix-blend-mode:normal;color-interpolation:sRGB;color-interpolation-filters:linearRGB;solid-color:#000000;solid-opacity:1;fill:#ffffff;fill-opacity:1;fill-rule:nonzero;stroke:none;stroke-width:14.77307701;stroke-linecap:butt;stroke-linejoin:round;stroke-miterlimit:4;stroke-dasharray:none;stroke-dashoffset:0;stroke-opacity:1;color-rendering:auto;image-rendering:auto;shape-rendering:auto;text-rendering:auto;enable-background:accumulate" />
        <path
           id="path31842"
           d="m 865.78336,8592.0508 a 3.3533037,3.3533037 0 0 1 -3.35331,3.3533 3.3533037,3.3533037 0 0 1 -3.3533,-3.3533 3.3533037,3.3533037 0 0 1 3.3533,-3.3533 3.3533037,3.3533037 0 0 1 3.35331,3.3533 z"
           style="color:#000000;clip-rule:nonzero;display:inline;overflow:visible;visibility:visible;opacity:1;isolation:auto;mix-blend-mode:normal;color-interpolation:sRGB;color-interpolation-filters:linearRGB;solid-color:#000000;solid-opacity:1;fill:#ffffff;fill-opacity:1;fill-rule:nonzero;stroke:none;stroke-width:14.77307701;stroke-linecap:butt;stroke-linejoin:round;stroke-miterlimit:4;stroke-dasharray:none;stroke-dashoffset:0;stroke-opacity:1;color-rendering:auto;image-rendering:auto;shape-rendering:auto;text-rendering:auto;enable-background:accumulate" />
        <path
           id="path31844"
           d="m 860.21884,8604.3604 a 3.3533037,3.3533037 0 0 1 -3.3533,3.3533 3.3533037,3.3533037 0 0 1 -3.3533,-3.3533 3.3533037,3.3533037 0 0 1 3.3533,-3.3534 3.3533037,3.3533037 0 0 1 3.3533,3.3534 z"
           style="color:#000000;clip-rule:nonzero;display:inline;overflow:visible;visibility:visible;opacity:1;isolation:auto;mix-blend-mode:normal;color-interpolation:sRGB;color-interpolation-filters:linearRGB;solid-color:#000000;solid-opacity:1;fill:#ffffff;fill-opacity:1;fill-rule:nonzero;stroke:none;stroke-width:14.77307701;stroke-linecap:butt;stroke-linejoin:round;stroke-miterlimit:4;stroke-dasharray:none;stroke-dashoffset:0;stroke-opacity:1;color-rendering:auto;image-rendering:auto;shape-rendering:auto;text-rendering:auto;enable-background:accumulate" />
        <path
           id="path31846"
           d="m 841.33304,8602.8428 a 3.3533037,3.3533037 0 0 1 -3.3533,3.3533 3.3533037,3.3533037 0 0 1 -3.35331,-3.3533 3.3533037,3.3533037 0 0 1 3.35331,-3.3533 3.3533037,3.3533037 0 0 1 3.3533,3.3533 z"
           style="color:#000000;clip-rule:nonzero;display:inline;overflow:visible;visibility:visible;opacity:1;isolation:auto;mix-blend-mode:normal;color-interpolation:sRGB;color-interpolation-filters:linearRGB;solid-color:#000000;solid-opacity:1;fill:#ffffff;fill-opacity:1;fill-rule:nonzero;stroke:none;stroke-width:14.77307701;stroke-linecap:butt;stroke-linejoin:round;stroke-miterlimit:4;stroke-dasharray:none;stroke-dashoffset:0;stroke-opacity:1;color-rendering:auto;image-rendering:auto;shape-rendering:auto;text-rendering:auto;enable-background:accumulate" />
        <path
           id="path31848"
           d="m 840.48996,8585.1377 a 3.3533037,3.3533037 0 0 1 -3.3533,3.3533 3.3533037,3.3533037 0 0 1 -3.35331,-3.3533 3.3533037,3.3533037 0 0 1 3.35331,-3.3533 3.3533037,3.3533037 0 0 1 3.3533,3.3533 z"
           style="color:#000000;clip-rule:nonzero;display:inline;overflow:visible;visibility:visible;opacity:1;isolation:auto;mix-blend-mode:normal;color-interpolation:sRGB;color-interpolation-filters:linearRGB;solid-color:#000000;solid-opacity:1;fill:#ffffff;fill-opacity:1;fill-rule:nonzero;stroke:none;stroke-width:14.77307701;stroke-linecap:butt;stroke-linejoin:round;stroke-miterlimit:4;stroke-dasharray:none;stroke-dashoffset:0;stroke-opacity:1;color-rendering:auto;image-rendering:auto;shape-rendering:auto;text-rendering:auto;enable-background:accumulate" />
        <path
           id="path31850"
           d="m 840.70703,8586.2305 -2.24609,2.3984 4.13281,3.8711 2.24609,-2.4004 z"
           style="color:#000000;font-style:normal;font-variant:normal;font-weight:normal;font-stretch:normal;font-size:medium;line-height:normal;font-family:sans-serif;font-variant-ligatures:normal;font-variant-position:normal;font-variant-caps:normal;font-variant-numeric:normal;font-variant-alternates:normal;font-feature-settings:normal;text-indent:0;text-align:start;text-decoration:none;text-decoration-line:none;text-decoration-style:solid;text-decoration-color:#000000;letter-spacing:normal;word-spacing:normal;text-transform:none;writing-mode:lr-tb;direction:ltr;text-orientation:mixed;dominant-baseline:auto;baseline-shift:baseline;text-anchor:start;white-space:normal;shape-padding:0;clip-rule:nonzero;display:inline;overflow:visible;visibility:visible;opacity:1;isolation:auto;mix-blend-mode:normal;color-interpolation:sRGB;color-interpolation-filters:linearRGB;solid-color:#000000;solid-opacity:1;vector-effect:none;fill:#ffffff;fill-opacity:1;fill-rule:evenodd;stroke:none;stroke-width:3.28757644;stroke-linecap:butt;stroke-linejoin:miter;stroke-miterlimit:4;stroke-dasharray:none;stroke-dashoffset:0;stroke-opacity:1;color-rendering:auto;image-rendering:auto;shape-rendering:auto;text-rendering:auto;enable-background:accumulate" />
        <path
           id="path31852"
           d="m 858.8125,8591.1211 -5.96094,1.2324 0.66602,3.2207 5.96094,-1.2344 z"
           style="color:#000000;font-style:normal;font-variant:normal;font-weight:normal;font-stretch:normal;font-size:medium;line-height:normal;font-family:sans-serif;font-variant-ligatures:normal;font-variant-position:normal;font-variant-caps:normal;font-variant-numeric:normal;font-variant-alternates:normal;font-feature-settings:normal;text-indent:0;text-align:start;text-decoration:none;text-decoration-line:none;text-decoration-style:solid;text-decoration-color:#000000;letter-spacing:normal;word-spacing:normal;text-transform:none;writing-mode:lr-tb;direction:ltr;text-orientation:mixed;dominant-baseline:auto;baseline-shift:baseline;text-anchor:start;white-space:normal;shape-padding:0;clip-rule:nonzero;display:inline;overflow:visible;visibility:visible;opacity:1;isolation:auto;mix-blend-mode:normal;color-interpolation:sRGB;color-interpolation-filters:linearRGB;solid-color:#000000;solid-opacity:1;vector-effect:none;fill:#ffffff;fill-opacity:1;fill-rule:evenodd;stroke:none;stroke-width:3.28757644;stroke-linecap:butt;stroke-linejoin:miter;stroke-miterlimit:4;stroke-dasharray:none;stroke-dashoffset:0;stroke-opacity:1;color-rendering:auto;image-rendering:auto;shape-rendering:auto;text-rendering:auto;enable-background:accumulate" />
        <path
           id="path31854"
           d="m 852.81445,8597.8867 -2.3457,2.3028 2.875,2.9296 2.3457,-2.3027 z"
           style="color:#000000;font-style:normal;font-variant:normal;font-weight:normal;font-stretch:normal;font-size:medium;line-height:normal;font-family:sans-serif;font-variant-ligatures:normal;font-variant-position:normal;font-variant-caps:normal;font-variant-numeric:normal;font-variant-alternates:normal;font-feature-settings:normal;text-indent:0;text-align:start;text-decoration:none;text-decoration-line:none;text-decoration-style:solid;text-decoration-color:#000000;letter-spacing:normal;word-spacing:normal;text-transform:none;writing-mode:lr-tb;direction:ltr;text-orientation:mixed;dominant-baseline:auto;baseline-shift:baseline;text-anchor:start;white-space:normal;shape-padding:0;clip-rule:nonzero;display:inline;overflow:visible;visibility:visible;opacity:1;isolation:auto;mix-blend-mode:normal;color-interpolation:sRGB;color-interpolation-filters:linearRGB;solid-color:#000000;solid-opacity:1;vector-effect:none;fill:#ffffff;fill-opacity:1;fill-rule:evenodd;stroke:none;stroke-width:3.28757644;stroke-linecap:butt;stroke-linejoin:miter;stroke-miterlimit:4;stroke-dasharray:none;stroke-dashoffset:0;stroke-opacity:1;color-rendering:auto;image-rendering:auto;shape-rendering:auto;text-rendering:auto;enable-background:accumulate" />
        <path
           id="path31856"
           d="m 842.39844,8597.2402 -2.8125,2.2305 2.04297,2.5762 2.8125,-2.2305 z"
           style="color:#000000;font-style:normal;font-variant:normal;font-weight:normal;font-stretch:normal;font-size:medium;line-height:normal;font-family:sans-serif;font-variant-ligatures:normal;font-variant-position:normal;font-variant-caps:normal;font-variant-numeric:normal;font-variant-alternates:normal;font-feature-settings:normal;text-indent:0;text-align:start;text-decoration:none;text-decoration-line:none;text-decoration-style:solid;text-decoration-color:#000000;letter-spacing:normal;word-spacing:normal;text-transform:none;writing-mode:lr-tb;direction:ltr;text-orientation:mixed;dominant-baseline:auto;baseline-shift:baseline;text-anchor:start;white-space:normal;shape-padding:0;clip-rule:nonzero;display:inline;overflow:visible;visibility:visible;opacity:1;isolation:auto;mix-blend-mode:normal;color-interpolation:sRGB;color-interpolation-filters:linearRGB;solid-color:#000000;solid-opacity:1;vector-effect:none;fill:#ffffff;fill-opacity:1;fill-rule:evenodd;stroke:none;stroke-width:3.28757644;stroke-linecap:butt;stroke-linejoin:miter;stroke-miterlimit:4;stroke-dasharray:none;stroke-dashoffset:0;stroke-opacity:1;color-rendering:auto;image-rendering:auto;shape-rendering:auto;text-rendering:auto;enable-background:accumulate" />
        <path
           id="path31858"
           d="m 848.80469,8585.3848 -1.11328,3.9238 3.16211,0.8965 1.11328,-3.9239 z"
           style="color:#000000;font-style:normal;font-variant:normal;font-weight:normal;font-stretch:normal;font-size:medium;line-height:normal;font-family:sans-serif;font-variant-ligatures:normal;font-variant-position:normal;font-variant-caps:normal;font-variant-numeric:normal;font-variant-alternates:normal;font-feature-settings:normal;text-indent:0;text-align:start;text-decoration:none;text-decoration-line:none;text-decoration-style:solid;text-decoration-color:#000000;letter-spacing:normal;word-spacing:normal;text-transform:none;writing-mode:lr-tb;direction:ltr;text-orientation:mixed;dominant-baseline:auto;baseline-shift:baseline;text-anchor:start;white-space:normal;shape-padding:0;clip-rule:nonzero;display:inline;overflow:visible;visibility:visible;opacity:1;isolation:auto;mix-blend-mode:normal;color-interpolation:sRGB;color-interpolation-filters:linearRGB;solid-color:#000000;solid-opacity:1;vector-effect:none;fill:#ffffff;fill-opacity:1;fill-rule:evenodd;stroke:none;stroke-width:3.28757644;stroke-linecap:butt;stroke-linejoin:miter;stroke-miterlimit:4;stroke-dasharray:none;stroke-dashoffset:0;stroke-opacity:1;color-rendering:auto;image-rendering:auto;shape-rendering:auto;text-rendering:auto;enable-background:accumulate" />
      </g>
    </g>
    <g
       id="text31868"
       style="font-style:normal;font-weight:normal;font-size:2.34945345px;line-height:0%;font-family:sans-serif;letter-spacing:0px;word-spacing:0px;fill:#ffffff;fill-opacity:1;stroke:none;stroke-width:0.19578804px;stroke-linecap:butt;stroke-linejoin:miter;stroke-opacity:1"
       aria-label="Gateway">
      <path
         id="path73218"
         style="font-weight:normal;font-size:7.3420682px;fill:#ffffff;stroke-width:0.19578804px"
         d="m -6.0949976,54.723994 h -0.3744455 v 1.982358 h -0.4111558 l -0.066079,-0.660786 q -0.21292,0.315709 -0.6093917,0.528629 -0.3891296,0.205578 -0.9177585,0.205578 -0.9838372,0 -1.5932293,-0.704839 -0.609391,-0.704838 -0.609391,-1.732728 0,-0.690154 0.293683,-1.248151 0.301024,-0.56534 0.8223112,-0.895733 0.5286289,-0.337735 1.2114412,-0.337735 0.5726813,0 0.9985213,0.161526 0.433182,0.154183 0.7048385,0.396471 l 0.1321573,0.895733 -0.4552083,0.05139 -0.1468413,-0.67547 q -0.1982359,-0.132157 -0.4845765,-0.234946 -0.2789986,-0.110131 -0.7195227,-0.110131 -0.8002854,0 -1.292204,0.550655 -0.4919187,0.550655 -0.4919187,1.424361 0,0.88839 0.4698925,1.431703 0.4698924,0.543313 1.2554937,0.543313 0.653444,0 1.0132054,-0.352419 0.3597613,-0.359761 0.3597613,-0.792943 v -0.42584 h -1.1380206 v -0.477235 h 2.0484371 z" />
      <path
         id="path73220"
         style="font-weight:normal;font-size:7.3420682px;fill:#ffffff;stroke-width:0.19578804px"
         d="m -5.2990718,53.688762 q 0.2569724,-0.168867 0.5433131,-0.242288 0.2863407,-0.07342 0.6093917,-0.07342 1.1673888,0 1.1673888,1.093968 v 1.556519 q 0,0.352419 0.2789986,0.352419 0.1248151,0 0.220262,-0.04405 l 0.00734,0.337735 q -0.1982358,0.110131 -0.42584,0.110131 -0.5800233,0 -0.5947075,-0.660786 v -0.01468 q -0.1541834,0.264314 -0.4405241,0.469892 -0.2789986,0.205578 -0.6754702,0.205578 -0.323051,0 -0.6607862,-0.198236 -0.330393,-0.198236 -0.330393,-0.719523 0,-0.616733 0.4845765,-0.807627 0.4919185,-0.198236 1.0425736,-0.198236 0.1468414,0 0.2936828,0.0073 0.1541834,0.0073 0.2863406,0.02203 v -0.293682 q 0,-0.35242 -0.1541834,-0.572682 -0.1468414,-0.220262 -0.5873655,-0.220262 -0.3597613,0 -0.6314178,0.132157 l -0.1248152,0.56534 -0.4258399,-0.05139 z m 1.8061488,1.791465 v -0.24963 q -0.1394993,-0.0073 -0.2936827,-0.02203 -0.1541834,-0.01468 -0.3157089,-0.01468 -0.3671034,0 -0.6681282,0.117473 -0.2936828,0.110131 -0.2936828,0.491919 0,0.315709 0.1982359,0.433182 0.1982358,0.117473 0.4111558,0.117473 0.3377351,0 0.6314179,-0.234946 0.3010247,-0.234946 0.330393,-0.63876 z" />
      <path
         id="path73222"
         style="font-weight:normal;font-size:7.3420682px;fill:#ffffff;stroke-width:0.19578804px"
         d="m 0.33539223,55.825304 q -0.13215723,0.954469 -1.03523162,0.954469 -0.49191861,0 -0.75623301,-0.278999 -0.2569724,-0.278998 -0.2569724,-0.756233 v -1.894253 h -0.5286289 v -0.411156 h 0.5286289 V 52.389216 H -1.1991 v 1.049916 h 1.27751984 v 0.411156 H -1.1991 v 1.828175 q 0,0.293682 0.1248151,0.477234 0.13215726,0.17621 0.42583999,0.17621 0.19089377,0 0.35241927,-0.117473 0.16886757,-0.117473 0.24228825,-0.513945 z" />
      <path
         id="path73224"
         style="font-weight:normal;font-size:7.3420682px;fill:#ffffff;stroke-width:0.19578804px"
         d="m 3.56659,55.766568 q -0.066079,0.418497 -0.4184979,0.719522 -0.3524193,0.293683 -0.9544689,0.293683 -0.6901544,0 -1.1159943,-0.433182 -0.42583997,-0.433182 -0.42583997,-1.226125 0,-0.763576 0.40381377,-1.255494 0.4038137,-0.491919 1.0939681,-0.491919 0.6754703,0 1.0278896,0.42584 0.3524193,0.42584 0.3597613,1.005864 0,0.190893 -0.044052,0.389129 H 1.195102 q 0.044052,1.145363 1.0352316,1.145363 0.3891296,0 0.6093917,-0.183552 0.220262,-0.183552 0.2936827,-0.484576 z M 2.9939087,54.812099 Q 3.030619,54.444995 2.817699,54.121944 2.6121211,53.798893 2.1348867,53.798893 q -0.4552082,0 -0.6681282,0.301025 -0.21292,0.301025 -0.2643145,0.712181 z" />
      <path
         id="path73226"
         style="font-weight:normal;font-size:7.3420682px;fill:#ffffff;stroke-width:0.19578804px"
         d="M 9.3076283,53.85763 H 8.9331828 L 7.9713719,56.706352 H 7.5749002 L 6.576379,54.210049 h -0.03671 L 5.5631735,56.706352 H 5.181386 L 4.1828647,53.85763 H 3.8231034 V 53.439132 H 5.3649377 V 53.85763 H 4.7408619 l 0.6828123,2.063121 h 0.03671 l 0.969153,-2.481619 h 0.3450772 l 1.0205475,2.481619 h 0.03671 L 8.4339222,53.85763 H 7.8392147 v -0.418498 h 1.4684136 z" />
      <path
         id="path73228"
         style="font-weight:normal;font-size:7.3420682px;fill:#ffffff;stroke-width:0.19578804px"
         d="m 9.9730034,53.688762 q 0.2569726,-0.168867 0.5433126,-0.242288 0.286341,-0.07342 0.609392,-0.07342 1.167389,0 1.167389,1.093968 v 1.556519 q 0,0.352419 0.278999,0.352419 0.124815,0 0.220262,-0.04405 l 0.0073,0.337735 q -0.198236,0.110131 -0.42584,0.110131 -0.580024,0 -0.594708,-0.660786 v -0.01468 q -0.154183,0.264314 -0.440524,0.469892 -0.278998,0.205578 -0.67547,0.205578 -0.323051,0 -0.660786,-0.198236 -0.3303934,-0.198236 -0.3303934,-0.719523 0,-0.616733 0.4845764,-0.807627 0.491919,-0.198236 1.042574,-0.198236 0.146841,0 0.293683,0.0073 0.154183,0.0073 0.28634,0.02203 v -0.293682 q 0,-0.35242 -0.154183,-0.572682 -0.146842,-0.220262 -0.587366,-0.220262 -0.359761,0 -0.631418,0.132157 l -0.124815,0.56534 -0.4258397,-0.05139 z m 1.8061486,1.791465 v -0.24963 q -0.139499,-0.0073 -0.293683,-0.02203 -0.154183,-0.01468 -0.315708,-0.01468 -0.367104,0 -0.668129,0.117473 -0.293682,0.110131 -0.293682,0.491919 0,0.315709 0.198235,0.433182 0.198236,0.117473 0.411156,0.117473 0.337735,0 0.631418,-0.234946 0.301025,-0.234946 0.330393,-0.63876 z" />
      <path
         id="path73230"
         style="font-weight:normal;font-size:7.3420682px;fill:#ffffff;stroke-width:0.19578804px"
         d="m 16.44825,53.85763 h -0.38913 l -1.152705,2.848722 -0.440524,1.145363 h 0.557997 v 0.418498 h -1.659307 v -0.418498 h 0.609392 l 0.425839,-1.152705 -1.189415,-2.84138 h -0.389129 v -0.418498 h 1.512466 v 0.418498 h -0.572681 l 0.917758,2.195278 h 0.04405 l 0.81497,-2.195278 h -0.528629 v -0.418498 h 1.439046 z" />
    </g>
    <g
       id="text31872"
       style="font-style:normal;font-weight:normal;font-size:2.10525322px;line-height:0%;font-family:sans-serif;letter-spacing:0px;word-spacing:0px;fill:#ffffff;fill-opacity:1;stroke:none;stroke-width:0.28838217px;stroke-linecap:butt;stroke-linejoin:miter;stroke-opacity:1"
       aria-label="WebThings">
      <path
         id="path73233"
         style="font-style:normal;font-variant:normal;font-weight:600;font-stretch:normal;font-size:9.80081081px;line-height:1.25;font-family:'Zilla Slab';-inkscape-font-specification:'Zilla Slab Semi-Bold';text-align:start;text-anchor:start;fill:#ffffff;fill-opacity:1;stroke-width:0.28838217px"
         d="m -2.0670115,44.113895 h -0.519443 l -1.7347435,5.43945 h -0.8036665 l -1.5583289,-4.488772 h -0.049004 l -1.5093249,4.488772 h -0.8134673 l -1.8425523,-5.43945 h -0.548845 v -0.931077 h 2.4207998 v 0.931077 h -0.7056584 l 1.0976908,3.645901 h 0.049004 l 1.2643046,-3.645901 h -0.5586463 v -0.931077 h 2.4109995 v 0.931077 h -0.519443 l 1.2643046,3.694905 h 0.049004 l 0.9996827,-3.694905 h -0.7840649 v -0.931077 h 2.3913979 z" />
      <path
         id="path73235"
         style="font-style:normal;font-variant:normal;font-weight:600;font-stretch:normal;font-size:9.80081081px;line-height:1.25;font-family:'Zilla Slab';-inkscape-font-specification:'Zilla Slab Semi-Bold';text-align:start;text-anchor:start;fill:#ffffff;fill-opacity:1;stroke-width:0.28838217px"
         d="m 1.9033885,48.210634 q -0.058805,0.578247 -0.568447,1.009483 -0.50964215,0.431236 -1.40151594,0.431236 -0.96047946,0 -1.57793056,-0.558646 -0.6174511,-0.568447 -0.6174511,-1.666138 0,-1.009484 0.5586463,-1.68574 0.568447,-0.676256 1.5779305,-0.676256 0.91147541,0 1.4407192,0.548846 0.5390446,0.539044 0.5488454,1.372113 0,0.274423 -0.058805,0.588049 h -2.9696456 q 0.088207,1.234902 1.17609725,1.234902 0.50964216,0 0.72526,-0.24502 Q 0.9625107,48.318443 1.0311164,48.04402 Z M 0.78609611,46.926727 q 0.0392032,-0.392032 -0.18621541,-0.73506 -0.21561784,-0.35283 -0.73506081,-0.35283 -0.47043892,0 -0.71545919,0.313626 -0.2450203,0.313626 -0.3038251,0.774264 z" />
      <path
         id="path73237"
         style="font-style:normal;font-variant:normal;font-weight:600;font-stretch:normal;font-size:9.80081081px;line-height:1.25;font-family:'Zilla Slab';-inkscape-font-specification:'Zilla Slab Semi-Bold';text-align:start;text-anchor:start;fill:#ffffff;fill-opacity:1;stroke-width:0.28838217px"
         d="m 7.2302825,47.250154 q 0,0.931077 -0.4900405,1.666138 -0.4900406,0.735061 -1.5093249,0.735061 -1.0388859,0 -1.4603208,-0.784065 -0.019602,0.11761 -0.049004,0.343028 -0.029402,0.225419 -0.049004,0.343029 h -1.038886 q 0.058805,-0.323427 0.107809,-0.656655 0.049004,-0.343028 0.049004,-0.666455 V 43.614053 H 2.1338609 v -0.803666 h 1.6955403 v 3.214666 q 0.1960162,-0.392033 0.5488454,-0.676256 0.36263,-0.284224 0.9702802,-0.284224 0.833069,0 1.3525119,0.578248 0.5292438,0.568447 0.5292438,1.607333 z m -1.08789,0.08821 q 0,-0.695857 -0.3136259,-1.058487 -0.313626,-0.372431 -0.8036665,-0.372431 -0.5586462,0 -0.8722722,0.411634 -0.3136259,0.411634 -0.3234267,0.891874 v 0.313626 q 0,0.539044 0.3136259,0.921276 0.3234268,0.372431 0.8428697,0.372431 0.5488454,0 0.8526706,-0.401833 0.3038251,-0.401834 0.3038251,-1.07809 z" />
      <path
         id="path73239"
         style="font-style:normal;font-variant:normal;font-weight:600;font-stretch:normal;font-size:9.80081081px;line-height:1.25;font-family:'Zilla Slab';-inkscape-font-specification:'Zilla Slab Semi-Bold';text-align:start;text-anchor:start;fill:#ffffff;fill-opacity:1;stroke-width:0.28838217px"
         d="m 13.120569,45.26059 -0.940878,0.07841 -0.196016,-1.225101 h -1.244703 v 4.508373 h 1.068289 v 0.931077 H 8.6219972 V 48.622268 H 9.6510823 V 44.113895 H 8.3965785 l -0.1960162,1.225101 -0.931077,-0.07841 0.1960162,-2.077772 h 5.4590515 z" />
      <path
         id="path73241"
         style="font-style:normal;font-variant:normal;font-weight:600;font-stretch:normal;font-size:9.80081081px;line-height:1.25;font-family:'Zilla Slab';-inkscape-font-specification:'Zilla Slab Semi-Bold';text-align:start;text-anchor:start;fill:#ffffff;fill-opacity:1;stroke-width:0.28838217px"
         d="m 18.831226,49.553345 h -2.361995 v -0.803667 h 0.656654 v -1.724942 q 0,-0.627252 -0.235219,-0.882073 -0.23522,-0.264622 -0.637053,-0.264622 -0.48024,0 -0.764463,0.313626 -0.284224,0.313626 -0.303825,0.764463 v 1.793548 h 0.646853 v 0.803667 h -2.352194 v -0.803667 h 0.656654 v -5.135625 h -0.656654 v -0.803666 h 1.705341 v 3.067654 q 0.450837,-0.813468 1.460321,-0.813468 0.637052,0 1.078089,0.382232 0.450837,0.382232 0.450837,1.195699 v 2.107174 h 0.656654 z" />
      <path
         id="path73243"
         style="font-style:normal;font-variant:normal;font-weight:600;font-stretch:normal;font-size:9.80081081px;line-height:1.25;font-family:'Zilla Slab';-inkscape-font-specification:'Zilla Slab Semi-Bold';text-align:start;text-anchor:start;fill:#ffffff;fill-opacity:1;stroke-width:0.28838217px"
         d="M 19.853114,44.241305 V 43.08481 h 1.068289 v 1.156495 z m 1.754345,5.31204 h -2.352194 v -0.803667 h 0.656654 v -2.78343 h -0.695857 v -0.813467 h 1.734743 v 3.596897 h 0.656654 z" />
      <path
         id="path73245"
         style="font-style:normal;font-variant:normal;font-weight:600;font-stretch:normal;font-size:9.80081081px;line-height:1.25;font-family:'Zilla Slab';-inkscape-font-specification:'Zilla Slab Semi-Bold';text-align:start;text-anchor:start;fill:#ffffff;fill-opacity:1;stroke-width:0.28838217px"
         d="M 27.438635,49.553345 H 25.08644 v -0.803667 h 0.646853 v -1.724942 q 0,-0.627252 -0.225418,-0.882073 -0.225419,-0.264622 -0.627252,-0.264622 -0.499841,0 -0.793866,0.323426 -0.284223,0.323427 -0.294024,0.793866 v 1.754345 h 0.656654 v 0.803667 h -2.361995 v -0.803667 h 0.656654 v -2.78343 h -0.686057 v -0.813467 h 1.734744 v 0.715459 q 0.460638,-0.803667 1.460321,-0.803667 0.627252,0 1.078089,0.382232 0.450837,0.382232 0.450837,1.195699 v 2.107174 h 0.656655 z" />
      <path
         id="path73247"
         style="font-style:normal;font-variant:normal;font-weight:600;font-stretch:normal;font-size:9.80081081px;line-height:1.25;font-family:'Zilla Slab';-inkscape-font-specification:'Zilla Slab Semi-Bold';text-align:start;text-anchor:start;fill:#ffffff;fill-opacity:1;stroke-width:0.28838217px"
         d="m 32.897075,45.966248 h -0.637052 v 3.420483 q 0,1.048687 -0.588049,1.69554 -0.578248,0.646854 -1.734744,0.646854 -0.686056,0 -1.283906,-0.294025 -0.597849,-0.294024 -0.842869,-1.009483 l 0.813467,-0.441037 q 0.411634,0.901675 1.33291,0.901675 0.548845,0 0.901675,-0.392032 0.352829,-0.392033 0.352829,-1.117293 v -0.656654 q -0.186216,0.352829 -0.539045,0.60765 -0.343028,0.24502 -0.950678,0.24502 -0.774264,0 -1.342711,-0.539044 -0.558647,-0.548846 -0.558647,-1.587732 0,-0.940877 0.499842,-1.656337 0.509642,-0.72526 1.470121,-0.72526 0.999683,0 1.421118,0.774264 v -0.686056 h 1.685739 z m -1.685739,1.489723 v -0.352829 q 0,-0.548845 -0.313626,-0.872272 -0.313626,-0.323427 -0.784065,-0.323427 -0.548845,0 -0.84287,0.401833 -0.294024,0.392033 -0.294024,1.068289 0,0.695857 0.294024,1.029085 0.294025,0.323427 0.744862,0.323427 0.558646,0 0.872272,-0.392033 0.323427,-0.392032 0.323427,-0.882073 z" />
      <path
         id="path73249"
         style="font-style:normal;font-variant:normal;font-weight:600;font-stretch:normal;font-size:9.80081081px;line-height:1.25;font-family:'Zilla Slab';-inkscape-font-specification:'Zilla Slab Semi-Bold';text-align:start;text-anchor:start;fill:#ffffff;fill-opacity:1;stroke-width:0.28838217px"
         d="m 37.165787,48.240036 q 0,0.686057 -0.568447,1.048687 -0.558647,0.36263 -1.430919,0.36263 -0.470439,0 -0.950679,-0.107809 -0.470438,-0.107809 -0.85267,-0.323427 l 0.156813,-1.136894 0.823268,0.07841 -0.0098,0.568447 q 0.186216,0.07841 0.392033,0.107809 0.215617,0.0294 0.382231,0.0294 0.401834,0 0.695858,-0.137211 0.303825,-0.147013 0.303825,-0.431236 0,-0.274423 -0.274423,-0.392032 -0.264622,-0.11761 -0.666455,-0.176415 -0.401833,-0.06861 -0.803666,-0.176415 -0.401834,-0.117609 -0.676256,-0.37243 -0.264622,-0.264622 -0.264622,-0.784065 0,-0.764464 0.578248,-1.048687 0.588048,-0.284224 1.234902,-0.284224 0.85267,0 1.607333,0.401834 l 0.107809,1.08789 -0.823268,0.09801 -0.08821,-0.656655 q -0.382231,-0.147012 -0.774264,-0.147012 -0.303825,0 -0.519443,0.127411 -0.205817,0.11761 -0.205817,0.382231 0,0.274423 0.264622,0.382232 0.264622,0.107809 0.656654,0.176415 0.392033,0.0588 0.784065,0.176414 0.392033,0.107809 0.656655,0.372431 0.264622,0.254821 0.264622,0.774264 z" />
    </g>
  </g>
</svg>
