<?xml version="1.0" encoding="UTF-8" standalone="no"?>
<svg
   xmlns:dc="http://purl.org/dc/elements/1.1/"
   xmlns:cc="http://creativecommons.org/ns#"
   xmlns:rdf="http://www.w3.org/1999/02/22-rdf-syntax-ns#"
   xmlns:svg="http://www.w3.org/2000/svg"
   xmlns="http://www.w3.org/2000/svg"
   width="226.17599"
   height="42"
   viewBox="0 0 59.842399 11.1125"
   id="svg16309"
   version="1.1">
  <defs
     id="defs16311" />
  <metadata
     id="metadata16314">
    <rdf:RDF>
      <cc:Work
         rdf:about="">
        <dc:format>image/svg+xml</dc:format>
        <dc:type
           rdf:resource="http://purl.org/dc/dcmitype/StillImage" />
        <dc:title></dc:title>
      </cc:Work>
    </rdf:RDF>
  </metadata>
  <g
     id="layer1"
     transform="translate(0,-285.88746)">
    <g
       style="font-style:normal;font-weight:normal;font-size:5.98775864px;line-height:125%;font-family:Sans;letter-spacing:0px;word-spacing:0px;fill:#ffffff;fill-opacity:1;stroke:none;stroke-width:0.26458332px;stroke-linecap:butt;stroke-linejoin:miter;stroke-opacity:1"
       aria-label="Things Gateway"
       id="text29413">
      <g
         transform="matrix(0.2645771,0,0,0.26457703,32.452797,-4548.7508)"
         id="text51923"
         style="font-style:normal;font-weight:normal;font-size:5.42772627px;line-height:0%;font-family:sans-serif;letter-spacing:0px;word-spacing:0px;fill:#f9f9f9;fill-opacity:1;stroke:none;stroke-width:0.45231056px;stroke-linecap:butt;stroke-linejoin:miter;stroke-opacity:1"
         aria-label="WebThings Gateway">
        <path
           id="path51937"
           style="font-style:normal;font-variant:normal;font-weight:600;font-stretch:normal;font-size:25.26834869px;line-height:1.25;font-family:'Zilla Slab';-inkscape-font-specification:'Zilla Slab Semi-Bold';text-align:start;text-anchor:start;fill:#f9f9f9;fill-opacity:1;stroke-width:0.45231056px"
           d="m -98.477317,18276.445 h -1.339222 l -4.472501,14.024 h -2.072 l -4.01767,-11.573 h -0.12634 l -3.89133,11.573 h -2.09727 l -4.75045,-14.024 h -1.41503 v -2.401 h 6.24129 v 2.401 h -1.81933 l 2.83006,9.4 h 0.12634 l 3.25962,-9.4 h -1.4403 v -2.401 h 6.21602 v 2.401 h -1.33923 l 3.25962,9.526 h 0.12634 l 2.57737,-9.526 h -2.02146 v -2.401 h 6.165473 z" />
        <path
           id="path51939"
           style="font-style:normal;font-variant:normal;font-weight:600;font-stretch:normal;font-size:25.26834869px;line-height:1.25;font-family:'Zilla Slab';-inkscape-font-specification:'Zilla Slab Semi-Bold';text-align:start;text-anchor:start;fill:#f9f9f9;fill-opacity:1;stroke-width:0.45231056px"
           d="m -88.240873,18287.007 q -0.15161,1.491 -1.465564,2.603 -1.313954,1.111 -3.613374,1.111 -2.476298,0 -4.068204,-1.44 -1.591906,-1.465 -1.591906,-4.295 0,-2.603 1.440296,-4.347 1.465564,-1.743 4.068204,-1.743 2.349956,0 3.714447,1.415 1.389759,1.39 1.415028,3.537 0,0.708 -0.15161,1.517 h -7.65631 q 0.227415,3.183 3.032202,3.183 1.313954,0 1.869858,-0.631 0.581172,-0.632 0.75805,-1.34 z m -2.880592,-3.31 q 0.101074,-1.011 -0.480098,-1.895 -0.555904,-0.91 -1.895127,-0.91 -1.21288,0 -1.844589,0.809 -0.631709,0.808 -0.783319,1.996 z" />
        <path
           id="path51941"
           style="font-style:normal;font-variant:normal;font-weight:600;font-stretch:normal;font-size:25.26834869px;line-height:1.25;font-family:'Zilla Slab';-inkscape-font-specification:'Zilla Slab Semi-Bold';text-align:start;text-anchor:start;fill:#f9f9f9;fill-opacity:1;stroke-width:0.45231056px"
           d="m -74.507129,18284.531 q 0,2.4 -1.263418,4.295 -1.263417,1.895 -3.891325,1.895 -2.678445,0 -3.764984,-2.021 -0.05054,0.303 -0.126342,0.884 -0.07581,0.582 -0.126342,0.885 h -2.678445 q 0.15161,-0.834 0.277952,-1.693 0.126342,-0.885 0.126342,-1.718 v -11.902 h -1.69298 v -2.072 h 4.371425 v 8.288 q 0.505367,-1.011 1.415027,-1.743 0.934929,-0.733 2.501567,-0.733 2.147809,0 3.487032,1.491 1.364491,1.465 1.364491,4.144 z m -2.804787,0.227 q 0,-1.794 -0.808587,-2.729 -0.808587,-0.96 -2.072005,-0.96 -1.440296,0 -2.248883,1.061 -0.808587,1.061 -0.833855,2.3 v 0.808 q 0,1.39 0.808587,2.375 0.833855,0.961 2.173078,0.961 1.415027,0 2.198346,-1.036 0.783319,-1.036 0.783319,-2.78 z" />
        <path
           id="path51943"
           style="font-style:normal;font-variant:normal;font-weight:600;font-stretch:normal;font-size:25.26834869px;line-height:1.25;font-family:'Zilla Slab';-inkscape-font-specification:'Zilla Slab Semi-Bold';text-align:start;text-anchor:start;fill:#f9f9f9;fill-opacity:1;stroke-width:0.45231056px"
           d="m -59.320852,18279.401 -2.425761,0.202 -0.505367,-3.158 h -3.209081 v 11.623 h 2.75425 v 2.401 h -8.212213 v -2.401 h 2.653177 v -11.623 h -3.234349 l -0.505367,3.158 -2.400493,-0.202 0.505367,-5.357 h 14.07447 z" />
        <path
           id="path51945"
           style="font-style:normal;font-variant:normal;font-weight:600;font-stretch:normal;font-size:25.26834869px;line-height:1.25;font-family:'Zilla Slab';-inkscape-font-specification:'Zilla Slab Semi-Bold';text-align:start;text-anchor:start;fill:#f9f9f9;fill-opacity:1;stroke-width:0.45231056px"
           d="m -44.597696,18290.469 h -6.089672 v -2.072 h 1.69298 v -4.447 q 0,-1.618 -0.606441,-2.275 -0.60644,-0.682 -1.642442,-0.682 -1.23815,0 -1.970932,0.809 -0.732782,0.808 -0.783318,1.971 v 4.624 h 1.667711 v 2.072 h -6.064404 v -2.072 h 1.692979 v -13.241 h -1.692979 v -2.072 h 4.396693 v 7.909 q 1.162344,-2.097 3.764984,-2.097 1.642442,0 2.779518,0.985 1.162344,0.986 1.162344,3.083 v 5.433 h 1.692979 z" />
        <path
           id="path51947"
           style="font-style:normal;font-variant:normal;font-weight:600;font-stretch:normal;font-size:25.26834869px;line-height:1.25;font-family:'Zilla Slab';-inkscape-font-specification:'Zilla Slab Semi-Bold';text-align:start;text-anchor:start;fill:#f9f9f9;fill-opacity:1;stroke-width:0.45231056px"
           d="m -41.963078,18276.773 v -2.981 h 2.75425 v 2.981 z m 4.523035,13.696 h -6.064404 v -2.072 h 1.692979 v -7.176 h -1.794053 v -2.098 h 4.472498 v 9.274 h 1.69298 z" />
        <path
           id="path51949"
           style="font-style:normal;font-variant:normal;font-weight:600;font-stretch:normal;font-size:25.26834869px;line-height:1.25;font-family:'Zilla Slab';-inkscape-font-specification:'Zilla Slab Semi-Bold';text-align:start;text-anchor:start;fill:#f9f9f9;fill-opacity:1;stroke-width:0.45231056px"
           d="m -22.406162,18290.469 h -6.064404 v -2.072 h 1.667711 v -4.447 q 0,-1.618 -0.581172,-2.275 -0.581172,-0.682 -1.617174,-0.682 -1.288686,0 -2.046737,0.834 -0.732782,0.834 -0.75805,2.047 v 4.523 h 1.692979 v 2.072 h -6.089672 v -2.072 h 1.69298 v -7.176 h -1.768785 v -2.098 h 4.472498 v 1.845 q 1.187612,-2.072 3.764984,-2.072 1.617174,0 2.779518,0.985 1.162344,0.986 1.162344,3.083 v 5.433 h 1.69298 z" />
        <path
           id="path51951"
           style="font-style:normal;font-variant:normal;font-weight:600;font-stretch:normal;font-size:25.26834869px;line-height:1.25;font-family:'Zilla Slab';-inkscape-font-specification:'Zilla Slab Semi-Bold';text-align:start;text-anchor:start;fill:#f9f9f9;fill-opacity:1;stroke-width:0.45231056px"
           d="m -8.3332729,18281.221 h -1.6424426 v 8.818 q 0,2.704 -1.5161005,4.372 -1.490833,1.667 -4.472498,1.667 -1.768785,0 -3.310154,-0.758 -1.541369,-0.758 -2.173078,-2.602 l 2.097273,-1.137 q 1.061271,2.324 3.436496,2.324 1.415027,0 2.324688,-1.01 0.90966,-1.011 0.90966,-2.881 v -1.693 q -0.480098,0.91 -1.389759,1.567 -0.884392,0.631 -2.45103,0.631 -1.996199,0 -3.461764,-1.389 -1.440295,-1.416 -1.440295,-4.094 0,-2.426 1.288685,-4.27 1.313954,-1.87 3.790253,-1.87 2.577371,0 3.66391,1.996 v -1.769 h 4.3461561 z m -4.3461561,3.84 v -0.909 q 0,-1.415 -0.808587,-2.249 -0.808587,-0.834 -2.021468,-0.834 -1.415027,0 -2.173078,1.036 -0.75805,1.011 -0.75805,2.754 0,1.794 0.75805,2.653 0.758051,0.834 1.920395,0.834 1.440295,0 2.248883,-1.011 0.833855,-1.01 0.833855,-2.274 z" />
        <path
           id="path51953"
           style="font-style:normal;font-variant:normal;font-weight:600;font-stretch:normal;font-size:25.26834869px;line-height:1.25;font-family:'Zilla Slab';-inkscape-font-specification:'Zilla Slab Semi-Bold';text-align:start;text-anchor:start;fill:#f9f9f9;fill-opacity:1;stroke-width:0.45231056px"
           d="m 2.6722766,18287.083 q 0,1.769 -1.4655643,2.704 -1.44029584,0.934 -3.6891789,0.934 -1.2128807,0 -2.4510298,-0.278 -1.2128807,-0.277 -2.1983463,-0.833 l 0.4042935,-2.932 2.1225413,0.203 -0.025268,1.465 q 0.4800986,0.202 1.0107339,0.278 0.5559037,0.08 0.9854656,0.08 1.0360023,0 1.79405279,-0.354 0.78331881,-0.379 0.78331881,-1.112 0,-0.707 -0.70751376,-1.01 -0.68224544,-0.304 -1.71824774,-0.455 -1.0360023,-0.177 -2.0720046,-0.455 -1.0360023,-0.303 -1.743516,-0.96 -0.6822454,-0.682 -0.6822454,-2.022 0,-1.971 1.4908325,-2.703 1.516101,-0.733 3.183812,-0.733 2.1983463,0 4.1440092,1.036 l 0.2779518,2.805 -2.1225413,0.252 -0.22741514,-1.693 q -0.98546556,-0.379 -1.99619956,-0.379 -0.7833188,0 -1.3392225,0.329 -0.5306353,0.303 -0.5306353,0.985 0,0.708 0.6822454,0.986 0.6822454,0.278 1.6929794,0.455 1.01073393,0.151 2.02146788,0.454 1.01073392,0.278 1.69297932,0.961 0.6822455,0.657 0.6822455,1.996 z" />
        <path
           id="path51955"
           style="font-weight:normal;stroke-width:0.45231056px;fill:#f9f9f9"
           d="m 25.937707,18283.646 h -1.288686 v 6.823 h -1.415028 l -0.227415,-2.274 q -0.732782,1.086 -2.097273,1.819 -1.339222,0.707 -3.158543,0.707 -3.385959,0 -5.483232,-2.425 -2.097273,-2.426 -2.097273,-5.964 0,-2.375 1.010734,-4.295 1.036002,-1.946 2.830055,-3.083 1.819321,-1.162 4.169277,-1.162 1.970932,0 3.436496,0.556 1.490832,0.53 2.425761,1.364 l 0.454831,3.083 -1.566638,0.177 -0.505367,-2.325 q -0.682245,-0.455 -1.667711,-0.809 -0.960197,-0.379 -2.476298,-0.379 -2.75425,0 -4.447229,1.895 -1.69298,1.896 -1.69298,4.903 0,3.057 1.617174,4.927 1.617175,1.87 4.320888,1.87 2.248883,0 3.487032,-1.213 1.238149,-1.238 1.238149,-2.729 v -1.466 h -3.916594 v -1.642 h 7.04987 z" />
        <path
           id="path51957"
           style="font-weight:normal;stroke-width:0.45231056px;fill:#f9f9f9"
           d="m 28.676962,18280.083 q 0.884393,-0.581 1.869858,-0.833 0.985466,-0.253 2.097273,-0.253 4.017668,0 4.017668,3.765 v 5.357 q 0,1.213 0.960197,1.213 0.429562,0 0.75805,-0.152 l 0.02527,1.162 q -0.682246,0.379 -1.465565,0.379 -1.996199,0 -2.046736,-2.274 v -0.05 q -0.530635,0.909 -1.516101,1.617 -0.960197,0.707 -2.324688,0.707 -1.111807,0 -2.274151,-0.682 -1.137076,-0.682 -1.137076,-2.476 0,-2.123 1.667711,-2.78 1.692979,-0.682 3.588106,-0.682 0.505367,0 1.010734,0.03 0.530635,0.03 0.985465,0.08 v -1.011 q 0,-1.212 -0.530635,-1.97 -0.505367,-0.759 -2.021468,-0.759 -1.238149,0 -2.173078,0.455 l -0.429562,1.946 -1.465564,-0.177 z m 6.216014,6.166 v -0.859 q -0.480098,-0.02 -1.010734,-0.08 -0.530635,-0.05 -1.086539,-0.05 -1.263417,0 -2.29942,0.405 -1.010733,0.379 -1.010733,1.693 0,1.086 0.682245,1.491 0.682245,0.404 1.415027,0.404 1.162345,0 2.173078,-0.809 1.036003,-0.808 1.137076,-2.198 z" />
        <path
           id="path51959"
           style="font-weight:normal;stroke-width:0.45231056px;fill:#f9f9f9"
           d="m 48.068444,18287.437 q -0.45483,3.284 -3.562837,3.284 -1.692979,0 -2.60264,-0.96 -0.884392,-0.96 -0.884392,-2.602 v -6.52 h -1.819321 v -1.415 h 1.819321 v -3.613 h 1.768784 v 3.613 h 4.396693 v 1.415 h -4.396693 v 6.292 q 0,1.011 0.429562,1.643 0.454831,0.606 1.465564,0.606 0.656978,0 1.212881,-0.404 0.581172,-0.405 0.833856,-1.769 z" />
        <path
           id="path51961"
           style="font-weight:normal;stroke-width:0.45231056px;fill:#f9f9f9"
           d="m 59.188883,18287.234 q -0.227415,1.441 -1.440296,2.477 -1.212881,1.01 -3.284885,1.01 -2.375225,0 -3.840789,-1.49 -1.465565,-1.491 -1.465565,-4.22 0,-2.628 1.38976,-4.321 1.389759,-1.693 3.764984,-1.693 2.324688,0 3.537568,1.465 1.212881,1.466 1.238149,3.462 0,0.657 -0.15161,1.339 h -7.908993 q 0.15161,3.942 3.562837,3.942 1.339223,0 2.097273,-0.631 0.758051,-0.632 1.010734,-1.668 z m -1.970931,-3.284 q 0.126341,-1.264 -0.606441,-2.376 -0.707513,-1.112 -2.349956,-1.112 -1.566638,0 -2.29942,1.036 -0.732782,1.036 -0.90966,2.452 z" />
        <path
           id="path51963"
           style="font-weight:normal;stroke-width:0.45231056px;fill:#f9f9f9"
           d="m 78.947148,18280.665 h -1.288686 l -3.310153,9.804 h -1.364491 l -3.436496,-8.591 h -0.126341 l -3.360691,8.591 h -1.313954 l -3.436495,-9.804 h -1.238149 v -1.441 h 5.306353 v 1.441 h -2.14781 l 2.349957,7.1 h 0.126341 l 3.335422,-8.541 h 1.187613 l 3.5123,8.541 h 0.126342 l 2.072005,-7.1 h -2.046737 v -1.441 h 5.05367 z" />
        <path
           id="path51965"
           style="font-weight:normal;stroke-width:0.45231056px;fill:#f9f9f9"
           d="m 81.237097,18280.083 q 0.884392,-0.581 1.869858,-0.833 0.985466,-0.253 2.097273,-0.253 4.017667,0 4.017667,3.765 v 5.357 q 0,1.213 0.960198,1.213 0.429562,0 0.75805,-0.152 l 0.02527,1.162 q -0.682246,0.379 -1.465565,0.379 -1.996199,0 -2.046736,-2.274 v -0.05 q -0.530635,0.909 -1.516101,1.617 -0.960197,0.707 -2.324688,0.707 -1.111807,0 -2.274151,-0.682 -1.137076,-0.682 -1.137076,-2.476 0,-2.123 1.667711,-2.78 1.692979,-0.682 3.588105,-0.682 0.505367,0 1.010734,0.03 0.530636,0.03 0.985466,0.08 v -1.011 q 0,-1.212 -0.530635,-1.97 -0.505367,-0.759 -2.021468,-0.759 -1.238149,0 -2.173078,0.455 l -0.429562,1.946 -1.465564,-0.177 z m 6.216014,6.166 v -0.859 q -0.480099,-0.02 -1.010734,-0.08 -0.530635,-0.05 -1.086539,-0.05 -1.263417,0 -2.29942,0.405 -1.010734,0.379 -1.010734,1.693 0,1.086 0.682246,1.491 0.682245,0.404 1.415027,0.404 1.162344,0 2.173078,-0.809 1.036003,-0.808 1.137076,-2.198 z" />
        <path
           id="path51967"
           style="font-weight:normal;stroke-width:0.45231056px;fill:#f9f9f9"
           d="m 103.5222,18280.665 h -1.33923 l -3.967126,9.804 -1.516101,3.942 h 1.920395 v 1.44 h -5.710647 v -1.44 h 2.097273 l 1.465564,-3.968 -4.093472,-9.778 h -1.339223 v -1.441 h 5.20528 v 1.441 h -1.970931 l 3.158543,7.555 h 0.15161 l 2.804785,-7.555 h -1.819319 v -1.441 h 4.952599 z" />
      </g>
      <path
         id="rect51925"
         d="M 0.01336389,292.65432 H 15.216422 v 4.34567 H 0.01336389 Z"
         style="stroke-width:0.04190479;fill:#000000" />
      <path
         id="path51927"
         d="m 14.53756,295.77209 c -0.02933,0.008 -0.05447,0.0132 -0.07961,0.0132 -0.088,0 -0.129906,-0.0378 -0.129906,-0.14684 V 294.813 c 0,-0.43576 -0.347817,-0.6453 -0.754287,-0.6453 -0.310097,0 -0.481907,0.0378 -0.812951,0.17171 l -0.07543,0.43602 0.435808,0.046 0.06285,-0.21378 c 0.088,-0.046 0.176007,-0.0545 0.289152,-0.0545 0.305901,0 0.310086,0.23044 0.310086,0.42755 v 0.0627 c -0.09637,-0.0132 -0.205333,-0.0159 -0.310086,-0.0159 -0.43582,0 -0.884193,0.10901 -0.884193,0.57837 0,0.39792 0.310097,0.54476 0.586661,0.54476 0.305913,0 0.502865,-0.18441 0.611814,-0.38152 0.02514,0.23045 0.16343,0.38152 0.419047,0.38152 0.11733,0 0.238856,-0.0336 0.34362,-0.0881 z m -1.169138,-0.0132 c -0.163429,0 -0.222094,-0.0966 -0.222094,-0.21801 0,-0.20531 0.167614,-0.25981 0.364567,-0.25981 0.088,0 0.184386,0.0132 0.272378,0.0264 -0.01676,0.31432 -0.222094,0.4527 -0.414851,0.4527 z m -0.729144,-2.55211 -0.821332,2.89977 h -0.536388 l 0.821343,-2.89977 z m -1.106287,0 -0.821332,2.89977 h -0.536388 l 0.821343,-2.89977 z m -2.2838168,0.99746 h 0.5699107 v 0.68287 H 9.2491742 Z m 0,1.21943 h 0.5699107 v 0.68288 H 9.2491742 Z m -0.8297127,-0.0264 0.4316234,0.0418 -0.1173299,0.6662 H 7.0701336 l -0.05448,-0.28495 1.0476224,-1.2025 H 7.4682229 l -0.083807,0.29315 -0.3939045,-0.0418 0.067046,-0.6662 h 1.6720022 l 0.041903,0.28494 -1.0560031,1.20251 h 0.6160103 z m -2.7238096,-1.23214 c -0.6830455,0 -1.0224794,0.46089 -1.0224794,1.01836 0,0.60747 0.4064804,0.96385 0.9931404,0.96385 0.6076307,0 1.0476235,-0.38549 1.0476235,-0.99322 -0.00415,-0.5281 -0.3352396,-0.98899 -1.0182845,-0.98899 z m -0.012567,1.56312 c -0.2933367,0 -0.4483841,-0.25135 -0.4483841,-0.5826 0,-0.36035 0.1718084,-0.56566 0.4525697,-0.56566 0.2556158,0 0.465145,0.17171 0.465145,0.5572 -0.00415,0.36485 -0.188572,0.59106 -0.4693306,0.59106 z m -1.5001919,-0.0378 h 0.2514197 v 0.41485 H 3.6381231 v -1.07286 c 0,-0.33098 -0.1089476,-0.45666 -0.3226624,-0.45666 -0.2598147,0 -0.3687623,0.18441 -0.3687623,0.4527 v 0.66197 h 0.2514197 v 0.41485 H 2.4019289 v -1.07286 c 0,-0.33098 -0.1089476,-0.45666 -0.3268585,-0.45666 -0.2598015,0 -0.3687517,0.18441 -0.3687517,0.4527 v 0.66197 h 0.364566 v 0.41485 H 0.91431506 v -0.41485 H 1.1657453 v -1.07683 H 0.91431506 v -0.41486 H 1.7105043 v 0.28495 c 0.1131437,-0.20108 0.3100976,-0.32278 0.5782914,-0.32278 0.2723795,0 0.5279954,0.1299 0.6201846,0.41062 0.1047646,-0.25135 0.3184768,-0.41062 0.6201952,-0.41062 0.3436195,0 0.6537171,0.20531 0.6537171,0.658 z"
         class="st0"
         style="fill:#ffffff;stroke-width:0.04190479" />
    </g>
  </g>
</svg>
