<?xml version="1.0" encoding="UTF-8" standalone="no"?>
<svg
   xmlns:dc="http://purl.org/dc/elements/1.1/"
   xmlns:cc="http://creativecommons.org/ns#"
   xmlns:rdf="http://www.w3.org/1999/02/22-rdf-syntax-ns#"
   xmlns:svg="http://www.w3.org/2000/svg"
   xmlns="http://www.w3.org/2000/svg"
   version="1.1"
   id="svg16309"
   viewBox="0 0 42.010279 11.1125"
   height="42"
   width="158.77901">
  <defs
     id="defs16311" />
  <metadata
     id="metadata16314">
    <rdf:RDF>
      <cc:Work
         rdf:about="">
        <dc:format>image/svg+xml</dc:format>
        <dc:type
           rdf:resource="http://purl.org/dc/dcmitype/StillImage" />
        <dc:title></dc:title>
      </cc:Work>
    </rdf:RDF>
  </metadata>
  <g
     transform="translate(0,-285.88746)"
     id="layer1">
    <g
       id="text29413"
       aria-label="Things Gateway"
       style="font-style:normal;font-weight:normal;font-size:5.98775864px;line-height:125%;font-family:Sans;letter-spacing:0px;word-spacing:0px;fill:#ffffff;fill-opacity:1;stroke:none;stroke-width:0.26458332px;stroke-linecap:butt;stroke-linejoin:miter;stroke-opacity:1">
      <path
         id="path16921"
         style="font-weight:bold;stroke-width:0.26458332px"
         d="m 3.6405573,287.31461 -0.6826045,0.0599 -0.1197552,-0.69458 -0.6167391,0 0,2.52684 0.6347024,0 0,0.6826 -2.03583793,0 0,-0.6826 0.59877583,0 0,-2.52684 -0.61673911,0 -0.11975517,0.69458 L 3.3974648e-8,287.31461 0.11975521,285.9973 l 3.40104689,0 0.1197552,1.31731 z" />
      <path
         id="path16923"
         style="font-weight:bold;stroke-width:0.26458332px"
         d="m 7.169686,289.88934 -1.4909519,0 0,-0.58081 0.3592655,0 0,-0.94008 q 0,-0.64668 -0.4730329,-0.64668 -0.2574736,0 -0.4071676,0.16167 -0.149694,0.15569 -0.1616695,0.42513 l 0,0.99996 0.3592655,0 0,0.58081 -1.4909519,0 0,-0.58081 0.3592656,0 0,-2.95196 -0.3592656,0 0,-0.5868 1.1316864,0 0,1.83225 q 0.2694492,-0.46705 0.868225,-0.46705 0.4071676,0 0.6766168,0.23951 0.2694491,0.23951 0.2694491,0.69458 l 0,1.23947 0.3592655,0 0,0.58081 z" />
      <path
         id="path16925"
         style="font-weight:bold;stroke-width:0.26458332px"
         d="m 8.924567,289.88934 -1.4909519,0 0,-0.58081 0.3592655,0 0,-1.53287 -0.3892043,0 0,-0.5868 1.1616252,0 0,2.11967 0.3592655,0 0,0.58081 z m -1.1616252,-3.1795 0,-0.80236 0.7724209,0 0,0.80236 -0.7724209,0 z" />
      <path
         id="path16927"
         style="font-weight:bold;stroke-width:0.26458332px"
         d="m 12.498511,289.88934 -1.490952,0 0,-0.58081 0.359265,0 0,-0.94008 q 0,-0.3413 -0.113767,-0.49099 -0.113768,-0.15569 -0.34729,-0.15569 -0.269449,0 -0.425131,0.16766 -0.149694,0.16766 -0.155682,0.44908 l 0,0.97002 0.359266,0 0,0.58081 -1.4909522,0 0,-0.58081 0.3592655,0 0,-1.53287 -0.3892043,0 0,-0.5868 1.161625,0 0,0.41316 q 0.269449,-0.46705 0.868225,-0.46705 0.407168,0 0.676617,0.23951 0.269449,0.23951 0.269449,0.69458 l 0,1.23947 0.359266,0 0,0.58081 z" />
      <path
         id="path16929"
         style="font-weight:bold;stroke-width:0.26458332px"
         d="m 15.886365,287.77566 -0.359265,0 0,1.97596 q 0,0.67063 -0.377229,1.06583 -0.377229,0.40118 -1.113723,0.40118 -1.065821,0 -1.359222,-0.80835 l 0.592789,-0.33532 q 0.287412,0.53291 0.77242,0.53291 0.317352,0 0.514948,-0.22753 0.197596,-0.22754 0.197596,-0.62872 l 0,-0.35327 q -0.257474,0.49099 -0.886189,0.49099 -0.496984,0 -0.838286,-0.3413 -0.341302,-0.34729 -0.341302,-0.95804 0,-0.62273 0.329327,-1.03588 0.329326,-0.41915 0.886188,-0.41915 0.598776,0 0.850262,0.47304 l 0,-0.41915 1.131686,0 0,0.5868 z m -1.131686,0.74847 0,-0.0659 q 0,-0.32933 -0.167658,-0.52094 -0.167657,-0.1916 -0.437106,-0.1916 -0.269449,0 -0.437106,0.20358 -0.16167,0.1976 -0.16167,0.59279 0,0.37124 0.149694,0.55686 0.149694,0.17963 0.40118,0.17963 0.299388,0 0.473033,-0.21556 0.179633,-0.22154 0.179633,-0.5389 z" />
      <path
         id="path16931"
         style="font-weight:bold;stroke-width:0.26458332px"
         d="m 18.582728,289.06303 q 0,0.43711 -0.34729,0.66464 -0.34729,0.22155 -0.93409,0.22155 -0.646678,0 -1.155638,-0.26346 l 0.10778,-0.75446 0.598776,0.0659 0,0.33531 q 0.161669,0.0539 0.407167,0.0539 0.233523,0 0.389205,-0.0718 0.155681,-0.0778 0.155681,-0.21556 0,-0.12574 -0.167657,-0.18562 -0.167657,-0.0659 -0.407167,-0.10179 -0.239511,-0.0419 -0.479021,-0.10778 -0.23951,-0.0659 -0.407168,-0.2455 -0.167657,-0.18562 -0.167657,-0.48501 0,-0.31136 0.185621,-0.50896 0.191608,-0.1976 0.437106,-0.26346 0.251486,-0.0659 0.562849,-0.0659 0.538899,0 1.011932,0.2455 l 0.06587,0.68859 -0.598776,0.0659 -0.0479,-0.37723 q -0.197596,-0.0659 -0.425131,-0.0659 -0.359265,0 -0.359265,0.25747 0,0.12574 0.161669,0.19161 0.16167,0.0659 0.395192,0.10778 0.233523,0.0359 0.461058,0.10179 0.233522,0.0659 0.395192,0.2455 0.161669,0.17963 0.161669,0.46704 z" />
      <path
         id="path16933"
         style="font-weight:normal;stroke-width:0.26458332px"
         d="m 24.058814,288.27265 -0.305376,0 0,1.61669 -0.335314,0 -0.05389,-0.5389 q -0.185621,0.26945 -0.50896,0.43711 -0.323339,0.16167 -0.736494,0.16167 -0.790384,0 -1.293356,-0.56884 -0.502972,-0.57482 -0.502972,-1.4191 0,-0.85026 0.532911,-1.43706 0.538898,-0.5868 1.365209,-0.5868 0.8802,0 1.38916,0.45507 l 0.10778,0.73051 -0.371242,0.0419 -0.119755,-0.55087 q -0.425131,-0.28143 -0.981992,-0.28143 -0.652666,0 -1.053846,0.44909 -0.401179,0.44908 -0.401179,1.16162 0,0.72452 0.383216,1.16761 0.389204,0.4431 1.023907,0.4431 0.508959,0 0.814335,-0.27544 0.305376,-0.28142 0.305376,-0.65865 l 0,-0.34729 -0.928103,0 0,-0.38921 1.670585,0 0,0.38921 z" />
      <path
         id="path16935"
         style="font-weight:normal;stroke-width:0.26458332px"
         d="m 24.707925,287.42837 q 0.383217,-0.25747 0.940078,-0.25747 0.952054,0 0.952054,0.89218 l 0,1.2694 q 0,0.28741 0.227535,0.28741 0.101792,0 0.179632,-0.0359 l 0.006,0.27543 q -0.161669,0.0898 -0.34729,0.0898 -0.227535,0 -0.353278,-0.14371 -0.125743,-0.1437 -0.13173,-0.39519 l 0,-0.012 q -0.137719,0.23951 -0.377229,0.39519 -0.233523,0.15568 -0.532911,0.15568 -0.317351,0 -0.562849,-0.17963 -0.245498,-0.17963 -0.245498,-0.56884 0,-0.82032 1.245454,-0.82032 0.18562,0 0.473033,0.024 l 0,-0.23951 q 0,-0.31136 -0.137719,-0.47902 -0.13173,-0.16766 -0.467045,-0.16766 -0.2934,0 -0.514947,0.10778 l -0.101792,0.46106 -0.34729,-0.0419 0.0958,-0.61674 z m 1.472989,1.46102 0,-0.20359 q -0.377229,-0.0299 -0.496984,-0.0299 -0.784397,0 -0.784397,0.49699 0,0.23352 0.143707,0.3413 0.149694,0.10778 0.353277,0.10778 0.2934,0 0.526923,-0.1976 0.233523,-0.19759 0.257474,-0.51494 z" />
      <path
         id="path16937"
         style="font-weight:normal;stroke-width:0.26458332px"
         d="m 29.303062,289.17081 q -0.107779,0.77841 -0.844274,0.77841 -0.395192,0 -0.610751,-0.22155 -0.215559,-0.22753 -0.215559,-0.62272 l 0,-1.54484 -0.431119,0 0,-0.33532 0.431119,0 0,-0.85625 0.419143,0 0,0.85625 1.04187,0 0,0.33532 -1.04187,0 0,1.49095 q 0,0.53291 0.449082,0.53291 0.18562,0 0.305375,-0.10778 0.125743,-0.10778 0.179633,-0.40717 l 0.317351,0.10179 z" />
      <path
         id="path16939"
         style="font-weight:normal;stroke-width:0.26458332px"
         d="m 31.938237,289.12291 q -0.05389,0.35927 -0.353278,0.59279 -0.2934,0.23352 -0.766433,0.23352 -0.574825,0 -0.916127,-0.35926 -0.341302,-0.35927 -0.341302,-0.99397 0,-0.62872 0.329326,-1.02391 0.335315,-0.40118 0.892177,-0.40118 0.526922,0 0.82631,0.33532 0.299388,0.33531 0.305376,0.83229 0,0.15569 -0.03593,0.31735 l -1.874168,0 q 0.01796,0.44909 0.233522,0.69458 0.21556,0.23952 0.610752,0.23952 0.598776,0 0.736494,-0.54489 l 0.353278,0.0778 z m -0.467045,-0.77841 q 0.03593,-0.32334 -0.149694,-0.57482 -0.185621,-0.25149 -0.550874,-0.25149 -0.34729,0 -0.532911,0.22754 -0.18562,0.22753 -0.227534,0.59877 l 1.461013,0 z" />
      <path
         id="path16941"
         style="font-weight:normal;stroke-width:0.26458332px"
         d="m 36.608595,287.56609 -0.305376,0 -0.784396,2.32325 -0.323339,0 -0.814336,-2.03583 -0.02994,0 -0.796372,2.03583 -0.311364,0 -0.814335,-2.32325 -0.2934,0 0,-0.3413 1.257429,0 0,0.3413 -0.508959,0 0.556861,1.68256 0.02994,0 0.790384,-2.02386 0.281425,0 0.832298,2.02386 0.02994,0 0.490996,-1.68256 -0.485008,0 0,-0.3413 1.197552,0 0,0.3413 z" />
      <path
         id="path16943"
         style="font-weight:normal;stroke-width:0.26458332px"
         d="m 37.151235,287.42837 q 0.383216,-0.25747 0.940078,-0.25747 0.952054,0 0.952054,0.89218 l 0,1.2694 q 0,0.28741 0.227534,0.28741 0.101792,0 0.179633,-0.0359 l 0.006,0.27543 q -0.16167,0.0898 -0.34729,0.0898 -0.227535,0 -0.353278,-0.14371 -0.125743,-0.1437 -0.131731,-0.39519 l 0,-0.012 q -0.137718,0.23951 -0.377228,0.39519 -0.233523,0.15568 -0.532911,0.15568 -0.317351,0 -0.562849,-0.17963 -0.245498,-0.17963 -0.245498,-0.56884 0,-0.82032 1.245454,-0.82032 0.18562,0 0.473032,0.024 l 0,-0.23951 q 0,-0.31136 -0.137718,-0.47902 -0.131731,-0.16766 -0.467045,-0.16766 -0.2934,0 -0.514947,0.10778 l -0.101792,0.46106 -0.34729,-0.0419 0.0958,-0.61674 z m 1.472988,1.46102 0,-0.20359 q -0.377228,-0.0299 -0.496983,-0.0299 -0.784397,0 -0.784397,0.49699 0,0.23352 0.143706,0.3413 0.149694,0.10778 0.353278,0.10778 0.2934,0 0.526923,-0.1976 0.233522,-0.19759 0.257473,-0.51494 z" />
      <path
         id="path16945"
         style="font-weight:normal;stroke-width:0.26458332px"
         d="m 42.432064,287.56609 -0.317351,0 -0.940078,2.32325 -0.359266,0.93409 0.45507,0 0,0.34131 -1.353233,0 0,-0.34131 0.496984,0 0.34729,-0.94007 -0.970017,-2.31727 -0.317351,0 0,-0.3413 1.233478,0 0,0.3413 -0.467045,0 0.748469,1.79034 0.03593,0 0.664641,-1.79034 -0.431118,0 0,-0.3413 1.1736,0 0,0.3413 z" />
    </g>
    <g
       id="text29421"
       aria-label="by"
       style="font-style:normal;font-weight:normal;font-size:4.37824869px;line-height:125%;font-family:Sans;letter-spacing:0px;word-spacing:0px;fill:#ffffff;fill-opacity:1;stroke:none;stroke-width:0.26458332px;stroke-linecap:butt;stroke-linejoin:miter;stroke-opacity:1">
      <path
         id="path16948"
         style="font-style:normal;font-variant:normal;font-weight:normal;font-stretch:normal;font-size:3.30729151px;font-family:'Open Sans';-inkscape-font-specification:'Open Sans';fill:#ffffff;stroke-width:0.26458332px"
         d="m 23.346751,293.67916 q 0.348816,0 0.540987,0.23901 0.193787,0.23739 0.193787,0.67341 0,0.43602 -0.195401,0.67825 -0.193787,0.24062 -0.539373,0.24062 -0.172793,0 -0.316518,-0.063 -0.14211,-0.0646 -0.239004,-0.19702 l -0.01938,0 -0.05652,0.2277 -0.192171,0 0,-2.51277 0.268071,0 0,0.61043 q 0,0.20509 -0.01292,0.3682 l 0.01292,0 q 0.187327,-0.26485 0.555522,-0.26485 z m -0.03876,0.22447 q -0.274532,0 -0.395648,0.15826 -0.121117,0.15665 -0.121117,0.52969 0,0.37303 0.124347,0.53452 0.124346,0.15988 0.398877,0.15988 0.247078,0 0.368195,-0.17925 0.121116,-0.18087 0.121116,-0.51838 0,-0.34559 -0.121116,-0.51515 -0.121117,-0.16957 -0.374654,-0.16957 z" />
      <path
         id="path16950"
         style="font-style:normal;font-variant:normal;font-weight:normal;font-stretch:normal;font-size:3.30729151px;font-family:'Open Sans';-inkscape-font-specification:'Open Sans';fill:#ffffff;stroke-width:0.26458332px"
         d="m 24.270467,293.70823 0.28745,0 0.387573,1.00931 q 0.127577,0.34558 0.158259,0.499 l 0.01292,0 q 0.02099,-0.0824 0.0872,-0.28099 0.06783,-0.20025 0.43925,-1.22732 l 0.28745,0 -0.760612,2.01538 q -0.113042,0.29876 -0.264842,0.4231 -0.150185,0.12596 -0.369809,0.12596 -0.122732,0 -0.242234,-0.0274 l 0,-0.21478 q 0.08882,0.0194 0.198632,0.0194 0.276146,0 0.394032,-0.31006 l 0.09851,-0.25192 -0.713781,-1.77961 z" />
    </g>
    <g
       style="fill:#4a4a4a;fill-opacity:1"
       transform="matrix(0.10256202,0,0,0.10256202,-209.40984,-4322.4107)"
       id="g29425">
      <g
         id="g29427"
         transform="matrix(1.1350835,0,0,1.1350835,-331.7295,-6084.1854)">
        <rect
           style="color:#000000;clip-rule:nonzero;display:inline;overflow:visible;visibility:visible;opacity:1;isolation:auto;mix-blend-mode:normal;color-interpolation:sRGB;color-interpolation-filters:linearRGB;solid-color:#000000;solid-opacity:1;fill:#000000;fill-opacity:1;fill-rule:nonzero;stroke:none;stroke-width:1;stroke-linecap:butt;stroke-linejoin:miter;stroke-miterlimit:4;stroke-dasharray:none;stroke-dashoffset:0;stroke-opacity:1;color-rendering:auto;image-rendering:auto;shape-rendering:auto;text-rendering:auto;enable-background:accumulate"
           id="rect29429"
           width="134.70383"
           height="40.909164"
           x="2321.0327"
           y="44999.262" />
        <path
           id="path29431"
           d="m 2372.843,45030.486 c 3.3544,-0.706 5.8131,-2.959 6.6235,-6.069 0.3153,-1.21 0.3823,-3.001 0.1603,-4.274 -0.6643,-3.801 -3.3151,-6.358 -7.1698,-6.914 -1.2684,-0.183 -3.4305,-0.07 -4.5522,0.226 -3.7132,0.999 -5.975,3.984 -6.1565,8.124 -0.098,2.242 0.2653,3.83 1.2386,5.408 1.1996,1.945 3.4323,3.3 6.0113,3.648 0.9842,0.132 2.8487,0.06 3.8448,-0.149 z m -3.5094,-4 c -0.297,-0.12 -0.748,-0.422 -1.0017,-0.671 -0.9408,-0.923 -1.3545,-2.14 -1.3573,-3.99 -0.011,-2.263 0.7642,-3.783 2.2425,-4.445 0.8146,-0.365 2.1863,-0.35 3.0154,0.03 1.1624,0.535 1.8013,1.356 2.1253,2.73 0.3267,1.386 0.1251,3.508 -0.4367,4.594 -0.2934,0.568 -1.0444,1.308 -1.6345,1.611 -0.7615,0.391 -2.1628,0.457 -2.953,0.139 z m 67.7544,4.099 c 1.2584,-0.265 2.0697,-0.73 3.0939,-1.771 0.7407,-0.753 0.9167,-0.884 0.9725,-0.723 0.3991,1.154 0.8869,1.753 1.7969,2.208 1.1055,0.553 2.6306,0.553 4.101,0 0.9013,-0.337 0.9279,-0.384 0.9279,-1.646 0,-1.416 -0.048,-1.505 -0.8214,-1.487 -1.0387,0.02 -0.9757,0.321 -1.0459,-4.934 -0.057,-4.352 -0.073,-4.596 -0.3017,-5.214 -0.3618,-0.975 -0.7086,-1.5 -1.4361,-2.174 -0.7323,-0.678 -1.6693,-1.181 -2.7442,-1.473 -0.5752,-0.157 -1.1207,-0.191 -2.8462,-0.182 -2.0115,0 -2.2073,0.03 -3.3937,0.345 -1.1589,0.307 -2.8073,0.886 -3.1561,1.107 -0.2072,0.132 -0.8346,3.818 -0.6813,4.003 0.1443,0.173 3.8056,0.577 3.9406,0.435 0.052,-0.06 0.1967,-0.469 0.3227,-0.92 0.1259,-0.452 0.3087,-0.88 0.4063,-0.952 0.466,-0.343 2.4134,-0.481 3.2483,-0.231 1.0009,0.3 1.5025,1.243 1.5025,2.824 l 0,0.834 -2.2167,0 c -2.4835,0 -3.5797,0.154 -5.0054,0.707 -1.4186,0.55 -2.4553,1.533 -2.9098,2.758 -0.3117,0.84 -0.2881,2.746 0.044,3.584 0.6281,1.584 2.0214,2.63 3.9316,2.952 0.8132,0.137 1.4411,0.123 2.27,-0.05 z m -0.1644,-3.679 c -0.7908,-0.235 -1.1562,-0.885 -1.0714,-1.907 0.063,-0.759 0.4461,-1.274 1.1517,-1.545 0.4217,-0.163 0.8308,-0.202 2.131,-0.202 1.1587,0 1.6484,0.04 1.749,0.139 0.2178,0.219 -0.1554,1.485 -0.652,2.214 -0.3262,0.478 -0.5553,0.674 -1.1203,0.956 -0.7849,0.392 -1.5975,0.52 -2.188,0.345 z m -97.5615,1.499 c 0.024,-1.409 -0.011,-1.873 -0.1094,-1.941 -0.077,-0.05 -0.7974,-0.09 -1.6016,-0.09 l -1.4621,0 0.05,-3.367 c 0.056,-3.701 0.1098,-4.063 0.739,-4.919 0.4213,-0.573 1.1248,-0.921 2.0049,-0.99 1.3278,-0.106 2.1649,0.369 2.6148,1.482 0.249,0.616 0.252,0.678 0.2792,5.932 0.015,2.92 0.053,5.42 0.084,5.556 l 0.058,0.246 3.544,0 c 3.1307,0 3.5516,-0.02 3.6105,-0.173 0.036,-0.1 0.066,-0.931 0.066,-1.857 0,-1.987 0.052,-1.91 -1.3133,-1.91 l -0.8899,0 0.034,-3.531 c 0.034,-3.417 0.043,-3.548 0.2864,-4.078 0.4798,-1.041 1.2439,-1.58 2.3719,-1.669 1.398,-0.111 2.3039,0.46 2.6845,1.693 0.2064,0.668 0.2196,1.015 0.2196,5.776 0,2.785 0.031,5.22 0.069,5.409 l 0.069,0.343 3.5712,-0.02 3.5711,-0.03 0.03,-1.806 c 0.036,-2.157 0.082,-2.08 -1.2552,-2.08 l -0.9097,0 0,-4.078 c 0,-4.591 -0.056,-5.062 -0.7143,-6.317 -0.9438,-1.795 -2.8429,-2.848 -5.1402,-2.848 -2.141,0 -3.8969,0.895 -4.9659,2.531 l -0.4345,0.665 -0.1669,-0.322 c -0.8585,-1.661 -2.6539,-2.726 -4.7984,-2.848 -1.9198,-0.109 -3.3185,0.356 -4.5085,1.499 -0.379,0.364 -0.7198,0.662 -0.7574,0.662 -0.038,0 -0.082,-0.407 -0.1004,-0.904 l -0.032,-0.903 -3.6673,0 -3.6672,0 -0.03,1.792 c -0.02,1.228 0.011,1.839 0.095,1.943 0.092,0.11 0.4199,0.151 1.2069,0.151 l 1.0813,0 0,4.488 0,4.489 -0.9633,0 c -0.6034,0 -1.0125,0.05 -1.0947,0.131 -0.1423,0.142 -0.1953,3.599 -0.057,3.738 0.039,0.04 2.3684,0.06 5.1724,0.05 l 5.0984,-0.03 0.03,-1.853 z m 57.9791,1.813 c 0.058,-0.09 1.0495,-5.561 1.0495,-5.786 0,-0.187 -0.2352,-0.235 -2.0916,-0.425 -1.3313,-0.136 -1.7878,-0.149 -1.8851,-0.06 -0.07,0.07 -0.279,0.63 -0.4631,1.246 l -0.3346,1.118 -2.3747,0.03 c -1.3062,0.02 -2.3748,0 -2.3748,-0.03 0,-0.03 1.9417,-2.268 4.315,-4.973 2.3732,-2.705 4.3623,-5.009 4.4201,-5.12 0.1211,-0.231 -0.1544,-2.414 -0.3329,-2.637 -0.085,-0.107 -1.6913,-0.137 -7.3622,-0.137 -5.6706,0 -7.2771,0.03 -7.3631,0.137 -0.061,0.07 -0.2155,1.221 -0.3443,2.546 -0.1287,1.323 -0.258,2.58 -0.2874,2.79 -0.03,0.212 -0.014,0.444 0.034,0.517 0.082,0.124 2.4689,0.465 3.2693,0.468 0.396,0 0.3836,0.02 0.8003,-1.422 l 0.2999,-1.04 2.3368,-0.03 2.3369,-0.02 -0.2245,0.248 c -0.9829,1.088 -8.3718,9.639 -8.5041,9.842 -0.1536,0.235 -0.1499,0.358 0.039,1.337 0.1151,0.593 0.2389,1.172 0.2754,1.286 0.064,0.202 0.2886,0.208 7.3865,0.208 4.0264,0 7.3468,-0.04 7.3789,-0.09 z m 9.4238,-3.025 0,-3.065 -2.5726,0 -2.5725,0 -0.029,2.953 c -0.016,1.625 -0.011,3.018 0.025,3.096 0.043,0.109 0.6076,0.133 2.6018,0.11 l 2.5478,-0.03 z m 7.7967,2.983 c 0.1185,-0.153 7.1458,-24.914 7.1458,-25.178 0,-0.09 -0.078,-0.198 -0.1732,-0.235 -0.095,-0.03 -1.1508,-0.06 -2.3458,-0.06 -1.6714,0 -2.2064,0.03 -2.3193,0.147 -0.1972,0.197 -7.2456,25.09 -7.1644,25.302 0.055,0.142 0.4128,0.166 2.4073,0.166 1.7455,0 2.3708,-0.03 2.4496,-0.136 z m 9.649,-0.06 c 0.1259,-0.236 7.1301,-24.933 7.1301,-25.142 0,-0.252 -0.2699,-0.283 -2.519,-0.283 -1.8291,0 -2.1997,0.03 -2.3445,0.172 -0.094,0.09 -0.1722,0.193 -0.1722,0.219 0,0.02 -1.5762,5.61 -3.5029,12.411 -1.9266,6.8 -3.503,12.465 -3.503,12.589 0,0.22 0.05,0.225 2.4045,0.225 2.178,0 2.4142,-0.02 2.507,-0.191 z m -17.4457,-13.547 0,-3.065 -2.5726,0 -2.5725,0 -0.029,2.954 c -0.016,1.625 -0.011,3.017 0.025,3.094 0.043,0.11 0.6076,0.134 2.6018,0.111 l 2.5478,-0.03 z"
           style="fill:#ffffff;fill-opacity:1" />
      </g>
    </g>
  </g>
</svg>
