<svg xmlns="http://www.w3.org/2000/svg" height="32" width="32"><path d="M27.248 20.025a8.465 8.465 0 0 0 1-4.02c0-1.442-.347-2.84-1-4.02m-22.496-.01a8.466 8.466 0 0 0-1 4.02c0 1.443.347 2.84 1 4.02m25.106 1.578A11.615 11.615 0 0 0 31.294 16c0-2.054-.522-3.933-1.436-5.593" fill="none" stroke="#5d9bc7" stroke-width="1.412" stroke-miterlimit="10"/><path d="M23.53 14.431c0-3.828-2.071-7.09-5.648-7.906v-.878A1.848 1.848 0 0 0 16 3.765a1.849 1.849 0 0 0-1.882 1.882v.878c-3.576.879-5.646 4.078-5.646 7.906v6.274l-2.51 2.51v1.254h20.077v-1.254l-2.51-2.51zM16 28.234c.189 0 .314 0 .502-.061.816-.19 1.506-.754 1.82-1.506a2.6 2.6 0 0 0 .188-1.004h-5.02c0 1.443 1.13 2.572 2.51 2.572z" class="st1" fill="#5d9bc7"/><path d="M2.142 10.407A11.486 11.486 0 0 0 .706 16c0 2.054.522 3.933 1.436 5.593" fill="none" stroke="#5d9bc7" stroke-width="1.412" stroke-miterlimit="10"/></svg>