<svg xmlns="http://www.w3.org/2000/svg" width="32" height="32"><path d="M20.874 17.969a4.875 4.875 0 0 1-4.875 4.875 4.875 4.875 0 0 1-4.875-4.875A4.875 4.875 0 0 1 16 13.094a4.875 4.875 0 0 1 4.875 4.875zm-12-13.937a2.368 2.368 0 0 0-2.376 2.374v1.562H4c-2.216 0-4 1.784-4 4v12c0 2.216 1.784 4 4 4h24c2.216 0 4-1.784 4-4v-12c0-2.216-1.784-4-4-4h-2.502V6.406a2.367 2.367 0 0 0-2.373-2.374H8.873zM27.93 9.467a2.665 2.665 0 0 1 2.666 2.666 2.665 2.665 0 0 1-2.666 2.665 2.665 2.665 0 0 1-2.665-2.665 2.665 2.665 0 0 1 2.665-2.666zM16 11.217a6.75 6.75 0 0 1 6.748 6.751A6.75 6.75 0 0 1 16 24.719a6.75 6.75 0 0 1-6.75-6.751 6.75 6.75 0 0 1 6.75-6.75z" fill="#fff" paint-order="fill markers stroke"/></svg>