<svg xmlns="http://www.w3.org/2000/svg" width="32" height="32"><g stroke-width=".621"><path d="M108.242-39.869v2.333h-7.4v27.3l7.4.007v2.36L121.75-10.3l.014-27.12zm2.24 14.929c.454 0 .822.48.822 1.071 0 .592-.368 1.072-.822 1.072-.453 0-.821-.48-.821-1.072 0-.591.368-1.071.821-1.071zm-7.442 12.505v-22.9h5.202v22.904z" fill="#5d9bc7"/><path fill="none" stroke="#fafafa" stroke-width="1.437" d="M6.002 2.904h19.996v26.192H6.002z"/><path d="M6.788 3.692v24.615h18.423V3.692zm3.028 11.14a1.25 1.252 0 0 1 1.25 1.252 1.25 1.252 0 0 1-1.25 1.25 1.25 1.252 0 0 1-1.25-1.25 1.25 1.252 0 0 1 1.25-1.253z" fill="#fff"/></g></svg>