<svg xmlns="http://www.w3.org/2000/svg" width="32" height="32"><g fill="#fff"><path d="M4.32 25.92h24v-4l-3.68-4.72-5.76 1.68-5.76-6.48-2.24 1.36-2.56-3.04-3.997 8.037z" fill-rule="evenodd"/><path style="isolation:auto;mix-blend-mode:normal" d="M27.52 8.321a4 4 0 0 1-4 4 4 4 0 0 1-4-4 4 4 0 0 1 4-4 4 4 0 0 1 4 4z" color="#000" overflow="visible"/><path d="M.8 0C.357 0 0 .357 0 .8v30.4c0 .443.357.8.8.8h30.4c.443 0 .8-.357.8-.8V.8c0-.443-.357-.8-.8-.8zm1.28 2.08h27.84v24.8H2.08z" style="isolation:auto;mix-blend-mode:normal" color="#000" overflow="visible"/></g></svg>