<svg xmlns="http://www.w3.org/2000/svg" height="32" width="32"><path d="M25.084 18.937v1.107c-.073.205-.01.49-.1.705-.416 3.624-3.517 6.916-7.114 7.55-.366.144-.799.141-1.175.202H15.32c-.375-.061-.808-.058-1.174-.202-3.88-.668-7.038-4.406-7.215-8.288V18.87c.123-.759.28-1.547.579-2.272a19.9 19.9 0 0 1 .973-1.712l1.141-1.543c2.552-3.034 4.787-6.292 6.468-9.842l.463.981c1.39 3.384 3.58 6.381 5.973 9.196a13.717 13.717 0 0 0 .84 1.108c.449.691.889 1.389 1.24 2.147.242.641.393 1.332.478 2.004z" fill="#fff"/></svg>