<svg xmlns="http://www.w3.org/2000/svg" height="32" width="32"><g stroke-width="2.276"><path d="M21.777 14.26v.772c-.05.143-.007.342-.069.491-.285 2.528-2.41 4.823-4.875 5.265-.251.1-.548.099-.805.14h-.943c-.258-.041-.554-.04-.805-.14-2.659-.465-4.824-3.072-4.945-5.78v-.795c.085-.529.192-1.079.397-1.584.208-.407.422-.812.667-1.193l.782-1.077c1.749-2.115 3.28-4.387 4.433-6.863l.317.685c.952 2.36 2.454 4.449 4.094 6.412a9.4 9.565 0 0 0 .575.772c.308.482.609.97.85 1.498.166.447.27.929.327 1.397z" fill="#5d9bc7"/><path d="M13836.489-16885.333s3.979 5.772 7.674 5.502c3.169-.232 5.164-3.708 8.184-3.579 3.861.164 4.216 3.703 7.546 3.84 4.449.184 5.912-3.693 8.375-3.706 2.208 0 3.236 3.934 8.633 3.553 2.088-.146 5.463-3.957 7.431-4.027 3.054-.109 5.451 4.359 7.842 4.317 4.01-.07 5.018-3.811 6.678-5.188m-61.077 7.683s2.693 3.89 6.388 3.619c3.169-.232 5.164-3.708 8.184-3.579 3.861.164 4.216 3.703 7.546 3.841 4.449.184 5.912-3.694 8.375-3.707 2.208 0 3.236 3.935 8.633 3.554 2.088-.147 5.463-3.958 7.431-4.028 3.054-.109 5.451 4.36 7.842 4.317 4.01-.07 3.691-1.878 5.312-3.508" fill="none" stroke="#5d9bc7" stroke-width="4.553" stroke-linecap="round" transform="matrix(.4355 0 0 .44311 -6023.426 7504.069)"/></g></svg>