<svg xmlns="http://www.w3.org/2000/svg" width="32" height="32" viewBox="0 0 8.467 8.467"><path d="M3.124 3.73h4.729v3.678H3.124z" fill="#5d9bc7"/><path d="M2.711 1.058c-.605 0-1.162.325-1.529.844-.367.52-.568 1.228-.568 2.071a.425.425 0 10.85 0c0-.706.172-1.244.41-1.582.24-.338.52-.483.837-.483.318 0 .597.145.835.483.239.338.413.876.413 1.582a.424.424 0 10.848 0c0-.843-.2-1.551-.567-2.071-.366-.52-.923-.844-1.529-.844z" style="line-height:normal;font-variant-ligatures:normal;font-variant-position:normal;font-variant-caps:normal;font-variant-numeric:normal;font-variant-alternates:normal;font-feature-settings:normal;text-indent:0;text-align:start;text-decoration-line:none;text-decoration-style:solid;text-decoration-color:#000;text-transform:none;text-orientation:mixed;white-space:normal;shape-padding:0;isolation:auto;mix-blend-mode:normal;solid-color:#000;solid-opacity:1" color="#000" font-weight="400" font-family="sans-serif" overflow="visible" fill="#5d9bc7"/></svg>