<svg xmlns="http://www.w3.org/2000/svg" viewBox="0 0 8.467 8.467" height="32" width="32"><g fill="#fff"><path d="M1.869 3.73h4.729v3.678h-4.73z"/><path style="line-height:normal;font-variant-ligatures:normal;font-variant-position:normal;font-variant-caps:normal;font-variant-numeric:normal;font-variant-alternates:normal;font-feature-settings:normal;text-indent:0;text-align:start;text-decoration-line:none;text-decoration-style:solid;text-decoration-color:#000;text-transform:none;text-orientation:mixed;white-space:normal;shape-padding:0;isolation:auto;mix-blend-mode:normal;solid-color:#000;solid-opacity:1" d="M4.233 1.058c-.606 0-1.162.325-1.53.844-.366.52-.567 1.227-.567 2.07a.424.424 0 10.85 0c0-.706.173-1.242.412-1.58.238-.338.517-.485.835-.485.318 0 .598.147.836.485.239.338.413.874.413 1.58a.424.424 0 10.849 0c0-.843-.202-1.55-.569-2.07-.366-.52-.923-.844-1.529-.844z" color="#000" font-weight="400" font-family="sans-serif" overflow="visible"/></g></svg>