<svg xmlns="http://www.w3.org/2000/svg" width="32" height="32" viewBox="0 0 8.467 8.467"><path d="M1.869 3.73h4.729v3.678h-4.73z" fill="#5d9bc7"/><path style="line-height:normal;font-variant-ligatures:normal;font-variant-position:normal;font-variant-caps:normal;font-variant-numeric:normal;font-variant-alternates:normal;font-feature-settings:normal;text-indent:0;text-align:start;text-decoration-line:none;text-decoration-style:solid;text-decoration-color:#000;text-transform:none;text-orientation:mixed;white-space:normal;shape-padding:0;isolation:auto;mix-blend-mode:normal;solid-color:#000;solid-opacity:1" d="M4.233 1.058c-.606 0-1.162.325-1.528.844-.367.52-.569 1.227-.569 2.07a.424.424 0 10.849 0c0-.706.174-1.243.413-1.58.238-.339.517-.486.835-.486.317 0 .597.147.836.485.239.338.413.875.413 1.58a.424.424 0 10.848 0c0-.842-.201-1.55-.568-2.069-.367-.52-.924-.844-1.53-.844z" color="#000" font-weight="400" font-family="sans-serif" overflow="visible" fill="#5d9bc7"/><path transform="matrix(.10886 0 0 .1086 -2654.22 1836.363)" d="M24432.737-16848.004h-22.442l11.221-19.435z" fill="#fff" stroke="#fff" stroke-width="2.368" stroke-linecap="round" stroke-linejoin="round" paint-order="fill markers stroke"/><g style="line-height:0%"><path d="M4.365 5.878H4.14l-.047-.897h.317zm-.275.314q0-.077.041-.117.042-.04.12-.04.077 0 .118.041.042.04.042.116 0 .073-.042.115-.042.041-.117.041-.077 0-.12-.04-.042-.042-.042-.116z" style="line-height:1.25;-inkscape-font-specification:'Open Sans Bold';text-align:center" font-weight="700" font-size="2.508" text-anchor="middle" aria-label="!" font-family="Open Sans" letter-spacing="0" word-spacing="0" fill="#5d9bc7"/></g></svg>