<svg xmlns="http://www.w3.org/2000/svg" width="32" height="32"><path d="M15.936 8.36c-.037 0-.072.01-.108.013a2.22 2.22 0 0 0-.754.073c-.333.082-.616.21-.808.343a1.474 1.474 0 0 0-.465.344l-2.983 3.379c-.282.32-.381.705-.334 1.04-.006.11-.014.224.01.349l.442 2.28c.125.651.644 1.183 1.162 1.192.517.01.832-.506.707-1.156l-.442-2.281c-.013-.068-.045-.127-.066-.192l1.375-1.558-.05 4.408c-.043.213-.079.53-.097.906-.004.103.002.169 0 .264a2.52 2.52 0 0 0-.087.373l-1.249 7.758c-.162 1.008.292 1.95 1.018 2.113.726.163 1.441-.517 1.604-1.525l1.029-6.41 1.031 6.41c.162 1.008.878 1.688 1.604 1.525.726-.163 1.18-1.105 1.017-2.113l-1.248-7.758a2.515 2.515 0 0 0-.076-.318c-.01-.11-.008-.19-.023-.31-.03-.243-.07-.43-.108-.614.005-.063.019-.122.02-.186l.054-4.697 1.557 1.764c.009.01.02.015.03.025-.014.046-.038.087-.048.135l-.441 2.283c-.126.65.191 1.164.709 1.154.518-.01 1.035-.539 1.16-1.19l.442-2.282a1.181 1.181 0 0 0-.08-.733 1.417 1.417 0 0 0-.323-.656l-2.98-3.379a1.485 1.485 0 0 0-.455-.342 2.498 2.498 0 0 0-.813-.347 2.15 2.15 0 0 0-.767-.069c-.056-.003-.11-.016-.166-.015zm-.206-.446c1.081.114 2.049-.743 2.105-1.829.056-1.085-.74-2.057-1.82-2.114-1.081-.056-2.049.743-2.105 1.829-.056 1.085.74 2.057 1.82 2.114" fill="#fff"/></svg>