<svg xmlns="http://www.w3.org/2000/svg" height="32" width="32"><g fill="#5d9bc7" stroke="#5d9bc7"><path d="M13.966 1.349h4.084v8.842h-4.084z" stroke-width="2.687"/><path d="M-2289.436-17154.137l-26.346 15.211v-30.422z" transform="matrix(0 .22448 -.37897 0 -6484.852 529.224)" stroke-width="4"/></g><path d="M7.54 19.745a1.876 4.099 0 0 0-1.876 4.1 1.876 4.099 0 0 0 1.876 4.098h16.933a1.876 4.099 0 0 0 1.877-4.099 1.876 4.099 0 0 0-1.877-4.1 1.876 4.099 0 0 0-.01 0H7.549a1.876 4.099 0 0 0-.008 0z" fill="#eaecee" stroke="#5d9bc7" stroke-width="2.462"/><path d="M2.911 22.154A2.903 4.923 0 0 0 .01 27.077 2.903 4.923 0 0 0 2.91 32h26.195a2.903 4.923 0 0 0 2.903-4.923 2.903 4.923 0 0 0-2.903-4.923 2.903 4.923 0 0 0-.016 0H2.923a2.903 4.923 0 0 0-.012 0z" fill="#5d9bc7"/></svg>