<svg xmlns="http://www.w3.org/2000/svg" viewBox="0 0 6.35 6.35" height="24" width="24"><path d="M2.966.192v5.966a.192.192 0 10.384 0V.192a.192.192 0 10-.384 0zm.328 1.359L4.02.825a.192.192 0 10-.271-.272l-.726.726a.192.192 0 10.271.272zm0-.272L2.57.553a.192.192 0 10-.272.272l.726.726a.192.192 0 10.271-.272zm-.271 3.772l.726.726a.192.192 0 10.271-.272l-.726-.726a.192.192 0 10-.271.272zm0-.272l-.726.726a.192.192 0 10.272.272l.725-.726a.192.192 0 10-.271-.272zM.485 1.867L5.652 4.85a.192.192 0 00.193-.332L.677 1.534a.192.192 0 00-.262.07.193.193 0 00.07.263zm1.341.395l-.266-.991a.191.191 0 10-.37.1l.265.99a.191.191 0 10.371-.099zm-.235-.135l-.992.265a.192.192 0 00.1.372l.991-.266a.192.192 0 00-.1-.371zm3.13 2.12l.992-.265a.192.192 0 00-.099-.372l-.991.266a.192.192 0 00.099.371zm-.234-.135l.265.991a.192.192 0 00.372-.099l-.266-.991a.192.192 0 00-.371.099zm-3.79.716l5.168-2.983a.192.192 0 10-.193-.333L.506 4.496a.192.192 0 00.192.332zm1.081-.964L.787 3.6a.192.192 0 00-.1.37l.991.266a.192.192 0 00.1-.37zM1.543 4l-.266.992a.192.192 0 00.372.1l.265-.992a.192.192 0 00-.371-.1zm3.335-1.65l.266-.992a.192.192 0 00-.372-.099l-.265.991a.192.192 0 00.37.1zm-.235.136l.991.265a.192.192 0 00.1-.37l-.991-.266a.192.192 0 00-.1.37z" fill="#fff"/></svg>