<svg xmlns="http://www.w3.org/2000/svg" viewBox="0 0 6.35 6.35" height="24" width="24"><path d="M2.241 6.342c.062.033.128-.039.09-.098-.206-.32-.401-.86-.09-1.556.518-1.16.834-1.76.834-1.76s.168.701.623 1.324c.437.6.677 1.354.29 1.982-.036.06.028.129.09.097.478-.244 1.015-.735 1.075-1.712.023-.298-.01-.716-.178-1.243-.215-.669-.48-.98-.633-1.114a.068.068 0 00-.113.056c.044.72-.227.904-.381.491-.062-.164-.098-.45-.098-.796 0-.578-.167-1.172-.537-1.655a1.875 1.875 0 00-.337-.344.068.068 0 00-.11.06c.028.391.002 1.513-.982 2.854C.89 4.17 1.237 5.126 1.36 5.385c.234.496.562.787.881.957z" fill="#fff"/></svg>