<svg xmlns="http://www.w3.org/2000/svg" width="32" height="32"><path style="isolation:auto;mix-blend-mode:normal" d="M32 .801A.799.799 0 0 0 31.2 0H.8C.357 0 0 .357 0 .801v30.4c0 .442.357.799.8.799h30.4c.443 0 .8-.357.8-.799zm-2.08 1.44v3.36c0 .443-.357.8-.8.8H25.6a.799.799 0 0 1-.8-.8v-3.36c0-.445.357-.8.8-.8h3.52c.443 0 .8.355.8.8zm0 6.079v15.361a.797.797 0 0 1-.8.798H2.88a.797.797 0 0 1-.8-.798V8.32a.8.8 0 0 1 .8-.8h26.24a.8.8 0 0 1 .8.8zm0 18.24v3.36a.8.8 0 0 1-.8.801H25.6a.8.8 0 0 1-.8-.801v-3.36c0-.443.357-.8.8-.8h3.52c.443 0 .8.357.8.8zM22.347 2.241v3.36c0 .443-.357.8-.8.8h-3.52a.798.798 0 0 1-.8-.8v-3.36c0-.445.356-.8.8-.8h3.52c.443 0 .8.355.8.8zm0 24.319v3.36a.8.8 0 0 1-.8.801h-3.52a.799.799 0 0 1-.8-.801v-3.36c0-.443.356-.8.8-.8h3.52c.443 0 .8.357.8.8zM14.774 2.241v3.36c0 .443-.357.8-.801.8h-3.52a.799.799 0 0 1-.8-.8v-3.36c0-.445.357-.8.8-.8h3.52c.444 0 .801.355.801.8zm0 24.319v3.36a.8.8 0 0 1-.801.801h-3.52a.8.8 0 0 1-.8-.801v-3.36c0-.443.357-.8.8-.8h3.52c.444 0 .801.357.801.8zM7.2 2.241v3.36c0 .443-.356.8-.8.8H2.88a.799.799 0 0 1-.8-.8v-3.36c0-.445.357-.8.8-.8H6.4c.444 0 .8.355.8.8zm0 24.319v3.36a.799.799 0 0 1-.8.801H2.88a.8.8 0 0 1-.8-.801v-3.36c0-.443.357-.8.8-.8H6.4c.444 0 .8.357.8.8z" color="#000" overflow="visible" fill="#fff"/></svg>