<?xml version="1.0" encoding="UTF-8" standalone="no"?>
<svg
   xmlns:dc="http://purl.org/dc/elements/1.1/"
   xmlns:cc="http://creativecommons.org/ns#"
   xmlns:rdf="http://www.w3.org/1999/02/22-rdf-syntax-ns#"
   xmlns:svg="http://www.w3.org/2000/svg"
   xmlns="http://www.w3.org/2000/svg"
   version="1.1"
   id="svg15915"
   viewBox="0 0 32 32.000001"
   height="32"
   width="32">
  <defs
     id="defs15917" />
  <metadata
     id="metadata15920">
    <rdf:RDF>
      <cc:Work
         rdf:about="">
        <dc:format>image/svg+xml</dc:format>
        <dc:type
           rdf:resource="http://purl.org/dc/dcmitype/StillImage" />
        <dc:title></dc:title>
      </cc:Work>
    </rdf:RDF>
  </metadata>
  <g
     transform="translate(0,-1020.3622)"
     id="layer1">
    <path
       style="fill:#ffffff"
       d="m 29.897358,1033.7959 c -1.815325,-1.8218 -3.921233,-3.2421 -6.320988,-4.2575 -2.399755,-1.0154 -4.930109,-1.5215 -7.597592,-1.5215 -2.654423,0 -5.178248,0.5028 -7.5682077,1.5117 -2.3899603,1.0089 -4.4958679,2.4193 -6.3111929,4.2347 L -1.9e-7,1031.6639 c 2.09284769,-2.0863 4.51545769,-3.7123 7.26782989,-4.8746 2.7523723,-1.1656 5.6549333,-1.7468 8.7109483,-1.7468 3.069074,0 5.984695,0.5845 8.743597,1.7566 2.758903,1.1721 5.184777,2.8046 7.277625,4.8974 l -2.102642,2.0994 z m -4.250995,4.251 c -0.61708,-0.6236 -1.289665,-1.1819 -2.021019,-1.6782 -0.731354,-0.4963 -1.505152,-0.9174 -2.31813,-1.2635 -0.812979,-0.3461 -1.671667,-0.6138 -2.572799,-0.7999 -0.901133,-0.1862 -1.81859,-0.2808 -2.755637,-0.2808 -1.84471,0 -3.594736,0.3493 -5.253342,1.0513 -1.6586062,0.6987 -3.1180491,1.6814 -4.3717987,2.9417 l -2.2234466,-2.2234 c 1.5508621,-1.5444 3.3498623,-2.7491 5.3904704,-3.6111 2.0406079,-0.8619 4.1954899,-1.2929 6.4613819,-1.2929 2.278951,0 4.443628,0.4342 6.490766,1.306 2.047138,0.8685 3.849403,2.083 5.400265,3.6437 l -2.226711,2.2071 z m -4.045302,4.042 c -0.486481,-0.4864 -1.021936,-0.9011 -1.606367,-1.2472 -0.58443,-0.3461 -1.221099,-0.6138 -1.906744,-0.8064 -0.685644,-0.1894 -1.390878,-0.2873 -2.109172,-0.2873 -1.067646,0 -2.079788,0.2024 -3.03969,0.6072 -0.959902,0.4049 -1.80553,0.973 -2.540149,1.7011 l -2.0177535,-2.0178 c 0.9990817,-0.9925 2.1516175,-1.763 3.4576065,-2.3181 1.305989,-0.555 2.687073,-0.8326 4.143251,-0.8326 1.469237,0 2.860116,0.2808 4.172635,0.8424 1.312519,0.5616 2.46832,1.3419 3.467401,2.3377 l -2.021018,2.021 z m -5.583104,5.5929 -3.58494,-3.598 c 0.228548,-0.222 0.476686,-0.4211 0.744414,-0.604 0.267728,-0.1795 0.548515,-0.333 0.845628,-0.4636 0.297112,-0.1273 0.613815,-0.2253 0.946842,-0.2906 0.333027,-0.065 0.669319,-0.098 1.008877,-0.098 0.692174,0 1.348434,0.1306 1.965513,0.395 0.61708,0.2645 1.155801,0.6302 1.622692,1.1003 l -3.549026,3.5588 z"
       id="path32460" />
  </g>
</svg>
