<?xml version="1.0" encoding="UTF-8" standalone="no"?>
<svg
   xmlns:dc="http://purl.org/dc/elements/1.1/"
   xmlns:cc="http://creativecommons.org/ns#"
   xmlns:rdf="http://www.w3.org/1999/02/22-rdf-syntax-ns#"
   xmlns:svg="http://www.w3.org/2000/svg"
   xmlns="http://www.w3.org/2000/svg"
   version="1.1"
   id="svg15966"
   viewBox="0 0 32 32.000001"
   height="32"
   width="32">
  <defs
     id="defs15968" />
  <metadata
     id="metadata15971">
    <rdf:RDF>
      <cc:Work
         rdf:about="">
        <dc:format>image/svg+xml</dc:format>
        <dc:type
           rdf:resource="http://purl.org/dc/dcmitype/StillImage" />
        <dc:title></dc:title>
      </cc:Work>
    </rdf:RDF>
  </metadata>
  <g
     transform="translate(0,-1020.3622)"
     id="layer1">
    <g
       transform="matrix(0.70747881,0,0,0.70747881,-662.71504,-1311.0807)"
       id="g52387">
      <g
         id="g32476"
         transform="matrix(0.04614941,0,0,0.04614941,936.26627,3294.9651)"
         style="fill:#ffffff">
        <path
           style="fill:#ffffff"
           d="M 925.7,421.4 C 870.1,365.6 805.6,322.1 732.1,291 c -73.5,-31.1 -151,-46.6 -232.7,-46.6 -81.3,0 -158.6,15.4 -231.8,46.3 -73.2,30.9 -137.7,74.1 -193.3,129.7 L 10,356.1 c 64.1,-63.9 138.3,-113.7 222.6,-149.3 84.3,-35.7 173.2,-53.5 266.8,-53.5 94,0 183.3,17.9 267.8,53.8 84.5,35.9 158.8,85.9 222.9,150 z M 795.5,551.6 C 776.6,532.5 756,515.4 733.6,500.2 711.2,485 687.5,472.1 662.6,461.5 637.7,450.9 611.4,442.7 583.8,437 c -27.6,-5.7 -55.7,-8.6 -84.4,-8.6 -56.5,0 -160.9,32.2 -160.9,32.2 l -74.82031,-66.93125 c 0,0 71.61953,-63.97734 235.82031,-61.26875 69.79051,1.15124 136.1,13.3 198.8,40 C 761,399 816.2,436.2 863.7,484 Z M 671.6,675.4 C 656.7,660.5 640.3,647.8 622.4,637.2 604.5,626.6 585,618.4 564,612.5 c -21,-5.8 -42.6,-8.8 -64.6,-8.8 -32.7,0 -93.1,18.6 -93.1,18.6 l -33.7,-80.7 c 0,0 82.3,-25.5 126.9,-25.5 45,0 87.6,8.6 127.8,25.8 40.2,17.2 75.6,41.1 106.2,71.6 z M 500.6,846.7 390.8,736.5 c 7,-6.8 14.6,-12.9 22.8,-18.5 8.2,-5.5 16.8,-10.2 25.9,-14.2 9.1,-3.9 18.8,-6.9 29,-8.9 10.2,-2 20.5,-3 30.9,-3 21.2,0 41.3,4 60.2,12.1 18.9,8.1 35.4,19.3 49.7,33.7 z"
           id="path32480" />
      </g>
      <path
         id="rect52322"
         transform="matrix(1.4134699,0,0,1.4134699,936.72776,3295.4244)"
         d="M 6.8300781 13.628906 C 5.8379169 13.667818 4.9381407 14.201367 4.3535156 15.046875 C 3.7875325 15.865422 3.4993495 16.964716 3.5292969 18.248047 L 3.5195312 18.248047 L 3.5195312 23.6875 L 10.511719 23.6875 L 10.511719 18.248047 L 10.5 18.248047 A 0.67999576 0.67999576 0 0 0 10.462891 17.871094 C 10.374725 16.641496 10.02185 15.593225 9.4121094 14.845703 C 8.7623255 14.049153 7.8221049 13.589995 6.8300781 13.628906 z M 6.8847656 14.986328 C 7.4439993 14.964396 7.9369035 15.189609 8.3574219 15.705078 C 8.7779331 16.220618 9.0987074 17.045309 9.1425781 18.150391 L 9.1464844 18.248047 L 4.8867188 18.248047 C 4.8565248 17.178385 5.1026985 16.355338 5.4726562 15.820312 C 5.8509098 15.273219 6.3256805 15.008401 6.8847656 14.986328 z "
         style="fill:#ffffff;fill-opacity:1;stroke:none" />
    </g>
  </g>
</svg>
