<?xml version="1.0" encoding="UTF-8" standalone="no"?>
<svg
   xmlns:dc="http://purl.org/dc/elements/1.1/"
   xmlns:cc="http://creativecommons.org/ns#"
   xmlns:rdf="http://www.w3.org/1999/02/22-rdf-syntax-ns#"
   xmlns:svg="http://www.w3.org/2000/svg"
   xmlns="http://www.w3.org/2000/svg"
   version="1.1"
   id="svg16389"
   viewBox="0 0 32 32.000001"
   height="32"
   width="32">
  <defs
     id="defs16391">
    <clipPath
       clipPathUnits="userSpaceOnUse"
       id="clipPath27913">
      <rect
         style="opacity:1;fill:#ff0000;fill-opacity:1;stroke:#ff0000;stroke-width:1;stroke-miterlimit:3.73333335;stroke-dasharray:none;stroke-opacity:1"
         id="rect27915"
         width="10.050467"
         height="28.019884"
         x="14447.59"
         y="-16995.246" />
    </clipPath>
  </defs>
  <metadata
     id="metadata16394">
    <rdf:RDF>
      <cc:Work
         rdf:about="">
        <dc:format>image/svg+xml</dc:format>
        <dc:type
           rdf:resource="http://purl.org/dc/dcmitype/StillImage" />
        <dc:title></dc:title>
      </cc:Work>
    </rdf:RDF>
  </metadata>
  <path
     id="path21661-3-6-4"
     d="m 23.529384,14.431044 c 0,-3.828235 -2.070589,-7.0898824 -5.647059,-7.9058824 V 5.6465733 c 0,-1.0658823 -0.815059,-1.8818823 -1.881883,-1.8818823 -1.066353,0 -1.882353,0.816 -1.882353,1.8818823 V 6.5251616 C 10.541619,7.4037498 8.4719717,10.602809 8.4719717,14.431044 v 6.273882 l -2.5105883,2.509647 v 1.254589 H 26.039031 v -1.254589 l -2.509647,-2.509647 z m -7.528942,13.802824 c 0.188236,0 0.313883,0 0.501647,-0.06118 0.816,-0.189176 1.505883,-0.753412 1.819765,-1.505882 0.125647,-0.313883 0.188235,-0.627765 0.188235,-1.003765 h -5.019294 c 0,1.442824 1.129412,2.572235 2.509647,2.572235 z"
     class="st1"
     style="fill:#ffffff;fill-opacity:1;stroke-width:0.50977206" />
</svg>
