<?xml version="1.0" encoding="UTF-8" standalone="no"?>
<svg
   xmlns:dc="http://purl.org/dc/elements/1.1/"
   xmlns:cc="http://creativecommons.org/ns#"
   xmlns:rdf="http://www.w3.org/1999/02/22-rdf-syntax-ns#"
   xmlns:svg="http://www.w3.org/2000/svg"
   xmlns="http://www.w3.org/2000/svg"
   id="svg20491"
   version="1.1"
   viewBox="0 0 8.4666665 8.4666669"
   height="32"
   width="32">
  <defs
     id="defs20485" />
  <metadata
     id="metadata20488">
    <rdf:RDF>
      <cc:Work
         rdf:about="">
        <dc:format>image/svg+xml</dc:format>
        <dc:type
           rdf:resource="http://purl.org/dc/dcmitype/StillImage" />
        <dc:title></dc:title>
      </cc:Work>
    </rdf:RDF>
  </metadata>
  <g
     transform="translate(0,-288.53331)"
     id="layer1">
    <path
       style="fill:#5d9bc7;fill-opacity:1;stroke:none;stroke-width:0.28930122"
       d="m 1.8687876,292.26347 h 4.729091 v 3.67818 h -4.729091 z"
       id="rect20354" />
    <path
       style="color:#000000;font-style:normal;font-variant:normal;font-weight:normal;font-stretch:normal;font-size:medium;line-height:normal;font-family:sans-serif;font-variant-ligatures:normal;font-variant-position:normal;font-variant-caps:normal;font-variant-numeric:normal;font-variant-alternates:normal;font-feature-settings:normal;text-indent:0;text-align:start;text-decoration:none;text-decoration-line:none;text-decoration-style:solid;text-decoration-color:#000000;letter-spacing:normal;word-spacing:normal;text-transform:none;writing-mode:lr-tb;direction:ltr;text-orientation:mixed;dominant-baseline:auto;baseline-shift:baseline;text-anchor:start;white-space:normal;shape-padding:0;clip-rule:nonzero;display:inline;overflow:visible;visibility:visible;opacity:1;isolation:auto;mix-blend-mode:normal;color-interpolation:sRGB;color-interpolation-filters:linearRGB;solid-color:#000000;solid-opacity:1;vector-effect:none;fill:#5d9bc7;fill-opacity:1;fill-rule:nonzero;stroke:none;stroke-width:0.84867138;stroke-linecap:round;stroke-linejoin:miter;stroke-miterlimit:4;stroke-dasharray:none;stroke-dashoffset:0;stroke-opacity:1;color-rendering:auto;image-rendering:auto;shape-rendering:auto;text-rendering:auto;enable-background:accumulate"
       d="m 4.2330163,289.59165 c -0.6058444,0 -1.1625097,0.32443 -1.5291905,0.84395 -0.3666809,0.51953 -0.5673877,1.22688 -0.5673877,2.06997 a 0.42437813,0.42437813 0 1 0 0.8487055,0 c 0,-0.70638 0.1738484,-1.24242 0.4124728,-1.58051 0.2386244,-0.33809 0.5176115,-0.4847 0.8353999,-0.4847 0.3177885,0 0.5977259,0.14661 0.8363504,0.4847 0.2386243,0.33809 0.4124727,0.87413 0.4124727,1.58051 a 0.42437813,0.42437813 0 1 0 0.8487055,0 c 0,-0.84309 -0.2016572,-1.55044 -0.568338,-2.06997 -0.3666809,-0.51952 -0.9233462,-0.84395 -1.5291906,-0.84395 z"
       id="path20363" />
  </g>
</svg>
