<?xml version="1.0" encoding="UTF-8" standalone="no"?>
<svg
   xmlns:dc="http://purl.org/dc/elements/1.1/"
   xmlns:cc="http://creativecommons.org/ns#"
   xmlns:rdf="http://www.w3.org/1999/02/22-rdf-syntax-ns#"
   xmlns:svg="http://www.w3.org/2000/svg"
   xmlns="http://www.w3.org/2000/svg"
   id="svg20491"
   version="1.1"
   viewBox="0 0 8.4666665 8.4666669"
   height="32"
   width="32">
  <defs
     id="defs20485" />
  <metadata
     id="metadata20488">
    <rdf:RDF>
      <cc:Work
         rdf:about="">
        <dc:format>image/svg+xml</dc:format>
        <dc:type
           rdf:resource="http://purl.org/dc/dcmitype/StillImage" />
        <dc:title></dc:title>
      </cc:Work>
    </rdf:RDF>
  </metadata>
  <g
     transform="translate(0,-288.53331)"
     id="layer1">
    <g
       transform="matrix(0.74994213,0,0,0.74994213,2.6732121,77.949785)"
       id="g21112">
      <path
         style="fill:#ffffff;fill-opacity:1;stroke:none;stroke-width:0.38572028"
         d="M 0.60152251,285.7742 H 6.9067374 v 4.90406 H 0.60152251 Z"
         id="rect18418-8-3" />
      <path
         style="color:#000000;font-style:normal;font-variant:normal;font-weight:normal;font-stretch:normal;font-size:medium;line-height:normal;font-family:sans-serif;font-variant-ligatures:normal;font-variant-position:normal;font-variant-caps:normal;font-variant-numeric:normal;font-variant-alternates:normal;font-feature-settings:normal;text-indent:0;text-align:start;text-decoration:none;text-decoration-line:none;text-decoration-style:solid;text-decoration-color:#000000;letter-spacing:normal;word-spacing:normal;text-transform:none;writing-mode:lr-tb;direction:ltr;text-orientation:mixed;dominant-baseline:auto;baseline-shift:baseline;text-anchor:start;white-space:normal;shape-padding:0;clip-rule:nonzero;display:inline;overflow:visible;visibility:visible;opacity:1;isolation:auto;mix-blend-mode:normal;color-interpolation:sRGB;color-interpolation-filters:linearRGB;solid-color:#000000;solid-opacity:1;vector-effect:none;fill:#ffffff;fill-opacity:1;fill-rule:nonzero;stroke:none;stroke-width:1.13151884;stroke-linecap:round;stroke-linejoin:miter;stroke-miterlimit:4;stroke-dasharray:none;stroke-dashoffset:0;stroke-opacity:1;color-rendering:auto;image-rendering:auto;shape-rendering:auto;text-rendering:auto;enable-background:accumulate"
         d="m 0.05078125,282.21094 c -0.80774895,0 -1.55015335,0.4323 -2.03906245,1.125 -0.4889092,0.69269 -0.7578125,1.63764 -0.7578126,2.76172 a 0.5664063,0.5664063 0 1 0 1.1328126,0 c 0,-0.94177 0.2306362,-1.65856 0.5488281,-2.10938 0.31819183,-0.45082 0.6916284,-0.64453 1.11523435,-0.64453 0.42360595,0 0.7950894,0.19371 1.11328125,0.64453 0.3181919,0.45082 0.5507813,1.16761 0.5507813,2.10938 a 0.565816,0.565816 0 1 0 1.1308593,0 c 0,-1.12408 -0.2669502,-2.06903 -0.7558593,-2.76172 -0.4889092,-0.6927 -1.2313136,-1.125 -2.03906255,-1.125 z"
         id="path18420-1-5" />
    </g>
  </g>
</svg>
