<?xml version="1.0" encoding="UTF-8" standalone="no"?>
<svg
   xmlns:dc="http://purl.org/dc/elements/1.1/"
   xmlns:cc="http://creativecommons.org/ns#"
   xmlns:rdf="http://www.w3.org/1999/02/22-rdf-syntax-ns#"
   xmlns:svg="http://www.w3.org/2000/svg"
   xmlns="http://www.w3.org/2000/svg"
   width="32"
   height="32"
   viewBox="0 0 8.4666665 8.4666669"
   version="1.1"
   id="svg20491">
  <defs
     id="defs20485" />
  <metadata
     id="metadata20488">
    <rdf:RDF>
      <cc:Work
         rdf:about="">
        <dc:format>image/svg+xml</dc:format>
        <dc:type
           rdf:resource="http://purl.org/dc/dcmitype/StillImage" />
        <dc:title></dc:title>
      </cc:Work>
    </rdf:RDF>
  </metadata>
  <path
     id="rect18418-8-3"
     d="M 3.1243192,3.7305922 H 7.8528655 V 7.4083534 H 3.1243192 Z"
     style="fill:#5d9bc7;fill-opacity:1;stroke:none;stroke-width:0.2892679" />
  <path
     id="path18420-1-5"
     d="m 2.7112951,1.0583535 c -0.605765,0 -1.1625253,0.3241999 -1.5291788,0.8436848 C 0.81546266,2.4215158 0.61380074,3.1301736 0.61380067,3.9731685 a 0.42477196,0.42477196 0 1 0 0.84954393,0 c 0,-0.706273 0.1729638,-1.243824 0.4115893,-1.5819129 0.2386254,-0.3380889 0.5186813,-0.4833602 0.8363612,-0.4833602 0.3176799,0 0.596271,0.1452713 0.8348965,0.4833602 0.2386255,0.3380889 0.4130541,0.8756399 0.4130541,1.5819129 a 0.42432926,0.42432926 0 1 0 0.848079,0 C 4.8073247,3.1301736 4.6071275,2.4215158 4.240474,1.9020383 3.8738204,1.3825534 3.3170601,1.0583535 2.7112951,1.0583535 Z"
     style="color:#000000;font-style:normal;font-variant:normal;font-weight:normal;font-stretch:normal;font-size:medium;line-height:normal;font-family:sans-serif;font-variant-ligatures:normal;font-variant-position:normal;font-variant-caps:normal;font-variant-numeric:normal;font-variant-alternates:normal;font-feature-settings:normal;text-indent:0;text-align:start;text-decoration:none;text-decoration-line:none;text-decoration-style:solid;text-decoration-color:#000000;letter-spacing:normal;word-spacing:normal;text-transform:none;writing-mode:lr-tb;direction:ltr;text-orientation:mixed;dominant-baseline:auto;baseline-shift:baseline;text-anchor:start;white-space:normal;shape-padding:0;clip-rule:nonzero;display:inline;overflow:visible;visibility:visible;opacity:1;isolation:auto;mix-blend-mode:normal;color-interpolation:sRGB;color-interpolation-filters:linearRGB;solid-color:#000000;solid-opacity:1;vector-effect:none;fill:#5d9bc7;fill-opacity:1;fill-rule:nonzero;stroke:none;stroke-width:0.84857363;stroke-linecap:round;stroke-linejoin:miter;stroke-miterlimit:4;stroke-dasharray:none;stroke-dashoffset:0;stroke-opacity:1;color-rendering:auto;image-rendering:auto;shape-rendering:auto;text-rendering:auto;enable-background:accumulate" />
</svg>
