<?xml version="1.0" encoding="UTF-8" standalone="no"?>
<!-- Created with Inkscape (http://www.inkscape.org/) -->

<svg
   width="32"
   height="32"
   viewBox="0 0 8.4666665 8.4666667"
   version="1.1"
   id="svg1"
   xmlns="http://www.w3.org/2000/svg"
   xmlns:svg="http://www.w3.org/2000/svg">
  <defs
     id="defs1" />
  <g
     id="layer1">
    <path
       style="fill:#5d9bc7;fill-opacity:1;stroke:none;stroke-width:0.203554;stroke-miterlimit:4;stroke-dasharray:none;stroke-opacity:1"
       d="M 4.2459401,2.6845958 C 4.0335713,2.6756098 3.8436675,2.8304683 3.8325848,3.0437356 3.8206035,3.2570029 3.9778582,3.4478053 4.190227,3.458888 4.4022962,3.4828507 4.5922,3.3130156 4.6032827,3.1000478 4.615264,2.8867804 4.4583088,2.695978 4.2459401,2.6845958 Z m -0.014977,0.8617558 c -0.00599,0 -0.014977,0 -0.020967,0 -0.037741,-0.00599 -0.08986,0 -0.1479692,0.014977 -0.061105,0.014977 -0.1144215,0.03834 -0.1521626,0.062902 -0.035045,0.014977 -0.068893,0.039838 -0.097947,0.072487 l -0.5855868,0.663165 c -0.00599,0.00599 -0.00899,0.011981 -0.011981,0.017972 -0.042833,0.039838 -0.068593,0.1057351 -0.064699,0.1833141 l 0.020967,0.4469029 c 0.00599,0.1317944 0.094353,0.2441192 0.1973921,0.2522066 0.1033388,0.00599 0.1812173,-0.091058 0.1749271,-0.223152 L 3.5219693,4.5971126 3.7876549,4.2963817 3.7786689,5.162331 c -0.00599,0.041934 -0.014977,0.1039378 -0.017972,0.1773234 0,0.020967 0,0.033548 0,0.052418 -0.00599,0.023963 -0.014977,0.047326 -0.017972,0.072487 L 3.4977072,6.9882828 c -0.03175,0.1979911 0.05751,0.3831024 0.2000879,0.4151524 0.142278,0.03205 0.2824594,-0.1015416 0.3145094,-0.2995328 L 4.2144891,5.8446666 4.4169733,7.1036029 c 0.03205,0.1982907 0.1725309,0.3315828 0.3151085,0.2995328 0.1425776,-0.03205 0.2318383,-0.2168618 0.2000879,-0.4148529 L 4.6868523,5.4645595 c -0.003,-0.023963 -0.00899,-0.043432 -0.014977,-0.0641 0,-0.020967 0,-0.035944 -0.00599,-0.059008 -0.00599,-0.047925 -0.011981,-0.085067 -0.020967,-0.1213108 0,-0.011981 0.003,-0.023963 0.003,-0.035944 l 0.00899,-0.9225609 0.2905468,0.3285874 -0.020967,0.4454053 c -0.00599,0.1314949 0.071888,0.2309398 0.1749272,0.2231519 0.1030393,-0.00599 0.1914014,-0.1210112 0.1973921,-0.2525061 l 0.020967,-0.4472025 c 0,-0.00899 0,-0.017972 0,-0.026958 0,-0.00599 0,-0.00599 0,-0.014977 0,-0.00899 0,-0.017972 -0.00599,-0.029953 0,-0.003 0,-0.00599 0,-0.00899 0,-0.014977 -0.00899,-0.026958 -0.011981,-0.037442 0,0 0,0 0,0 0,0 0,0 0,0 -0.003,-0.00899 -0.00899,-0.017972 -0.011981,-0.023963 -0.00899,-0.017972 -0.023963,-0.037142 -0.037442,-0.053916 L 4.6664841,3.6991133 C 4.6395261,3.6673628 4.6056789,3.6439993 4.5715322,3.6278245 4.5337911,3.6038619 4.4798752,3.5795997 4.4175723,3.564024 4.3576658,3.5490474 4.304349,3.5460521 4.2663083,3.5520427 c -0.00899,0 -0.020967,-0.003 -0.03205,-0.003 z"
       id="path35" />
    <path
       style="baseline-shift:baseline;display:inline;overflow:visible;vector-effect:none;fill:#5d9bc7;stroke-miterlimit:10;enable-background:accumulate;stop-color:#000000;stop-opacity:1;opacity:1"
       d="M 2.0605469,2.8808594 1.90625,3.1992188 C 2.4450555,3.4602511 3.0276003,3.6299749 3.6425781,3.6953125 L 3.6816406,3.3417969 C 3.1068742,3.2807315 2.5629174,3.1242402 2.0605469,2.8808594 Z m 4.3398437,0 C 5.9167679,3.1236754 5.3609966,3.2812591 4.7773437,3.3417969 l 0.037109,0.3535156 C 5.4379175,3.6306454 6.0347442,3.4612592 6.5605469,3.1972656 Z"
       id="path36" />
    <path
       style="baseline-shift:baseline;display:inline;overflow:visible;vector-effect:none;fill:#5d9bc7;stroke-miterlimit:10;enable-background:accumulate;stop-color:#000000;stop-opacity:1;opacity:1"
       d="m 6.9941406,3.8964844 c -0.4848639,0.2344237 -1.0063144,0.4099515 -1.5625,0.5136718 l 0.064453,0.3496094 C 6.0835244,4.6502186 6.6358573,4.464621 7.1484375,4.2167969 Z M 1.4726562,3.9003906 1.3183594,4.21875 C 1.8269441,4.4647302 2.3744761,4.6499018 2.9570313,4.7597656 L 3.0234375,4.4101562 C 2.4719614,4.3061536 1.9537277,4.1330639 1.4726562,3.9003906 Z"
       id="path37" />
    <path
       style="baseline-shift:baseline;display:inline;overflow:visible;vector-effect:none;fill:#5d9bc7;stroke-miterlimit:10;enable-background:accumulate;stop-color:#000000;stop-opacity:1;opacity:1"
       d="M 2.6601563,1.9179687 2.5273438,2.2460938 c 0.5204331,0.2120514 1.0953462,0.3242187 1.7050781,0.3242187 0.6094433,0 1.2007716,-0.1103596 1.7070312,-0.3242187 L 5.8007812,1.9199219 c -0.4552407,0.1923072 -1.0024361,0.296875 -1.5683593,0.296875 -0.566234,0 -1.0958536,-0.1047132 -1.5722656,-0.2988282 z"
       id="path38" />
    <path
       id="circle38"
       style="fill:#5d9bc7;stroke-width:0.236524;stroke-linecap:round;stroke-linejoin:round"
       d="M 4.4697309,1.2949182 A 0.23652557,0.23652557 0 0 1 4.2332053,1.5314437 0.23652557,0.23652557 0 0 1 3.9966798,1.2949182 0.23652557,0.23652557 0 0 1 4.2332053,1.0583926 0.23652557,0.23652557 0 0 1 4.4697309,1.2949182 Z" />
  </g>
</svg>
