<?xml version="1.0" encoding="UTF-8" standalone="no"?>
<svg
   xmlns:dc="http://purl.org/dc/elements/1.1/"
   xmlns:cc="http://creativecommons.org/ns#"
   xmlns:rdf="http://www.w3.org/1999/02/22-rdf-syntax-ns#"
   xmlns:svg="http://www.w3.org/2000/svg"
   xmlns="http://www.w3.org/2000/svg"
   version="1.1"
   id="svg16389"
   viewBox="0 0 32 32.000001"
   height="32"
   width="32">
  <defs
     id="defs16391">
    <clipPath
       clipPathUnits="userSpaceOnUse"
       id="clipPath27913">
      <rect
         style="opacity:1;fill:#ff0000;fill-opacity:1;stroke:#ff0000;stroke-width:1;stroke-miterlimit:3.73333335;stroke-dasharray:none;stroke-opacity:1"
         id="rect27915"
         width="10.050467"
         height="28.019884"
         x="14447.59"
         y="-16995.246" />
    </clipPath>
  </defs>
  <metadata
     id="metadata16394">
    <rdf:RDF>
      <cc:Work
         rdf:about="">
        <dc:format>image/svg+xml</dc:format>
        <dc:type
           rdf:resource="http://purl.org/dc/dcmitype/StillImage" />
        <dc:title></dc:title>
      </cc:Work>
    </rdf:RDF>
  </metadata>
  <g
     transform="matrix(2.1647901,0,0,2.1647901,-18.632775,-41.988252)"
     id="g28323">
    <g
       transform="matrix(0.53332547,0,0,0.53332547,-14701.118,9024.4019)"
       id="g26469">
      <path
         id="path20147-1-3-6-9"
         d="m 27581.746,-16880.541 a 0.63529627,0.63529627 0 0 0 -0.223,1.217 c 0.863,0.396 2.146,0.631 3.241,0.99 0.547,0.18 1.035,0.386 1.34,0.594 0.252,0.172 0.293,0.288 0.322,0.404 -0.07,0.06 -0.154,0.123 -0.303,0.207 -0.372,0.21 -0.932,0.454 -1.502,0.707 -0.57,0.254 -1.151,0.516 -1.631,0.83 -0.24,0.157 -0.458,0.325 -0.638,0.549 -0.181,0.224 -0.332,0.542 -0.299,0.897 0.03,0.353 0.215,0.547 0.381,0.708 0.165,0.162 0.352,0.296 0.562,0.432 0.42,0.271 0.932,0.538 1.436,0.803 0.503,0.265 1,0.527 1.351,0.754 0.176,0.113 0.315,0.218 0.389,0.289 0.07,0.07 0.05,0.108 0.03,-0.02 0.06,0.334 -0.02,0.505 -0.246,0.752 -0.23,0.248 -0.637,0.502 -1.09,0.725 -0.452,0.222 -0.941,0.417 -1.359,0.633 -0.209,0.108 -0.403,0.219 -0.584,0.38 -0.181,0.162 -0.387,0.426 -0.387,0.782 a 0.63529627,0.63529627 0 0 0 1.254,0.152 c 0.05,-0.04 0.146,-0.107 0.299,-0.186 0.328,-0.169 0.828,-0.37 1.338,-0.621 0.51,-0.251 1.04,-0.549 1.459,-1 0.418,-0.45 0.7,-1.122 0.566,-1.847 -0.06,-0.329 -0.235,-0.513 -0.404,-0.674 -0.17,-0.162 -0.364,-0.299 -0.578,-0.438 -0.429,-0.276 -0.944,-0.545 -1.448,-0.81 -0.504,-0.265 -0.997,-0.527 -1.337,-0.746 -0.136,-0.09 -0.218,-0.156 -0.29,-0.217 0.06,-0.06 0.144,-0.143 0.29,-0.238 0.349,-0.229 0.893,-0.484 1.453,-0.733 0.559,-0.249 1.133,-0.492 1.607,-0.759 0.237,-0.134 0.45,-0.271 0.639,-0.454 0.188,-0.182 0.391,-0.458 0.375,-0.836 -0.03,-0.65 -0.458,-1.149 -0.94,-1.478 -0.481,-0.329 -1.059,-0.555 -1.66,-0.752 -1.202,-0.394 -2.551,-0.683 -3.105,-0.938 a 0.63529627,0.63529627 0 0 0 -0.309,-0.06 z"
         style="color:#000000;font-style:normal;font-variant:normal;font-weight:normal;font-stretch:normal;font-size:medium;line-height:normal;font-family:sans-serif;font-variant-ligatures:normal;font-variant-position:normal;font-variant-caps:normal;font-variant-numeric:normal;font-variant-alternates:normal;font-feature-settings:normal;text-indent:0;text-align:start;text-decoration:none;text-decoration-line:none;text-decoration-style:solid;text-decoration-color:#000000;letter-spacing:normal;word-spacing:normal;text-transform:none;writing-mode:lr-tb;direction:ltr;text-orientation:mixed;dominant-baseline:auto;baseline-shift:baseline;text-anchor:start;white-space:normal;shape-padding:0;clip-rule:nonzero;display:inline;overflow:visible;visibility:visible;opacity:1;isolation:auto;mix-blend-mode:normal;color-interpolation:sRGB;color-interpolation-filters:linearRGB;solid-color:#000000;solid-opacity:1;vector-effect:none;fill:#ffffff;fill-opacity:1;fill-rule:nonzero;stroke:none;stroke-width:1.27046549;stroke-linecap:round;stroke-linejoin:miter;stroke-miterlimit:4;stroke-dasharray:none;stroke-dashoffset:0;stroke-opacity:1;color-rendering:auto;image-rendering:auto;shape-rendering:auto;text-rendering:auto;enable-background:accumulate" />
      <path
         id="path20149-5-9-2-6"
         d="m 27590.193,-16880.004 a 0.63529627,0.63529627 0 0 0 -0.203,1.233 c 0.925,0.35 1.832,0.483 2.418,0.693 0.293,0.105 0.491,0.222 0.6,0.336 0.09,0.09 0.119,0.222 0.144,0.387 -0.06,0.06 -0.169,0.134 -0.332,0.226 -0.372,0.21 -0.93,0.454 -1.5,0.707 -0.57,0.254 -1.151,0.516 -1.631,0.83 -0.239,0.157 -0.457,0.325 -0.638,0.549 -0.181,0.224 -0.332,0.542 -0.299,0.897 0.03,0.353 0.215,0.547 0.381,0.708 0.165,0.162 0.352,0.296 0.562,0.432 0.42,0.271 0.932,0.538 1.436,0.803 0.504,0.265 1,0.527 1.351,0.754 0.176,0.113 0.315,0.218 0.389,0.289 0.07,0.07 0.05,0.108 0.03,-0.02 0.06,0.333 -0.02,0.505 -0.246,0.752 -0.23,0.248 -0.637,0.502 -1.09,0.725 -0.452,0.222 -0.94,0.417 -1.359,0.633 -0.209,0.108 -0.405,0.219 -0.586,0.38 -0.181,0.162 -0.385,0.426 -0.385,0.782 v 0 0 c 0,0.338 0.181,0.606 0.358,0.785 0.176,0.179 0.373,0.308 0.586,0.431 0.424,0.247 0.922,0.463 1.392,0.696 0.471,0.232 0.909,0.484 1.172,0.722 0.263,0.238 0.33,0.38 0.309,0.574 0,0.04 -0.06,0.15 -0.352,0.327 -0.291,0.176 -0.744,0.361 -1.222,0.556 -0.479,0.196 -0.986,0.402 -1.432,0.701 -0.446,0.3 -0.875,0.748 -0.945,1.375 a 0.63542309,0.63542309 0 1 0 1.263,0.141 c 0.01,-0.13 0.102,-0.267 0.391,-0.461 0.289,-0.194 0.733,-0.388 1.203,-0.58 0.47,-0.192 0.964,-0.382 1.4,-0.646 0.437,-0.265 0.891,-0.661 0.957,-1.276 0.07,-0.678 -0.288,-1.261 -0.72,-1.652 -0.432,-0.391 -0.956,-0.67 -1.461,-0.92 -0.505,-0.25 -0.995,-0.467 -1.317,-0.654 -0.07,-0.04 -0.08,-0.06 -0.134,-0.1 0.04,-0.03 0.05,-0.04 0.105,-0.06 0.328,-0.169 0.828,-0.37 1.338,-0.621 0.51,-0.251 1.04,-0.549 1.459,-1 0.419,-0.45 0.701,-1.122 0.566,-1.847 -0.06,-0.329 -0.236,-0.513 -0.406,-0.674 -0.169,-0.162 -0.362,-0.299 -0.576,-0.438 -0.429,-0.276 -0.945,-0.545 -1.449,-0.81 -0.504,-0.265 -0.996,-0.527 -1.336,-0.746 -0.135,-0.09 -0.218,-0.156 -0.289,-0.217 0.06,-0.06 0.143,-0.143 0.289,-0.238 0.349,-0.229 0.893,-0.484 1.453,-0.733 0.56,-0.249 1.133,-0.492 1.607,-0.759 0.237,-0.134 0.451,-0.27 0.639,-0.454 0.188,-0.183 0.392,-0.458 0.375,-0.836 v 0 c -0.02,-0.518 -0.221,-0.986 -0.533,-1.311 -0.312,-0.325 -0.699,-0.511 -1.09,-0.65 -0.781,-0.28 -1.642,-0.401 -2.395,-0.686 a 0.63529627,0.63529627 0 0 0 -0.248,-0.05 z"
         style="color:#000000;font-style:normal;font-variant:normal;font-weight:normal;font-stretch:normal;font-size:medium;line-height:normal;font-family:sans-serif;font-variant-ligatures:normal;font-variant-position:normal;font-variant-caps:normal;font-variant-numeric:normal;font-variant-alternates:normal;font-feature-settings:normal;text-indent:0;text-align:start;text-decoration:none;text-decoration-line:none;text-decoration-style:solid;text-decoration-color:#000000;letter-spacing:normal;word-spacing:normal;text-transform:none;writing-mode:lr-tb;direction:ltr;text-orientation:mixed;dominant-baseline:auto;baseline-shift:baseline;text-anchor:start;white-space:normal;shape-padding:0;clip-rule:nonzero;display:inline;overflow:visible;visibility:visible;opacity:1;isolation:auto;mix-blend-mode:normal;color-interpolation:sRGB;color-interpolation-filters:linearRGB;solid-color:#000000;solid-opacity:1;vector-effect:none;fill:#ffffff;fill-opacity:1;fill-rule:nonzero;stroke:none;stroke-width:1.27046549;stroke-linecap:round;stroke-linejoin:miter;stroke-miterlimit:4;stroke-dasharray:none;stroke-dashoffset:0;stroke-opacity:1;color-rendering:auto;image-rendering:auto;shape-rendering:auto;text-rendering:auto;enable-background:accumulate" />
      <path
         id="path25883-4-1-4"
         d="m 27596.146,-16880.541 a 0.63529627,0.63529627 0 0 0 -0.22,1.217 c 0.862,0.396 2.146,0.631 3.24,0.99 0.547,0.18 1.034,0.386 1.338,0.594 0.252,0.172 0.293,0.288 0.322,0.404 -0.07,0.06 -0.153,0.123 -0.303,0.207 -0.372,0.21 -0.93,0.454 -1.5,0.707 -0.57,0.254 -1.153,0.516 -1.632,0.83 -0.24,0.157 -0.458,0.325 -0.639,0.549 -0.181,0.224 -0.332,0.542 -0.299,0.897 0.03,0.353 0.216,0.547 0.381,0.708 0.165,0.162 0.354,0.296 0.564,0.432 0.42,0.271 0.93,0.538 1.434,0.803 0.504,0.265 1.001,0.527 1.352,0.754 0.175,0.113 0.314,0.218 0.388,0.289 0.07,0.07 0.05,0.108 0.03,-0.02 0.06,0.334 -0.02,0.505 -0.247,0.752 -0.229,0.248 -0.637,0.502 -1.089,0.725 -0.453,0.222 -0.941,0.417 -1.36,0.633 -0.209,0.108 -0.402,0.219 -0.584,0.38 -0.181,0.162 -0.385,0.426 -0.385,0.782 v 0 0 c 0,0.338 0.181,0.605 0.358,0.785 0.176,0.179 0.374,0.308 0.586,0.431 0.424,0.248 0.92,0.463 1.39,0.696 0.471,0.232 0.909,0.484 1.172,0.722 0.263,0.238 0.33,0.38 0.309,0.574 0,0.04 -0.06,0.15 -0.35,0.327 -0.291,0.176 -0.744,0.361 -1.222,0.556 -0.479,0.196 -0.986,0.402 -1.432,0.701 -0.446,0.3 -0.875,0.748 -0.945,1.375 a 0.63529627,0.63529627 0 1 0 1.261,0.141 c 0.01,-0.13 0.104,-0.267 0.393,-0.461 0.289,-0.194 0.733,-0.388 1.203,-0.58 0.47,-0.192 0.964,-0.382 1.4,-0.646 0.437,-0.265 0.889,-0.66 0.956,-1.276 0.07,-0.678 -0.287,-1.262 -0.719,-1.652 -0.432,-0.391 -0.956,-0.67 -1.461,-0.92 -0.505,-0.25 -0.996,-0.467 -1.317,-0.654 -0.07,-0.04 -0.08,-0.06 -0.134,-0.1 0.04,-0.03 0.05,-0.04 0.105,-0.06 0.328,-0.169 0.826,-0.37 1.336,-0.621 0.51,-0.251 1.041,-0.549 1.459,-1 0.419,-0.45 0.701,-1.122 0.567,-1.847 -0.06,-0.329 -0.235,-0.512 -0.405,-0.674 -0.169,-0.162 -0.364,-0.299 -0.578,-0.438 -0.428,-0.276 -0.943,-0.545 -1.447,-0.81 -0.504,-0.265 -0.996,-0.527 -1.336,-0.746 -0.135,-0.09 -0.22,-0.156 -0.291,-0.217 0.06,-0.06 0.143,-0.143 0.289,-0.238 0.349,-0.229 0.893,-0.484 1.453,-0.733 0.56,-0.249 1.135,-0.492 1.609,-0.759 0.237,-0.134 0.451,-0.271 0.639,-0.454 0.188,-0.182 0.392,-0.458 0.375,-0.836 -0.03,-0.65 -0.46,-1.149 -0.941,-1.478 -0.482,-0.329 -1.057,-0.555 -1.659,-0.752 -1.202,-0.394 -2.552,-0.683 -3.107,-0.938 a 0.63529627,0.63529627 0 0 0 -0.309,-0.06 z"
         style="color:#000000;font-style:normal;font-variant:normal;font-weight:normal;font-stretch:normal;font-size:medium;line-height:normal;font-family:sans-serif;font-variant-ligatures:normal;font-variant-position:normal;font-variant-caps:normal;font-variant-numeric:normal;font-variant-alternates:normal;font-feature-settings:normal;text-indent:0;text-align:start;text-decoration:none;text-decoration-line:none;text-decoration-style:solid;text-decoration-color:#000000;letter-spacing:normal;word-spacing:normal;text-transform:none;writing-mode:lr-tb;direction:ltr;text-orientation:mixed;dominant-baseline:auto;baseline-shift:baseline;text-anchor:start;white-space:normal;shape-padding:0;clip-rule:nonzero;display:inline;overflow:visible;visibility:visible;opacity:1;isolation:auto;mix-blend-mode:normal;color-interpolation:sRGB;color-interpolation-filters:linearRGB;solid-color:#000000;solid-opacity:1;vector-effect:none;fill:#ffffff;fill-opacity:1;fill-rule:nonzero;stroke:none;stroke-width:1.27046549;stroke-linecap:round;stroke-linejoin:miter;stroke-miterlimit:4;stroke-dasharray:none;stroke-dashoffset:0;stroke-opacity:1;color-rendering:auto;image-rendering:auto;shape-rendering:auto;text-rendering:auto;enable-background:accumulate" />
      <path
         id="path25885-8-7-3"
         d="m 27604.594,-16880.004 a 0.63529627,0.63529627 0 0 0 -0.201,1.233 c 0.924,0.35 1.83,0.483 2.416,0.693 0.293,0.105 0.492,0.222 0.601,0.336 0.09,0.09 0.117,0.222 0.143,0.387 -0.06,0.06 -0.167,0.134 -0.33,0.226 -0.372,0.21 -0.93,0.454 -1.5,0.707 -0.57,0.254 -1.153,0.516 -1.633,0.83 -0.24,0.157 -0.458,0.325 -0.639,0.549 -0.181,0.224 -0.332,0.542 -0.299,0.897 0.03,0.353 0.216,0.547 0.381,0.708 0.166,0.162 0.355,0.296 0.565,0.432 0.42,0.271 0.929,0.538 1.433,0.803 0.504,0.265 1.001,0.527 1.352,0.754 0.175,0.113 0.314,0.218 0.388,0.289 0.08,0.07 0.06,0.108 0.03,-0.02 0.06,0.333 -0.02,0.505 -0.246,0.752 -0.23,0.248 -0.637,0.502 -1.09,0.725 -0.453,0.222 -0.941,0.417 -1.36,0.633 -0.209,0.108 -0.404,0.219 -0.586,0.38 -0.181,0.162 -0.384,0.426 -0.384,0.782 a 0.63529627,0.63529627 0 0 0 1.254,0.152 c 0.05,-0.04 0.146,-0.107 0.298,-0.186 0.328,-0.169 0.828,-0.37 1.338,-0.621 0.511,-0.251 1.043,-0.549 1.461,-1 0.419,-0.45 0.699,-1.122 0.565,-1.847 -0.06,-0.329 -0.235,-0.513 -0.405,-0.674 -0.169,-0.162 -0.361,-0.299 -0.576,-0.438 -0.428,-0.276 -0.945,-0.545 -1.449,-0.81 -0.504,-0.265 -0.996,-0.527 -1.336,-0.746 -0.135,-0.09 -0.219,-0.156 -0.291,-0.217 0.06,-0.06 0.143,-0.143 0.289,-0.238 0.349,-0.229 0.894,-0.484 1.453,-0.733 0.56,-0.249 1.136,-0.492 1.61,-0.759 0.237,-0.134 0.45,-0.27 0.638,-0.454 0.188,-0.182 0.391,-0.458 0.373,-0.836 v 0 c -0.02,-0.518 -0.221,-0.986 -0.533,-1.311 -0.312,-0.325 -0.699,-0.511 -1.09,-0.65 -0.781,-0.28 -1.642,-0.401 -2.394,-0.686 a 0.63529627,0.63529627 0 0 0 -0.248,-0.05 z"
         style="color:#000000;font-style:normal;font-variant:normal;font-weight:normal;font-stretch:normal;font-size:medium;line-height:normal;font-family:sans-serif;font-variant-ligatures:normal;font-variant-position:normal;font-variant-caps:normal;font-variant-numeric:normal;font-variant-alternates:normal;font-feature-settings:normal;text-indent:0;text-align:start;text-decoration:none;text-decoration-line:none;text-decoration-style:solid;text-decoration-color:#000000;letter-spacing:normal;word-spacing:normal;text-transform:none;writing-mode:lr-tb;direction:ltr;text-orientation:mixed;dominant-baseline:auto;baseline-shift:baseline;text-anchor:start;white-space:normal;shape-padding:0;clip-rule:nonzero;display:inline;overflow:visible;visibility:visible;opacity:1;isolation:auto;mix-blend-mode:normal;color-interpolation:sRGB;color-interpolation-filters:linearRGB;solid-color:#000000;solid-opacity:1;vector-effect:none;fill:#ffffff;fill-opacity:1;fill-rule:nonzero;stroke:none;stroke-width:1.27046549;stroke-linecap:round;stroke-linejoin:miter;stroke-miterlimit:4;stroke-dasharray:none;stroke-dashoffset:0;stroke-opacity:1;color-rendering:auto;image-rendering:auto;shape-rendering:auto;text-rendering:auto;enable-background:accumulate" />
    </g>
  </g>
</svg>
