<?xml version="1.0" encoding="UTF-8" standalone="no"?>
<svg
   xmlns:dc="http://purl.org/dc/elements/1.1/"
   xmlns:cc="http://creativecommons.org/ns#"
   xmlns:rdf="http://www.w3.org/1999/02/22-rdf-syntax-ns#"
   xmlns:svg="http://www.w3.org/2000/svg"
   xmlns="http://www.w3.org/2000/svg"
   version="1.1"
   id="svg44089"
   viewBox="0 0 32 32.000001"
   height="32"
   width="32">
  <defs
     id="defs44091" />
  <metadata
     id="metadata44094">
    <rdf:RDF>
      <cc:Work
         rdf:about="">
        <dc:format>image/svg+xml</dc:format>
        <dc:type
           rdf:resource="http://purl.org/dc/dcmitype/StillImage" />
        <dc:title></dc:title>
      </cc:Work>
    </rdf:RDF>
  </metadata>
  <g
     id="g38550"
     transform="matrix(0.46276834,0,0,0.46276834,-7586.621,7754.58)">
    <path
       id="path38544"
       transform="translate(0,-8947.6377)"
       d="m 16428.586,-7800.2246 c -2.77,0 -5,2.23 -5,5 v 27.1055 0.088 a 10.074013,10.074013 0 0 0 -5.074,8.7324 10.074013,10.074013 0 0 0 10.074,10.0742 10.074013,10.074013 0 0 0 10.074,-10.0742 10.074013,10.074013 0 0 0 -5.074,-8.7383 v -0.2598 -26.9277 c 0,-2.77 -2.23,-5 -5,-5 z"
       style="color:#000000;clip-rule:nonzero;display:inline;overflow:visible;visibility:visible;opacity:1;isolation:auto;mix-blend-mode:normal;color-interpolation:sRGB;color-interpolation-filters:linearRGB;solid-color:#000000;solid-opacity:1;fill:none;fill-opacity:1;fill-rule:nonzero;stroke:#ffffff;stroke-width:1;stroke-linecap:round;stroke-linejoin:round;stroke-miterlimit:4;stroke-dasharray:none;stroke-dashoffset:0;stroke-opacity:1;color-rendering:auto;image-rendering:auto;shape-rendering:auto;text-rendering:auto;enable-background:accumulate" />
    <path
       id="path38546"
       d="m 16431.787,-16728.539 v 15.595 8.149 c 0,1.604 -1.428,2.896 -3.201,2.896 -1.773,0 -3.201,-1.292 -3.201,-2.896 v -8.045 -15.699 z"
       style="color:#000000;clip-rule:nonzero;display:inline;overflow:visible;visibility:visible;opacity:1;isolation:auto;mix-blend-mode:normal;color-interpolation:sRGB;color-interpolation-filters:linearRGB;solid-color:#000000;solid-opacity:1;fill:#ffffff;fill-opacity:1;fill-rule:nonzero;stroke:none;stroke-width:1;stroke-linecap:round;stroke-linejoin:round;stroke-miterlimit:4;stroke-dasharray:none;stroke-dashoffset:0;stroke-opacity:1;color-rendering:auto;image-rendering:auto;shape-rendering:auto;text-rendering:auto;enable-background:accumulate" />
    <path
       id="path38548"
       d="m 16436.707,-16706.936 a 8.1208855,8.1208855 0 0 1 -8.121,8.121 8.1208855,8.1208855 0 0 1 -8.121,-8.121 8.1208855,8.1208855 0 0 1 8.121,-8.122 8.1208855,8.1208855 0 0 1 8.121,8.122 z"
       style="opacity:1;fill:#ffffff;fill-opacity:1;stroke:none;stroke-width:1;stroke-linecap:round;stroke-linejoin:miter;stroke-miterlimit:4;stroke-dasharray:none;stroke-dashoffset:0;stroke-opacity:1;paint-order:fill markers stroke" />
  </g>
</svg>
