<?xml version="1.0" encoding="UTF-8" standalone="no"?>
<svg
   xmlns:dc="http://purl.org/dc/elements/1.1/"
   xmlns:cc="http://creativecommons.org/ns#"
   xmlns:rdf="http://www.w3.org/1999/02/22-rdf-syntax-ns#"
   xmlns:svg="http://www.w3.org/2000/svg"
   xmlns="http://www.w3.org/2000/svg"
   id="svg866"
   version="1.1"
   viewBox="0 0 6.3499999 6.3500002"
   height="24"
   width="24">
  <defs
     id="defs860" />
  <metadata
     id="metadata863">
    <rdf:RDF>
      <cc:Work
         rdf:about="">
        <dc:format>image/svg+xml</dc:format>
        <dc:type
           rdf:resource="http://purl.org/dc/dcmitype/StillImage" />
        <dc:title></dc:title>
      </cc:Work>
    </rdf:RDF>
  </metadata>
  <g
     transform="translate(0,-290.64998)"
     id="layer1">
    <g
       style="fill:#ffffff;stroke-width:25.50000381"
       id="g4-3-6"
       transform="matrix(0.01037582,0,0,0.01037582,4.2422931e-6,290.64997)">
      <path
         style="fill:#ffffff;stroke-width:25.50000381"
         id="path2-6-2"
         d="m 216.02,611.195 c 5.978,3.178 12.284,-3.704 8.624,-9.4 -19.866,-30.919 -38.678,-82.947 -8.706,-149.952 49.982,-111.737 80.396,-169.609 80.396,-169.609 0,0 16.177,67.536 60.029,127.585 42.205,57.793 65.306,130.478 28.064,191.029 -3.495,5.683 2.668,12.388 8.607,9.349 46.1,-23.582 97.806,-70.885 103.64,-165.017 2.151,-28.764 -1.075,-69.034 -17.206,-119.851 -20.741,-64.406 -46.239,-94.459 -60.992,-107.365 -4.413,-3.861 -11.276,-0.439 -10.914,5.413 4.299,69.494 -21.845,87.129 -36.726,47.386 -5.943,-15.874 -9.409,-43.33 -9.409,-76.766 0,-55.665 -16.15,-112.967 -51.755,-159.531 -9.259,-12.109 -20.093,-23.424 -32.523,-33.073 -4.5,-3.494 -11.023,0.018 -10.611,5.7 2.734,37.736 0.257,145.885 -94.624,275.089 -86.029,119.851 -52.693,211.896 -40.864,236.826 22.616,47.759 54.162,75.806 84.97,92.187 z" />
    </g>
  </g>
</svg>
