<?xml version="1.0" encoding="UTF-8" standalone="no"?>
<svg
   xmlns:dc="http://purl.org/dc/elements/1.1/"
   xmlns:cc="http://creativecommons.org/ns#"
   xmlns:rdf="http://www.w3.org/1999/02/22-rdf-syntax-ns#"
   xmlns:svg="http://www.w3.org/2000/svg"
   xmlns="http://www.w3.org/2000/svg"
   width="32"
   height="32"
   viewBox="0 0 32 32.000001"
   id="svg16389"
   version="1.1">
  <defs
     id="defs16391">
    <clipPath
       id="clipPath27913"
       clipPathUnits="userSpaceOnUse">
      <rect
         y="-16995.246"
         x="14447.59"
         height="28.019884"
         width="10.050467"
         id="rect27915"
         style="opacity:1;fill:#ff0000;fill-opacity:1;stroke:#ff0000;stroke-width:1;stroke-miterlimit:3.73333335;stroke-dasharray:none;stroke-opacity:1" />
    </clipPath>
  </defs>
  <metadata
     id="metadata16394">
    <rdf:RDF>
      <cc:Work
         rdf:about="">
        <dc:format>image/svg+xml</dc:format>
        <dc:type
           rdf:resource="http://purl.org/dc/dcmitype/StillImage" />
        <dc:title></dc:title>
      </cc:Work>
    </rdf:RDF>
  </metadata>
  <path
     style="color:#000000;clip-rule:nonzero;display:inline;overflow:visible;visibility:visible;opacity:1;isolation:auto;mix-blend-mode:normal;color-interpolation:sRGB;color-interpolation-filters:linearRGB;solid-color:#000000;solid-opacity:1;fill:#ffffff;fill-opacity:1;fill-rule:nonzero;stroke:none;stroke-width:1.28895485;stroke-linecap:butt;stroke-linejoin:miter;stroke-miterlimit:4;stroke-dasharray:none;stroke-dashoffset:0;stroke-opacity:1;color-rendering:auto;image-rendering:auto;shape-rendering:auto;text-rendering:auto;enable-background:accumulate"
     d="M 32,0.801 C 32,0.357 31.643,0 31.2,0 L 0.8,0 C 0.357,0 0,0.357 0,0.801 l 0,30.4 C 0,31.643 0.357,32 0.8,32 l 30.4,0 c 0.443,0 0.8,-0.357 0.8,-0.799 z m -2.08,1.44 0,3.36 c 0,0.443 -0.357,0.8 -0.8,0.8 l -3.52,0 c -0.443,0 -0.8,-0.357 -0.8,-0.8 l 0,-3.36 c 0,-0.445 0.357,-0.8 0.8,-0.8 l 3.52,0 c 0.443,0 0.8,0.355 0.8,0.8 z m 0,6.079 0,15.361 c 0,0.442 -0.357,0.798 -0.8,0.798 l -26.24,0 c -0.443,0 -0.8,-0.356 -0.8,-0.798 l 0,-15.361 c 0,-0.442 0.357,-0.8 0.8,-0.8 l 26.24,0 c 0.443,0 0.8,0.358 0.8,0.8 z m 0,18.24 0,3.36 c 0,0.443 -0.357,0.801 -0.8,0.801 l -3.52,0 c -0.443,0 -0.8,-0.358 -0.8,-0.801 l 0,-3.36 c 0,-0.443 0.357,-0.8 0.8,-0.8 l 3.52,0 c 0.443,0 0.8,0.357 0.8,0.8 z m -7.573,-24.319 0,3.36 c 0,0.443 -0.357,0.8 -0.8,0.8 l -3.52,0 c -0.444,0 -0.8,-0.357 -0.8,-0.8 l 0,-3.36 c 0,-0.445 0.356,-0.8 0.8,-0.8 l 3.52,0 c 0.443,0 0.8,0.355 0.8,0.8 z m 0,24.319 0,3.36 c 0,0.443 -0.357,0.801 -0.8,0.801 l -3.52,0 c -0.444,0 -0.8,-0.358 -0.8,-0.801 l 0,-3.36 c 0,-0.443 0.356,-0.8 0.8,-0.8 l 3.52,0 c 0.443,0 0.8,0.357 0.8,0.8 z m -7.573,-24.319 0,3.36 c 0,0.443 -0.357,0.8 -0.801,0.8 l -3.52,0 c -0.443,0 -0.8,-0.357 -0.8,-0.8 l 0,-3.36 c 0,-0.445 0.357,-0.8 0.8,-0.8 l 3.52,0 c 0.444,0 0.801,0.355 0.801,0.8 z m 0,24.319 0,3.36 c 0,0.443 -0.357,0.801 -0.801,0.801 l -3.52,0 c -0.443,0 -0.8,-0.358 -0.8,-0.801 l 0,-3.36 c 0,-0.443 0.357,-0.8 0.8,-0.8 l 3.52,0 c 0.444,0 0.801,0.357 0.801,0.8 z M 7.2,2.241 l 0,3.36 c 0,0.443 -0.356,0.8 -0.8,0.8 l -3.52,0 c -0.443,0 -0.8,-0.357 -0.8,-0.8 l 0,-3.36 c 0,-0.445 0.357,-0.8 0.8,-0.8 l 3.52,0 c 0.444,0 0.8,0.355 0.8,0.8 z m 0,24.319 0,3.36 c 0,0.443 -0.356,0.801 -0.8,0.801 l -3.52,0 c -0.443,0 -0.8,-0.358 -0.8,-0.801 l 0,-3.36 c 0,-0.443 0.357,-0.8 0.8,-0.8 l 3.52,0 c 0.444,0 0.8,0.357 0.8,0.8 z"
     id="path22179-5" />
</svg>
